%TF.GenerationSoftware,KiCad,Pcbnew,8.0.8*%
%TF.CreationDate,2025-02-06T21:03:55-05:00*%
%TF.ProjectId,Chessboard Hardware,43686573-7362-46f6-9172-642048617264,1*%
%TF.SameCoordinates,Original*%
%TF.FileFunction,Drillmap*%
%TF.FilePolarity,Positive*%
%FSLAX45Y45*%
G04 Gerber Fmt 4.5, Leading zero omitted, Abs format (unit mm)*
G04 Created by KiCad (PCBNEW 8.0.8) date 2025-02-06 21:03:55*
%MOMM*%
%LPD*%
G01*
G04 APERTURE LIST*
%ADD10C,0.038100*%
%ADD11C,0.200000*%
%ADD12C,0.270000*%
G04 APERTURE END LIST*
D10*
X5000000Y-5000000D02*
X25000000Y-5000000D01*
X25000000Y-25000000D01*
X5000000Y-25000000D01*
X5000000Y-5000000D01*
D11*
D12*
X5265000Y-5265000D02*
X5535000Y-5535000D01*
X5535000Y-5265000D02*
X5265000Y-5535000D01*
X5265000Y-24465000D02*
X5535000Y-24735000D01*
X5535000Y-24465000D02*
X5265000Y-24735000D01*
X24465000Y-5265000D02*
X24735000Y-5535000D01*
X24735000Y-5265000D02*
X24465000Y-5535000D01*
X24465000Y-24465000D02*
X24735000Y-24735000D01*
X24735000Y-24465000D02*
X24465000Y-24735000D01*
D11*
X5258872Y-25313389D02*
X5258872Y-25113389D01*
X5258872Y-25113389D02*
X5306491Y-25113389D01*
X5306491Y-25113389D02*
X5335062Y-25122913D01*
X5335062Y-25122913D02*
X5354110Y-25141960D01*
X5354110Y-25141960D02*
X5363634Y-25161008D01*
X5363634Y-25161008D02*
X5373158Y-25199103D01*
X5373158Y-25199103D02*
X5373158Y-25227674D01*
X5373158Y-25227674D02*
X5363634Y-25265770D01*
X5363634Y-25265770D02*
X5354110Y-25284817D01*
X5354110Y-25284817D02*
X5335062Y-25303865D01*
X5335062Y-25303865D02*
X5306491Y-25313389D01*
X5306491Y-25313389D02*
X5258872Y-25313389D01*
X5458872Y-25313389D02*
X5458872Y-25180055D01*
X5458872Y-25218151D02*
X5468396Y-25199103D01*
X5468396Y-25199103D02*
X5477919Y-25189579D01*
X5477919Y-25189579D02*
X5496967Y-25180055D01*
X5496967Y-25180055D02*
X5516015Y-25180055D01*
X5582681Y-25313389D02*
X5582681Y-25180055D01*
X5582681Y-25113389D02*
X5573158Y-25122913D01*
X5573158Y-25122913D02*
X5582681Y-25132436D01*
X5582681Y-25132436D02*
X5592205Y-25122913D01*
X5592205Y-25122913D02*
X5582681Y-25113389D01*
X5582681Y-25113389D02*
X5582681Y-25132436D01*
X5706491Y-25313389D02*
X5687443Y-25303865D01*
X5687443Y-25303865D02*
X5677919Y-25284817D01*
X5677919Y-25284817D02*
X5677919Y-25113389D01*
X5811253Y-25313389D02*
X5792205Y-25303865D01*
X5792205Y-25303865D02*
X5782681Y-25284817D01*
X5782681Y-25284817D02*
X5782681Y-25113389D01*
X6039824Y-25313389D02*
X6039824Y-25113389D01*
X6039824Y-25113389D02*
X6106491Y-25256246D01*
X6106491Y-25256246D02*
X6173157Y-25113389D01*
X6173157Y-25113389D02*
X6173157Y-25313389D01*
X6354110Y-25313389D02*
X6354110Y-25208627D01*
X6354110Y-25208627D02*
X6344586Y-25189579D01*
X6344586Y-25189579D02*
X6325538Y-25180055D01*
X6325538Y-25180055D02*
X6287443Y-25180055D01*
X6287443Y-25180055D02*
X6268396Y-25189579D01*
X6354110Y-25303865D02*
X6335062Y-25313389D01*
X6335062Y-25313389D02*
X6287443Y-25313389D01*
X6287443Y-25313389D02*
X6268396Y-25303865D01*
X6268396Y-25303865D02*
X6258872Y-25284817D01*
X6258872Y-25284817D02*
X6258872Y-25265770D01*
X6258872Y-25265770D02*
X6268396Y-25246722D01*
X6268396Y-25246722D02*
X6287443Y-25237198D01*
X6287443Y-25237198D02*
X6335062Y-25237198D01*
X6335062Y-25237198D02*
X6354110Y-25227674D01*
X6449348Y-25180055D02*
X6449348Y-25380055D01*
X6449348Y-25189579D02*
X6468396Y-25180055D01*
X6468396Y-25180055D02*
X6506491Y-25180055D01*
X6506491Y-25180055D02*
X6525538Y-25189579D01*
X6525538Y-25189579D02*
X6535062Y-25199103D01*
X6535062Y-25199103D02*
X6544586Y-25218151D01*
X6544586Y-25218151D02*
X6544586Y-25275293D01*
X6544586Y-25275293D02*
X6535062Y-25294341D01*
X6535062Y-25294341D02*
X6525538Y-25303865D01*
X6525538Y-25303865D02*
X6506491Y-25313389D01*
X6506491Y-25313389D02*
X6468396Y-25313389D01*
X6468396Y-25313389D02*
X6449348Y-25303865D01*
X6630300Y-25294341D02*
X6639824Y-25303865D01*
X6639824Y-25303865D02*
X6630300Y-25313389D01*
X6630300Y-25313389D02*
X6620777Y-25303865D01*
X6620777Y-25303865D02*
X6630300Y-25294341D01*
X6630300Y-25294341D02*
X6630300Y-25313389D01*
X6630300Y-25189579D02*
X6639824Y-25199103D01*
X6639824Y-25199103D02*
X6630300Y-25208627D01*
X6630300Y-25208627D02*
X6620777Y-25199103D01*
X6620777Y-25199103D02*
X6630300Y-25189579D01*
X6630300Y-25189579D02*
X6630300Y-25208627D01*
X4798095Y-25541905D02*
X4998095Y-25741905D01*
X4998095Y-25541905D02*
X4798095Y-25741905D01*
X5249348Y-25552436D02*
X5258872Y-25542913D01*
X5258872Y-25542913D02*
X5277919Y-25533389D01*
X5277919Y-25533389D02*
X5325539Y-25533389D01*
X5325539Y-25533389D02*
X5344586Y-25542913D01*
X5344586Y-25542913D02*
X5354110Y-25552436D01*
X5354110Y-25552436D02*
X5363634Y-25571484D01*
X5363634Y-25571484D02*
X5363634Y-25590532D01*
X5363634Y-25590532D02*
X5354110Y-25619103D01*
X5354110Y-25619103D02*
X5239824Y-25733389D01*
X5239824Y-25733389D02*
X5363634Y-25733389D01*
X5449348Y-25714341D02*
X5458872Y-25723865D01*
X5458872Y-25723865D02*
X5449348Y-25733389D01*
X5449348Y-25733389D02*
X5439824Y-25723865D01*
X5439824Y-25723865D02*
X5449348Y-25714341D01*
X5449348Y-25714341D02*
X5449348Y-25733389D01*
X5525539Y-25533389D02*
X5658872Y-25533389D01*
X5658872Y-25533389D02*
X5573158Y-25733389D01*
X5773157Y-25533389D02*
X5792205Y-25533389D01*
X5792205Y-25533389D02*
X5811253Y-25542913D01*
X5811253Y-25542913D02*
X5820777Y-25552436D01*
X5820777Y-25552436D02*
X5830300Y-25571484D01*
X5830300Y-25571484D02*
X5839824Y-25609579D01*
X5839824Y-25609579D02*
X5839824Y-25657198D01*
X5839824Y-25657198D02*
X5830300Y-25695293D01*
X5830300Y-25695293D02*
X5820777Y-25714341D01*
X5820777Y-25714341D02*
X5811253Y-25723865D01*
X5811253Y-25723865D02*
X5792205Y-25733389D01*
X5792205Y-25733389D02*
X5773157Y-25733389D01*
X5773157Y-25733389D02*
X5754110Y-25723865D01*
X5754110Y-25723865D02*
X5744586Y-25714341D01*
X5744586Y-25714341D02*
X5735062Y-25695293D01*
X5735062Y-25695293D02*
X5725538Y-25657198D01*
X5725538Y-25657198D02*
X5725538Y-25609579D01*
X5725538Y-25609579D02*
X5735062Y-25571484D01*
X5735062Y-25571484D02*
X5744586Y-25552436D01*
X5744586Y-25552436D02*
X5754110Y-25542913D01*
X5754110Y-25542913D02*
X5773157Y-25533389D01*
X5963634Y-25533389D02*
X5982681Y-25533389D01*
X5982681Y-25533389D02*
X6001729Y-25542913D01*
X6001729Y-25542913D02*
X6011253Y-25552436D01*
X6011253Y-25552436D02*
X6020777Y-25571484D01*
X6020777Y-25571484D02*
X6030300Y-25609579D01*
X6030300Y-25609579D02*
X6030300Y-25657198D01*
X6030300Y-25657198D02*
X6020777Y-25695293D01*
X6020777Y-25695293D02*
X6011253Y-25714341D01*
X6011253Y-25714341D02*
X6001729Y-25723865D01*
X6001729Y-25723865D02*
X5982681Y-25733389D01*
X5982681Y-25733389D02*
X5963634Y-25733389D01*
X5963634Y-25733389D02*
X5944586Y-25723865D01*
X5944586Y-25723865D02*
X5935062Y-25714341D01*
X5935062Y-25714341D02*
X5925538Y-25695293D01*
X5925538Y-25695293D02*
X5916015Y-25657198D01*
X5916015Y-25657198D02*
X5916015Y-25609579D01*
X5916015Y-25609579D02*
X5925538Y-25571484D01*
X5925538Y-25571484D02*
X5935062Y-25552436D01*
X5935062Y-25552436D02*
X5944586Y-25542913D01*
X5944586Y-25542913D02*
X5963634Y-25533389D01*
X6116015Y-25733389D02*
X6116015Y-25600055D01*
X6116015Y-25619103D02*
X6125538Y-25609579D01*
X6125538Y-25609579D02*
X6144586Y-25600055D01*
X6144586Y-25600055D02*
X6173158Y-25600055D01*
X6173158Y-25600055D02*
X6192205Y-25609579D01*
X6192205Y-25609579D02*
X6201729Y-25628627D01*
X6201729Y-25628627D02*
X6201729Y-25733389D01*
X6201729Y-25628627D02*
X6211253Y-25609579D01*
X6211253Y-25609579D02*
X6230300Y-25600055D01*
X6230300Y-25600055D02*
X6258872Y-25600055D01*
X6258872Y-25600055D02*
X6277919Y-25609579D01*
X6277919Y-25609579D02*
X6287443Y-25628627D01*
X6287443Y-25628627D02*
X6287443Y-25733389D01*
X6382681Y-25733389D02*
X6382681Y-25600055D01*
X6382681Y-25619103D02*
X6392205Y-25609579D01*
X6392205Y-25609579D02*
X6411253Y-25600055D01*
X6411253Y-25600055D02*
X6439824Y-25600055D01*
X6439824Y-25600055D02*
X6458872Y-25609579D01*
X6458872Y-25609579D02*
X6468396Y-25628627D01*
X6468396Y-25628627D02*
X6468396Y-25733389D01*
X6468396Y-25628627D02*
X6477919Y-25609579D01*
X6477919Y-25609579D02*
X6496967Y-25600055D01*
X6496967Y-25600055D02*
X6525538Y-25600055D01*
X6525538Y-25600055D02*
X6544586Y-25609579D01*
X6544586Y-25609579D02*
X6554110Y-25628627D01*
X6554110Y-25628627D02*
X6554110Y-25733389D01*
X6944586Y-25523865D02*
X6773158Y-25781008D01*
X7201729Y-25533389D02*
X7220777Y-25533389D01*
X7220777Y-25533389D02*
X7239824Y-25542913D01*
X7239824Y-25542913D02*
X7249348Y-25552436D01*
X7249348Y-25552436D02*
X7258872Y-25571484D01*
X7258872Y-25571484D02*
X7268396Y-25609579D01*
X7268396Y-25609579D02*
X7268396Y-25657198D01*
X7268396Y-25657198D02*
X7258872Y-25695293D01*
X7258872Y-25695293D02*
X7249348Y-25714341D01*
X7249348Y-25714341D02*
X7239824Y-25723865D01*
X7239824Y-25723865D02*
X7220777Y-25733389D01*
X7220777Y-25733389D02*
X7201729Y-25733389D01*
X7201729Y-25733389D02*
X7182681Y-25723865D01*
X7182681Y-25723865D02*
X7173158Y-25714341D01*
X7173158Y-25714341D02*
X7163634Y-25695293D01*
X7163634Y-25695293D02*
X7154110Y-25657198D01*
X7154110Y-25657198D02*
X7154110Y-25609579D01*
X7154110Y-25609579D02*
X7163634Y-25571484D01*
X7163634Y-25571484D02*
X7173158Y-25552436D01*
X7173158Y-25552436D02*
X7182681Y-25542913D01*
X7182681Y-25542913D02*
X7201729Y-25533389D01*
X7354110Y-25714341D02*
X7363634Y-25723865D01*
X7363634Y-25723865D02*
X7354110Y-25733389D01*
X7354110Y-25733389D02*
X7344586Y-25723865D01*
X7344586Y-25723865D02*
X7354110Y-25714341D01*
X7354110Y-25714341D02*
X7354110Y-25733389D01*
X7554110Y-25733389D02*
X7439824Y-25733389D01*
X7496967Y-25733389D02*
X7496967Y-25533389D01*
X7496967Y-25533389D02*
X7477920Y-25561960D01*
X7477920Y-25561960D02*
X7458872Y-25581008D01*
X7458872Y-25581008D02*
X7439824Y-25590532D01*
X7677920Y-25533389D02*
X7696967Y-25533389D01*
X7696967Y-25533389D02*
X7716015Y-25542913D01*
X7716015Y-25542913D02*
X7725539Y-25552436D01*
X7725539Y-25552436D02*
X7735062Y-25571484D01*
X7735062Y-25571484D02*
X7744586Y-25609579D01*
X7744586Y-25609579D02*
X7744586Y-25657198D01*
X7744586Y-25657198D02*
X7735062Y-25695293D01*
X7735062Y-25695293D02*
X7725539Y-25714341D01*
X7725539Y-25714341D02*
X7716015Y-25723865D01*
X7716015Y-25723865D02*
X7696967Y-25733389D01*
X7696967Y-25733389D02*
X7677920Y-25733389D01*
X7677920Y-25733389D02*
X7658872Y-25723865D01*
X7658872Y-25723865D02*
X7649348Y-25714341D01*
X7649348Y-25714341D02*
X7639824Y-25695293D01*
X7639824Y-25695293D02*
X7630301Y-25657198D01*
X7630301Y-25657198D02*
X7630301Y-25609579D01*
X7630301Y-25609579D02*
X7639824Y-25571484D01*
X7639824Y-25571484D02*
X7649348Y-25552436D01*
X7649348Y-25552436D02*
X7658872Y-25542913D01*
X7658872Y-25542913D02*
X7677920Y-25533389D01*
X7916015Y-25533389D02*
X7877920Y-25533389D01*
X7877920Y-25533389D02*
X7858872Y-25542913D01*
X7858872Y-25542913D02*
X7849348Y-25552436D01*
X7849348Y-25552436D02*
X7830301Y-25581008D01*
X7830301Y-25581008D02*
X7820777Y-25619103D01*
X7820777Y-25619103D02*
X7820777Y-25695293D01*
X7820777Y-25695293D02*
X7830301Y-25714341D01*
X7830301Y-25714341D02*
X7839824Y-25723865D01*
X7839824Y-25723865D02*
X7858872Y-25733389D01*
X7858872Y-25733389D02*
X7896967Y-25733389D01*
X7896967Y-25733389D02*
X7916015Y-25723865D01*
X7916015Y-25723865D02*
X7925539Y-25714341D01*
X7925539Y-25714341D02*
X7935062Y-25695293D01*
X7935062Y-25695293D02*
X7935062Y-25647674D01*
X7935062Y-25647674D02*
X7925539Y-25628627D01*
X7925539Y-25628627D02*
X7916015Y-25619103D01*
X7916015Y-25619103D02*
X7896967Y-25609579D01*
X7896967Y-25609579D02*
X7858872Y-25609579D01*
X7858872Y-25609579D02*
X7839824Y-25619103D01*
X7839824Y-25619103D02*
X7830301Y-25628627D01*
X7830301Y-25628627D02*
X7820777Y-25647674D01*
X8001729Y-25533389D02*
X8125539Y-25533389D01*
X8125539Y-25533389D02*
X8058872Y-25609579D01*
X8058872Y-25609579D02*
X8087443Y-25609579D01*
X8087443Y-25609579D02*
X8106491Y-25619103D01*
X8106491Y-25619103D02*
X8116015Y-25628627D01*
X8116015Y-25628627D02*
X8125539Y-25647674D01*
X8125539Y-25647674D02*
X8125539Y-25695293D01*
X8125539Y-25695293D02*
X8116015Y-25714341D01*
X8116015Y-25714341D02*
X8106491Y-25723865D01*
X8106491Y-25723865D02*
X8087443Y-25733389D01*
X8087443Y-25733389D02*
X8030301Y-25733389D01*
X8030301Y-25733389D02*
X8011253Y-25723865D01*
X8011253Y-25723865D02*
X8001729Y-25714341D01*
X8201729Y-25533389D02*
X8201729Y-25571484D01*
X8277920Y-25533389D02*
X8277920Y-25571484D01*
X8573158Y-25809579D02*
X8563634Y-25800055D01*
X8563634Y-25800055D02*
X8544586Y-25771484D01*
X8544586Y-25771484D02*
X8535063Y-25752436D01*
X8535063Y-25752436D02*
X8525539Y-25723865D01*
X8525539Y-25723865D02*
X8516015Y-25676246D01*
X8516015Y-25676246D02*
X8516015Y-25638151D01*
X8516015Y-25638151D02*
X8525539Y-25590532D01*
X8525539Y-25590532D02*
X8535063Y-25561960D01*
X8535063Y-25561960D02*
X8544586Y-25542913D01*
X8544586Y-25542913D02*
X8563634Y-25514341D01*
X8563634Y-25514341D02*
X8573158Y-25504817D01*
X8735063Y-25600055D02*
X8735063Y-25733389D01*
X8687444Y-25523865D02*
X8639825Y-25666722D01*
X8639825Y-25666722D02*
X8763634Y-25666722D01*
X8992206Y-25733389D02*
X8992206Y-25533389D01*
X9077920Y-25733389D02*
X9077920Y-25628627D01*
X9077920Y-25628627D02*
X9068396Y-25609579D01*
X9068396Y-25609579D02*
X9049348Y-25600055D01*
X9049348Y-25600055D02*
X9020777Y-25600055D01*
X9020777Y-25600055D02*
X9001729Y-25609579D01*
X9001729Y-25609579D02*
X8992206Y-25619103D01*
X9201729Y-25733389D02*
X9182682Y-25723865D01*
X9182682Y-25723865D02*
X9173158Y-25714341D01*
X9173158Y-25714341D02*
X9163634Y-25695293D01*
X9163634Y-25695293D02*
X9163634Y-25638151D01*
X9163634Y-25638151D02*
X9173158Y-25619103D01*
X9173158Y-25619103D02*
X9182682Y-25609579D01*
X9182682Y-25609579D02*
X9201729Y-25600055D01*
X9201729Y-25600055D02*
X9230301Y-25600055D01*
X9230301Y-25600055D02*
X9249348Y-25609579D01*
X9249348Y-25609579D02*
X9258872Y-25619103D01*
X9258872Y-25619103D02*
X9268396Y-25638151D01*
X9268396Y-25638151D02*
X9268396Y-25695293D01*
X9268396Y-25695293D02*
X9258872Y-25714341D01*
X9258872Y-25714341D02*
X9249348Y-25723865D01*
X9249348Y-25723865D02*
X9230301Y-25733389D01*
X9230301Y-25733389D02*
X9201729Y-25733389D01*
X9382682Y-25733389D02*
X9363634Y-25723865D01*
X9363634Y-25723865D02*
X9354110Y-25704817D01*
X9354110Y-25704817D02*
X9354110Y-25533389D01*
X9535063Y-25723865D02*
X9516015Y-25733389D01*
X9516015Y-25733389D02*
X9477920Y-25733389D01*
X9477920Y-25733389D02*
X9458872Y-25723865D01*
X9458872Y-25723865D02*
X9449348Y-25704817D01*
X9449348Y-25704817D02*
X9449348Y-25628627D01*
X9449348Y-25628627D02*
X9458872Y-25609579D01*
X9458872Y-25609579D02*
X9477920Y-25600055D01*
X9477920Y-25600055D02*
X9516015Y-25600055D01*
X9516015Y-25600055D02*
X9535063Y-25609579D01*
X9535063Y-25609579D02*
X9544587Y-25628627D01*
X9544587Y-25628627D02*
X9544587Y-25647674D01*
X9544587Y-25647674D02*
X9449348Y-25666722D01*
X9620777Y-25723865D02*
X9639825Y-25733389D01*
X9639825Y-25733389D02*
X9677920Y-25733389D01*
X9677920Y-25733389D02*
X9696968Y-25723865D01*
X9696968Y-25723865D02*
X9706491Y-25704817D01*
X9706491Y-25704817D02*
X9706491Y-25695293D01*
X9706491Y-25695293D02*
X9696968Y-25676246D01*
X9696968Y-25676246D02*
X9677920Y-25666722D01*
X9677920Y-25666722D02*
X9649348Y-25666722D01*
X9649348Y-25666722D02*
X9630301Y-25657198D01*
X9630301Y-25657198D02*
X9620777Y-25638151D01*
X9620777Y-25638151D02*
X9620777Y-25628627D01*
X9620777Y-25628627D02*
X9630301Y-25609579D01*
X9630301Y-25609579D02*
X9649348Y-25600055D01*
X9649348Y-25600055D02*
X9677920Y-25600055D01*
X9677920Y-25600055D02*
X9696968Y-25609579D01*
X9773158Y-25809579D02*
X9782682Y-25800055D01*
X9782682Y-25800055D02*
X9801729Y-25771484D01*
X9801729Y-25771484D02*
X9811253Y-25752436D01*
X9811253Y-25752436D02*
X9820777Y-25723865D01*
X9820777Y-25723865D02*
X9830301Y-25676246D01*
X9830301Y-25676246D02*
X9830301Y-25638151D01*
X9830301Y-25638151D02*
X9820777Y-25590532D01*
X9820777Y-25590532D02*
X9811253Y-25561960D01*
X9811253Y-25561960D02*
X9801729Y-25542913D01*
X9801729Y-25542913D02*
X9782682Y-25514341D01*
X9782682Y-25514341D02*
X9773158Y-25504817D01*
X10135063Y-25809579D02*
X10125539Y-25800055D01*
X10125539Y-25800055D02*
X10106491Y-25771484D01*
X10106491Y-25771484D02*
X10096968Y-25752436D01*
X10096968Y-25752436D02*
X10087444Y-25723865D01*
X10087444Y-25723865D02*
X10077920Y-25676246D01*
X10077920Y-25676246D02*
X10077920Y-25638151D01*
X10077920Y-25638151D02*
X10087444Y-25590532D01*
X10087444Y-25590532D02*
X10096968Y-25561960D01*
X10096968Y-25561960D02*
X10106491Y-25542913D01*
X10106491Y-25542913D02*
X10125539Y-25514341D01*
X10125539Y-25514341D02*
X10135063Y-25504817D01*
X10211253Y-25600055D02*
X10211253Y-25733389D01*
X10211253Y-25619103D02*
X10220777Y-25609579D01*
X10220777Y-25609579D02*
X10239825Y-25600055D01*
X10239825Y-25600055D02*
X10268396Y-25600055D01*
X10268396Y-25600055D02*
X10287444Y-25609579D01*
X10287444Y-25609579D02*
X10296968Y-25628627D01*
X10296968Y-25628627D02*
X10296968Y-25733389D01*
X10420777Y-25733389D02*
X10401729Y-25723865D01*
X10401729Y-25723865D02*
X10392206Y-25714341D01*
X10392206Y-25714341D02*
X10382682Y-25695293D01*
X10382682Y-25695293D02*
X10382682Y-25638151D01*
X10382682Y-25638151D02*
X10392206Y-25619103D01*
X10392206Y-25619103D02*
X10401729Y-25609579D01*
X10401729Y-25609579D02*
X10420777Y-25600055D01*
X10420777Y-25600055D02*
X10449349Y-25600055D01*
X10449349Y-25600055D02*
X10468396Y-25609579D01*
X10468396Y-25609579D02*
X10477920Y-25619103D01*
X10477920Y-25619103D02*
X10487444Y-25638151D01*
X10487444Y-25638151D02*
X10487444Y-25695293D01*
X10487444Y-25695293D02*
X10477920Y-25714341D01*
X10477920Y-25714341D02*
X10468396Y-25723865D01*
X10468396Y-25723865D02*
X10449349Y-25733389D01*
X10449349Y-25733389D02*
X10420777Y-25733389D01*
X10544587Y-25600055D02*
X10620777Y-25600055D01*
X10573158Y-25533389D02*
X10573158Y-25704817D01*
X10573158Y-25704817D02*
X10582682Y-25723865D01*
X10582682Y-25723865D02*
X10601729Y-25733389D01*
X10601729Y-25733389D02*
X10620777Y-25733389D01*
X10839825Y-25600055D02*
X10839825Y-25800055D01*
X10839825Y-25609579D02*
X10858872Y-25600055D01*
X10858872Y-25600055D02*
X10896968Y-25600055D01*
X10896968Y-25600055D02*
X10916015Y-25609579D01*
X10916015Y-25609579D02*
X10925539Y-25619103D01*
X10925539Y-25619103D02*
X10935063Y-25638151D01*
X10935063Y-25638151D02*
X10935063Y-25695293D01*
X10935063Y-25695293D02*
X10925539Y-25714341D01*
X10925539Y-25714341D02*
X10916015Y-25723865D01*
X10916015Y-25723865D02*
X10896968Y-25733389D01*
X10896968Y-25733389D02*
X10858872Y-25733389D01*
X10858872Y-25733389D02*
X10839825Y-25723865D01*
X11049349Y-25733389D02*
X11030301Y-25723865D01*
X11030301Y-25723865D02*
X11020777Y-25704817D01*
X11020777Y-25704817D02*
X11020777Y-25533389D01*
X11211253Y-25733389D02*
X11211253Y-25628627D01*
X11211253Y-25628627D02*
X11201729Y-25609579D01*
X11201729Y-25609579D02*
X11182682Y-25600055D01*
X11182682Y-25600055D02*
X11144587Y-25600055D01*
X11144587Y-25600055D02*
X11125539Y-25609579D01*
X11211253Y-25723865D02*
X11192206Y-25733389D01*
X11192206Y-25733389D02*
X11144587Y-25733389D01*
X11144587Y-25733389D02*
X11125539Y-25723865D01*
X11125539Y-25723865D02*
X11116015Y-25704817D01*
X11116015Y-25704817D02*
X11116015Y-25685770D01*
X11116015Y-25685770D02*
X11125539Y-25666722D01*
X11125539Y-25666722D02*
X11144587Y-25657198D01*
X11144587Y-25657198D02*
X11192206Y-25657198D01*
X11192206Y-25657198D02*
X11211253Y-25647674D01*
X11277920Y-25600055D02*
X11354110Y-25600055D01*
X11306491Y-25533389D02*
X11306491Y-25704817D01*
X11306491Y-25704817D02*
X11316015Y-25723865D01*
X11316015Y-25723865D02*
X11335063Y-25733389D01*
X11335063Y-25733389D02*
X11354110Y-25733389D01*
X11496968Y-25723865D02*
X11477920Y-25733389D01*
X11477920Y-25733389D02*
X11439825Y-25733389D01*
X11439825Y-25733389D02*
X11420777Y-25723865D01*
X11420777Y-25723865D02*
X11411253Y-25704817D01*
X11411253Y-25704817D02*
X11411253Y-25628627D01*
X11411253Y-25628627D02*
X11420777Y-25609579D01*
X11420777Y-25609579D02*
X11439825Y-25600055D01*
X11439825Y-25600055D02*
X11477920Y-25600055D01*
X11477920Y-25600055D02*
X11496968Y-25609579D01*
X11496968Y-25609579D02*
X11506491Y-25628627D01*
X11506491Y-25628627D02*
X11506491Y-25647674D01*
X11506491Y-25647674D02*
X11411253Y-25666722D01*
X11677920Y-25733389D02*
X11677920Y-25533389D01*
X11677920Y-25723865D02*
X11658872Y-25733389D01*
X11658872Y-25733389D02*
X11620777Y-25733389D01*
X11620777Y-25733389D02*
X11601729Y-25723865D01*
X11601729Y-25723865D02*
X11592206Y-25714341D01*
X11592206Y-25714341D02*
X11582682Y-25695293D01*
X11582682Y-25695293D02*
X11582682Y-25638151D01*
X11582682Y-25638151D02*
X11592206Y-25619103D01*
X11592206Y-25619103D02*
X11601729Y-25609579D01*
X11601729Y-25609579D02*
X11620777Y-25600055D01*
X11620777Y-25600055D02*
X11658872Y-25600055D01*
X11658872Y-25600055D02*
X11677920Y-25609579D01*
X11754110Y-25809579D02*
X11763634Y-25800055D01*
X11763634Y-25800055D02*
X11782682Y-25771484D01*
X11782682Y-25771484D02*
X11792206Y-25752436D01*
X11792206Y-25752436D02*
X11801729Y-25723865D01*
X11801729Y-25723865D02*
X11811253Y-25676246D01*
X11811253Y-25676246D02*
X11811253Y-25638151D01*
X11811253Y-25638151D02*
X11801729Y-25590532D01*
X11801729Y-25590532D02*
X11792206Y-25561960D01*
X11792206Y-25561960D02*
X11782682Y-25542913D01*
X11782682Y-25542913D02*
X11763634Y-25514341D01*
X11763634Y-25514341D02*
X11754110Y-25504817D01*
M02*
