G04 #@! TF.GenerationSoftware,KiCad,Pcbnew,8.0.8*
G04 #@! TF.CreationDate,2025-02-02T20:06:00-05:00*
G04 #@! TF.ProjectId,Chessboard Hardware,43686573-7362-46f6-9172-642048617264,1*
G04 #@! TF.SameCoordinates,Original*
G04 #@! TF.FileFunction,Copper,L2,Bot*
G04 #@! TF.FilePolarity,Positive*
%FSLAX46Y46*%
G04 Gerber Fmt 4.6, Leading zero omitted, Abs format (unit mm)*
G04 Created by KiCad (PCBNEW 8.0.8) date 2025-02-02 20:06:00*
%MOMM*%
%LPD*%
G01*
G04 APERTURE LIST*
G04 #@! TA.AperFunction,ComponentPad*
%ADD10R,1.600000X1.600000*%
G04 #@! TD*
G04 #@! TA.AperFunction,ComponentPad*
%ADD11O,1.600000X1.600000*%
G04 #@! TD*
G04 #@! TA.AperFunction,ComponentPad*
%ADD12R,1.700000X1.700000*%
G04 #@! TD*
G04 #@! TA.AperFunction,ComponentPad*
%ADD13O,1.700000X1.700000*%
G04 #@! TD*
G04 #@! TA.AperFunction,ComponentPad*
%ADD14C,1.600000*%
G04 #@! TD*
G04 #@! TA.AperFunction,ComponentPad*
%ADD15R,1.080000X1.080000*%
G04 #@! TD*
G04 #@! TA.AperFunction,ComponentPad*
%ADD16C,1.080000*%
G04 #@! TD*
G04 #@! TA.AperFunction,ComponentPad*
%ADD17R,2.000000X2.000000*%
G04 #@! TD*
G04 #@! TA.AperFunction,SMDPad,CuDef*
%ADD18R,1.950000X0.650000*%
G04 #@! TD*
G04 #@! TA.AperFunction,ViaPad*
%ADD19C,0.889000*%
G04 #@! TD*
G04 #@! TA.AperFunction,Conductor*
%ADD20C,0.508000*%
G04 #@! TD*
G04 #@! TA.AperFunction,Conductor*
%ADD21C,0.254000*%
G04 #@! TD*
G04 APERTURE END LIST*
D10*
X217250000Y-92620000D03*
D11*
X217250000Y-90080000D03*
X217250000Y-87540000D03*
X217250000Y-85000000D03*
X217250000Y-82460000D03*
X217250000Y-79920000D03*
X217250000Y-77380000D03*
X217250000Y-74840000D03*
X217250000Y-72300000D03*
X217250000Y-69760000D03*
X217250000Y-67220000D03*
X217250000Y-64680000D03*
X217250000Y-62140000D03*
X217250000Y-59600000D03*
X217250000Y-57060000D03*
X232490000Y-57060000D03*
X232490000Y-59600000D03*
X232490000Y-62140000D03*
X232490000Y-64680000D03*
X232490000Y-67220000D03*
X232490000Y-69760000D03*
X232490000Y-72300000D03*
X232490000Y-74840000D03*
X232490000Y-77380000D03*
X232490000Y-79920000D03*
X232490000Y-82460000D03*
X232490000Y-85000000D03*
X232490000Y-87540000D03*
X232490000Y-90080000D03*
X232490000Y-92620000D03*
D12*
X248200000Y-59400000D03*
D13*
X248200000Y-56860000D03*
X248200000Y-54320000D03*
X248200000Y-51780000D03*
D14*
X145550000Y-213600000D03*
X148050000Y-213600000D03*
X145550000Y-163600000D03*
X148050000Y-163600000D03*
X145550000Y-114200000D03*
X148050000Y-114200000D03*
X148050000Y-63600000D03*
X145550000Y-63600000D03*
D15*
X86200000Y-144200000D03*
D16*
X87500000Y-144200000D03*
X88800000Y-144200000D03*
D15*
X86200000Y-244195600D03*
D16*
X87500000Y-244195600D03*
X88800000Y-244195600D03*
D15*
X136200000Y-169200000D03*
D16*
X137500000Y-169200000D03*
X138800000Y-169200000D03*
D15*
X86200000Y-219200000D03*
D16*
X87500000Y-219200000D03*
X88800000Y-219200000D03*
D15*
X86200000Y-69200000D03*
D16*
X87500000Y-69200000D03*
X88800000Y-69200000D03*
D15*
X161200000Y-144200000D03*
D16*
X162500000Y-144200000D03*
X163800000Y-144200000D03*
D17*
X132250000Y-113500000D03*
D15*
X186200000Y-94200000D03*
D16*
X187500000Y-94200000D03*
X188800000Y-94200000D03*
D15*
X186200000Y-169200000D03*
D16*
X187500000Y-169200000D03*
X188800000Y-169200000D03*
D15*
X236200000Y-169200000D03*
D16*
X237500000Y-169200000D03*
X238800000Y-169200000D03*
D15*
X186200000Y-194200000D03*
D16*
X187500000Y-194200000D03*
X188800000Y-194200000D03*
D15*
X86200000Y-119200000D03*
D16*
X87500000Y-119200000D03*
X88800000Y-119200000D03*
D15*
X161200000Y-119200000D03*
D16*
X162500000Y-119200000D03*
X163800000Y-119200000D03*
D15*
X111200000Y-119200000D03*
D16*
X112500000Y-119200000D03*
X113800000Y-119200000D03*
D15*
X161200000Y-169200000D03*
D16*
X162500000Y-169200000D03*
X163800000Y-169200000D03*
D15*
X161200000Y-219200000D03*
D16*
X162500000Y-219200000D03*
X163800000Y-219200000D03*
D15*
X61200000Y-119200000D03*
D16*
X62500000Y-119200000D03*
X63800000Y-119200000D03*
D15*
X111200000Y-144200000D03*
D16*
X112500000Y-144200000D03*
X113800000Y-144200000D03*
D15*
X61200000Y-94200000D03*
D16*
X62500000Y-94200000D03*
X63800000Y-94200000D03*
D15*
X86200000Y-169195600D03*
D16*
X87500000Y-169195600D03*
X88800000Y-169195600D03*
D15*
X61200000Y-169195600D03*
D16*
X62500000Y-169195600D03*
X63800000Y-169195600D03*
D15*
X61200000Y-144200000D03*
D16*
X62500000Y-144200000D03*
X63800000Y-144200000D03*
D17*
X132250000Y-108450000D03*
D15*
X211200000Y-144200000D03*
D16*
X212500000Y-144200000D03*
X213800000Y-144200000D03*
D15*
X161200000Y-69200000D03*
D16*
X162500000Y-69200000D03*
X163800000Y-69200000D03*
D15*
X136200000Y-119200000D03*
D16*
X137500000Y-119200000D03*
X138800000Y-119200000D03*
D15*
X236200000Y-94200000D03*
D16*
X237500000Y-94200000D03*
X238800000Y-94200000D03*
D15*
X111200000Y-169195600D03*
D16*
X112500000Y-169195600D03*
X113800000Y-169195600D03*
D15*
X186200000Y-219200000D03*
D16*
X187500000Y-219200000D03*
X188800000Y-219200000D03*
D17*
X146900000Y-105000000D03*
D15*
X86200000Y-94200000D03*
D16*
X87500000Y-94200000D03*
X88800000Y-94200000D03*
D15*
X136200000Y-144200000D03*
D16*
X137500000Y-144200000D03*
X138800000Y-144200000D03*
D15*
X61200000Y-244195600D03*
D16*
X62500000Y-244195600D03*
X63800000Y-244195600D03*
D15*
X161200000Y-94200000D03*
D16*
X162500000Y-94200000D03*
X163800000Y-94200000D03*
D15*
X236200000Y-144200000D03*
D16*
X237500000Y-144200000D03*
X238800000Y-144200000D03*
D15*
X161200000Y-244200000D03*
D16*
X162500000Y-244200000D03*
X163800000Y-244200000D03*
D15*
X136200000Y-244195600D03*
D16*
X137500000Y-244195600D03*
X138800000Y-244195600D03*
D15*
X136200000Y-69200000D03*
D16*
X137500000Y-69200000D03*
X138800000Y-69200000D03*
D15*
X136200000Y-194200000D03*
D16*
X137500000Y-194200000D03*
X138800000Y-194200000D03*
D15*
X136200000Y-94200000D03*
D16*
X137500000Y-94200000D03*
X138800000Y-94200000D03*
D17*
X223000000Y-115700000D03*
X132250000Y-118550000D03*
D15*
X111200000Y-219200000D03*
D16*
X112500000Y-219200000D03*
X113800000Y-219200000D03*
D15*
X211200000Y-194200000D03*
D16*
X212500000Y-194200000D03*
X213800000Y-194200000D03*
D15*
X211200000Y-244200000D03*
D16*
X212500000Y-244200000D03*
X213800000Y-244200000D03*
D15*
X211200000Y-169200000D03*
D16*
X212500000Y-169200000D03*
X213800000Y-169200000D03*
D17*
X131600000Y-62900000D03*
D15*
X111200000Y-194200000D03*
D16*
X112500000Y-194200000D03*
X113800000Y-194200000D03*
D15*
X111200000Y-69200000D03*
D16*
X112500000Y-69200000D03*
X113800000Y-69200000D03*
D15*
X236200000Y-119200000D03*
D16*
X237500000Y-119200000D03*
X238800000Y-119200000D03*
D15*
X161200000Y-194200000D03*
D16*
X162500000Y-194200000D03*
X163800000Y-194200000D03*
D15*
X186200000Y-119200000D03*
D16*
X187500000Y-119200000D03*
X188800000Y-119200000D03*
D15*
X186200000Y-69200000D03*
D16*
X187500000Y-69200000D03*
X188800000Y-69200000D03*
D17*
X223000000Y-105500000D03*
X223000000Y-120700000D03*
D15*
X186200000Y-144200000D03*
D16*
X187500000Y-144200000D03*
X188800000Y-144200000D03*
D17*
X127400000Y-62900000D03*
D15*
X236200000Y-244200000D03*
D16*
X237500000Y-244200000D03*
X238800000Y-244200000D03*
D15*
X186200000Y-244200000D03*
D16*
X187500000Y-244200000D03*
X188800000Y-244200000D03*
D15*
X236200000Y-69200000D03*
D16*
X237500000Y-69200000D03*
X238800000Y-69200000D03*
D15*
X211200000Y-69200000D03*
D16*
X212500000Y-69200000D03*
X213800000Y-69200000D03*
D17*
X223000000Y-110750000D03*
D15*
X236200000Y-219200000D03*
D16*
X237500000Y-219200000D03*
X238800000Y-219200000D03*
D15*
X236200000Y-194200000D03*
D16*
X237500000Y-194200000D03*
X238800000Y-194200000D03*
D15*
X111200000Y-244200000D03*
D16*
X112500000Y-244200000D03*
X113800000Y-244200000D03*
D15*
X136200000Y-219200000D03*
D16*
X137500000Y-219200000D03*
X138800000Y-219200000D03*
D15*
X211200000Y-119200000D03*
D16*
X212500000Y-119200000D03*
X213800000Y-119200000D03*
D15*
X111200000Y-94200000D03*
D16*
X112500000Y-94200000D03*
X113800000Y-94200000D03*
D15*
X61200000Y-69200000D03*
D16*
X62500000Y-69200000D03*
X63800000Y-69200000D03*
D15*
X61200000Y-194200000D03*
D16*
X62500000Y-194200000D03*
X63800000Y-194200000D03*
D15*
X211200000Y-219200000D03*
D16*
X212500000Y-219200000D03*
X213800000Y-219200000D03*
D17*
X132250000Y-103400000D03*
D15*
X61200000Y-219195600D03*
D16*
X62500000Y-219195600D03*
X63800000Y-219195600D03*
D15*
X211200000Y-94200000D03*
D16*
X212500000Y-94200000D03*
X213800000Y-94200000D03*
D15*
X86200000Y-194195600D03*
D16*
X87500000Y-194195600D03*
X88800000Y-194195600D03*
D18*
X154725000Y-168015000D03*
X154725000Y-169285000D03*
X154725000Y-170555000D03*
X154725000Y-171825000D03*
X154725000Y-173095000D03*
X154725000Y-174365000D03*
X154725000Y-175635000D03*
X154725000Y-176905000D03*
X154725000Y-178175000D03*
X154725000Y-179445000D03*
X154725000Y-180715000D03*
X154725000Y-181985000D03*
X145275000Y-181985000D03*
X145275000Y-180715000D03*
X145275000Y-179445000D03*
X145275000Y-178175000D03*
X145275000Y-176905000D03*
X145275000Y-175635000D03*
X145275000Y-174365000D03*
X145275000Y-173095000D03*
X145275000Y-171825000D03*
X145275000Y-170555000D03*
X145275000Y-169285000D03*
X145275000Y-168015000D03*
X154725000Y-218015000D03*
X154725000Y-219285000D03*
X154725000Y-220555000D03*
X154725000Y-221825000D03*
X154725000Y-223095000D03*
X154725000Y-224365000D03*
X154725000Y-225635000D03*
X154725000Y-226905000D03*
X154725000Y-228175000D03*
X154725000Y-229445000D03*
X154725000Y-230715000D03*
X154725000Y-231985000D03*
X145275000Y-231985000D03*
X145275000Y-230715000D03*
X145275000Y-229445000D03*
X145275000Y-228175000D03*
X145275000Y-226905000D03*
X145275000Y-225635000D03*
X145275000Y-224365000D03*
X145275000Y-223095000D03*
X145275000Y-221825000D03*
X145275000Y-220555000D03*
X145275000Y-219285000D03*
X145275000Y-218015000D03*
X154725000Y-68015000D03*
X154725000Y-69285000D03*
X154725000Y-70555000D03*
X154725000Y-71825000D03*
X154725000Y-73095000D03*
X154725000Y-74365000D03*
X154725000Y-75635000D03*
X154725000Y-76905000D03*
X154725000Y-78175000D03*
X154725000Y-79445000D03*
X154725000Y-80715000D03*
X154725000Y-81985000D03*
X145275000Y-81985000D03*
X145275000Y-80715000D03*
X145275000Y-79445000D03*
X145275000Y-78175000D03*
X145275000Y-76905000D03*
X145275000Y-75635000D03*
X145275000Y-74365000D03*
X145275000Y-73095000D03*
X145275000Y-71825000D03*
X145275000Y-70555000D03*
X145275000Y-69285000D03*
X145275000Y-68015000D03*
X154725000Y-118515000D03*
X154725000Y-119785000D03*
X154725000Y-121055000D03*
X154725000Y-122325000D03*
X154725000Y-123595000D03*
X154725000Y-124865000D03*
X154725000Y-126135000D03*
X154725000Y-127405000D03*
X154725000Y-128675000D03*
X154725000Y-129945000D03*
X154725000Y-131215000D03*
X154725000Y-132485000D03*
X145275000Y-132485000D03*
X145275000Y-131215000D03*
X145275000Y-129945000D03*
X145275000Y-128675000D03*
X145275000Y-127405000D03*
X145275000Y-126135000D03*
X145275000Y-124865000D03*
X145275000Y-123595000D03*
X145275000Y-122325000D03*
X145275000Y-121055000D03*
X145275000Y-119785000D03*
X145275000Y-118515000D03*
D19*
X158500000Y-97750000D03*
X158500000Y-131000000D03*
X158500000Y-180500000D03*
X158500000Y-80500000D03*
X158500000Y-230500000D03*
X248500000Y-99000000D03*
X245500000Y-103000000D03*
X142750000Y-179500000D03*
X142750000Y-79250000D03*
X142750000Y-130000000D03*
X142750000Y-229500000D03*
X142750000Y-101750000D03*
X157250000Y-129750000D03*
X157250000Y-79250000D03*
X157250000Y-179250000D03*
X157250000Y-229250000D03*
X157250000Y-96500000D03*
X140750000Y-100500000D03*
X140750000Y-132500000D03*
X140750000Y-81750000D03*
X140750000Y-182000000D03*
X140750000Y-232000000D03*
X141750000Y-99000000D03*
X141750000Y-131250000D03*
X141750000Y-180750000D03*
X141750000Y-80500000D03*
X141750000Y-230750000D03*
X233250000Y-98000000D03*
X216750000Y-95250000D03*
D20*
X141800000Y-213600000D02*
X136200000Y-219200000D01*
X145550000Y-167740000D02*
X145275000Y-168015000D01*
X145550000Y-63600000D02*
X145550000Y-67740000D01*
X145550000Y-118240000D02*
X145275000Y-118515000D01*
X145550000Y-213600000D02*
X141800000Y-213600000D01*
X145550000Y-67740000D02*
X145275000Y-68015000D01*
X145550000Y-114200000D02*
X141200000Y-114200000D01*
X141800000Y-163600000D02*
X136200000Y-169200000D01*
X145550000Y-217740000D02*
X145275000Y-218015000D01*
X145550000Y-163600000D02*
X145550000Y-167740000D01*
X141200000Y-114200000D02*
X136200000Y-119200000D01*
X145550000Y-114200000D02*
X145550000Y-118240000D01*
X145550000Y-213600000D02*
X145550000Y-217740000D01*
X145550000Y-163600000D02*
X141800000Y-163600000D01*
D21*
X154725000Y-230715000D02*
X158285000Y-230715000D01*
X151000000Y-128790000D02*
X153425000Y-131215000D01*
X158285000Y-80715000D02*
X158500000Y-80500000D01*
X217250000Y-79920000D02*
X220500000Y-83170000D01*
X158285000Y-180715000D02*
X158500000Y-180500000D01*
X151000000Y-114500000D02*
X151000000Y-128790000D01*
X220500000Y-94300000D02*
X217050000Y-97750000D01*
X133750000Y-112000000D02*
X148500000Y-112000000D01*
X220500000Y-83170000D02*
X220500000Y-94300000D01*
X217050000Y-97750000D02*
X158500000Y-97750000D01*
X154725000Y-180715000D02*
X158285000Y-180715000D01*
X158285000Y-230715000D02*
X158500000Y-230500000D01*
X154725000Y-131215000D02*
X158285000Y-131215000D01*
X148500000Y-112000000D02*
X151000000Y-114500000D01*
X153425000Y-131215000D02*
X154725000Y-131215000D01*
X154725000Y-80715000D02*
X158285000Y-80715000D01*
X158285000Y-131215000D02*
X158500000Y-131000000D01*
X132250000Y-113500000D02*
X133750000Y-112000000D01*
X248200000Y-59400000D02*
X248200000Y-62801400D01*
X248200000Y-62801400D02*
X233621000Y-77380000D01*
X233621000Y-77380000D02*
X232490000Y-77380000D01*
X247400000Y-198446000D02*
X230673000Y-215173000D01*
X230673000Y-215173000D02*
X157567000Y-215173000D01*
X248500000Y-98100000D02*
X247400000Y-97000000D01*
X247400000Y-97000000D02*
X247400000Y-198446000D01*
X241407000Y-78407000D02*
X247400000Y-84400000D01*
X230500000Y-76842400D02*
X232065000Y-78407000D01*
X223000000Y-105500000D02*
X243000000Y-105500000D01*
X248500000Y-99000000D02*
X248500000Y-98100000D01*
X247400000Y-91500000D02*
X247400000Y-97000000D01*
X157567000Y-215173000D02*
X154725000Y-218015000D01*
X230500000Y-74290000D02*
X230500000Y-76842400D01*
X243000000Y-105500000D02*
X245500000Y-103000000D01*
X232065000Y-78407000D02*
X241407000Y-78407000D01*
X247400000Y-84400000D02*
X247400000Y-91500000D01*
X232490000Y-72300000D02*
X230500000Y-74290000D01*
X145275000Y-229445000D02*
X142805000Y-229445000D01*
X222900000Y-77950000D02*
X217250000Y-72300000D01*
X142805000Y-179445000D02*
X142750000Y-179500000D01*
X216350000Y-101750000D02*
X222900000Y-95200000D01*
X142805000Y-129945000D02*
X142750000Y-130000000D01*
X142805000Y-229445000D02*
X142750000Y-229500000D01*
X142750000Y-101750000D02*
X216350000Y-101750000D01*
X222900000Y-95200000D02*
X222900000Y-77950000D01*
X145275000Y-79445000D02*
X142945000Y-79445000D01*
X145275000Y-179445000D02*
X142805000Y-179445000D01*
X142945000Y-79445000D02*
X142750000Y-79250000D01*
X145275000Y-129945000D02*
X142805000Y-129945000D01*
X231683000Y-81433000D02*
X243329000Y-81433000D01*
X243329000Y-81433000D02*
X246646000Y-84750000D01*
X232490000Y-69760000D02*
X229700000Y-72550000D01*
X246646000Y-104000000D02*
X246646000Y-144854000D01*
X246646000Y-144854000D02*
X226500000Y-165000000D01*
X223000000Y-110750000D02*
X239896000Y-110750000D01*
X229700000Y-79450000D02*
X231683000Y-81433000D01*
X239896000Y-110750000D02*
X246646000Y-104000000D01*
X157740000Y-165000000D02*
X154725000Y-168015000D01*
X246646000Y-84750000D02*
X246646000Y-98000000D01*
X226500000Y-165000000D02*
X157740000Y-165000000D01*
X229700000Y-72550000D02*
X229700000Y-79450000D01*
X246646000Y-98000000D02*
X246646000Y-104000000D01*
X154725000Y-229445000D02*
X157055000Y-229445000D01*
X154725000Y-129945000D02*
X157055000Y-129945000D01*
X217250000Y-82460000D02*
X218460000Y-82460000D01*
X157055000Y-179445000D02*
X157250000Y-179250000D01*
X217250000Y-96500000D02*
X157250000Y-96500000D01*
X149000000Y-111000000D02*
X152000000Y-114000000D01*
X157055000Y-229445000D02*
X157250000Y-229250000D01*
X130000000Y-116300000D02*
X130000000Y-112000000D01*
X132250000Y-118550000D02*
X130000000Y-116300000D01*
X157055000Y-129945000D02*
X157250000Y-129750000D01*
X218460000Y-82460000D02*
X219750000Y-83750000D01*
X130000000Y-112000000D02*
X131000000Y-111000000D01*
X152000000Y-128520000D02*
X153425000Y-129945000D01*
X219750000Y-83750000D02*
X219750000Y-94000000D01*
X154725000Y-179445000D02*
X157055000Y-179445000D01*
X154725000Y-79445000D02*
X157055000Y-79445000D01*
X153425000Y-129945000D02*
X154725000Y-129945000D01*
X152000000Y-114000000D02*
X152000000Y-128520000D01*
X131000000Y-111000000D02*
X149000000Y-111000000D01*
X157055000Y-79445000D02*
X157250000Y-79250000D01*
X219750000Y-94000000D02*
X217250000Y-96500000D01*
X213850000Y-111850000D02*
X213850000Y-105350000D01*
X223700000Y-72590000D02*
X223700000Y-95500000D01*
X203200000Y-116000000D02*
X157240000Y-116000000D01*
X223000000Y-115700000D02*
X217700000Y-115700000D01*
X213850000Y-105350000D02*
X203200000Y-116000000D01*
X232490000Y-67220000D02*
X229070000Y-67220000D01*
X223700000Y-95500000D02*
X213850000Y-105350000D01*
X217700000Y-115700000D02*
X213850000Y-111850000D01*
X157240000Y-116000000D02*
X154725000Y-118515000D01*
X229070000Y-67220000D02*
X223700000Y-72590000D01*
X137850000Y-103400000D02*
X140750000Y-100500000D01*
X140985000Y-81985000D02*
X140750000Y-81750000D01*
X145275000Y-81985000D02*
X140985000Y-81985000D01*
X132250000Y-103400000D02*
X137850000Y-103400000D01*
X145275000Y-231985000D02*
X140765000Y-231985000D01*
X140765000Y-132485000D02*
X140750000Y-132500000D01*
X222100000Y-79690000D02*
X222100000Y-94900000D01*
X222100000Y-94900000D02*
X216500000Y-100500000D01*
X140765000Y-181985000D02*
X140750000Y-182000000D01*
X145275000Y-181985000D02*
X140765000Y-181985000D01*
X216500000Y-100500000D02*
X140750000Y-100500000D01*
X140765000Y-231985000D02*
X140750000Y-232000000D01*
X145275000Y-132485000D02*
X140765000Y-132485000D01*
X217250000Y-74840000D02*
X222100000Y-79690000D01*
X225000000Y-118700000D02*
X225000000Y-114000000D01*
X234000000Y-68500000D02*
X234500000Y-68000000D01*
X220500000Y-112000000D02*
X220500000Y-104000000D01*
X156990000Y-65750000D02*
X154725000Y-68015000D01*
X234500000Y-68000000D02*
X234500000Y-65500000D01*
X221500000Y-113000000D02*
X220500000Y-112000000D01*
X228000000Y-96500000D02*
X228000000Y-72000000D01*
X223000000Y-120700000D02*
X225000000Y-118700000D01*
X234500000Y-65500000D02*
X233680000Y-64680000D01*
X225000000Y-114000000D02*
X224000000Y-113000000D01*
X228000000Y-72000000D02*
X231500000Y-68500000D01*
X231420000Y-65750000D02*
X156990000Y-65750000D01*
X224000000Y-113000000D02*
X221500000Y-113000000D01*
X233680000Y-64680000D02*
X232490000Y-64680000D01*
X231500000Y-68500000D02*
X234000000Y-68500000D01*
X232490000Y-64680000D02*
X231420000Y-65750000D01*
X220500000Y-104000000D02*
X228000000Y-96500000D01*
D20*
X150000000Y-116150000D02*
X150000000Y-129314000D01*
X154725000Y-231985000D02*
X162500000Y-239760000D01*
X154725000Y-181985000D02*
X162500000Y-189760000D01*
X148050000Y-114200000D02*
X150000000Y-116150000D01*
X162500000Y-189760000D02*
X162500000Y-194200000D01*
X153242000Y-181985000D02*
X154725000Y-181985000D01*
X153171000Y-231985000D02*
X154725000Y-231985000D01*
X154725000Y-81985000D02*
X158144000Y-81985000D01*
X162500000Y-140260000D02*
X162500000Y-144200000D01*
X148050000Y-213600000D02*
X150000000Y-215550000D01*
X153171000Y-132485000D02*
X154725000Y-132485000D01*
X148050000Y-63600000D02*
X150000000Y-65550000D01*
X158144000Y-81985000D02*
X162500000Y-86340800D01*
X150000000Y-178743000D02*
X153242000Y-181985000D01*
X150000000Y-228814000D02*
X153171000Y-231985000D01*
X150000000Y-165550000D02*
X150000000Y-178743000D01*
X162500000Y-239760000D02*
X162500000Y-244200000D01*
X150000000Y-129314000D02*
X153171000Y-132485000D01*
X150000000Y-78743000D02*
X153242000Y-81985000D01*
X153242000Y-81985000D02*
X154725000Y-81985000D01*
X150000000Y-65550000D02*
X150000000Y-78743000D01*
X150000000Y-215550000D02*
X150000000Y-228814000D01*
X162500000Y-86340800D02*
X162500000Y-94200000D01*
X154725000Y-132485000D02*
X162500000Y-140260000D01*
X148050000Y-163600000D02*
X150000000Y-165550000D01*
D21*
X130000000Y-101000000D02*
X132000000Y-99000000D01*
X141965000Y-80715000D02*
X141750000Y-80500000D01*
X132250000Y-108450000D02*
X130000000Y-106200000D01*
X145275000Y-80715000D02*
X141965000Y-80715000D01*
X132000000Y-99000000D02*
X141750000Y-99000000D01*
X221300000Y-81430000D02*
X217250000Y-77380000D01*
X221300000Y-94600000D02*
X221300000Y-81430000D01*
X145275000Y-230715000D02*
X141785000Y-230715000D01*
X145275000Y-131215000D02*
X141785000Y-131215000D01*
X141750000Y-99000000D02*
X216900000Y-99000000D01*
X216900000Y-99000000D02*
X221300000Y-94600000D01*
X141785000Y-230715000D02*
X141750000Y-230750000D01*
X145275000Y-180715000D02*
X141785000Y-180715000D01*
X141785000Y-180715000D02*
X141750000Y-180750000D01*
X141785000Y-131215000D02*
X141750000Y-131250000D01*
X130000000Y-106200000D02*
X130000000Y-101000000D01*
X248200000Y-56860000D02*
X239567000Y-65493000D01*
X239567000Y-69517700D02*
X234245000Y-74840000D01*
X234245000Y-74840000D02*
X232490000Y-74840000D01*
X239567000Y-65493000D02*
X239567000Y-69517700D01*
X157773200Y-78175000D02*
X163800000Y-84201800D01*
X154725000Y-78175000D02*
X157773200Y-78175000D01*
X163800000Y-84201800D02*
X163800000Y-94200000D01*
X188800000Y-93776000D02*
X188800000Y-94200000D01*
X171929000Y-76905000D02*
X188800000Y-93776000D01*
X154725000Y-76905000D02*
X171929000Y-76905000D01*
X154725000Y-75635000D02*
X195620600Y-75635000D01*
X213800000Y-93814400D02*
X213800000Y-94200000D01*
X195620600Y-75635000D02*
X213800000Y-93814400D01*
X235000000Y-98000000D02*
X238800000Y-94200000D01*
X233250000Y-98000000D02*
X235000000Y-98000000D01*
X195865000Y-74365000D02*
X216750000Y-95250000D01*
X154725000Y-74365000D02*
X195865000Y-74365000D01*
X152500000Y-67978500D02*
X164876100Y-55602400D01*
X152500000Y-72170000D02*
X152500000Y-67978500D01*
X154725000Y-73095000D02*
X153425000Y-73095000D01*
X233077400Y-55602400D02*
X238800000Y-61325000D01*
X238800000Y-61325000D02*
X238800000Y-69200000D01*
X153425000Y-73095000D02*
X152500000Y-72170000D01*
X164876100Y-55602400D02*
X233077400Y-55602400D01*
X213800000Y-69590500D02*
X213800000Y-69200000D01*
X211565500Y-71825000D02*
X213800000Y-69590500D01*
X154725000Y-71825000D02*
X211565500Y-71825000D01*
X188800000Y-69566000D02*
X188800000Y-69200000D01*
X187811000Y-70555000D02*
X188800000Y-69566000D01*
X154725000Y-70555000D02*
X187811000Y-70555000D01*
X158258100Y-68021100D02*
X163010500Y-68021100D01*
X163010500Y-68021100D02*
X163800000Y-68810600D01*
X156994200Y-69285000D02*
X158258100Y-68021100D01*
X154725000Y-69285000D02*
X156994200Y-69285000D01*
X163800000Y-68810600D02*
X163800000Y-69200000D01*
X138885000Y-69285000D02*
X138800000Y-69200000D01*
X145275000Y-69285000D02*
X138885000Y-69285000D01*
X145275000Y-70555000D02*
X115155000Y-70555000D01*
X115155000Y-70555000D02*
X113800000Y-69200000D01*
X91425000Y-71825000D02*
X88800000Y-69200000D01*
X145275000Y-71825000D02*
X91425000Y-71825000D01*
X145275000Y-73095000D02*
X67695000Y-73095000D01*
X67695000Y-73095000D02*
X63800000Y-69200000D01*
X83635000Y-74365000D02*
X63800000Y-94200000D01*
X145275000Y-74365000D02*
X83635000Y-74365000D01*
X145275000Y-75635000D02*
X107365000Y-75635000D01*
X107365000Y-75635000D02*
X88800000Y-94200000D01*
X145275000Y-76905000D02*
X131095000Y-76905000D01*
X131095000Y-76905000D02*
X113800000Y-94200000D01*
X147750000Y-85250000D02*
X138800000Y-94200000D01*
X146575000Y-78175000D02*
X147750000Y-79350000D01*
X147750000Y-79350000D02*
X147750000Y-85250000D01*
X145275000Y-78175000D02*
X146575000Y-78175000D01*
X172429000Y-127405000D02*
X154725000Y-127405000D01*
X188800000Y-143776000D02*
X172429000Y-127405000D01*
X188800000Y-144200000D02*
X188800000Y-143776000D01*
X154725000Y-126135000D02*
X196159000Y-126135000D01*
X213800000Y-143776000D02*
X213800000Y-144200000D01*
X196159000Y-126135000D02*
X213800000Y-143776000D01*
X238800000Y-143776000D02*
X238800000Y-144200000D01*
X154725000Y-124865000D02*
X219889000Y-124865000D01*
X219889000Y-124865000D02*
X238800000Y-143776000D01*
X234820900Y-123595000D02*
X238800000Y-119615900D01*
X154725000Y-123595000D02*
X234820900Y-123595000D01*
X238800000Y-119615900D02*
X238800000Y-119200000D01*
X213800000Y-119575000D02*
X213800000Y-119200000D01*
X211050000Y-122325000D02*
X213800000Y-119575000D01*
X154725000Y-122325000D02*
X211050000Y-122325000D01*
X188800000Y-119632500D02*
X188800000Y-119200000D01*
X187377500Y-121055000D02*
X188800000Y-119632500D01*
X154725000Y-121055000D02*
X187377500Y-121055000D01*
X162950400Y-117984400D02*
X163800000Y-118834000D01*
X158294800Y-117984400D02*
X162950400Y-117984400D01*
X163800000Y-118834000D02*
X163800000Y-119200000D01*
X156494200Y-119785000D02*
X158294800Y-117984400D01*
X154725000Y-119785000D02*
X156494200Y-119785000D01*
X139385000Y-119785000D02*
X138800000Y-119200000D01*
X145275000Y-119785000D02*
X139385000Y-119785000D01*
X157773800Y-128675000D02*
X154725000Y-128675000D01*
X163800000Y-144200000D02*
X163800000Y-134701200D01*
X163800000Y-134701200D02*
X157773800Y-128675000D01*
X145275000Y-121055000D02*
X115655000Y-121055000D01*
X115655000Y-121055000D02*
X113800000Y-119200000D01*
X145275000Y-122325000D02*
X91925000Y-122325000D01*
X91925000Y-122325000D02*
X88800000Y-119200000D01*
X68195000Y-123595000D02*
X63800000Y-119200000D01*
X145275000Y-123595000D02*
X68195000Y-123595000D01*
X145275000Y-124865000D02*
X83135000Y-124865000D01*
X83135000Y-124865000D02*
X63800000Y-144200000D01*
X106865000Y-126135000D02*
X88800000Y-144200000D01*
X145275000Y-126135000D02*
X106865000Y-126135000D01*
X130595000Y-127405000D02*
X113800000Y-144200000D01*
X145275000Y-127405000D02*
X130595000Y-127405000D01*
X147500000Y-129600000D02*
X146575000Y-128675000D01*
X147500000Y-135500000D02*
X147500000Y-129600000D01*
X146575000Y-128675000D02*
X145275000Y-128675000D01*
X138800000Y-144200000D02*
X147500000Y-135500000D01*
X195659000Y-175635000D02*
X213800000Y-193776000D01*
X154725000Y-175635000D02*
X195659000Y-175635000D01*
X213800000Y-193776000D02*
X213800000Y-194200000D01*
X219389000Y-174365000D02*
X238800000Y-193776000D01*
X238800000Y-193776000D02*
X238800000Y-194200000D01*
X154725000Y-174365000D02*
X219389000Y-174365000D01*
X154725000Y-173095000D02*
X235320900Y-173095000D01*
X235320900Y-173095000D02*
X238800000Y-169615900D01*
X238800000Y-169615900D02*
X238800000Y-169200000D01*
X211565700Y-171825000D02*
X213800000Y-169590700D01*
X213800000Y-169590700D02*
X213800000Y-169200000D01*
X154725000Y-171825000D02*
X211565700Y-171825000D01*
X154725000Y-170555000D02*
X187811000Y-170555000D01*
X188800000Y-169566000D02*
X188800000Y-169200000D01*
X187811000Y-170555000D02*
X188800000Y-169566000D01*
X163020700Y-168015700D02*
X163800000Y-168795000D01*
X163800000Y-168795000D02*
X163800000Y-169200000D01*
X158924900Y-169285000D02*
X160194200Y-168015700D01*
X154725000Y-169285000D02*
X158924900Y-169285000D01*
X160194200Y-168015700D02*
X163020700Y-168015700D01*
X138885000Y-169285000D02*
X138800000Y-169200000D01*
X145275000Y-169285000D02*
X138885000Y-169285000D01*
X145275000Y-170555000D02*
X115159400Y-170555000D01*
X115159400Y-170555000D02*
X113800000Y-169195600D01*
X157723500Y-178175000D02*
X154725000Y-178175000D01*
X163800000Y-194200000D02*
X163800000Y-184251500D01*
X163800000Y-184251500D02*
X157723500Y-178175000D01*
X188800000Y-193776000D02*
X188800000Y-194200000D01*
X154725000Y-176905000D02*
X171929000Y-176905000D01*
X171929000Y-176905000D02*
X188800000Y-193776000D01*
X91429400Y-171825000D02*
X88800000Y-169195600D01*
X145275000Y-171825000D02*
X91429400Y-171825000D01*
X145275000Y-173095000D02*
X67699400Y-173095000D01*
X67699400Y-173095000D02*
X63800000Y-169195600D01*
X83635000Y-174365000D02*
X63800000Y-194200000D01*
X145275000Y-174365000D02*
X83635000Y-174365000D01*
X145275000Y-175635000D02*
X107360600Y-175635000D01*
X107360600Y-175635000D02*
X88800000Y-194195600D01*
X131095000Y-176905000D02*
X113800000Y-194200000D01*
X145275000Y-176905000D02*
X131095000Y-176905000D01*
X147500000Y-178750000D02*
X146925000Y-178175000D01*
X146925000Y-178175000D02*
X145275000Y-178175000D01*
X147500000Y-185500000D02*
X147500000Y-178750000D01*
X138800000Y-194200000D02*
X147500000Y-185500000D01*
X238800000Y-243776000D02*
X238800000Y-244200000D01*
X219389000Y-224365000D02*
X238800000Y-243776000D01*
X154725000Y-224365000D02*
X219389000Y-224365000D01*
X154725000Y-223095000D02*
X235320900Y-223095000D01*
X235320900Y-223095000D02*
X238800000Y-219615900D01*
X238800000Y-219615900D02*
X238800000Y-219200000D01*
X213800000Y-219590700D02*
X213800000Y-219200000D01*
X211565700Y-221825000D02*
X213800000Y-219590700D01*
X154725000Y-221825000D02*
X211565700Y-221825000D01*
X187811000Y-220555000D02*
X188800000Y-219566000D01*
X154725000Y-220555000D02*
X187811000Y-220555000D01*
X188800000Y-219566000D02*
X188800000Y-219200000D01*
X160377700Y-218005200D02*
X162999400Y-218005200D01*
X162999400Y-218005200D02*
X163800000Y-218805800D01*
X154725000Y-219285000D02*
X159097900Y-219285000D01*
X159097900Y-219285000D02*
X160377700Y-218005200D01*
X163800000Y-218805800D02*
X163800000Y-219200000D01*
X138885000Y-219285000D02*
X138800000Y-219200000D01*
X145275000Y-219285000D02*
X138885000Y-219285000D01*
X115155000Y-220555000D02*
X113800000Y-219200000D01*
X145275000Y-220555000D02*
X115155000Y-220555000D01*
X91425000Y-221825000D02*
X88800000Y-219200000D01*
X145275000Y-221825000D02*
X91425000Y-221825000D01*
X163800000Y-244200000D02*
X163800000Y-234253600D01*
X163800000Y-234253600D02*
X157721400Y-228175000D01*
X157721400Y-228175000D02*
X154725000Y-228175000D01*
X171880400Y-226905000D02*
X188800000Y-243824600D01*
X188800000Y-243824600D02*
X188800000Y-244200000D01*
X154725000Y-226905000D02*
X171880400Y-226905000D01*
X213800000Y-243776000D02*
X213800000Y-244200000D01*
X195659000Y-225635000D02*
X213800000Y-243776000D01*
X154725000Y-225635000D02*
X195659000Y-225635000D01*
X67699400Y-223095000D02*
X63800000Y-219195600D01*
X145275000Y-223095000D02*
X67699400Y-223095000D01*
X145275000Y-224365000D02*
X83630600Y-224365000D01*
X83630600Y-224365000D02*
X63800000Y-244195600D01*
X107360600Y-225635000D02*
X88800000Y-244195600D01*
X145275000Y-225635000D02*
X107360600Y-225635000D01*
X131095000Y-226905000D02*
X113800000Y-244200000D01*
X145275000Y-226905000D02*
X131095000Y-226905000D01*
X146575000Y-228175000D02*
X145275000Y-228175000D01*
X147500000Y-229100000D02*
X146575000Y-228175000D01*
X147500000Y-235495600D02*
X147500000Y-229100000D01*
X138800000Y-244195600D02*
X147500000Y-235495600D01*
M02*
