%TF.GenerationSoftware,KiCad,Pcbnew,8.0.8*%
%TF.CreationDate,2025-02-02T20:06:04-05:00*%
%TF.ProjectId,Chessboard Hardware,43686573-7362-46f6-9172-642048617264,1*%
%TF.SameCoordinates,Original*%
%TF.FileFunction,Drillmap*%
%TF.FilePolarity,Positive*%
%FSLAX45Y45*%
G04 Gerber Fmt 4.5, Leading zero omitted, Abs format (unit mm)*
G04 Created by KiCad (PCBNEW 8.0.8) date 2025-02-02 20:06:04*
%MOMM*%
%LPD*%
G01*
G04 APERTURE LIST*
%ADD10C,0.038100*%
%ADD11C,0.200000*%
%ADD12C,0.100000*%
G04 APERTURE END LIST*
D10*
X5000000Y-5000000D02*
X25000000Y-5000000D01*
X25000000Y-25000000D01*
X5000000Y-25000000D01*
X5000000Y-5000000D01*
D11*
D12*
X14055950Y-8155950D02*
X14094050Y-8194050D01*
X14094050Y-8155950D02*
X14055950Y-8194050D01*
X14055950Y-10030950D02*
X14094050Y-10069050D01*
X14094050Y-10030950D02*
X14055950Y-10069050D01*
X14055950Y-13230950D02*
X14094050Y-13269050D01*
X14094050Y-13230950D02*
X14055950Y-13269050D01*
X14055950Y-18180950D02*
X14094050Y-18219050D01*
X14094050Y-18180950D02*
X14055950Y-18219050D01*
X14055950Y-23180950D02*
X14094050Y-23219050D01*
X14094050Y-23180950D02*
X14055950Y-23219050D01*
X14155950Y-8030950D02*
X14194050Y-8069050D01*
X14194050Y-8030950D02*
X14155950Y-8069050D01*
X14155950Y-9880950D02*
X14194050Y-9919050D01*
X14194050Y-9880950D02*
X14155950Y-9919050D01*
X14155950Y-13105950D02*
X14194050Y-13144050D01*
X14194050Y-13105950D02*
X14155950Y-13144050D01*
X14155950Y-18055950D02*
X14194050Y-18094050D01*
X14194050Y-18055950D02*
X14155950Y-18094050D01*
X14155950Y-23055950D02*
X14194050Y-23094050D01*
X14194050Y-23055950D02*
X14155950Y-23094050D01*
X14255950Y-7905950D02*
X14294050Y-7944050D01*
X14294050Y-7905950D02*
X14255950Y-7944050D01*
X14255950Y-10155950D02*
X14294050Y-10194050D01*
X14294050Y-10155950D02*
X14255950Y-10194050D01*
X14255950Y-12980950D02*
X14294050Y-13019050D01*
X14294050Y-12980950D02*
X14255950Y-13019050D01*
X14255950Y-17930950D02*
X14294050Y-17969050D01*
X14294050Y-17930950D02*
X14255950Y-17969050D01*
X14255950Y-22930950D02*
X14294050Y-22969050D01*
X14294050Y-22930950D02*
X14255950Y-22969050D01*
X15705950Y-7905950D02*
X15744050Y-7944050D01*
X15744050Y-7905950D02*
X15705950Y-7944050D01*
X15705950Y-9630950D02*
X15744050Y-9669050D01*
X15744050Y-9630950D02*
X15705950Y-9669050D01*
X15705950Y-12955950D02*
X15744050Y-12994050D01*
X15744050Y-12955950D02*
X15705950Y-12994050D01*
X15705950Y-17905950D02*
X15744050Y-17944050D01*
X15744050Y-17905950D02*
X15705950Y-17944050D01*
X15705950Y-22905950D02*
X15744050Y-22944050D01*
X15744050Y-22905950D02*
X15705950Y-22944050D01*
X15830950Y-8030950D02*
X15869050Y-8069050D01*
X15869050Y-8030950D02*
X15830950Y-8069050D01*
X15830950Y-9755950D02*
X15869050Y-9794050D01*
X15869050Y-9755950D02*
X15830950Y-9794050D01*
X15830950Y-13080950D02*
X15869050Y-13119050D01*
X15869050Y-13080950D02*
X15830950Y-13119050D01*
X15830950Y-18030950D02*
X15869050Y-18069050D01*
X15869050Y-18030950D02*
X15830950Y-18069050D01*
X15830950Y-23030950D02*
X15869050Y-23069050D01*
X15869050Y-23030950D02*
X15830950Y-23069050D01*
X21655950Y-9505950D02*
X21694050Y-9544050D01*
X21694050Y-9505950D02*
X21655950Y-9544050D01*
X23305950Y-9780950D02*
X23344050Y-9819050D01*
X23344050Y-9780950D02*
X23305950Y-9819050D01*
X24530950Y-10280950D02*
X24569050Y-10319050D01*
X24569050Y-10280950D02*
X24530950Y-10319050D01*
X24830950Y-9880950D02*
X24869050Y-9919050D01*
X24869050Y-9880950D02*
X24830950Y-9919050D01*
X6154000Y-6920000D02*
G75*
G02*
X6086000Y-6920000I-34000J0D01*
G01*
X6086000Y-6920000D02*
G75*
G02*
X6154000Y-6920000I34000J0D01*
G01*
X6154000Y-9420000D02*
G75*
G02*
X6086000Y-9420000I-34000J0D01*
G01*
X6086000Y-9420000D02*
G75*
G02*
X6154000Y-9420000I34000J0D01*
G01*
X6154000Y-11920000D02*
G75*
G02*
X6086000Y-11920000I-34000J0D01*
G01*
X6086000Y-11920000D02*
G75*
G02*
X6154000Y-11920000I34000J0D01*
G01*
X6154000Y-14420000D02*
G75*
G02*
X6086000Y-14420000I-34000J0D01*
G01*
X6086000Y-14420000D02*
G75*
G02*
X6154000Y-14420000I34000J0D01*
G01*
X6154000Y-16919560D02*
G75*
G02*
X6086000Y-16919560I-34000J0D01*
G01*
X6086000Y-16919560D02*
G75*
G02*
X6154000Y-16919560I34000J0D01*
G01*
X6154000Y-19420000D02*
G75*
G02*
X6086000Y-19420000I-34000J0D01*
G01*
X6086000Y-19420000D02*
G75*
G02*
X6154000Y-19420000I34000J0D01*
G01*
X6154000Y-21919560D02*
G75*
G02*
X6086000Y-21919560I-34000J0D01*
G01*
X6086000Y-21919560D02*
G75*
G02*
X6154000Y-21919560I34000J0D01*
G01*
X6154000Y-24419560D02*
G75*
G02*
X6086000Y-24419560I-34000J0D01*
G01*
X6086000Y-24419560D02*
G75*
G02*
X6154000Y-24419560I34000J0D01*
G01*
X6284000Y-6920000D02*
G75*
G02*
X6216000Y-6920000I-34000J0D01*
G01*
X6216000Y-6920000D02*
G75*
G02*
X6284000Y-6920000I34000J0D01*
G01*
X6284000Y-9420000D02*
G75*
G02*
X6216000Y-9420000I-34000J0D01*
G01*
X6216000Y-9420000D02*
G75*
G02*
X6284000Y-9420000I34000J0D01*
G01*
X6284000Y-11920000D02*
G75*
G02*
X6216000Y-11920000I-34000J0D01*
G01*
X6216000Y-11920000D02*
G75*
G02*
X6284000Y-11920000I34000J0D01*
G01*
X6284000Y-14420000D02*
G75*
G02*
X6216000Y-14420000I-34000J0D01*
G01*
X6216000Y-14420000D02*
G75*
G02*
X6284000Y-14420000I34000J0D01*
G01*
X6284000Y-16919560D02*
G75*
G02*
X6216000Y-16919560I-34000J0D01*
G01*
X6216000Y-16919560D02*
G75*
G02*
X6284000Y-16919560I34000J0D01*
G01*
X6284000Y-19420000D02*
G75*
G02*
X6216000Y-19420000I-34000J0D01*
G01*
X6216000Y-19420000D02*
G75*
G02*
X6284000Y-19420000I34000J0D01*
G01*
X6284000Y-21919560D02*
G75*
G02*
X6216000Y-21919560I-34000J0D01*
G01*
X6216000Y-21919560D02*
G75*
G02*
X6284000Y-21919560I34000J0D01*
G01*
X6284000Y-24419560D02*
G75*
G02*
X6216000Y-24419560I-34000J0D01*
G01*
X6216000Y-24419560D02*
G75*
G02*
X6284000Y-24419560I34000J0D01*
G01*
X6414000Y-6920000D02*
G75*
G02*
X6346000Y-6920000I-34000J0D01*
G01*
X6346000Y-6920000D02*
G75*
G02*
X6414000Y-6920000I34000J0D01*
G01*
X6414000Y-9420000D02*
G75*
G02*
X6346000Y-9420000I-34000J0D01*
G01*
X6346000Y-9420000D02*
G75*
G02*
X6414000Y-9420000I34000J0D01*
G01*
X6414000Y-11920000D02*
G75*
G02*
X6346000Y-11920000I-34000J0D01*
G01*
X6346000Y-11920000D02*
G75*
G02*
X6414000Y-11920000I34000J0D01*
G01*
X6414000Y-14420000D02*
G75*
G02*
X6346000Y-14420000I-34000J0D01*
G01*
X6346000Y-14420000D02*
G75*
G02*
X6414000Y-14420000I34000J0D01*
G01*
X6414000Y-16919560D02*
G75*
G02*
X6346000Y-16919560I-34000J0D01*
G01*
X6346000Y-16919560D02*
G75*
G02*
X6414000Y-16919560I34000J0D01*
G01*
X6414000Y-19420000D02*
G75*
G02*
X6346000Y-19420000I-34000J0D01*
G01*
X6346000Y-19420000D02*
G75*
G02*
X6414000Y-19420000I34000J0D01*
G01*
X6414000Y-21919560D02*
G75*
G02*
X6346000Y-21919560I-34000J0D01*
G01*
X6346000Y-21919560D02*
G75*
G02*
X6414000Y-21919560I34000J0D01*
G01*
X6414000Y-24419560D02*
G75*
G02*
X6346000Y-24419560I-34000J0D01*
G01*
X6346000Y-24419560D02*
G75*
G02*
X6414000Y-24419560I34000J0D01*
G01*
X8654000Y-6920000D02*
G75*
G02*
X8586000Y-6920000I-34000J0D01*
G01*
X8586000Y-6920000D02*
G75*
G02*
X8654000Y-6920000I34000J0D01*
G01*
X8654000Y-9420000D02*
G75*
G02*
X8586000Y-9420000I-34000J0D01*
G01*
X8586000Y-9420000D02*
G75*
G02*
X8654000Y-9420000I34000J0D01*
G01*
X8654000Y-11920000D02*
G75*
G02*
X8586000Y-11920000I-34000J0D01*
G01*
X8586000Y-11920000D02*
G75*
G02*
X8654000Y-11920000I34000J0D01*
G01*
X8654000Y-14420000D02*
G75*
G02*
X8586000Y-14420000I-34000J0D01*
G01*
X8586000Y-14420000D02*
G75*
G02*
X8654000Y-14420000I34000J0D01*
G01*
X8654000Y-16919560D02*
G75*
G02*
X8586000Y-16919560I-34000J0D01*
G01*
X8586000Y-16919560D02*
G75*
G02*
X8654000Y-16919560I34000J0D01*
G01*
X8654000Y-19419560D02*
G75*
G02*
X8586000Y-19419560I-34000J0D01*
G01*
X8586000Y-19419560D02*
G75*
G02*
X8654000Y-19419560I34000J0D01*
G01*
X8654000Y-21920000D02*
G75*
G02*
X8586000Y-21920000I-34000J0D01*
G01*
X8586000Y-21920000D02*
G75*
G02*
X8654000Y-21920000I34000J0D01*
G01*
X8654000Y-24419560D02*
G75*
G02*
X8586000Y-24419560I-34000J0D01*
G01*
X8586000Y-24419560D02*
G75*
G02*
X8654000Y-24419560I34000J0D01*
G01*
X8784000Y-6920000D02*
G75*
G02*
X8716000Y-6920000I-34000J0D01*
G01*
X8716000Y-6920000D02*
G75*
G02*
X8784000Y-6920000I34000J0D01*
G01*
X8784000Y-9420000D02*
G75*
G02*
X8716000Y-9420000I-34000J0D01*
G01*
X8716000Y-9420000D02*
G75*
G02*
X8784000Y-9420000I34000J0D01*
G01*
X8784000Y-11920000D02*
G75*
G02*
X8716000Y-11920000I-34000J0D01*
G01*
X8716000Y-11920000D02*
G75*
G02*
X8784000Y-11920000I34000J0D01*
G01*
X8784000Y-14420000D02*
G75*
G02*
X8716000Y-14420000I-34000J0D01*
G01*
X8716000Y-14420000D02*
G75*
G02*
X8784000Y-14420000I34000J0D01*
G01*
X8784000Y-16919560D02*
G75*
G02*
X8716000Y-16919560I-34000J0D01*
G01*
X8716000Y-16919560D02*
G75*
G02*
X8784000Y-16919560I34000J0D01*
G01*
X8784000Y-19419560D02*
G75*
G02*
X8716000Y-19419560I-34000J0D01*
G01*
X8716000Y-19419560D02*
G75*
G02*
X8784000Y-19419560I34000J0D01*
G01*
X8784000Y-21920000D02*
G75*
G02*
X8716000Y-21920000I-34000J0D01*
G01*
X8716000Y-21920000D02*
G75*
G02*
X8784000Y-21920000I34000J0D01*
G01*
X8784000Y-24419560D02*
G75*
G02*
X8716000Y-24419560I-34000J0D01*
G01*
X8716000Y-24419560D02*
G75*
G02*
X8784000Y-24419560I34000J0D01*
G01*
X8914000Y-6920000D02*
G75*
G02*
X8846000Y-6920000I-34000J0D01*
G01*
X8846000Y-6920000D02*
G75*
G02*
X8914000Y-6920000I34000J0D01*
G01*
X8914000Y-9420000D02*
G75*
G02*
X8846000Y-9420000I-34000J0D01*
G01*
X8846000Y-9420000D02*
G75*
G02*
X8914000Y-9420000I34000J0D01*
G01*
X8914000Y-11920000D02*
G75*
G02*
X8846000Y-11920000I-34000J0D01*
G01*
X8846000Y-11920000D02*
G75*
G02*
X8914000Y-11920000I34000J0D01*
G01*
X8914000Y-14420000D02*
G75*
G02*
X8846000Y-14420000I-34000J0D01*
G01*
X8846000Y-14420000D02*
G75*
G02*
X8914000Y-14420000I34000J0D01*
G01*
X8914000Y-16919560D02*
G75*
G02*
X8846000Y-16919560I-34000J0D01*
G01*
X8846000Y-16919560D02*
G75*
G02*
X8914000Y-16919560I34000J0D01*
G01*
X8914000Y-19419560D02*
G75*
G02*
X8846000Y-19419560I-34000J0D01*
G01*
X8846000Y-19419560D02*
G75*
G02*
X8914000Y-19419560I34000J0D01*
G01*
X8914000Y-21920000D02*
G75*
G02*
X8846000Y-21920000I-34000J0D01*
G01*
X8846000Y-21920000D02*
G75*
G02*
X8914000Y-21920000I34000J0D01*
G01*
X8914000Y-24419560D02*
G75*
G02*
X8846000Y-24419560I-34000J0D01*
G01*
X8846000Y-24419560D02*
G75*
G02*
X8914000Y-24419560I34000J0D01*
G01*
X11154000Y-6920000D02*
G75*
G02*
X11086000Y-6920000I-34000J0D01*
G01*
X11086000Y-6920000D02*
G75*
G02*
X11154000Y-6920000I34000J0D01*
G01*
X11154000Y-9420000D02*
G75*
G02*
X11086000Y-9420000I-34000J0D01*
G01*
X11086000Y-9420000D02*
G75*
G02*
X11154000Y-9420000I34000J0D01*
G01*
X11154000Y-11920000D02*
G75*
G02*
X11086000Y-11920000I-34000J0D01*
G01*
X11086000Y-11920000D02*
G75*
G02*
X11154000Y-11920000I34000J0D01*
G01*
X11154000Y-14420000D02*
G75*
G02*
X11086000Y-14420000I-34000J0D01*
G01*
X11086000Y-14420000D02*
G75*
G02*
X11154000Y-14420000I34000J0D01*
G01*
X11154000Y-16919560D02*
G75*
G02*
X11086000Y-16919560I-34000J0D01*
G01*
X11086000Y-16919560D02*
G75*
G02*
X11154000Y-16919560I34000J0D01*
G01*
X11154000Y-19420000D02*
G75*
G02*
X11086000Y-19420000I-34000J0D01*
G01*
X11086000Y-19420000D02*
G75*
G02*
X11154000Y-19420000I34000J0D01*
G01*
X11154000Y-21920000D02*
G75*
G02*
X11086000Y-21920000I-34000J0D01*
G01*
X11086000Y-21920000D02*
G75*
G02*
X11154000Y-21920000I34000J0D01*
G01*
X11154000Y-24420000D02*
G75*
G02*
X11086000Y-24420000I-34000J0D01*
G01*
X11086000Y-24420000D02*
G75*
G02*
X11154000Y-24420000I34000J0D01*
G01*
X11284000Y-6920000D02*
G75*
G02*
X11216000Y-6920000I-34000J0D01*
G01*
X11216000Y-6920000D02*
G75*
G02*
X11284000Y-6920000I34000J0D01*
G01*
X11284000Y-9420000D02*
G75*
G02*
X11216000Y-9420000I-34000J0D01*
G01*
X11216000Y-9420000D02*
G75*
G02*
X11284000Y-9420000I34000J0D01*
G01*
X11284000Y-11920000D02*
G75*
G02*
X11216000Y-11920000I-34000J0D01*
G01*
X11216000Y-11920000D02*
G75*
G02*
X11284000Y-11920000I34000J0D01*
G01*
X11284000Y-14420000D02*
G75*
G02*
X11216000Y-14420000I-34000J0D01*
G01*
X11216000Y-14420000D02*
G75*
G02*
X11284000Y-14420000I34000J0D01*
G01*
X11284000Y-16919560D02*
G75*
G02*
X11216000Y-16919560I-34000J0D01*
G01*
X11216000Y-16919560D02*
G75*
G02*
X11284000Y-16919560I34000J0D01*
G01*
X11284000Y-19420000D02*
G75*
G02*
X11216000Y-19420000I-34000J0D01*
G01*
X11216000Y-19420000D02*
G75*
G02*
X11284000Y-19420000I34000J0D01*
G01*
X11284000Y-21920000D02*
G75*
G02*
X11216000Y-21920000I-34000J0D01*
G01*
X11216000Y-21920000D02*
G75*
G02*
X11284000Y-21920000I34000J0D01*
G01*
X11284000Y-24420000D02*
G75*
G02*
X11216000Y-24420000I-34000J0D01*
G01*
X11216000Y-24420000D02*
G75*
G02*
X11284000Y-24420000I34000J0D01*
G01*
X11414000Y-6920000D02*
G75*
G02*
X11346000Y-6920000I-34000J0D01*
G01*
X11346000Y-6920000D02*
G75*
G02*
X11414000Y-6920000I34000J0D01*
G01*
X11414000Y-9420000D02*
G75*
G02*
X11346000Y-9420000I-34000J0D01*
G01*
X11346000Y-9420000D02*
G75*
G02*
X11414000Y-9420000I34000J0D01*
G01*
X11414000Y-11920000D02*
G75*
G02*
X11346000Y-11920000I-34000J0D01*
G01*
X11346000Y-11920000D02*
G75*
G02*
X11414000Y-11920000I34000J0D01*
G01*
X11414000Y-14420000D02*
G75*
G02*
X11346000Y-14420000I-34000J0D01*
G01*
X11346000Y-14420000D02*
G75*
G02*
X11414000Y-14420000I34000J0D01*
G01*
X11414000Y-16919560D02*
G75*
G02*
X11346000Y-16919560I-34000J0D01*
G01*
X11346000Y-16919560D02*
G75*
G02*
X11414000Y-16919560I34000J0D01*
G01*
X11414000Y-19420000D02*
G75*
G02*
X11346000Y-19420000I-34000J0D01*
G01*
X11346000Y-19420000D02*
G75*
G02*
X11414000Y-19420000I34000J0D01*
G01*
X11414000Y-21920000D02*
G75*
G02*
X11346000Y-21920000I-34000J0D01*
G01*
X11346000Y-21920000D02*
G75*
G02*
X11414000Y-21920000I34000J0D01*
G01*
X11414000Y-24420000D02*
G75*
G02*
X11346000Y-24420000I-34000J0D01*
G01*
X11346000Y-24420000D02*
G75*
G02*
X11414000Y-24420000I34000J0D01*
G01*
X13654000Y-6920000D02*
G75*
G02*
X13586000Y-6920000I-34000J0D01*
G01*
X13586000Y-6920000D02*
G75*
G02*
X13654000Y-6920000I34000J0D01*
G01*
X13654000Y-9420000D02*
G75*
G02*
X13586000Y-9420000I-34000J0D01*
G01*
X13586000Y-9420000D02*
G75*
G02*
X13654000Y-9420000I34000J0D01*
G01*
X13654000Y-11920000D02*
G75*
G02*
X13586000Y-11920000I-34000J0D01*
G01*
X13586000Y-11920000D02*
G75*
G02*
X13654000Y-11920000I34000J0D01*
G01*
X13654000Y-14420000D02*
G75*
G02*
X13586000Y-14420000I-34000J0D01*
G01*
X13586000Y-14420000D02*
G75*
G02*
X13654000Y-14420000I34000J0D01*
G01*
X13654000Y-16920000D02*
G75*
G02*
X13586000Y-16920000I-34000J0D01*
G01*
X13586000Y-16920000D02*
G75*
G02*
X13654000Y-16920000I34000J0D01*
G01*
X13654000Y-19420000D02*
G75*
G02*
X13586000Y-19420000I-34000J0D01*
G01*
X13586000Y-19420000D02*
G75*
G02*
X13654000Y-19420000I34000J0D01*
G01*
X13654000Y-21920000D02*
G75*
G02*
X13586000Y-21920000I-34000J0D01*
G01*
X13586000Y-21920000D02*
G75*
G02*
X13654000Y-21920000I34000J0D01*
G01*
X13654000Y-24419560D02*
G75*
G02*
X13586000Y-24419560I-34000J0D01*
G01*
X13586000Y-24419560D02*
G75*
G02*
X13654000Y-24419560I34000J0D01*
G01*
X13784000Y-6920000D02*
G75*
G02*
X13716000Y-6920000I-34000J0D01*
G01*
X13716000Y-6920000D02*
G75*
G02*
X13784000Y-6920000I34000J0D01*
G01*
X13784000Y-9420000D02*
G75*
G02*
X13716000Y-9420000I-34000J0D01*
G01*
X13716000Y-9420000D02*
G75*
G02*
X13784000Y-9420000I34000J0D01*
G01*
X13784000Y-11920000D02*
G75*
G02*
X13716000Y-11920000I-34000J0D01*
G01*
X13716000Y-11920000D02*
G75*
G02*
X13784000Y-11920000I34000J0D01*
G01*
X13784000Y-14420000D02*
G75*
G02*
X13716000Y-14420000I-34000J0D01*
G01*
X13716000Y-14420000D02*
G75*
G02*
X13784000Y-14420000I34000J0D01*
G01*
X13784000Y-16920000D02*
G75*
G02*
X13716000Y-16920000I-34000J0D01*
G01*
X13716000Y-16920000D02*
G75*
G02*
X13784000Y-16920000I34000J0D01*
G01*
X13784000Y-19420000D02*
G75*
G02*
X13716000Y-19420000I-34000J0D01*
G01*
X13716000Y-19420000D02*
G75*
G02*
X13784000Y-19420000I34000J0D01*
G01*
X13784000Y-21920000D02*
G75*
G02*
X13716000Y-21920000I-34000J0D01*
G01*
X13716000Y-21920000D02*
G75*
G02*
X13784000Y-21920000I34000J0D01*
G01*
X13784000Y-24419560D02*
G75*
G02*
X13716000Y-24419560I-34000J0D01*
G01*
X13716000Y-24419560D02*
G75*
G02*
X13784000Y-24419560I34000J0D01*
G01*
X13914000Y-6920000D02*
G75*
G02*
X13846000Y-6920000I-34000J0D01*
G01*
X13846000Y-6920000D02*
G75*
G02*
X13914000Y-6920000I34000J0D01*
G01*
X13914000Y-9420000D02*
G75*
G02*
X13846000Y-9420000I-34000J0D01*
G01*
X13846000Y-9420000D02*
G75*
G02*
X13914000Y-9420000I34000J0D01*
G01*
X13914000Y-11920000D02*
G75*
G02*
X13846000Y-11920000I-34000J0D01*
G01*
X13846000Y-11920000D02*
G75*
G02*
X13914000Y-11920000I34000J0D01*
G01*
X13914000Y-14420000D02*
G75*
G02*
X13846000Y-14420000I-34000J0D01*
G01*
X13846000Y-14420000D02*
G75*
G02*
X13914000Y-14420000I34000J0D01*
G01*
X13914000Y-16920000D02*
G75*
G02*
X13846000Y-16920000I-34000J0D01*
G01*
X13846000Y-16920000D02*
G75*
G02*
X13914000Y-16920000I34000J0D01*
G01*
X13914000Y-19420000D02*
G75*
G02*
X13846000Y-19420000I-34000J0D01*
G01*
X13846000Y-19420000D02*
G75*
G02*
X13914000Y-19420000I34000J0D01*
G01*
X13914000Y-21920000D02*
G75*
G02*
X13846000Y-21920000I-34000J0D01*
G01*
X13846000Y-21920000D02*
G75*
G02*
X13914000Y-21920000I34000J0D01*
G01*
X13914000Y-24419560D02*
G75*
G02*
X13846000Y-24419560I-34000J0D01*
G01*
X13846000Y-24419560D02*
G75*
G02*
X13914000Y-24419560I34000J0D01*
G01*
X16154000Y-6920000D02*
G75*
G02*
X16086000Y-6920000I-34000J0D01*
G01*
X16086000Y-6920000D02*
G75*
G02*
X16154000Y-6920000I34000J0D01*
G01*
X16154000Y-9420000D02*
G75*
G02*
X16086000Y-9420000I-34000J0D01*
G01*
X16086000Y-9420000D02*
G75*
G02*
X16154000Y-9420000I34000J0D01*
G01*
X16154000Y-11920000D02*
G75*
G02*
X16086000Y-11920000I-34000J0D01*
G01*
X16086000Y-11920000D02*
G75*
G02*
X16154000Y-11920000I34000J0D01*
G01*
X16154000Y-14420000D02*
G75*
G02*
X16086000Y-14420000I-34000J0D01*
G01*
X16086000Y-14420000D02*
G75*
G02*
X16154000Y-14420000I34000J0D01*
G01*
X16154000Y-16920000D02*
G75*
G02*
X16086000Y-16920000I-34000J0D01*
G01*
X16086000Y-16920000D02*
G75*
G02*
X16154000Y-16920000I34000J0D01*
G01*
X16154000Y-19420000D02*
G75*
G02*
X16086000Y-19420000I-34000J0D01*
G01*
X16086000Y-19420000D02*
G75*
G02*
X16154000Y-19420000I34000J0D01*
G01*
X16154000Y-21920000D02*
G75*
G02*
X16086000Y-21920000I-34000J0D01*
G01*
X16086000Y-21920000D02*
G75*
G02*
X16154000Y-21920000I34000J0D01*
G01*
X16154000Y-24420000D02*
G75*
G02*
X16086000Y-24420000I-34000J0D01*
G01*
X16086000Y-24420000D02*
G75*
G02*
X16154000Y-24420000I34000J0D01*
G01*
X16284000Y-6920000D02*
G75*
G02*
X16216000Y-6920000I-34000J0D01*
G01*
X16216000Y-6920000D02*
G75*
G02*
X16284000Y-6920000I34000J0D01*
G01*
X16284000Y-9420000D02*
G75*
G02*
X16216000Y-9420000I-34000J0D01*
G01*
X16216000Y-9420000D02*
G75*
G02*
X16284000Y-9420000I34000J0D01*
G01*
X16284000Y-11920000D02*
G75*
G02*
X16216000Y-11920000I-34000J0D01*
G01*
X16216000Y-11920000D02*
G75*
G02*
X16284000Y-11920000I34000J0D01*
G01*
X16284000Y-14420000D02*
G75*
G02*
X16216000Y-14420000I-34000J0D01*
G01*
X16216000Y-14420000D02*
G75*
G02*
X16284000Y-14420000I34000J0D01*
G01*
X16284000Y-16920000D02*
G75*
G02*
X16216000Y-16920000I-34000J0D01*
G01*
X16216000Y-16920000D02*
G75*
G02*
X16284000Y-16920000I34000J0D01*
G01*
X16284000Y-19420000D02*
G75*
G02*
X16216000Y-19420000I-34000J0D01*
G01*
X16216000Y-19420000D02*
G75*
G02*
X16284000Y-19420000I34000J0D01*
G01*
X16284000Y-21920000D02*
G75*
G02*
X16216000Y-21920000I-34000J0D01*
G01*
X16216000Y-21920000D02*
G75*
G02*
X16284000Y-21920000I34000J0D01*
G01*
X16284000Y-24420000D02*
G75*
G02*
X16216000Y-24420000I-34000J0D01*
G01*
X16216000Y-24420000D02*
G75*
G02*
X16284000Y-24420000I34000J0D01*
G01*
X16414000Y-6920000D02*
G75*
G02*
X16346000Y-6920000I-34000J0D01*
G01*
X16346000Y-6920000D02*
G75*
G02*
X16414000Y-6920000I34000J0D01*
G01*
X16414000Y-9420000D02*
G75*
G02*
X16346000Y-9420000I-34000J0D01*
G01*
X16346000Y-9420000D02*
G75*
G02*
X16414000Y-9420000I34000J0D01*
G01*
X16414000Y-11920000D02*
G75*
G02*
X16346000Y-11920000I-34000J0D01*
G01*
X16346000Y-11920000D02*
G75*
G02*
X16414000Y-11920000I34000J0D01*
G01*
X16414000Y-14420000D02*
G75*
G02*
X16346000Y-14420000I-34000J0D01*
G01*
X16346000Y-14420000D02*
G75*
G02*
X16414000Y-14420000I34000J0D01*
G01*
X16414000Y-16920000D02*
G75*
G02*
X16346000Y-16920000I-34000J0D01*
G01*
X16346000Y-16920000D02*
G75*
G02*
X16414000Y-16920000I34000J0D01*
G01*
X16414000Y-19420000D02*
G75*
G02*
X16346000Y-19420000I-34000J0D01*
G01*
X16346000Y-19420000D02*
G75*
G02*
X16414000Y-19420000I34000J0D01*
G01*
X16414000Y-21920000D02*
G75*
G02*
X16346000Y-21920000I-34000J0D01*
G01*
X16346000Y-21920000D02*
G75*
G02*
X16414000Y-21920000I34000J0D01*
G01*
X16414000Y-24420000D02*
G75*
G02*
X16346000Y-24420000I-34000J0D01*
G01*
X16346000Y-24420000D02*
G75*
G02*
X16414000Y-24420000I34000J0D01*
G01*
X18654000Y-6920000D02*
G75*
G02*
X18586000Y-6920000I-34000J0D01*
G01*
X18586000Y-6920000D02*
G75*
G02*
X18654000Y-6920000I34000J0D01*
G01*
X18654000Y-9420000D02*
G75*
G02*
X18586000Y-9420000I-34000J0D01*
G01*
X18586000Y-9420000D02*
G75*
G02*
X18654000Y-9420000I34000J0D01*
G01*
X18654000Y-11920000D02*
G75*
G02*
X18586000Y-11920000I-34000J0D01*
G01*
X18586000Y-11920000D02*
G75*
G02*
X18654000Y-11920000I34000J0D01*
G01*
X18654000Y-14420000D02*
G75*
G02*
X18586000Y-14420000I-34000J0D01*
G01*
X18586000Y-14420000D02*
G75*
G02*
X18654000Y-14420000I34000J0D01*
G01*
X18654000Y-16920000D02*
G75*
G02*
X18586000Y-16920000I-34000J0D01*
G01*
X18586000Y-16920000D02*
G75*
G02*
X18654000Y-16920000I34000J0D01*
G01*
X18654000Y-19420000D02*
G75*
G02*
X18586000Y-19420000I-34000J0D01*
G01*
X18586000Y-19420000D02*
G75*
G02*
X18654000Y-19420000I34000J0D01*
G01*
X18654000Y-21920000D02*
G75*
G02*
X18586000Y-21920000I-34000J0D01*
G01*
X18586000Y-21920000D02*
G75*
G02*
X18654000Y-21920000I34000J0D01*
G01*
X18654000Y-24420000D02*
G75*
G02*
X18586000Y-24420000I-34000J0D01*
G01*
X18586000Y-24420000D02*
G75*
G02*
X18654000Y-24420000I34000J0D01*
G01*
X18784000Y-6920000D02*
G75*
G02*
X18716000Y-6920000I-34000J0D01*
G01*
X18716000Y-6920000D02*
G75*
G02*
X18784000Y-6920000I34000J0D01*
G01*
X18784000Y-9420000D02*
G75*
G02*
X18716000Y-9420000I-34000J0D01*
G01*
X18716000Y-9420000D02*
G75*
G02*
X18784000Y-9420000I34000J0D01*
G01*
X18784000Y-11920000D02*
G75*
G02*
X18716000Y-11920000I-34000J0D01*
G01*
X18716000Y-11920000D02*
G75*
G02*
X18784000Y-11920000I34000J0D01*
G01*
X18784000Y-14420000D02*
G75*
G02*
X18716000Y-14420000I-34000J0D01*
G01*
X18716000Y-14420000D02*
G75*
G02*
X18784000Y-14420000I34000J0D01*
G01*
X18784000Y-16920000D02*
G75*
G02*
X18716000Y-16920000I-34000J0D01*
G01*
X18716000Y-16920000D02*
G75*
G02*
X18784000Y-16920000I34000J0D01*
G01*
X18784000Y-19420000D02*
G75*
G02*
X18716000Y-19420000I-34000J0D01*
G01*
X18716000Y-19420000D02*
G75*
G02*
X18784000Y-19420000I34000J0D01*
G01*
X18784000Y-21920000D02*
G75*
G02*
X18716000Y-21920000I-34000J0D01*
G01*
X18716000Y-21920000D02*
G75*
G02*
X18784000Y-21920000I34000J0D01*
G01*
X18784000Y-24420000D02*
G75*
G02*
X18716000Y-24420000I-34000J0D01*
G01*
X18716000Y-24420000D02*
G75*
G02*
X18784000Y-24420000I34000J0D01*
G01*
X18914000Y-6920000D02*
G75*
G02*
X18846000Y-6920000I-34000J0D01*
G01*
X18846000Y-6920000D02*
G75*
G02*
X18914000Y-6920000I34000J0D01*
G01*
X18914000Y-9420000D02*
G75*
G02*
X18846000Y-9420000I-34000J0D01*
G01*
X18846000Y-9420000D02*
G75*
G02*
X18914000Y-9420000I34000J0D01*
G01*
X18914000Y-11920000D02*
G75*
G02*
X18846000Y-11920000I-34000J0D01*
G01*
X18846000Y-11920000D02*
G75*
G02*
X18914000Y-11920000I34000J0D01*
G01*
X18914000Y-14420000D02*
G75*
G02*
X18846000Y-14420000I-34000J0D01*
G01*
X18846000Y-14420000D02*
G75*
G02*
X18914000Y-14420000I34000J0D01*
G01*
X18914000Y-16920000D02*
G75*
G02*
X18846000Y-16920000I-34000J0D01*
G01*
X18846000Y-16920000D02*
G75*
G02*
X18914000Y-16920000I34000J0D01*
G01*
X18914000Y-19420000D02*
G75*
G02*
X18846000Y-19420000I-34000J0D01*
G01*
X18846000Y-19420000D02*
G75*
G02*
X18914000Y-19420000I34000J0D01*
G01*
X18914000Y-21920000D02*
G75*
G02*
X18846000Y-21920000I-34000J0D01*
G01*
X18846000Y-21920000D02*
G75*
G02*
X18914000Y-21920000I34000J0D01*
G01*
X18914000Y-24420000D02*
G75*
G02*
X18846000Y-24420000I-34000J0D01*
G01*
X18846000Y-24420000D02*
G75*
G02*
X18914000Y-24420000I34000J0D01*
G01*
X21154000Y-6920000D02*
G75*
G02*
X21086000Y-6920000I-34000J0D01*
G01*
X21086000Y-6920000D02*
G75*
G02*
X21154000Y-6920000I34000J0D01*
G01*
X21154000Y-9420000D02*
G75*
G02*
X21086000Y-9420000I-34000J0D01*
G01*
X21086000Y-9420000D02*
G75*
G02*
X21154000Y-9420000I34000J0D01*
G01*
X21154000Y-11920000D02*
G75*
G02*
X21086000Y-11920000I-34000J0D01*
G01*
X21086000Y-11920000D02*
G75*
G02*
X21154000Y-11920000I34000J0D01*
G01*
X21154000Y-14420000D02*
G75*
G02*
X21086000Y-14420000I-34000J0D01*
G01*
X21086000Y-14420000D02*
G75*
G02*
X21154000Y-14420000I34000J0D01*
G01*
X21154000Y-16920000D02*
G75*
G02*
X21086000Y-16920000I-34000J0D01*
G01*
X21086000Y-16920000D02*
G75*
G02*
X21154000Y-16920000I34000J0D01*
G01*
X21154000Y-19420000D02*
G75*
G02*
X21086000Y-19420000I-34000J0D01*
G01*
X21086000Y-19420000D02*
G75*
G02*
X21154000Y-19420000I34000J0D01*
G01*
X21154000Y-21920000D02*
G75*
G02*
X21086000Y-21920000I-34000J0D01*
G01*
X21086000Y-21920000D02*
G75*
G02*
X21154000Y-21920000I34000J0D01*
G01*
X21154000Y-24420000D02*
G75*
G02*
X21086000Y-24420000I-34000J0D01*
G01*
X21086000Y-24420000D02*
G75*
G02*
X21154000Y-24420000I34000J0D01*
G01*
X21284000Y-6920000D02*
G75*
G02*
X21216000Y-6920000I-34000J0D01*
G01*
X21216000Y-6920000D02*
G75*
G02*
X21284000Y-6920000I34000J0D01*
G01*
X21284000Y-9420000D02*
G75*
G02*
X21216000Y-9420000I-34000J0D01*
G01*
X21216000Y-9420000D02*
G75*
G02*
X21284000Y-9420000I34000J0D01*
G01*
X21284000Y-11920000D02*
G75*
G02*
X21216000Y-11920000I-34000J0D01*
G01*
X21216000Y-11920000D02*
G75*
G02*
X21284000Y-11920000I34000J0D01*
G01*
X21284000Y-14420000D02*
G75*
G02*
X21216000Y-14420000I-34000J0D01*
G01*
X21216000Y-14420000D02*
G75*
G02*
X21284000Y-14420000I34000J0D01*
G01*
X21284000Y-16920000D02*
G75*
G02*
X21216000Y-16920000I-34000J0D01*
G01*
X21216000Y-16920000D02*
G75*
G02*
X21284000Y-16920000I34000J0D01*
G01*
X21284000Y-19420000D02*
G75*
G02*
X21216000Y-19420000I-34000J0D01*
G01*
X21216000Y-19420000D02*
G75*
G02*
X21284000Y-19420000I34000J0D01*
G01*
X21284000Y-21920000D02*
G75*
G02*
X21216000Y-21920000I-34000J0D01*
G01*
X21216000Y-21920000D02*
G75*
G02*
X21284000Y-21920000I34000J0D01*
G01*
X21284000Y-24420000D02*
G75*
G02*
X21216000Y-24420000I-34000J0D01*
G01*
X21216000Y-24420000D02*
G75*
G02*
X21284000Y-24420000I34000J0D01*
G01*
X21414000Y-6920000D02*
G75*
G02*
X21346000Y-6920000I-34000J0D01*
G01*
X21346000Y-6920000D02*
G75*
G02*
X21414000Y-6920000I34000J0D01*
G01*
X21414000Y-9420000D02*
G75*
G02*
X21346000Y-9420000I-34000J0D01*
G01*
X21346000Y-9420000D02*
G75*
G02*
X21414000Y-9420000I34000J0D01*
G01*
X21414000Y-11920000D02*
G75*
G02*
X21346000Y-11920000I-34000J0D01*
G01*
X21346000Y-11920000D02*
G75*
G02*
X21414000Y-11920000I34000J0D01*
G01*
X21414000Y-14420000D02*
G75*
G02*
X21346000Y-14420000I-34000J0D01*
G01*
X21346000Y-14420000D02*
G75*
G02*
X21414000Y-14420000I34000J0D01*
G01*
X21414000Y-16920000D02*
G75*
G02*
X21346000Y-16920000I-34000J0D01*
G01*
X21346000Y-16920000D02*
G75*
G02*
X21414000Y-16920000I34000J0D01*
G01*
X21414000Y-19420000D02*
G75*
G02*
X21346000Y-19420000I-34000J0D01*
G01*
X21346000Y-19420000D02*
G75*
G02*
X21414000Y-19420000I34000J0D01*
G01*
X21414000Y-21920000D02*
G75*
G02*
X21346000Y-21920000I-34000J0D01*
G01*
X21346000Y-21920000D02*
G75*
G02*
X21414000Y-21920000I34000J0D01*
G01*
X21414000Y-24420000D02*
G75*
G02*
X21346000Y-24420000I-34000J0D01*
G01*
X21346000Y-24420000D02*
G75*
G02*
X21414000Y-24420000I34000J0D01*
G01*
X23654000Y-6920000D02*
G75*
G02*
X23586000Y-6920000I-34000J0D01*
G01*
X23586000Y-6920000D02*
G75*
G02*
X23654000Y-6920000I34000J0D01*
G01*
X23654000Y-9420000D02*
G75*
G02*
X23586000Y-9420000I-34000J0D01*
G01*
X23586000Y-9420000D02*
G75*
G02*
X23654000Y-9420000I34000J0D01*
G01*
X23654000Y-11920000D02*
G75*
G02*
X23586000Y-11920000I-34000J0D01*
G01*
X23586000Y-11920000D02*
G75*
G02*
X23654000Y-11920000I34000J0D01*
G01*
X23654000Y-14420000D02*
G75*
G02*
X23586000Y-14420000I-34000J0D01*
G01*
X23586000Y-14420000D02*
G75*
G02*
X23654000Y-14420000I34000J0D01*
G01*
X23654000Y-16920000D02*
G75*
G02*
X23586000Y-16920000I-34000J0D01*
G01*
X23586000Y-16920000D02*
G75*
G02*
X23654000Y-16920000I34000J0D01*
G01*
X23654000Y-19420000D02*
G75*
G02*
X23586000Y-19420000I-34000J0D01*
G01*
X23586000Y-19420000D02*
G75*
G02*
X23654000Y-19420000I34000J0D01*
G01*
X23654000Y-21920000D02*
G75*
G02*
X23586000Y-21920000I-34000J0D01*
G01*
X23586000Y-21920000D02*
G75*
G02*
X23654000Y-21920000I34000J0D01*
G01*
X23654000Y-24420000D02*
G75*
G02*
X23586000Y-24420000I-34000J0D01*
G01*
X23586000Y-24420000D02*
G75*
G02*
X23654000Y-24420000I34000J0D01*
G01*
X23784000Y-6920000D02*
G75*
G02*
X23716000Y-6920000I-34000J0D01*
G01*
X23716000Y-6920000D02*
G75*
G02*
X23784000Y-6920000I34000J0D01*
G01*
X23784000Y-9420000D02*
G75*
G02*
X23716000Y-9420000I-34000J0D01*
G01*
X23716000Y-9420000D02*
G75*
G02*
X23784000Y-9420000I34000J0D01*
G01*
X23784000Y-11920000D02*
G75*
G02*
X23716000Y-11920000I-34000J0D01*
G01*
X23716000Y-11920000D02*
G75*
G02*
X23784000Y-11920000I34000J0D01*
G01*
X23784000Y-14420000D02*
G75*
G02*
X23716000Y-14420000I-34000J0D01*
G01*
X23716000Y-14420000D02*
G75*
G02*
X23784000Y-14420000I34000J0D01*
G01*
X23784000Y-16920000D02*
G75*
G02*
X23716000Y-16920000I-34000J0D01*
G01*
X23716000Y-16920000D02*
G75*
G02*
X23784000Y-16920000I34000J0D01*
G01*
X23784000Y-19420000D02*
G75*
G02*
X23716000Y-19420000I-34000J0D01*
G01*
X23716000Y-19420000D02*
G75*
G02*
X23784000Y-19420000I34000J0D01*
G01*
X23784000Y-21920000D02*
G75*
G02*
X23716000Y-21920000I-34000J0D01*
G01*
X23716000Y-21920000D02*
G75*
G02*
X23784000Y-21920000I34000J0D01*
G01*
X23784000Y-24420000D02*
G75*
G02*
X23716000Y-24420000I-34000J0D01*
G01*
X23716000Y-24420000D02*
G75*
G02*
X23784000Y-24420000I34000J0D01*
G01*
X23914000Y-6920000D02*
G75*
G02*
X23846000Y-6920000I-34000J0D01*
G01*
X23846000Y-6920000D02*
G75*
G02*
X23914000Y-6920000I34000J0D01*
G01*
X23914000Y-9420000D02*
G75*
G02*
X23846000Y-9420000I-34000J0D01*
G01*
X23846000Y-9420000D02*
G75*
G02*
X23914000Y-9420000I34000J0D01*
G01*
X23914000Y-11920000D02*
G75*
G02*
X23846000Y-11920000I-34000J0D01*
G01*
X23846000Y-11920000D02*
G75*
G02*
X23914000Y-11920000I34000J0D01*
G01*
X23914000Y-14420000D02*
G75*
G02*
X23846000Y-14420000I-34000J0D01*
G01*
X23846000Y-14420000D02*
G75*
G02*
X23914000Y-14420000I34000J0D01*
G01*
X23914000Y-16920000D02*
G75*
G02*
X23846000Y-16920000I-34000J0D01*
G01*
X23846000Y-16920000D02*
G75*
G02*
X23914000Y-16920000I34000J0D01*
G01*
X23914000Y-19420000D02*
G75*
G02*
X23846000Y-19420000I-34000J0D01*
G01*
X23846000Y-19420000D02*
G75*
G02*
X23914000Y-19420000I34000J0D01*
G01*
X23914000Y-21920000D02*
G75*
G02*
X23846000Y-21920000I-34000J0D01*
G01*
X23846000Y-21920000D02*
G75*
G02*
X23914000Y-21920000I34000J0D01*
G01*
X23914000Y-24420000D02*
G75*
G02*
X23846000Y-24420000I-34000J0D01*
G01*
X23846000Y-24420000D02*
G75*
G02*
X23914000Y-24420000I34000J0D01*
G01*
X14555000Y-6320000D02*
X14555000Y-6400000D01*
X14515000Y-6360000D02*
X14595000Y-6360000D01*
X14555000Y-11380000D02*
X14555000Y-11460000D01*
X14515000Y-11420000D02*
X14595000Y-11420000D01*
X14555000Y-16320000D02*
X14555000Y-16400000D01*
X14515000Y-16360000D02*
X14595000Y-16360000D01*
X14555000Y-21320000D02*
X14555000Y-21400000D01*
X14515000Y-21360000D02*
X14595000Y-21360000D01*
X14805000Y-6320000D02*
X14805000Y-6400000D01*
X14765000Y-6360000D02*
X14845000Y-6360000D01*
X14805000Y-11380000D02*
X14805000Y-11460000D01*
X14765000Y-11420000D02*
X14845000Y-11420000D01*
X14805000Y-16320000D02*
X14805000Y-16400000D01*
X14765000Y-16360000D02*
X14845000Y-16360000D01*
X14805000Y-21320000D02*
X14805000Y-21400000D01*
X14765000Y-21360000D02*
X14845000Y-21360000D01*
X12775356Y-6325356D02*
X12775356Y-6254644D01*
X12704644Y-6254644D01*
X12704644Y-6325356D01*
X12775356Y-6325356D01*
X13195356Y-6325356D02*
X13195356Y-6254644D01*
X13124644Y-6254644D01*
X13124644Y-6325356D01*
X13195356Y-6325356D01*
X13260356Y-10375356D02*
X13260356Y-10304644D01*
X13189644Y-10304644D01*
X13189644Y-10375356D01*
X13260356Y-10375356D01*
X13260356Y-10880356D02*
X13260356Y-10809644D01*
X13189644Y-10809644D01*
X13189644Y-10880356D01*
X13260356Y-10880356D01*
X13260356Y-11385356D02*
X13260356Y-11314644D01*
X13189644Y-11314644D01*
X13189644Y-11385356D01*
X13260356Y-11385356D01*
X13260356Y-11890356D02*
X13260356Y-11819644D01*
X13189644Y-11819644D01*
X13189644Y-11890356D01*
X13260356Y-11890356D01*
X14725356Y-10535356D02*
X14725356Y-10464644D01*
X14654644Y-10464644D01*
X14654644Y-10535356D01*
X14725356Y-10535356D01*
X21760356Y-5741356D02*
X21760356Y-5670644D01*
X21689644Y-5670644D01*
X21689644Y-5741356D01*
X21760356Y-5741356D01*
X21760356Y-5995356D02*
X21760356Y-5924644D01*
X21689644Y-5924644D01*
X21689644Y-5995356D01*
X21760356Y-5995356D01*
X21760356Y-6249356D02*
X21760356Y-6178644D01*
X21689644Y-6178644D01*
X21689644Y-6249356D01*
X21760356Y-6249356D01*
X21760356Y-6503356D02*
X21760356Y-6432644D01*
X21689644Y-6432644D01*
X21689644Y-6503356D01*
X21760356Y-6503356D01*
X21760356Y-6757356D02*
X21760356Y-6686644D01*
X21689644Y-6686644D01*
X21689644Y-6757356D01*
X21760356Y-6757356D01*
X21760356Y-7011356D02*
X21760356Y-6940644D01*
X21689644Y-6940644D01*
X21689644Y-7011356D01*
X21760356Y-7011356D01*
X21760356Y-7265356D02*
X21760356Y-7194644D01*
X21689644Y-7194644D01*
X21689644Y-7265356D01*
X21760356Y-7265356D01*
X21760356Y-7519356D02*
X21760356Y-7448644D01*
X21689644Y-7448644D01*
X21689644Y-7519356D01*
X21760356Y-7519356D01*
X21760356Y-7773356D02*
X21760356Y-7702644D01*
X21689644Y-7702644D01*
X21689644Y-7773356D01*
X21760356Y-7773356D01*
X21760356Y-8027356D02*
X21760356Y-7956644D01*
X21689644Y-7956644D01*
X21689644Y-8027356D01*
X21760356Y-8027356D01*
X21760356Y-8281356D02*
X21760356Y-8210644D01*
X21689644Y-8210644D01*
X21689644Y-8281356D01*
X21760356Y-8281356D01*
X21760356Y-8535356D02*
X21760356Y-8464644D01*
X21689644Y-8464644D01*
X21689644Y-8535356D01*
X21760356Y-8535356D01*
X21760356Y-8789356D02*
X21760356Y-8718644D01*
X21689644Y-8718644D01*
X21689644Y-8789356D01*
X21760356Y-8789356D01*
X21760356Y-9043356D02*
X21760356Y-8972644D01*
X21689644Y-8972644D01*
X21689644Y-9043356D01*
X21760356Y-9043356D01*
X21760356Y-9297356D02*
X21760356Y-9226644D01*
X21689644Y-9226644D01*
X21689644Y-9297356D01*
X21760356Y-9297356D01*
X22335356Y-10585356D02*
X22335356Y-10514644D01*
X22264644Y-10514644D01*
X22264644Y-10585356D01*
X22335356Y-10585356D01*
X22335356Y-11110356D02*
X22335356Y-11039644D01*
X22264644Y-11039644D01*
X22264644Y-11110356D01*
X22335356Y-11110356D01*
X22335356Y-11605356D02*
X22335356Y-11534644D01*
X22264644Y-11534644D01*
X22264644Y-11605356D01*
X22335356Y-11605356D01*
X22335356Y-12105356D02*
X22335356Y-12034644D01*
X22264644Y-12034644D01*
X22264644Y-12105356D01*
X22335356Y-12105356D01*
X23284356Y-5741356D02*
X23284356Y-5670644D01*
X23213644Y-5670644D01*
X23213644Y-5741356D01*
X23284356Y-5741356D01*
X23284356Y-5995356D02*
X23284356Y-5924644D01*
X23213644Y-5924644D01*
X23213644Y-5995356D01*
X23284356Y-5995356D01*
X23284356Y-6249356D02*
X23284356Y-6178644D01*
X23213644Y-6178644D01*
X23213644Y-6249356D01*
X23284356Y-6249356D01*
X23284356Y-6503356D02*
X23284356Y-6432644D01*
X23213644Y-6432644D01*
X23213644Y-6503356D01*
X23284356Y-6503356D01*
X23284356Y-6757356D02*
X23284356Y-6686644D01*
X23213644Y-6686644D01*
X23213644Y-6757356D01*
X23284356Y-6757356D01*
X23284356Y-7011356D02*
X23284356Y-6940644D01*
X23213644Y-6940644D01*
X23213644Y-7011356D01*
X23284356Y-7011356D01*
X23284356Y-7265356D02*
X23284356Y-7194644D01*
X23213644Y-7194644D01*
X23213644Y-7265356D01*
X23284356Y-7265356D01*
X23284356Y-7519356D02*
X23284356Y-7448644D01*
X23213644Y-7448644D01*
X23213644Y-7519356D01*
X23284356Y-7519356D01*
X23284356Y-7773356D02*
X23284356Y-7702644D01*
X23213644Y-7702644D01*
X23213644Y-7773356D01*
X23284356Y-7773356D01*
X23284356Y-8027356D02*
X23284356Y-7956644D01*
X23213644Y-7956644D01*
X23213644Y-8027356D01*
X23284356Y-8027356D01*
X23284356Y-8281356D02*
X23284356Y-8210644D01*
X23213644Y-8210644D01*
X23213644Y-8281356D01*
X23284356Y-8281356D01*
X23284356Y-8535356D02*
X23284356Y-8464644D01*
X23213644Y-8464644D01*
X23213644Y-8535356D01*
X23284356Y-8535356D01*
X23284356Y-8789356D02*
X23284356Y-8718644D01*
X23213644Y-8718644D01*
X23213644Y-8789356D01*
X23284356Y-8789356D01*
X23284356Y-9043356D02*
X23284356Y-8972644D01*
X23213644Y-8972644D01*
X23213644Y-9043356D01*
X23284356Y-9043356D01*
X23284356Y-9297356D02*
X23284356Y-9226644D01*
X23213644Y-9226644D01*
X23213644Y-9297356D01*
X23284356Y-9297356D01*
X24855356Y-5213356D02*
X24855356Y-5142644D01*
X24784644Y-5142644D01*
X24784644Y-5213356D01*
X24855356Y-5213356D01*
X24855356Y-5467356D02*
X24855356Y-5396644D01*
X24784644Y-5396644D01*
X24784644Y-5467356D01*
X24855356Y-5467356D01*
X24855356Y-5721356D02*
X24855356Y-5650644D01*
X24784644Y-5650644D01*
X24784644Y-5721356D01*
X24855356Y-5721356D01*
X24855356Y-5975356D02*
X24855356Y-5904644D01*
X24784644Y-5904644D01*
X24784644Y-5975356D01*
X24855356Y-5975356D01*
D11*
X5258872Y-25313389D02*
X5258872Y-25113389D01*
X5258872Y-25113389D02*
X5306491Y-25113389D01*
X5306491Y-25113389D02*
X5335062Y-25122913D01*
X5335062Y-25122913D02*
X5354110Y-25141960D01*
X5354110Y-25141960D02*
X5363634Y-25161008D01*
X5363634Y-25161008D02*
X5373158Y-25199103D01*
X5373158Y-25199103D02*
X5373158Y-25227674D01*
X5373158Y-25227674D02*
X5363634Y-25265770D01*
X5363634Y-25265770D02*
X5354110Y-25284817D01*
X5354110Y-25284817D02*
X5335062Y-25303865D01*
X5335062Y-25303865D02*
X5306491Y-25313389D01*
X5306491Y-25313389D02*
X5258872Y-25313389D01*
X5458872Y-25313389D02*
X5458872Y-25180055D01*
X5458872Y-25218151D02*
X5468396Y-25199103D01*
X5468396Y-25199103D02*
X5477919Y-25189579D01*
X5477919Y-25189579D02*
X5496967Y-25180055D01*
X5496967Y-25180055D02*
X5516015Y-25180055D01*
X5582681Y-25313389D02*
X5582681Y-25180055D01*
X5582681Y-25113389D02*
X5573158Y-25122913D01*
X5573158Y-25122913D02*
X5582681Y-25132436D01*
X5582681Y-25132436D02*
X5592205Y-25122913D01*
X5592205Y-25122913D02*
X5582681Y-25113389D01*
X5582681Y-25113389D02*
X5582681Y-25132436D01*
X5706491Y-25313389D02*
X5687443Y-25303865D01*
X5687443Y-25303865D02*
X5677919Y-25284817D01*
X5677919Y-25284817D02*
X5677919Y-25113389D01*
X5811253Y-25313389D02*
X5792205Y-25303865D01*
X5792205Y-25303865D02*
X5782681Y-25284817D01*
X5782681Y-25284817D02*
X5782681Y-25113389D01*
X6039824Y-25313389D02*
X6039824Y-25113389D01*
X6039824Y-25113389D02*
X6106491Y-25256246D01*
X6106491Y-25256246D02*
X6173157Y-25113389D01*
X6173157Y-25113389D02*
X6173157Y-25313389D01*
X6354110Y-25313389D02*
X6354110Y-25208627D01*
X6354110Y-25208627D02*
X6344586Y-25189579D01*
X6344586Y-25189579D02*
X6325538Y-25180055D01*
X6325538Y-25180055D02*
X6287443Y-25180055D01*
X6287443Y-25180055D02*
X6268396Y-25189579D01*
X6354110Y-25303865D02*
X6335062Y-25313389D01*
X6335062Y-25313389D02*
X6287443Y-25313389D01*
X6287443Y-25313389D02*
X6268396Y-25303865D01*
X6268396Y-25303865D02*
X6258872Y-25284817D01*
X6258872Y-25284817D02*
X6258872Y-25265770D01*
X6258872Y-25265770D02*
X6268396Y-25246722D01*
X6268396Y-25246722D02*
X6287443Y-25237198D01*
X6287443Y-25237198D02*
X6335062Y-25237198D01*
X6335062Y-25237198D02*
X6354110Y-25227674D01*
X6449348Y-25180055D02*
X6449348Y-25380055D01*
X6449348Y-25189579D02*
X6468396Y-25180055D01*
X6468396Y-25180055D02*
X6506491Y-25180055D01*
X6506491Y-25180055D02*
X6525538Y-25189579D01*
X6525538Y-25189579D02*
X6535062Y-25199103D01*
X6535062Y-25199103D02*
X6544586Y-25218151D01*
X6544586Y-25218151D02*
X6544586Y-25275293D01*
X6544586Y-25275293D02*
X6535062Y-25294341D01*
X6535062Y-25294341D02*
X6525538Y-25303865D01*
X6525538Y-25303865D02*
X6506491Y-25313389D01*
X6506491Y-25313389D02*
X6468396Y-25313389D01*
X6468396Y-25313389D02*
X6449348Y-25303865D01*
X6630300Y-25294341D02*
X6639824Y-25303865D01*
X6639824Y-25303865D02*
X6630300Y-25313389D01*
X6630300Y-25313389D02*
X6620777Y-25303865D01*
X6620777Y-25303865D02*
X6630300Y-25294341D01*
X6630300Y-25294341D02*
X6630300Y-25313389D01*
X6630300Y-25189579D02*
X6639824Y-25199103D01*
X6639824Y-25199103D02*
X6630300Y-25208627D01*
X6630300Y-25208627D02*
X6620777Y-25199103D01*
X6620777Y-25199103D02*
X6630300Y-25189579D01*
X6630300Y-25189579D02*
X6630300Y-25208627D01*
D12*
X4959995Y-25622855D02*
X4998095Y-25660955D01*
X4998095Y-25622855D02*
X4959995Y-25660955D01*
D11*
X5296967Y-25533389D02*
X5316015Y-25533389D01*
X5316015Y-25533389D02*
X5335062Y-25542913D01*
X5335062Y-25542913D02*
X5344586Y-25552436D01*
X5344586Y-25552436D02*
X5354110Y-25571484D01*
X5354110Y-25571484D02*
X5363634Y-25609579D01*
X5363634Y-25609579D02*
X5363634Y-25657198D01*
X5363634Y-25657198D02*
X5354110Y-25695293D01*
X5354110Y-25695293D02*
X5344586Y-25714341D01*
X5344586Y-25714341D02*
X5335062Y-25723865D01*
X5335062Y-25723865D02*
X5316015Y-25733389D01*
X5316015Y-25733389D02*
X5296967Y-25733389D01*
X5296967Y-25733389D02*
X5277919Y-25723865D01*
X5277919Y-25723865D02*
X5268396Y-25714341D01*
X5268396Y-25714341D02*
X5258872Y-25695293D01*
X5258872Y-25695293D02*
X5249348Y-25657198D01*
X5249348Y-25657198D02*
X5249348Y-25609579D01*
X5249348Y-25609579D02*
X5258872Y-25571484D01*
X5258872Y-25571484D02*
X5268396Y-25552436D01*
X5268396Y-25552436D02*
X5277919Y-25542913D01*
X5277919Y-25542913D02*
X5296967Y-25533389D01*
X5449348Y-25714341D02*
X5458872Y-25723865D01*
X5458872Y-25723865D02*
X5449348Y-25733389D01*
X5449348Y-25733389D02*
X5439824Y-25723865D01*
X5439824Y-25723865D02*
X5449348Y-25714341D01*
X5449348Y-25714341D02*
X5449348Y-25733389D01*
X5525539Y-25533389D02*
X5649348Y-25533389D01*
X5649348Y-25533389D02*
X5582681Y-25609579D01*
X5582681Y-25609579D02*
X5611253Y-25609579D01*
X5611253Y-25609579D02*
X5630300Y-25619103D01*
X5630300Y-25619103D02*
X5639824Y-25628627D01*
X5639824Y-25628627D02*
X5649348Y-25647674D01*
X5649348Y-25647674D02*
X5649348Y-25695293D01*
X5649348Y-25695293D02*
X5639824Y-25714341D01*
X5639824Y-25714341D02*
X5630300Y-25723865D01*
X5630300Y-25723865D02*
X5611253Y-25733389D01*
X5611253Y-25733389D02*
X5554110Y-25733389D01*
X5554110Y-25733389D02*
X5535062Y-25723865D01*
X5535062Y-25723865D02*
X5525539Y-25714341D01*
X5763634Y-25619103D02*
X5744586Y-25609579D01*
X5744586Y-25609579D02*
X5735062Y-25600055D01*
X5735062Y-25600055D02*
X5725538Y-25581008D01*
X5725538Y-25581008D02*
X5725538Y-25571484D01*
X5725538Y-25571484D02*
X5735062Y-25552436D01*
X5735062Y-25552436D02*
X5744586Y-25542913D01*
X5744586Y-25542913D02*
X5763634Y-25533389D01*
X5763634Y-25533389D02*
X5801729Y-25533389D01*
X5801729Y-25533389D02*
X5820777Y-25542913D01*
X5820777Y-25542913D02*
X5830300Y-25552436D01*
X5830300Y-25552436D02*
X5839824Y-25571484D01*
X5839824Y-25571484D02*
X5839824Y-25581008D01*
X5839824Y-25581008D02*
X5830300Y-25600055D01*
X5830300Y-25600055D02*
X5820777Y-25609579D01*
X5820777Y-25609579D02*
X5801729Y-25619103D01*
X5801729Y-25619103D02*
X5763634Y-25619103D01*
X5763634Y-25619103D02*
X5744586Y-25628627D01*
X5744586Y-25628627D02*
X5735062Y-25638151D01*
X5735062Y-25638151D02*
X5725538Y-25657198D01*
X5725538Y-25657198D02*
X5725538Y-25695293D01*
X5725538Y-25695293D02*
X5735062Y-25714341D01*
X5735062Y-25714341D02*
X5744586Y-25723865D01*
X5744586Y-25723865D02*
X5763634Y-25733389D01*
X5763634Y-25733389D02*
X5801729Y-25733389D01*
X5801729Y-25733389D02*
X5820777Y-25723865D01*
X5820777Y-25723865D02*
X5830300Y-25714341D01*
X5830300Y-25714341D02*
X5839824Y-25695293D01*
X5839824Y-25695293D02*
X5839824Y-25657198D01*
X5839824Y-25657198D02*
X5830300Y-25638151D01*
X5830300Y-25638151D02*
X5820777Y-25628627D01*
X5820777Y-25628627D02*
X5801729Y-25619103D01*
X6030300Y-25733389D02*
X5916015Y-25733389D01*
X5973157Y-25733389D02*
X5973157Y-25533389D01*
X5973157Y-25533389D02*
X5954110Y-25561960D01*
X5954110Y-25561960D02*
X5935062Y-25581008D01*
X5935062Y-25581008D02*
X5916015Y-25590532D01*
X6116015Y-25733389D02*
X6116015Y-25600055D01*
X6116015Y-25619103D02*
X6125538Y-25609579D01*
X6125538Y-25609579D02*
X6144586Y-25600055D01*
X6144586Y-25600055D02*
X6173158Y-25600055D01*
X6173158Y-25600055D02*
X6192205Y-25609579D01*
X6192205Y-25609579D02*
X6201729Y-25628627D01*
X6201729Y-25628627D02*
X6201729Y-25733389D01*
X6201729Y-25628627D02*
X6211253Y-25609579D01*
X6211253Y-25609579D02*
X6230300Y-25600055D01*
X6230300Y-25600055D02*
X6258872Y-25600055D01*
X6258872Y-25600055D02*
X6277919Y-25609579D01*
X6277919Y-25609579D02*
X6287443Y-25628627D01*
X6287443Y-25628627D02*
X6287443Y-25733389D01*
X6382681Y-25733389D02*
X6382681Y-25600055D01*
X6382681Y-25619103D02*
X6392205Y-25609579D01*
X6392205Y-25609579D02*
X6411253Y-25600055D01*
X6411253Y-25600055D02*
X6439824Y-25600055D01*
X6439824Y-25600055D02*
X6458872Y-25609579D01*
X6458872Y-25609579D02*
X6468396Y-25628627D01*
X6468396Y-25628627D02*
X6468396Y-25733389D01*
X6468396Y-25628627D02*
X6477919Y-25609579D01*
X6477919Y-25609579D02*
X6496967Y-25600055D01*
X6496967Y-25600055D02*
X6525538Y-25600055D01*
X6525538Y-25600055D02*
X6544586Y-25609579D01*
X6544586Y-25609579D02*
X6554110Y-25628627D01*
X6554110Y-25628627D02*
X6554110Y-25733389D01*
X6944586Y-25523865D02*
X6773158Y-25781008D01*
X7201729Y-25533389D02*
X7220777Y-25533389D01*
X7220777Y-25533389D02*
X7239824Y-25542913D01*
X7239824Y-25542913D02*
X7249348Y-25552436D01*
X7249348Y-25552436D02*
X7258872Y-25571484D01*
X7258872Y-25571484D02*
X7268396Y-25609579D01*
X7268396Y-25609579D02*
X7268396Y-25657198D01*
X7268396Y-25657198D02*
X7258872Y-25695293D01*
X7258872Y-25695293D02*
X7249348Y-25714341D01*
X7249348Y-25714341D02*
X7239824Y-25723865D01*
X7239824Y-25723865D02*
X7220777Y-25733389D01*
X7220777Y-25733389D02*
X7201729Y-25733389D01*
X7201729Y-25733389D02*
X7182681Y-25723865D01*
X7182681Y-25723865D02*
X7173158Y-25714341D01*
X7173158Y-25714341D02*
X7163634Y-25695293D01*
X7163634Y-25695293D02*
X7154110Y-25657198D01*
X7154110Y-25657198D02*
X7154110Y-25609579D01*
X7154110Y-25609579D02*
X7163634Y-25571484D01*
X7163634Y-25571484D02*
X7173158Y-25552436D01*
X7173158Y-25552436D02*
X7182681Y-25542913D01*
X7182681Y-25542913D02*
X7201729Y-25533389D01*
X7354110Y-25714341D02*
X7363634Y-25723865D01*
X7363634Y-25723865D02*
X7354110Y-25733389D01*
X7354110Y-25733389D02*
X7344586Y-25723865D01*
X7344586Y-25723865D02*
X7354110Y-25714341D01*
X7354110Y-25714341D02*
X7354110Y-25733389D01*
X7487443Y-25533389D02*
X7506491Y-25533389D01*
X7506491Y-25533389D02*
X7525539Y-25542913D01*
X7525539Y-25542913D02*
X7535062Y-25552436D01*
X7535062Y-25552436D02*
X7544586Y-25571484D01*
X7544586Y-25571484D02*
X7554110Y-25609579D01*
X7554110Y-25609579D02*
X7554110Y-25657198D01*
X7554110Y-25657198D02*
X7544586Y-25695293D01*
X7544586Y-25695293D02*
X7535062Y-25714341D01*
X7535062Y-25714341D02*
X7525539Y-25723865D01*
X7525539Y-25723865D02*
X7506491Y-25733389D01*
X7506491Y-25733389D02*
X7487443Y-25733389D01*
X7487443Y-25733389D02*
X7468396Y-25723865D01*
X7468396Y-25723865D02*
X7458872Y-25714341D01*
X7458872Y-25714341D02*
X7449348Y-25695293D01*
X7449348Y-25695293D02*
X7439824Y-25657198D01*
X7439824Y-25657198D02*
X7439824Y-25609579D01*
X7439824Y-25609579D02*
X7449348Y-25571484D01*
X7449348Y-25571484D02*
X7458872Y-25552436D01*
X7458872Y-25552436D02*
X7468396Y-25542913D01*
X7468396Y-25542913D02*
X7487443Y-25533389D01*
X7744586Y-25733389D02*
X7630301Y-25733389D01*
X7687443Y-25733389D02*
X7687443Y-25533389D01*
X7687443Y-25533389D02*
X7668396Y-25561960D01*
X7668396Y-25561960D02*
X7649348Y-25581008D01*
X7649348Y-25581008D02*
X7630301Y-25590532D01*
X7925539Y-25533389D02*
X7830301Y-25533389D01*
X7830301Y-25533389D02*
X7820777Y-25628627D01*
X7820777Y-25628627D02*
X7830301Y-25619103D01*
X7830301Y-25619103D02*
X7849348Y-25609579D01*
X7849348Y-25609579D02*
X7896967Y-25609579D01*
X7896967Y-25609579D02*
X7916015Y-25619103D01*
X7916015Y-25619103D02*
X7925539Y-25628627D01*
X7925539Y-25628627D02*
X7935062Y-25647674D01*
X7935062Y-25647674D02*
X7935062Y-25695293D01*
X7935062Y-25695293D02*
X7925539Y-25714341D01*
X7925539Y-25714341D02*
X7916015Y-25723865D01*
X7916015Y-25723865D02*
X7896967Y-25733389D01*
X7896967Y-25733389D02*
X7849348Y-25733389D01*
X7849348Y-25733389D02*
X7830301Y-25723865D01*
X7830301Y-25723865D02*
X7820777Y-25714341D01*
X8058872Y-25533389D02*
X8077920Y-25533389D01*
X8077920Y-25533389D02*
X8096967Y-25542913D01*
X8096967Y-25542913D02*
X8106491Y-25552436D01*
X8106491Y-25552436D02*
X8116015Y-25571484D01*
X8116015Y-25571484D02*
X8125539Y-25609579D01*
X8125539Y-25609579D02*
X8125539Y-25657198D01*
X8125539Y-25657198D02*
X8116015Y-25695293D01*
X8116015Y-25695293D02*
X8106491Y-25714341D01*
X8106491Y-25714341D02*
X8096967Y-25723865D01*
X8096967Y-25723865D02*
X8077920Y-25733389D01*
X8077920Y-25733389D02*
X8058872Y-25733389D01*
X8058872Y-25733389D02*
X8039824Y-25723865D01*
X8039824Y-25723865D02*
X8030301Y-25714341D01*
X8030301Y-25714341D02*
X8020777Y-25695293D01*
X8020777Y-25695293D02*
X8011253Y-25657198D01*
X8011253Y-25657198D02*
X8011253Y-25609579D01*
X8011253Y-25609579D02*
X8020777Y-25571484D01*
X8020777Y-25571484D02*
X8030301Y-25552436D01*
X8030301Y-25552436D02*
X8039824Y-25542913D01*
X8039824Y-25542913D02*
X8058872Y-25533389D01*
X8201729Y-25533389D02*
X8201729Y-25571484D01*
X8277920Y-25533389D02*
X8277920Y-25571484D01*
X8573158Y-25809579D02*
X8563634Y-25800055D01*
X8563634Y-25800055D02*
X8544586Y-25771484D01*
X8544586Y-25771484D02*
X8535063Y-25752436D01*
X8535063Y-25752436D02*
X8525539Y-25723865D01*
X8525539Y-25723865D02*
X8516015Y-25676246D01*
X8516015Y-25676246D02*
X8516015Y-25638151D01*
X8516015Y-25638151D02*
X8525539Y-25590532D01*
X8525539Y-25590532D02*
X8535063Y-25561960D01*
X8535063Y-25561960D02*
X8544586Y-25542913D01*
X8544586Y-25542913D02*
X8563634Y-25514341D01*
X8563634Y-25514341D02*
X8573158Y-25504817D01*
X8639825Y-25552436D02*
X8649348Y-25542913D01*
X8649348Y-25542913D02*
X8668396Y-25533389D01*
X8668396Y-25533389D02*
X8716015Y-25533389D01*
X8716015Y-25533389D02*
X8735063Y-25542913D01*
X8735063Y-25542913D02*
X8744586Y-25552436D01*
X8744586Y-25552436D02*
X8754110Y-25571484D01*
X8754110Y-25571484D02*
X8754110Y-25590532D01*
X8754110Y-25590532D02*
X8744586Y-25619103D01*
X8744586Y-25619103D02*
X8630301Y-25733389D01*
X8630301Y-25733389D02*
X8754110Y-25733389D01*
X8849348Y-25733389D02*
X8887444Y-25733389D01*
X8887444Y-25733389D02*
X8906491Y-25723865D01*
X8906491Y-25723865D02*
X8916015Y-25714341D01*
X8916015Y-25714341D02*
X8935063Y-25685770D01*
X8935063Y-25685770D02*
X8944586Y-25647674D01*
X8944586Y-25647674D02*
X8944586Y-25571484D01*
X8944586Y-25571484D02*
X8935063Y-25552436D01*
X8935063Y-25552436D02*
X8925539Y-25542913D01*
X8925539Y-25542913D02*
X8906491Y-25533389D01*
X8906491Y-25533389D02*
X8868396Y-25533389D01*
X8868396Y-25533389D02*
X8849348Y-25542913D01*
X8849348Y-25542913D02*
X8839825Y-25552436D01*
X8839825Y-25552436D02*
X8830301Y-25571484D01*
X8830301Y-25571484D02*
X8830301Y-25619103D01*
X8830301Y-25619103D02*
X8839825Y-25638151D01*
X8839825Y-25638151D02*
X8849348Y-25647674D01*
X8849348Y-25647674D02*
X8868396Y-25657198D01*
X8868396Y-25657198D02*
X8906491Y-25657198D01*
X8906491Y-25657198D02*
X8925539Y-25647674D01*
X8925539Y-25647674D02*
X8935063Y-25638151D01*
X8935063Y-25638151D02*
X8944586Y-25619103D01*
X9182682Y-25733389D02*
X9182682Y-25533389D01*
X9268396Y-25733389D02*
X9268396Y-25628627D01*
X9268396Y-25628627D02*
X9258872Y-25609579D01*
X9258872Y-25609579D02*
X9239825Y-25600055D01*
X9239825Y-25600055D02*
X9211253Y-25600055D01*
X9211253Y-25600055D02*
X9192206Y-25609579D01*
X9192206Y-25609579D02*
X9182682Y-25619103D01*
X9392206Y-25733389D02*
X9373158Y-25723865D01*
X9373158Y-25723865D02*
X9363634Y-25714341D01*
X9363634Y-25714341D02*
X9354110Y-25695293D01*
X9354110Y-25695293D02*
X9354110Y-25638151D01*
X9354110Y-25638151D02*
X9363634Y-25619103D01*
X9363634Y-25619103D02*
X9373158Y-25609579D01*
X9373158Y-25609579D02*
X9392206Y-25600055D01*
X9392206Y-25600055D02*
X9420777Y-25600055D01*
X9420777Y-25600055D02*
X9439825Y-25609579D01*
X9439825Y-25609579D02*
X9449348Y-25619103D01*
X9449348Y-25619103D02*
X9458872Y-25638151D01*
X9458872Y-25638151D02*
X9458872Y-25695293D01*
X9458872Y-25695293D02*
X9449348Y-25714341D01*
X9449348Y-25714341D02*
X9439825Y-25723865D01*
X9439825Y-25723865D02*
X9420777Y-25733389D01*
X9420777Y-25733389D02*
X9392206Y-25733389D01*
X9573158Y-25733389D02*
X9554110Y-25723865D01*
X9554110Y-25723865D02*
X9544587Y-25704817D01*
X9544587Y-25704817D02*
X9544587Y-25533389D01*
X9725539Y-25723865D02*
X9706491Y-25733389D01*
X9706491Y-25733389D02*
X9668396Y-25733389D01*
X9668396Y-25733389D02*
X9649348Y-25723865D01*
X9649348Y-25723865D02*
X9639825Y-25704817D01*
X9639825Y-25704817D02*
X9639825Y-25628627D01*
X9639825Y-25628627D02*
X9649348Y-25609579D01*
X9649348Y-25609579D02*
X9668396Y-25600055D01*
X9668396Y-25600055D02*
X9706491Y-25600055D01*
X9706491Y-25600055D02*
X9725539Y-25609579D01*
X9725539Y-25609579D02*
X9735063Y-25628627D01*
X9735063Y-25628627D02*
X9735063Y-25647674D01*
X9735063Y-25647674D02*
X9639825Y-25666722D01*
X9811253Y-25723865D02*
X9830301Y-25733389D01*
X9830301Y-25733389D02*
X9868396Y-25733389D01*
X9868396Y-25733389D02*
X9887444Y-25723865D01*
X9887444Y-25723865D02*
X9896968Y-25704817D01*
X9896968Y-25704817D02*
X9896968Y-25695293D01*
X9896968Y-25695293D02*
X9887444Y-25676246D01*
X9887444Y-25676246D02*
X9868396Y-25666722D01*
X9868396Y-25666722D02*
X9839825Y-25666722D01*
X9839825Y-25666722D02*
X9820777Y-25657198D01*
X9820777Y-25657198D02*
X9811253Y-25638151D01*
X9811253Y-25638151D02*
X9811253Y-25628627D01*
X9811253Y-25628627D02*
X9820777Y-25609579D01*
X9820777Y-25609579D02*
X9839825Y-25600055D01*
X9839825Y-25600055D02*
X9868396Y-25600055D01*
X9868396Y-25600055D02*
X9887444Y-25609579D01*
X9963634Y-25809579D02*
X9973158Y-25800055D01*
X9973158Y-25800055D02*
X9992206Y-25771484D01*
X9992206Y-25771484D02*
X10001729Y-25752436D01*
X10001729Y-25752436D02*
X10011253Y-25723865D01*
X10011253Y-25723865D02*
X10020777Y-25676246D01*
X10020777Y-25676246D02*
X10020777Y-25638151D01*
X10020777Y-25638151D02*
X10011253Y-25590532D01*
X10011253Y-25590532D02*
X10001729Y-25561960D01*
X10001729Y-25561960D02*
X9992206Y-25542913D01*
X9992206Y-25542913D02*
X9973158Y-25514341D01*
X9973158Y-25514341D02*
X9963634Y-25504817D01*
D12*
X4998095Y-25905905D02*
G75*
G02*
X4930095Y-25905905I-34000J0D01*
G01*
X4930095Y-25905905D02*
G75*
G02*
X4998095Y-25905905I34000J0D01*
G01*
D11*
X5296967Y-25797389D02*
X5316015Y-25797389D01*
X5316015Y-25797389D02*
X5335062Y-25806913D01*
X5335062Y-25806913D02*
X5344586Y-25816436D01*
X5344586Y-25816436D02*
X5354110Y-25835484D01*
X5354110Y-25835484D02*
X5363634Y-25873579D01*
X5363634Y-25873579D02*
X5363634Y-25921198D01*
X5363634Y-25921198D02*
X5354110Y-25959293D01*
X5354110Y-25959293D02*
X5344586Y-25978341D01*
X5344586Y-25978341D02*
X5335062Y-25987865D01*
X5335062Y-25987865D02*
X5316015Y-25997389D01*
X5316015Y-25997389D02*
X5296967Y-25997389D01*
X5296967Y-25997389D02*
X5277919Y-25987865D01*
X5277919Y-25987865D02*
X5268396Y-25978341D01*
X5268396Y-25978341D02*
X5258872Y-25959293D01*
X5258872Y-25959293D02*
X5249348Y-25921198D01*
X5249348Y-25921198D02*
X5249348Y-25873579D01*
X5249348Y-25873579D02*
X5258872Y-25835484D01*
X5258872Y-25835484D02*
X5268396Y-25816436D01*
X5268396Y-25816436D02*
X5277919Y-25806913D01*
X5277919Y-25806913D02*
X5296967Y-25797389D01*
X5449348Y-25978341D02*
X5458872Y-25987865D01*
X5458872Y-25987865D02*
X5449348Y-25997389D01*
X5449348Y-25997389D02*
X5439824Y-25987865D01*
X5439824Y-25987865D02*
X5449348Y-25978341D01*
X5449348Y-25978341D02*
X5449348Y-25997389D01*
X5630300Y-25797389D02*
X5592205Y-25797389D01*
X5592205Y-25797389D02*
X5573158Y-25806913D01*
X5573158Y-25806913D02*
X5563634Y-25816436D01*
X5563634Y-25816436D02*
X5544586Y-25845008D01*
X5544586Y-25845008D02*
X5535062Y-25883103D01*
X5535062Y-25883103D02*
X5535062Y-25959293D01*
X5535062Y-25959293D02*
X5544586Y-25978341D01*
X5544586Y-25978341D02*
X5554110Y-25987865D01*
X5554110Y-25987865D02*
X5573158Y-25997389D01*
X5573158Y-25997389D02*
X5611253Y-25997389D01*
X5611253Y-25997389D02*
X5630300Y-25987865D01*
X5630300Y-25987865D02*
X5639824Y-25978341D01*
X5639824Y-25978341D02*
X5649348Y-25959293D01*
X5649348Y-25959293D02*
X5649348Y-25911674D01*
X5649348Y-25911674D02*
X5639824Y-25892627D01*
X5639824Y-25892627D02*
X5630300Y-25883103D01*
X5630300Y-25883103D02*
X5611253Y-25873579D01*
X5611253Y-25873579D02*
X5573158Y-25873579D01*
X5573158Y-25873579D02*
X5554110Y-25883103D01*
X5554110Y-25883103D02*
X5544586Y-25892627D01*
X5544586Y-25892627D02*
X5535062Y-25911674D01*
X5763634Y-25883103D02*
X5744586Y-25873579D01*
X5744586Y-25873579D02*
X5735062Y-25864055D01*
X5735062Y-25864055D02*
X5725538Y-25845008D01*
X5725538Y-25845008D02*
X5725538Y-25835484D01*
X5725538Y-25835484D02*
X5735062Y-25816436D01*
X5735062Y-25816436D02*
X5744586Y-25806913D01*
X5744586Y-25806913D02*
X5763634Y-25797389D01*
X5763634Y-25797389D02*
X5801729Y-25797389D01*
X5801729Y-25797389D02*
X5820777Y-25806913D01*
X5820777Y-25806913D02*
X5830300Y-25816436D01*
X5830300Y-25816436D02*
X5839824Y-25835484D01*
X5839824Y-25835484D02*
X5839824Y-25845008D01*
X5839824Y-25845008D02*
X5830300Y-25864055D01*
X5830300Y-25864055D02*
X5820777Y-25873579D01*
X5820777Y-25873579D02*
X5801729Y-25883103D01*
X5801729Y-25883103D02*
X5763634Y-25883103D01*
X5763634Y-25883103D02*
X5744586Y-25892627D01*
X5744586Y-25892627D02*
X5735062Y-25902151D01*
X5735062Y-25902151D02*
X5725538Y-25921198D01*
X5725538Y-25921198D02*
X5725538Y-25959293D01*
X5725538Y-25959293D02*
X5735062Y-25978341D01*
X5735062Y-25978341D02*
X5744586Y-25987865D01*
X5744586Y-25987865D02*
X5763634Y-25997389D01*
X5763634Y-25997389D02*
X5801729Y-25997389D01*
X5801729Y-25997389D02*
X5820777Y-25987865D01*
X5820777Y-25987865D02*
X5830300Y-25978341D01*
X5830300Y-25978341D02*
X5839824Y-25959293D01*
X5839824Y-25959293D02*
X5839824Y-25921198D01*
X5839824Y-25921198D02*
X5830300Y-25902151D01*
X5830300Y-25902151D02*
X5820777Y-25892627D01*
X5820777Y-25892627D02*
X5801729Y-25883103D01*
X5963634Y-25797389D02*
X5982681Y-25797389D01*
X5982681Y-25797389D02*
X6001729Y-25806913D01*
X6001729Y-25806913D02*
X6011253Y-25816436D01*
X6011253Y-25816436D02*
X6020777Y-25835484D01*
X6020777Y-25835484D02*
X6030300Y-25873579D01*
X6030300Y-25873579D02*
X6030300Y-25921198D01*
X6030300Y-25921198D02*
X6020777Y-25959293D01*
X6020777Y-25959293D02*
X6011253Y-25978341D01*
X6011253Y-25978341D02*
X6001729Y-25987865D01*
X6001729Y-25987865D02*
X5982681Y-25997389D01*
X5982681Y-25997389D02*
X5963634Y-25997389D01*
X5963634Y-25997389D02*
X5944586Y-25987865D01*
X5944586Y-25987865D02*
X5935062Y-25978341D01*
X5935062Y-25978341D02*
X5925538Y-25959293D01*
X5925538Y-25959293D02*
X5916015Y-25921198D01*
X5916015Y-25921198D02*
X5916015Y-25873579D01*
X5916015Y-25873579D02*
X5925538Y-25835484D01*
X5925538Y-25835484D02*
X5935062Y-25816436D01*
X5935062Y-25816436D02*
X5944586Y-25806913D01*
X5944586Y-25806913D02*
X5963634Y-25797389D01*
X6116015Y-25997389D02*
X6116015Y-25864055D01*
X6116015Y-25883103D02*
X6125538Y-25873579D01*
X6125538Y-25873579D02*
X6144586Y-25864055D01*
X6144586Y-25864055D02*
X6173158Y-25864055D01*
X6173158Y-25864055D02*
X6192205Y-25873579D01*
X6192205Y-25873579D02*
X6201729Y-25892627D01*
X6201729Y-25892627D02*
X6201729Y-25997389D01*
X6201729Y-25892627D02*
X6211253Y-25873579D01*
X6211253Y-25873579D02*
X6230300Y-25864055D01*
X6230300Y-25864055D02*
X6258872Y-25864055D01*
X6258872Y-25864055D02*
X6277919Y-25873579D01*
X6277919Y-25873579D02*
X6287443Y-25892627D01*
X6287443Y-25892627D02*
X6287443Y-25997389D01*
X6382681Y-25997389D02*
X6382681Y-25864055D01*
X6382681Y-25883103D02*
X6392205Y-25873579D01*
X6392205Y-25873579D02*
X6411253Y-25864055D01*
X6411253Y-25864055D02*
X6439824Y-25864055D01*
X6439824Y-25864055D02*
X6458872Y-25873579D01*
X6458872Y-25873579D02*
X6468396Y-25892627D01*
X6468396Y-25892627D02*
X6468396Y-25997389D01*
X6468396Y-25892627D02*
X6477919Y-25873579D01*
X6477919Y-25873579D02*
X6496967Y-25864055D01*
X6496967Y-25864055D02*
X6525538Y-25864055D01*
X6525538Y-25864055D02*
X6544586Y-25873579D01*
X6544586Y-25873579D02*
X6554110Y-25892627D01*
X6554110Y-25892627D02*
X6554110Y-25997389D01*
X6944586Y-25787865D02*
X6773158Y-26045008D01*
X7201729Y-25797389D02*
X7220777Y-25797389D01*
X7220777Y-25797389D02*
X7239824Y-25806913D01*
X7239824Y-25806913D02*
X7249348Y-25816436D01*
X7249348Y-25816436D02*
X7258872Y-25835484D01*
X7258872Y-25835484D02*
X7268396Y-25873579D01*
X7268396Y-25873579D02*
X7268396Y-25921198D01*
X7268396Y-25921198D02*
X7258872Y-25959293D01*
X7258872Y-25959293D02*
X7249348Y-25978341D01*
X7249348Y-25978341D02*
X7239824Y-25987865D01*
X7239824Y-25987865D02*
X7220777Y-25997389D01*
X7220777Y-25997389D02*
X7201729Y-25997389D01*
X7201729Y-25997389D02*
X7182681Y-25987865D01*
X7182681Y-25987865D02*
X7173158Y-25978341D01*
X7173158Y-25978341D02*
X7163634Y-25959293D01*
X7163634Y-25959293D02*
X7154110Y-25921198D01*
X7154110Y-25921198D02*
X7154110Y-25873579D01*
X7154110Y-25873579D02*
X7163634Y-25835484D01*
X7163634Y-25835484D02*
X7173158Y-25816436D01*
X7173158Y-25816436D02*
X7182681Y-25806913D01*
X7182681Y-25806913D02*
X7201729Y-25797389D01*
X7354110Y-25978341D02*
X7363634Y-25987865D01*
X7363634Y-25987865D02*
X7354110Y-25997389D01*
X7354110Y-25997389D02*
X7344586Y-25987865D01*
X7344586Y-25987865D02*
X7354110Y-25978341D01*
X7354110Y-25978341D02*
X7354110Y-25997389D01*
X7487443Y-25797389D02*
X7506491Y-25797389D01*
X7506491Y-25797389D02*
X7525539Y-25806913D01*
X7525539Y-25806913D02*
X7535062Y-25816436D01*
X7535062Y-25816436D02*
X7544586Y-25835484D01*
X7544586Y-25835484D02*
X7554110Y-25873579D01*
X7554110Y-25873579D02*
X7554110Y-25921198D01*
X7554110Y-25921198D02*
X7544586Y-25959293D01*
X7544586Y-25959293D02*
X7535062Y-25978341D01*
X7535062Y-25978341D02*
X7525539Y-25987865D01*
X7525539Y-25987865D02*
X7506491Y-25997389D01*
X7506491Y-25997389D02*
X7487443Y-25997389D01*
X7487443Y-25997389D02*
X7468396Y-25987865D01*
X7468396Y-25987865D02*
X7458872Y-25978341D01*
X7458872Y-25978341D02*
X7449348Y-25959293D01*
X7449348Y-25959293D02*
X7439824Y-25921198D01*
X7439824Y-25921198D02*
X7439824Y-25873579D01*
X7439824Y-25873579D02*
X7449348Y-25835484D01*
X7449348Y-25835484D02*
X7458872Y-25816436D01*
X7458872Y-25816436D02*
X7468396Y-25806913D01*
X7468396Y-25806913D02*
X7487443Y-25797389D01*
X7630301Y-25816436D02*
X7639824Y-25806913D01*
X7639824Y-25806913D02*
X7658872Y-25797389D01*
X7658872Y-25797389D02*
X7706491Y-25797389D01*
X7706491Y-25797389D02*
X7725539Y-25806913D01*
X7725539Y-25806913D02*
X7735062Y-25816436D01*
X7735062Y-25816436D02*
X7744586Y-25835484D01*
X7744586Y-25835484D02*
X7744586Y-25854532D01*
X7744586Y-25854532D02*
X7735062Y-25883103D01*
X7735062Y-25883103D02*
X7620777Y-25997389D01*
X7620777Y-25997389D02*
X7744586Y-25997389D01*
X7916015Y-25797389D02*
X7877920Y-25797389D01*
X7877920Y-25797389D02*
X7858872Y-25806913D01*
X7858872Y-25806913D02*
X7849348Y-25816436D01*
X7849348Y-25816436D02*
X7830301Y-25845008D01*
X7830301Y-25845008D02*
X7820777Y-25883103D01*
X7820777Y-25883103D02*
X7820777Y-25959293D01*
X7820777Y-25959293D02*
X7830301Y-25978341D01*
X7830301Y-25978341D02*
X7839824Y-25987865D01*
X7839824Y-25987865D02*
X7858872Y-25997389D01*
X7858872Y-25997389D02*
X7896967Y-25997389D01*
X7896967Y-25997389D02*
X7916015Y-25987865D01*
X7916015Y-25987865D02*
X7925539Y-25978341D01*
X7925539Y-25978341D02*
X7935062Y-25959293D01*
X7935062Y-25959293D02*
X7935062Y-25911674D01*
X7935062Y-25911674D02*
X7925539Y-25892627D01*
X7925539Y-25892627D02*
X7916015Y-25883103D01*
X7916015Y-25883103D02*
X7896967Y-25873579D01*
X7896967Y-25873579D02*
X7858872Y-25873579D01*
X7858872Y-25873579D02*
X7839824Y-25883103D01*
X7839824Y-25883103D02*
X7830301Y-25892627D01*
X7830301Y-25892627D02*
X7820777Y-25911674D01*
X8049348Y-25883103D02*
X8030301Y-25873579D01*
X8030301Y-25873579D02*
X8020777Y-25864055D01*
X8020777Y-25864055D02*
X8011253Y-25845008D01*
X8011253Y-25845008D02*
X8011253Y-25835484D01*
X8011253Y-25835484D02*
X8020777Y-25816436D01*
X8020777Y-25816436D02*
X8030301Y-25806913D01*
X8030301Y-25806913D02*
X8049348Y-25797389D01*
X8049348Y-25797389D02*
X8087443Y-25797389D01*
X8087443Y-25797389D02*
X8106491Y-25806913D01*
X8106491Y-25806913D02*
X8116015Y-25816436D01*
X8116015Y-25816436D02*
X8125539Y-25835484D01*
X8125539Y-25835484D02*
X8125539Y-25845008D01*
X8125539Y-25845008D02*
X8116015Y-25864055D01*
X8116015Y-25864055D02*
X8106491Y-25873579D01*
X8106491Y-25873579D02*
X8087443Y-25883103D01*
X8087443Y-25883103D02*
X8049348Y-25883103D01*
X8049348Y-25883103D02*
X8030301Y-25892627D01*
X8030301Y-25892627D02*
X8020777Y-25902151D01*
X8020777Y-25902151D02*
X8011253Y-25921198D01*
X8011253Y-25921198D02*
X8011253Y-25959293D01*
X8011253Y-25959293D02*
X8020777Y-25978341D01*
X8020777Y-25978341D02*
X8030301Y-25987865D01*
X8030301Y-25987865D02*
X8049348Y-25997389D01*
X8049348Y-25997389D02*
X8087443Y-25997389D01*
X8087443Y-25997389D02*
X8106491Y-25987865D01*
X8106491Y-25987865D02*
X8116015Y-25978341D01*
X8116015Y-25978341D02*
X8125539Y-25959293D01*
X8125539Y-25959293D02*
X8125539Y-25921198D01*
X8125539Y-25921198D02*
X8116015Y-25902151D01*
X8116015Y-25902151D02*
X8106491Y-25892627D01*
X8106491Y-25892627D02*
X8087443Y-25883103D01*
X8201729Y-25797389D02*
X8201729Y-25835484D01*
X8277920Y-25797389D02*
X8277920Y-25835484D01*
X8573158Y-26073579D02*
X8563634Y-26064055D01*
X8563634Y-26064055D02*
X8544586Y-26035484D01*
X8544586Y-26035484D02*
X8535063Y-26016436D01*
X8535063Y-26016436D02*
X8525539Y-25987865D01*
X8525539Y-25987865D02*
X8516015Y-25940246D01*
X8516015Y-25940246D02*
X8516015Y-25902151D01*
X8516015Y-25902151D02*
X8525539Y-25854532D01*
X8525539Y-25854532D02*
X8535063Y-25825960D01*
X8535063Y-25825960D02*
X8544586Y-25806913D01*
X8544586Y-25806913D02*
X8563634Y-25778341D01*
X8563634Y-25778341D02*
X8573158Y-25768817D01*
X8754110Y-25997389D02*
X8639825Y-25997389D01*
X8696967Y-25997389D02*
X8696967Y-25797389D01*
X8696967Y-25797389D02*
X8677920Y-25825960D01*
X8677920Y-25825960D02*
X8658872Y-25845008D01*
X8658872Y-25845008D02*
X8639825Y-25854532D01*
X8849348Y-25997389D02*
X8887444Y-25997389D01*
X8887444Y-25997389D02*
X8906491Y-25987865D01*
X8906491Y-25987865D02*
X8916015Y-25978341D01*
X8916015Y-25978341D02*
X8935063Y-25949770D01*
X8935063Y-25949770D02*
X8944586Y-25911674D01*
X8944586Y-25911674D02*
X8944586Y-25835484D01*
X8944586Y-25835484D02*
X8935063Y-25816436D01*
X8935063Y-25816436D02*
X8925539Y-25806913D01*
X8925539Y-25806913D02*
X8906491Y-25797389D01*
X8906491Y-25797389D02*
X8868396Y-25797389D01*
X8868396Y-25797389D02*
X8849348Y-25806913D01*
X8849348Y-25806913D02*
X8839825Y-25816436D01*
X8839825Y-25816436D02*
X8830301Y-25835484D01*
X8830301Y-25835484D02*
X8830301Y-25883103D01*
X8830301Y-25883103D02*
X8839825Y-25902151D01*
X8839825Y-25902151D02*
X8849348Y-25911674D01*
X8849348Y-25911674D02*
X8868396Y-25921198D01*
X8868396Y-25921198D02*
X8906491Y-25921198D01*
X8906491Y-25921198D02*
X8925539Y-25911674D01*
X8925539Y-25911674D02*
X8935063Y-25902151D01*
X8935063Y-25902151D02*
X8944586Y-25883103D01*
X9020777Y-25816436D02*
X9030301Y-25806913D01*
X9030301Y-25806913D02*
X9049348Y-25797389D01*
X9049348Y-25797389D02*
X9096967Y-25797389D01*
X9096967Y-25797389D02*
X9116015Y-25806913D01*
X9116015Y-25806913D02*
X9125539Y-25816436D01*
X9125539Y-25816436D02*
X9135063Y-25835484D01*
X9135063Y-25835484D02*
X9135063Y-25854532D01*
X9135063Y-25854532D02*
X9125539Y-25883103D01*
X9125539Y-25883103D02*
X9011253Y-25997389D01*
X9011253Y-25997389D02*
X9135063Y-25997389D01*
X9373158Y-25997389D02*
X9373158Y-25797389D01*
X9458872Y-25997389D02*
X9458872Y-25892627D01*
X9458872Y-25892627D02*
X9449348Y-25873579D01*
X9449348Y-25873579D02*
X9430301Y-25864055D01*
X9430301Y-25864055D02*
X9401729Y-25864055D01*
X9401729Y-25864055D02*
X9382682Y-25873579D01*
X9382682Y-25873579D02*
X9373158Y-25883103D01*
X9582682Y-25997389D02*
X9563634Y-25987865D01*
X9563634Y-25987865D02*
X9554110Y-25978341D01*
X9554110Y-25978341D02*
X9544587Y-25959293D01*
X9544587Y-25959293D02*
X9544587Y-25902151D01*
X9544587Y-25902151D02*
X9554110Y-25883103D01*
X9554110Y-25883103D02*
X9563634Y-25873579D01*
X9563634Y-25873579D02*
X9582682Y-25864055D01*
X9582682Y-25864055D02*
X9611253Y-25864055D01*
X9611253Y-25864055D02*
X9630301Y-25873579D01*
X9630301Y-25873579D02*
X9639825Y-25883103D01*
X9639825Y-25883103D02*
X9649348Y-25902151D01*
X9649348Y-25902151D02*
X9649348Y-25959293D01*
X9649348Y-25959293D02*
X9639825Y-25978341D01*
X9639825Y-25978341D02*
X9630301Y-25987865D01*
X9630301Y-25987865D02*
X9611253Y-25997389D01*
X9611253Y-25997389D02*
X9582682Y-25997389D01*
X9763634Y-25997389D02*
X9744587Y-25987865D01*
X9744587Y-25987865D02*
X9735063Y-25968817D01*
X9735063Y-25968817D02*
X9735063Y-25797389D01*
X9916015Y-25987865D02*
X9896968Y-25997389D01*
X9896968Y-25997389D02*
X9858872Y-25997389D01*
X9858872Y-25997389D02*
X9839825Y-25987865D01*
X9839825Y-25987865D02*
X9830301Y-25968817D01*
X9830301Y-25968817D02*
X9830301Y-25892627D01*
X9830301Y-25892627D02*
X9839825Y-25873579D01*
X9839825Y-25873579D02*
X9858872Y-25864055D01*
X9858872Y-25864055D02*
X9896968Y-25864055D01*
X9896968Y-25864055D02*
X9916015Y-25873579D01*
X9916015Y-25873579D02*
X9925539Y-25892627D01*
X9925539Y-25892627D02*
X9925539Y-25911674D01*
X9925539Y-25911674D02*
X9830301Y-25930722D01*
X10001729Y-25987865D02*
X10020777Y-25997389D01*
X10020777Y-25997389D02*
X10058872Y-25997389D01*
X10058872Y-25997389D02*
X10077920Y-25987865D01*
X10077920Y-25987865D02*
X10087444Y-25968817D01*
X10087444Y-25968817D02*
X10087444Y-25959293D01*
X10087444Y-25959293D02*
X10077920Y-25940246D01*
X10077920Y-25940246D02*
X10058872Y-25930722D01*
X10058872Y-25930722D02*
X10030301Y-25930722D01*
X10030301Y-25930722D02*
X10011253Y-25921198D01*
X10011253Y-25921198D02*
X10001729Y-25902151D01*
X10001729Y-25902151D02*
X10001729Y-25892627D01*
X10001729Y-25892627D02*
X10011253Y-25873579D01*
X10011253Y-25873579D02*
X10030301Y-25864055D01*
X10030301Y-25864055D02*
X10058872Y-25864055D01*
X10058872Y-25864055D02*
X10077920Y-25873579D01*
X10154110Y-26073579D02*
X10163634Y-26064055D01*
X10163634Y-26064055D02*
X10182682Y-26035484D01*
X10182682Y-26035484D02*
X10192206Y-26016436D01*
X10192206Y-26016436D02*
X10201729Y-25987865D01*
X10201729Y-25987865D02*
X10211253Y-25940246D01*
X10211253Y-25940246D02*
X10211253Y-25902151D01*
X10211253Y-25902151D02*
X10201729Y-25854532D01*
X10201729Y-25854532D02*
X10192206Y-25825960D01*
X10192206Y-25825960D02*
X10182682Y-25806913D01*
X10182682Y-25806913D02*
X10163634Y-25778341D01*
X10163634Y-25778341D02*
X10154110Y-25768817D01*
D12*
X4958095Y-26129905D02*
X4958095Y-26209905D01*
X4918095Y-26169905D02*
X4998095Y-26169905D01*
D11*
X5296967Y-26061389D02*
X5316015Y-26061389D01*
X5316015Y-26061389D02*
X5335062Y-26070913D01*
X5335062Y-26070913D02*
X5344586Y-26080436D01*
X5344586Y-26080436D02*
X5354110Y-26099484D01*
X5354110Y-26099484D02*
X5363634Y-26137579D01*
X5363634Y-26137579D02*
X5363634Y-26185198D01*
X5363634Y-26185198D02*
X5354110Y-26223293D01*
X5354110Y-26223293D02*
X5344586Y-26242341D01*
X5344586Y-26242341D02*
X5335062Y-26251865D01*
X5335062Y-26251865D02*
X5316015Y-26261389D01*
X5316015Y-26261389D02*
X5296967Y-26261389D01*
X5296967Y-26261389D02*
X5277919Y-26251865D01*
X5277919Y-26251865D02*
X5268396Y-26242341D01*
X5268396Y-26242341D02*
X5258872Y-26223293D01*
X5258872Y-26223293D02*
X5249348Y-26185198D01*
X5249348Y-26185198D02*
X5249348Y-26137579D01*
X5249348Y-26137579D02*
X5258872Y-26099484D01*
X5258872Y-26099484D02*
X5268396Y-26080436D01*
X5268396Y-26080436D02*
X5277919Y-26070913D01*
X5277919Y-26070913D02*
X5296967Y-26061389D01*
X5449348Y-26242341D02*
X5458872Y-26251865D01*
X5458872Y-26251865D02*
X5449348Y-26261389D01*
X5449348Y-26261389D02*
X5439824Y-26251865D01*
X5439824Y-26251865D02*
X5449348Y-26242341D01*
X5449348Y-26242341D02*
X5449348Y-26261389D01*
X5573158Y-26147103D02*
X5554110Y-26137579D01*
X5554110Y-26137579D02*
X5544586Y-26128055D01*
X5544586Y-26128055D02*
X5535062Y-26109008D01*
X5535062Y-26109008D02*
X5535062Y-26099484D01*
X5535062Y-26099484D02*
X5544586Y-26080436D01*
X5544586Y-26080436D02*
X5554110Y-26070913D01*
X5554110Y-26070913D02*
X5573158Y-26061389D01*
X5573158Y-26061389D02*
X5611253Y-26061389D01*
X5611253Y-26061389D02*
X5630300Y-26070913D01*
X5630300Y-26070913D02*
X5639824Y-26080436D01*
X5639824Y-26080436D02*
X5649348Y-26099484D01*
X5649348Y-26099484D02*
X5649348Y-26109008D01*
X5649348Y-26109008D02*
X5639824Y-26128055D01*
X5639824Y-26128055D02*
X5630300Y-26137579D01*
X5630300Y-26137579D02*
X5611253Y-26147103D01*
X5611253Y-26147103D02*
X5573158Y-26147103D01*
X5573158Y-26147103D02*
X5554110Y-26156627D01*
X5554110Y-26156627D02*
X5544586Y-26166151D01*
X5544586Y-26166151D02*
X5535062Y-26185198D01*
X5535062Y-26185198D02*
X5535062Y-26223293D01*
X5535062Y-26223293D02*
X5544586Y-26242341D01*
X5544586Y-26242341D02*
X5554110Y-26251865D01*
X5554110Y-26251865D02*
X5573158Y-26261389D01*
X5573158Y-26261389D02*
X5611253Y-26261389D01*
X5611253Y-26261389D02*
X5630300Y-26251865D01*
X5630300Y-26251865D02*
X5639824Y-26242341D01*
X5639824Y-26242341D02*
X5649348Y-26223293D01*
X5649348Y-26223293D02*
X5649348Y-26185198D01*
X5649348Y-26185198D02*
X5639824Y-26166151D01*
X5639824Y-26166151D02*
X5630300Y-26156627D01*
X5630300Y-26156627D02*
X5611253Y-26147103D01*
X5773157Y-26061389D02*
X5792205Y-26061389D01*
X5792205Y-26061389D02*
X5811253Y-26070913D01*
X5811253Y-26070913D02*
X5820777Y-26080436D01*
X5820777Y-26080436D02*
X5830300Y-26099484D01*
X5830300Y-26099484D02*
X5839824Y-26137579D01*
X5839824Y-26137579D02*
X5839824Y-26185198D01*
X5839824Y-26185198D02*
X5830300Y-26223293D01*
X5830300Y-26223293D02*
X5820777Y-26242341D01*
X5820777Y-26242341D02*
X5811253Y-26251865D01*
X5811253Y-26251865D02*
X5792205Y-26261389D01*
X5792205Y-26261389D02*
X5773157Y-26261389D01*
X5773157Y-26261389D02*
X5754110Y-26251865D01*
X5754110Y-26251865D02*
X5744586Y-26242341D01*
X5744586Y-26242341D02*
X5735062Y-26223293D01*
X5735062Y-26223293D02*
X5725538Y-26185198D01*
X5725538Y-26185198D02*
X5725538Y-26137579D01*
X5725538Y-26137579D02*
X5735062Y-26099484D01*
X5735062Y-26099484D02*
X5744586Y-26080436D01*
X5744586Y-26080436D02*
X5754110Y-26070913D01*
X5754110Y-26070913D02*
X5773157Y-26061389D01*
X5963634Y-26061389D02*
X5982681Y-26061389D01*
X5982681Y-26061389D02*
X6001729Y-26070913D01*
X6001729Y-26070913D02*
X6011253Y-26080436D01*
X6011253Y-26080436D02*
X6020777Y-26099484D01*
X6020777Y-26099484D02*
X6030300Y-26137579D01*
X6030300Y-26137579D02*
X6030300Y-26185198D01*
X6030300Y-26185198D02*
X6020777Y-26223293D01*
X6020777Y-26223293D02*
X6011253Y-26242341D01*
X6011253Y-26242341D02*
X6001729Y-26251865D01*
X6001729Y-26251865D02*
X5982681Y-26261389D01*
X5982681Y-26261389D02*
X5963634Y-26261389D01*
X5963634Y-26261389D02*
X5944586Y-26251865D01*
X5944586Y-26251865D02*
X5935062Y-26242341D01*
X5935062Y-26242341D02*
X5925538Y-26223293D01*
X5925538Y-26223293D02*
X5916015Y-26185198D01*
X5916015Y-26185198D02*
X5916015Y-26137579D01*
X5916015Y-26137579D02*
X5925538Y-26099484D01*
X5925538Y-26099484D02*
X5935062Y-26080436D01*
X5935062Y-26080436D02*
X5944586Y-26070913D01*
X5944586Y-26070913D02*
X5963634Y-26061389D01*
X6116015Y-26261389D02*
X6116015Y-26128055D01*
X6116015Y-26147103D02*
X6125538Y-26137579D01*
X6125538Y-26137579D02*
X6144586Y-26128055D01*
X6144586Y-26128055D02*
X6173158Y-26128055D01*
X6173158Y-26128055D02*
X6192205Y-26137579D01*
X6192205Y-26137579D02*
X6201729Y-26156627D01*
X6201729Y-26156627D02*
X6201729Y-26261389D01*
X6201729Y-26156627D02*
X6211253Y-26137579D01*
X6211253Y-26137579D02*
X6230300Y-26128055D01*
X6230300Y-26128055D02*
X6258872Y-26128055D01*
X6258872Y-26128055D02*
X6277919Y-26137579D01*
X6277919Y-26137579D02*
X6287443Y-26156627D01*
X6287443Y-26156627D02*
X6287443Y-26261389D01*
X6382681Y-26261389D02*
X6382681Y-26128055D01*
X6382681Y-26147103D02*
X6392205Y-26137579D01*
X6392205Y-26137579D02*
X6411253Y-26128055D01*
X6411253Y-26128055D02*
X6439824Y-26128055D01*
X6439824Y-26128055D02*
X6458872Y-26137579D01*
X6458872Y-26137579D02*
X6468396Y-26156627D01*
X6468396Y-26156627D02*
X6468396Y-26261389D01*
X6468396Y-26156627D02*
X6477919Y-26137579D01*
X6477919Y-26137579D02*
X6496967Y-26128055D01*
X6496967Y-26128055D02*
X6525538Y-26128055D01*
X6525538Y-26128055D02*
X6544586Y-26137579D01*
X6544586Y-26137579D02*
X6554110Y-26156627D01*
X6554110Y-26156627D02*
X6554110Y-26261389D01*
X6944586Y-26051865D02*
X6773158Y-26309008D01*
X7201729Y-26061389D02*
X7220777Y-26061389D01*
X7220777Y-26061389D02*
X7239824Y-26070913D01*
X7239824Y-26070913D02*
X7249348Y-26080436D01*
X7249348Y-26080436D02*
X7258872Y-26099484D01*
X7258872Y-26099484D02*
X7268396Y-26137579D01*
X7268396Y-26137579D02*
X7268396Y-26185198D01*
X7268396Y-26185198D02*
X7258872Y-26223293D01*
X7258872Y-26223293D02*
X7249348Y-26242341D01*
X7249348Y-26242341D02*
X7239824Y-26251865D01*
X7239824Y-26251865D02*
X7220777Y-26261389D01*
X7220777Y-26261389D02*
X7201729Y-26261389D01*
X7201729Y-26261389D02*
X7182681Y-26251865D01*
X7182681Y-26251865D02*
X7173158Y-26242341D01*
X7173158Y-26242341D02*
X7163634Y-26223293D01*
X7163634Y-26223293D02*
X7154110Y-26185198D01*
X7154110Y-26185198D02*
X7154110Y-26137579D01*
X7154110Y-26137579D02*
X7163634Y-26099484D01*
X7163634Y-26099484D02*
X7173158Y-26080436D01*
X7173158Y-26080436D02*
X7182681Y-26070913D01*
X7182681Y-26070913D02*
X7201729Y-26061389D01*
X7354110Y-26242341D02*
X7363634Y-26251865D01*
X7363634Y-26251865D02*
X7354110Y-26261389D01*
X7354110Y-26261389D02*
X7344586Y-26251865D01*
X7344586Y-26251865D02*
X7354110Y-26242341D01*
X7354110Y-26242341D02*
X7354110Y-26261389D01*
X7487443Y-26061389D02*
X7506491Y-26061389D01*
X7506491Y-26061389D02*
X7525539Y-26070913D01*
X7525539Y-26070913D02*
X7535062Y-26080436D01*
X7535062Y-26080436D02*
X7544586Y-26099484D01*
X7544586Y-26099484D02*
X7554110Y-26137579D01*
X7554110Y-26137579D02*
X7554110Y-26185198D01*
X7554110Y-26185198D02*
X7544586Y-26223293D01*
X7544586Y-26223293D02*
X7535062Y-26242341D01*
X7535062Y-26242341D02*
X7525539Y-26251865D01*
X7525539Y-26251865D02*
X7506491Y-26261389D01*
X7506491Y-26261389D02*
X7487443Y-26261389D01*
X7487443Y-26261389D02*
X7468396Y-26251865D01*
X7468396Y-26251865D02*
X7458872Y-26242341D01*
X7458872Y-26242341D02*
X7449348Y-26223293D01*
X7449348Y-26223293D02*
X7439824Y-26185198D01*
X7439824Y-26185198D02*
X7439824Y-26137579D01*
X7439824Y-26137579D02*
X7449348Y-26099484D01*
X7449348Y-26099484D02*
X7458872Y-26080436D01*
X7458872Y-26080436D02*
X7468396Y-26070913D01*
X7468396Y-26070913D02*
X7487443Y-26061389D01*
X7620777Y-26061389D02*
X7744586Y-26061389D01*
X7744586Y-26061389D02*
X7677920Y-26137579D01*
X7677920Y-26137579D02*
X7706491Y-26137579D01*
X7706491Y-26137579D02*
X7725539Y-26147103D01*
X7725539Y-26147103D02*
X7735062Y-26156627D01*
X7735062Y-26156627D02*
X7744586Y-26175674D01*
X7744586Y-26175674D02*
X7744586Y-26223293D01*
X7744586Y-26223293D02*
X7735062Y-26242341D01*
X7735062Y-26242341D02*
X7725539Y-26251865D01*
X7725539Y-26251865D02*
X7706491Y-26261389D01*
X7706491Y-26261389D02*
X7649348Y-26261389D01*
X7649348Y-26261389D02*
X7630301Y-26251865D01*
X7630301Y-26251865D02*
X7620777Y-26242341D01*
X7935062Y-26261389D02*
X7820777Y-26261389D01*
X7877920Y-26261389D02*
X7877920Y-26061389D01*
X7877920Y-26061389D02*
X7858872Y-26089960D01*
X7858872Y-26089960D02*
X7839824Y-26109008D01*
X7839824Y-26109008D02*
X7820777Y-26118532D01*
X8116015Y-26061389D02*
X8020777Y-26061389D01*
X8020777Y-26061389D02*
X8011253Y-26156627D01*
X8011253Y-26156627D02*
X8020777Y-26147103D01*
X8020777Y-26147103D02*
X8039824Y-26137579D01*
X8039824Y-26137579D02*
X8087443Y-26137579D01*
X8087443Y-26137579D02*
X8106491Y-26147103D01*
X8106491Y-26147103D02*
X8116015Y-26156627D01*
X8116015Y-26156627D02*
X8125539Y-26175674D01*
X8125539Y-26175674D02*
X8125539Y-26223293D01*
X8125539Y-26223293D02*
X8116015Y-26242341D01*
X8116015Y-26242341D02*
X8106491Y-26251865D01*
X8106491Y-26251865D02*
X8087443Y-26261389D01*
X8087443Y-26261389D02*
X8039824Y-26261389D01*
X8039824Y-26261389D02*
X8020777Y-26251865D01*
X8020777Y-26251865D02*
X8011253Y-26242341D01*
X8201729Y-26061389D02*
X8201729Y-26099484D01*
X8277920Y-26061389D02*
X8277920Y-26099484D01*
X8573158Y-26337579D02*
X8563634Y-26328055D01*
X8563634Y-26328055D02*
X8544586Y-26299484D01*
X8544586Y-26299484D02*
X8535063Y-26280436D01*
X8535063Y-26280436D02*
X8525539Y-26251865D01*
X8525539Y-26251865D02*
X8516015Y-26204246D01*
X8516015Y-26204246D02*
X8516015Y-26166151D01*
X8516015Y-26166151D02*
X8525539Y-26118532D01*
X8525539Y-26118532D02*
X8535063Y-26089960D01*
X8535063Y-26089960D02*
X8544586Y-26070913D01*
X8544586Y-26070913D02*
X8563634Y-26042341D01*
X8563634Y-26042341D02*
X8573158Y-26032817D01*
X8677920Y-26147103D02*
X8658872Y-26137579D01*
X8658872Y-26137579D02*
X8649348Y-26128055D01*
X8649348Y-26128055D02*
X8639825Y-26109008D01*
X8639825Y-26109008D02*
X8639825Y-26099484D01*
X8639825Y-26099484D02*
X8649348Y-26080436D01*
X8649348Y-26080436D02*
X8658872Y-26070913D01*
X8658872Y-26070913D02*
X8677920Y-26061389D01*
X8677920Y-26061389D02*
X8716015Y-26061389D01*
X8716015Y-26061389D02*
X8735063Y-26070913D01*
X8735063Y-26070913D02*
X8744586Y-26080436D01*
X8744586Y-26080436D02*
X8754110Y-26099484D01*
X8754110Y-26099484D02*
X8754110Y-26109008D01*
X8754110Y-26109008D02*
X8744586Y-26128055D01*
X8744586Y-26128055D02*
X8735063Y-26137579D01*
X8735063Y-26137579D02*
X8716015Y-26147103D01*
X8716015Y-26147103D02*
X8677920Y-26147103D01*
X8677920Y-26147103D02*
X8658872Y-26156627D01*
X8658872Y-26156627D02*
X8649348Y-26166151D01*
X8649348Y-26166151D02*
X8639825Y-26185198D01*
X8639825Y-26185198D02*
X8639825Y-26223293D01*
X8639825Y-26223293D02*
X8649348Y-26242341D01*
X8649348Y-26242341D02*
X8658872Y-26251865D01*
X8658872Y-26251865D02*
X8677920Y-26261389D01*
X8677920Y-26261389D02*
X8716015Y-26261389D01*
X8716015Y-26261389D02*
X8735063Y-26251865D01*
X8735063Y-26251865D02*
X8744586Y-26242341D01*
X8744586Y-26242341D02*
X8754110Y-26223293D01*
X8754110Y-26223293D02*
X8754110Y-26185198D01*
X8754110Y-26185198D02*
X8744586Y-26166151D01*
X8744586Y-26166151D02*
X8735063Y-26156627D01*
X8735063Y-26156627D02*
X8716015Y-26147103D01*
X8992206Y-26261389D02*
X8992206Y-26061389D01*
X9077920Y-26261389D02*
X9077920Y-26156627D01*
X9077920Y-26156627D02*
X9068396Y-26137579D01*
X9068396Y-26137579D02*
X9049348Y-26128055D01*
X9049348Y-26128055D02*
X9020777Y-26128055D01*
X9020777Y-26128055D02*
X9001729Y-26137579D01*
X9001729Y-26137579D02*
X8992206Y-26147103D01*
X9201729Y-26261389D02*
X9182682Y-26251865D01*
X9182682Y-26251865D02*
X9173158Y-26242341D01*
X9173158Y-26242341D02*
X9163634Y-26223293D01*
X9163634Y-26223293D02*
X9163634Y-26166151D01*
X9163634Y-26166151D02*
X9173158Y-26147103D01*
X9173158Y-26147103D02*
X9182682Y-26137579D01*
X9182682Y-26137579D02*
X9201729Y-26128055D01*
X9201729Y-26128055D02*
X9230301Y-26128055D01*
X9230301Y-26128055D02*
X9249348Y-26137579D01*
X9249348Y-26137579D02*
X9258872Y-26147103D01*
X9258872Y-26147103D02*
X9268396Y-26166151D01*
X9268396Y-26166151D02*
X9268396Y-26223293D01*
X9268396Y-26223293D02*
X9258872Y-26242341D01*
X9258872Y-26242341D02*
X9249348Y-26251865D01*
X9249348Y-26251865D02*
X9230301Y-26261389D01*
X9230301Y-26261389D02*
X9201729Y-26261389D01*
X9382682Y-26261389D02*
X9363634Y-26251865D01*
X9363634Y-26251865D02*
X9354110Y-26232817D01*
X9354110Y-26232817D02*
X9354110Y-26061389D01*
X9535063Y-26251865D02*
X9516015Y-26261389D01*
X9516015Y-26261389D02*
X9477920Y-26261389D01*
X9477920Y-26261389D02*
X9458872Y-26251865D01*
X9458872Y-26251865D02*
X9449348Y-26232817D01*
X9449348Y-26232817D02*
X9449348Y-26156627D01*
X9449348Y-26156627D02*
X9458872Y-26137579D01*
X9458872Y-26137579D02*
X9477920Y-26128055D01*
X9477920Y-26128055D02*
X9516015Y-26128055D01*
X9516015Y-26128055D02*
X9535063Y-26137579D01*
X9535063Y-26137579D02*
X9544587Y-26156627D01*
X9544587Y-26156627D02*
X9544587Y-26175674D01*
X9544587Y-26175674D02*
X9449348Y-26194722D01*
X9620777Y-26251865D02*
X9639825Y-26261389D01*
X9639825Y-26261389D02*
X9677920Y-26261389D01*
X9677920Y-26261389D02*
X9696968Y-26251865D01*
X9696968Y-26251865D02*
X9706491Y-26232817D01*
X9706491Y-26232817D02*
X9706491Y-26223293D01*
X9706491Y-26223293D02*
X9696968Y-26204246D01*
X9696968Y-26204246D02*
X9677920Y-26194722D01*
X9677920Y-26194722D02*
X9649348Y-26194722D01*
X9649348Y-26194722D02*
X9630301Y-26185198D01*
X9630301Y-26185198D02*
X9620777Y-26166151D01*
X9620777Y-26166151D02*
X9620777Y-26156627D01*
X9620777Y-26156627D02*
X9630301Y-26137579D01*
X9630301Y-26137579D02*
X9649348Y-26128055D01*
X9649348Y-26128055D02*
X9677920Y-26128055D01*
X9677920Y-26128055D02*
X9696968Y-26137579D01*
X9773158Y-26337579D02*
X9782682Y-26328055D01*
X9782682Y-26328055D02*
X9801729Y-26299484D01*
X9801729Y-26299484D02*
X9811253Y-26280436D01*
X9811253Y-26280436D02*
X9820777Y-26251865D01*
X9820777Y-26251865D02*
X9830301Y-26204246D01*
X9830301Y-26204246D02*
X9830301Y-26166151D01*
X9830301Y-26166151D02*
X9820777Y-26118532D01*
X9820777Y-26118532D02*
X9811253Y-26089960D01*
X9811253Y-26089960D02*
X9801729Y-26070913D01*
X9801729Y-26070913D02*
X9782682Y-26042341D01*
X9782682Y-26042341D02*
X9773158Y-26032817D01*
D12*
X4983451Y-26469261D02*
X4983451Y-26398549D01*
X4912739Y-26398549D01*
X4912739Y-26469261D01*
X4983451Y-26469261D01*
D11*
X5363634Y-26525389D02*
X5249348Y-26525389D01*
X5306491Y-26525389D02*
X5306491Y-26325389D01*
X5306491Y-26325389D02*
X5287443Y-26353960D01*
X5287443Y-26353960D02*
X5268396Y-26373008D01*
X5268396Y-26373008D02*
X5249348Y-26382532D01*
X5449348Y-26506341D02*
X5458872Y-26515865D01*
X5458872Y-26515865D02*
X5449348Y-26525389D01*
X5449348Y-26525389D02*
X5439824Y-26515865D01*
X5439824Y-26515865D02*
X5449348Y-26506341D01*
X5449348Y-26506341D02*
X5449348Y-26525389D01*
X5582681Y-26325389D02*
X5601729Y-26325389D01*
X5601729Y-26325389D02*
X5620777Y-26334913D01*
X5620777Y-26334913D02*
X5630300Y-26344436D01*
X5630300Y-26344436D02*
X5639824Y-26363484D01*
X5639824Y-26363484D02*
X5649348Y-26401579D01*
X5649348Y-26401579D02*
X5649348Y-26449198D01*
X5649348Y-26449198D02*
X5639824Y-26487293D01*
X5639824Y-26487293D02*
X5630300Y-26506341D01*
X5630300Y-26506341D02*
X5620777Y-26515865D01*
X5620777Y-26515865D02*
X5601729Y-26525389D01*
X5601729Y-26525389D02*
X5582681Y-26525389D01*
X5582681Y-26525389D02*
X5563634Y-26515865D01*
X5563634Y-26515865D02*
X5554110Y-26506341D01*
X5554110Y-26506341D02*
X5544586Y-26487293D01*
X5544586Y-26487293D02*
X5535062Y-26449198D01*
X5535062Y-26449198D02*
X5535062Y-26401579D01*
X5535062Y-26401579D02*
X5544586Y-26363484D01*
X5544586Y-26363484D02*
X5554110Y-26344436D01*
X5554110Y-26344436D02*
X5563634Y-26334913D01*
X5563634Y-26334913D02*
X5582681Y-26325389D01*
X5773157Y-26325389D02*
X5792205Y-26325389D01*
X5792205Y-26325389D02*
X5811253Y-26334913D01*
X5811253Y-26334913D02*
X5820777Y-26344436D01*
X5820777Y-26344436D02*
X5830300Y-26363484D01*
X5830300Y-26363484D02*
X5839824Y-26401579D01*
X5839824Y-26401579D02*
X5839824Y-26449198D01*
X5839824Y-26449198D02*
X5830300Y-26487293D01*
X5830300Y-26487293D02*
X5820777Y-26506341D01*
X5820777Y-26506341D02*
X5811253Y-26515865D01*
X5811253Y-26515865D02*
X5792205Y-26525389D01*
X5792205Y-26525389D02*
X5773157Y-26525389D01*
X5773157Y-26525389D02*
X5754110Y-26515865D01*
X5754110Y-26515865D02*
X5744586Y-26506341D01*
X5744586Y-26506341D02*
X5735062Y-26487293D01*
X5735062Y-26487293D02*
X5725538Y-26449198D01*
X5725538Y-26449198D02*
X5725538Y-26401579D01*
X5725538Y-26401579D02*
X5735062Y-26363484D01*
X5735062Y-26363484D02*
X5744586Y-26344436D01*
X5744586Y-26344436D02*
X5754110Y-26334913D01*
X5754110Y-26334913D02*
X5773157Y-26325389D01*
X5963634Y-26325389D02*
X5982681Y-26325389D01*
X5982681Y-26325389D02*
X6001729Y-26334913D01*
X6001729Y-26334913D02*
X6011253Y-26344436D01*
X6011253Y-26344436D02*
X6020777Y-26363484D01*
X6020777Y-26363484D02*
X6030300Y-26401579D01*
X6030300Y-26401579D02*
X6030300Y-26449198D01*
X6030300Y-26449198D02*
X6020777Y-26487293D01*
X6020777Y-26487293D02*
X6011253Y-26506341D01*
X6011253Y-26506341D02*
X6001729Y-26515865D01*
X6001729Y-26515865D02*
X5982681Y-26525389D01*
X5982681Y-26525389D02*
X5963634Y-26525389D01*
X5963634Y-26525389D02*
X5944586Y-26515865D01*
X5944586Y-26515865D02*
X5935062Y-26506341D01*
X5935062Y-26506341D02*
X5925538Y-26487293D01*
X5925538Y-26487293D02*
X5916015Y-26449198D01*
X5916015Y-26449198D02*
X5916015Y-26401579D01*
X5916015Y-26401579D02*
X5925538Y-26363484D01*
X5925538Y-26363484D02*
X5935062Y-26344436D01*
X5935062Y-26344436D02*
X5944586Y-26334913D01*
X5944586Y-26334913D02*
X5963634Y-26325389D01*
X6116015Y-26525389D02*
X6116015Y-26392055D01*
X6116015Y-26411103D02*
X6125538Y-26401579D01*
X6125538Y-26401579D02*
X6144586Y-26392055D01*
X6144586Y-26392055D02*
X6173158Y-26392055D01*
X6173158Y-26392055D02*
X6192205Y-26401579D01*
X6192205Y-26401579D02*
X6201729Y-26420627D01*
X6201729Y-26420627D02*
X6201729Y-26525389D01*
X6201729Y-26420627D02*
X6211253Y-26401579D01*
X6211253Y-26401579D02*
X6230300Y-26392055D01*
X6230300Y-26392055D02*
X6258872Y-26392055D01*
X6258872Y-26392055D02*
X6277919Y-26401579D01*
X6277919Y-26401579D02*
X6287443Y-26420627D01*
X6287443Y-26420627D02*
X6287443Y-26525389D01*
X6382681Y-26525389D02*
X6382681Y-26392055D01*
X6382681Y-26411103D02*
X6392205Y-26401579D01*
X6392205Y-26401579D02*
X6411253Y-26392055D01*
X6411253Y-26392055D02*
X6439824Y-26392055D01*
X6439824Y-26392055D02*
X6458872Y-26401579D01*
X6458872Y-26401579D02*
X6468396Y-26420627D01*
X6468396Y-26420627D02*
X6468396Y-26525389D01*
X6468396Y-26420627D02*
X6477919Y-26401579D01*
X6477919Y-26401579D02*
X6496967Y-26392055D01*
X6496967Y-26392055D02*
X6525538Y-26392055D01*
X6525538Y-26392055D02*
X6544586Y-26401579D01*
X6544586Y-26401579D02*
X6554110Y-26420627D01*
X6554110Y-26420627D02*
X6554110Y-26525389D01*
X6944586Y-26315865D02*
X6773158Y-26573008D01*
X7201729Y-26325389D02*
X7220777Y-26325389D01*
X7220777Y-26325389D02*
X7239824Y-26334913D01*
X7239824Y-26334913D02*
X7249348Y-26344436D01*
X7249348Y-26344436D02*
X7258872Y-26363484D01*
X7258872Y-26363484D02*
X7268396Y-26401579D01*
X7268396Y-26401579D02*
X7268396Y-26449198D01*
X7268396Y-26449198D02*
X7258872Y-26487293D01*
X7258872Y-26487293D02*
X7249348Y-26506341D01*
X7249348Y-26506341D02*
X7239824Y-26515865D01*
X7239824Y-26515865D02*
X7220777Y-26525389D01*
X7220777Y-26525389D02*
X7201729Y-26525389D01*
X7201729Y-26525389D02*
X7182681Y-26515865D01*
X7182681Y-26515865D02*
X7173158Y-26506341D01*
X7173158Y-26506341D02*
X7163634Y-26487293D01*
X7163634Y-26487293D02*
X7154110Y-26449198D01*
X7154110Y-26449198D02*
X7154110Y-26401579D01*
X7154110Y-26401579D02*
X7163634Y-26363484D01*
X7163634Y-26363484D02*
X7173158Y-26344436D01*
X7173158Y-26344436D02*
X7182681Y-26334913D01*
X7182681Y-26334913D02*
X7201729Y-26325389D01*
X7354110Y-26506341D02*
X7363634Y-26515865D01*
X7363634Y-26515865D02*
X7354110Y-26525389D01*
X7354110Y-26525389D02*
X7344586Y-26515865D01*
X7344586Y-26515865D02*
X7354110Y-26506341D01*
X7354110Y-26506341D02*
X7354110Y-26525389D01*
X7487443Y-26325389D02*
X7506491Y-26325389D01*
X7506491Y-26325389D02*
X7525539Y-26334913D01*
X7525539Y-26334913D02*
X7535062Y-26344436D01*
X7535062Y-26344436D02*
X7544586Y-26363484D01*
X7544586Y-26363484D02*
X7554110Y-26401579D01*
X7554110Y-26401579D02*
X7554110Y-26449198D01*
X7554110Y-26449198D02*
X7544586Y-26487293D01*
X7544586Y-26487293D02*
X7535062Y-26506341D01*
X7535062Y-26506341D02*
X7525539Y-26515865D01*
X7525539Y-26515865D02*
X7506491Y-26525389D01*
X7506491Y-26525389D02*
X7487443Y-26525389D01*
X7487443Y-26525389D02*
X7468396Y-26515865D01*
X7468396Y-26515865D02*
X7458872Y-26506341D01*
X7458872Y-26506341D02*
X7449348Y-26487293D01*
X7449348Y-26487293D02*
X7439824Y-26449198D01*
X7439824Y-26449198D02*
X7439824Y-26401579D01*
X7439824Y-26401579D02*
X7449348Y-26363484D01*
X7449348Y-26363484D02*
X7458872Y-26344436D01*
X7458872Y-26344436D02*
X7468396Y-26334913D01*
X7468396Y-26334913D02*
X7487443Y-26325389D01*
X7620777Y-26325389D02*
X7744586Y-26325389D01*
X7744586Y-26325389D02*
X7677920Y-26401579D01*
X7677920Y-26401579D02*
X7706491Y-26401579D01*
X7706491Y-26401579D02*
X7725539Y-26411103D01*
X7725539Y-26411103D02*
X7735062Y-26420627D01*
X7735062Y-26420627D02*
X7744586Y-26439674D01*
X7744586Y-26439674D02*
X7744586Y-26487293D01*
X7744586Y-26487293D02*
X7735062Y-26506341D01*
X7735062Y-26506341D02*
X7725539Y-26515865D01*
X7725539Y-26515865D02*
X7706491Y-26525389D01*
X7706491Y-26525389D02*
X7649348Y-26525389D01*
X7649348Y-26525389D02*
X7630301Y-26515865D01*
X7630301Y-26515865D02*
X7620777Y-26506341D01*
X7839824Y-26525389D02*
X7877920Y-26525389D01*
X7877920Y-26525389D02*
X7896967Y-26515865D01*
X7896967Y-26515865D02*
X7906491Y-26506341D01*
X7906491Y-26506341D02*
X7925539Y-26477770D01*
X7925539Y-26477770D02*
X7935062Y-26439674D01*
X7935062Y-26439674D02*
X7935062Y-26363484D01*
X7935062Y-26363484D02*
X7925539Y-26344436D01*
X7925539Y-26344436D02*
X7916015Y-26334913D01*
X7916015Y-26334913D02*
X7896967Y-26325389D01*
X7896967Y-26325389D02*
X7858872Y-26325389D01*
X7858872Y-26325389D02*
X7839824Y-26334913D01*
X7839824Y-26334913D02*
X7830301Y-26344436D01*
X7830301Y-26344436D02*
X7820777Y-26363484D01*
X7820777Y-26363484D02*
X7820777Y-26411103D01*
X7820777Y-26411103D02*
X7830301Y-26430151D01*
X7830301Y-26430151D02*
X7839824Y-26439674D01*
X7839824Y-26439674D02*
X7858872Y-26449198D01*
X7858872Y-26449198D02*
X7896967Y-26449198D01*
X7896967Y-26449198D02*
X7916015Y-26439674D01*
X7916015Y-26439674D02*
X7925539Y-26430151D01*
X7925539Y-26430151D02*
X7935062Y-26411103D01*
X8106491Y-26392055D02*
X8106491Y-26525389D01*
X8058872Y-26315865D02*
X8011253Y-26458722D01*
X8011253Y-26458722D02*
X8135062Y-26458722D01*
X8201729Y-26325389D02*
X8201729Y-26363484D01*
X8277920Y-26325389D02*
X8277920Y-26363484D01*
X8573158Y-26601579D02*
X8563634Y-26592055D01*
X8563634Y-26592055D02*
X8544586Y-26563484D01*
X8544586Y-26563484D02*
X8535063Y-26544436D01*
X8535063Y-26544436D02*
X8525539Y-26515865D01*
X8525539Y-26515865D02*
X8516015Y-26468246D01*
X8516015Y-26468246D02*
X8516015Y-26430151D01*
X8516015Y-26430151D02*
X8525539Y-26382532D01*
X8525539Y-26382532D02*
X8535063Y-26353960D01*
X8535063Y-26353960D02*
X8544586Y-26334913D01*
X8544586Y-26334913D02*
X8563634Y-26306341D01*
X8563634Y-26306341D02*
X8573158Y-26296817D01*
X8735063Y-26392055D02*
X8735063Y-26525389D01*
X8687444Y-26315865D02*
X8639825Y-26458722D01*
X8639825Y-26458722D02*
X8763634Y-26458722D01*
X8935063Y-26325389D02*
X8839825Y-26325389D01*
X8839825Y-26325389D02*
X8830301Y-26420627D01*
X8830301Y-26420627D02*
X8839825Y-26411103D01*
X8839825Y-26411103D02*
X8858872Y-26401579D01*
X8858872Y-26401579D02*
X8906491Y-26401579D01*
X8906491Y-26401579D02*
X8925539Y-26411103D01*
X8925539Y-26411103D02*
X8935063Y-26420627D01*
X8935063Y-26420627D02*
X8944586Y-26439674D01*
X8944586Y-26439674D02*
X8944586Y-26487293D01*
X8944586Y-26487293D02*
X8935063Y-26506341D01*
X8935063Y-26506341D02*
X8925539Y-26515865D01*
X8925539Y-26515865D02*
X8906491Y-26525389D01*
X8906491Y-26525389D02*
X8858872Y-26525389D01*
X8858872Y-26525389D02*
X8839825Y-26515865D01*
X8839825Y-26515865D02*
X8830301Y-26506341D01*
X9182682Y-26525389D02*
X9182682Y-26325389D01*
X9268396Y-26525389D02*
X9268396Y-26420627D01*
X9268396Y-26420627D02*
X9258872Y-26401579D01*
X9258872Y-26401579D02*
X9239825Y-26392055D01*
X9239825Y-26392055D02*
X9211253Y-26392055D01*
X9211253Y-26392055D02*
X9192206Y-26401579D01*
X9192206Y-26401579D02*
X9182682Y-26411103D01*
X9392206Y-26525389D02*
X9373158Y-26515865D01*
X9373158Y-26515865D02*
X9363634Y-26506341D01*
X9363634Y-26506341D02*
X9354110Y-26487293D01*
X9354110Y-26487293D02*
X9354110Y-26430151D01*
X9354110Y-26430151D02*
X9363634Y-26411103D01*
X9363634Y-26411103D02*
X9373158Y-26401579D01*
X9373158Y-26401579D02*
X9392206Y-26392055D01*
X9392206Y-26392055D02*
X9420777Y-26392055D01*
X9420777Y-26392055D02*
X9439825Y-26401579D01*
X9439825Y-26401579D02*
X9449348Y-26411103D01*
X9449348Y-26411103D02*
X9458872Y-26430151D01*
X9458872Y-26430151D02*
X9458872Y-26487293D01*
X9458872Y-26487293D02*
X9449348Y-26506341D01*
X9449348Y-26506341D02*
X9439825Y-26515865D01*
X9439825Y-26515865D02*
X9420777Y-26525389D01*
X9420777Y-26525389D02*
X9392206Y-26525389D01*
X9573158Y-26525389D02*
X9554110Y-26515865D01*
X9554110Y-26515865D02*
X9544587Y-26496817D01*
X9544587Y-26496817D02*
X9544587Y-26325389D01*
X9725539Y-26515865D02*
X9706491Y-26525389D01*
X9706491Y-26525389D02*
X9668396Y-26525389D01*
X9668396Y-26525389D02*
X9649348Y-26515865D01*
X9649348Y-26515865D02*
X9639825Y-26496817D01*
X9639825Y-26496817D02*
X9639825Y-26420627D01*
X9639825Y-26420627D02*
X9649348Y-26401579D01*
X9649348Y-26401579D02*
X9668396Y-26392055D01*
X9668396Y-26392055D02*
X9706491Y-26392055D01*
X9706491Y-26392055D02*
X9725539Y-26401579D01*
X9725539Y-26401579D02*
X9735063Y-26420627D01*
X9735063Y-26420627D02*
X9735063Y-26439674D01*
X9735063Y-26439674D02*
X9639825Y-26458722D01*
X9811253Y-26515865D02*
X9830301Y-26525389D01*
X9830301Y-26525389D02*
X9868396Y-26525389D01*
X9868396Y-26525389D02*
X9887444Y-26515865D01*
X9887444Y-26515865D02*
X9896968Y-26496817D01*
X9896968Y-26496817D02*
X9896968Y-26487293D01*
X9896968Y-26487293D02*
X9887444Y-26468246D01*
X9887444Y-26468246D02*
X9868396Y-26458722D01*
X9868396Y-26458722D02*
X9839825Y-26458722D01*
X9839825Y-26458722D02*
X9820777Y-26449198D01*
X9820777Y-26449198D02*
X9811253Y-26430151D01*
X9811253Y-26430151D02*
X9811253Y-26420627D01*
X9811253Y-26420627D02*
X9820777Y-26401579D01*
X9820777Y-26401579D02*
X9839825Y-26392055D01*
X9839825Y-26392055D02*
X9868396Y-26392055D01*
X9868396Y-26392055D02*
X9887444Y-26401579D01*
X9963634Y-26601579D02*
X9973158Y-26592055D01*
X9973158Y-26592055D02*
X9992206Y-26563484D01*
X9992206Y-26563484D02*
X10001729Y-26544436D01*
X10001729Y-26544436D02*
X10011253Y-26515865D01*
X10011253Y-26515865D02*
X10020777Y-26468246D01*
X10020777Y-26468246D02*
X10020777Y-26430151D01*
X10020777Y-26430151D02*
X10011253Y-26382532D01*
X10011253Y-26382532D02*
X10001729Y-26353960D01*
X10001729Y-26353960D02*
X9992206Y-26334913D01*
X9992206Y-26334913D02*
X9973158Y-26306341D01*
X9973158Y-26306341D02*
X9963634Y-26296817D01*
M02*
