G04 #@! TF.GenerationSoftware,KiCad,Pcbnew,8.0.8*
G04 #@! TF.CreationDate,2025-02-06T21:03:28-05:00*
G04 #@! TF.ProjectId,Chessboard Hardware,43686573-7362-46f6-9172-642048617264,1*
G04 #@! TF.SameCoordinates,Original*
G04 #@! TF.FileFunction,Legend,Bot*
G04 #@! TF.FilePolarity,Positive*
%FSLAX46Y46*%
G04 Gerber Fmt 4.6, Leading zero omitted, Abs format (unit mm)*
G04 Created by KiCad (PCBNEW 8.0.8) date 2025-02-06 21:03:28*
%MOMM*%
%LPD*%
G01*
G04 APERTURE LIST*
%ADD10C,0.300000*%
%ADD11C,0.200000*%
%ADD12C,0.304800*%
%ADD13C,0.120000*%
%ADD14R,1.080000X1.080000*%
%ADD15C,1.080000*%
%ADD16R,2.000000X2.000000*%
%ADD17C,2.700000*%
%ADD18C,1.600000*%
%ADD19R,1.950000X0.650000*%
%ADD20O,1.600000X1.600000*%
%ADD21R,1.600000X1.600000*%
%ADD22R,1.700000X1.700000*%
%ADD23O,1.700000X1.700000*%
G04 APERTURE END LIST*
D10*
X245335012Y-62119452D02*
X245455965Y-62058976D01*
X245455965Y-62058976D02*
X245637393Y-62058976D01*
X245637393Y-62058976D02*
X245818822Y-62119452D01*
X245818822Y-62119452D02*
X245939774Y-62240404D01*
X245939774Y-62240404D02*
X246000251Y-62361357D01*
X246000251Y-62361357D02*
X246060727Y-62603261D01*
X246060727Y-62603261D02*
X246060727Y-62784690D01*
X246060727Y-62784690D02*
X246000251Y-63026595D01*
X246000251Y-63026595D02*
X245939774Y-63147547D01*
X245939774Y-63147547D02*
X245818822Y-63268500D01*
X245818822Y-63268500D02*
X245637393Y-63328976D01*
X245637393Y-63328976D02*
X245516441Y-63328976D01*
X245516441Y-63328976D02*
X245335012Y-63268500D01*
X245335012Y-63268500D02*
X245274536Y-63208023D01*
X245274536Y-63208023D02*
X245274536Y-62784690D01*
X245274536Y-62784690D02*
X245516441Y-62784690D01*
X244730251Y-63328976D02*
X244730251Y-62058976D01*
X244730251Y-62058976D02*
X244004536Y-63328976D01*
X244004536Y-63328976D02*
X244004536Y-62058976D01*
X243399775Y-63328976D02*
X243399775Y-62058976D01*
X243399775Y-62058976D02*
X243097394Y-62058976D01*
X243097394Y-62058976D02*
X242915965Y-62119452D01*
X242915965Y-62119452D02*
X242795013Y-62240404D01*
X242795013Y-62240404D02*
X242734536Y-62361357D01*
X242734536Y-62361357D02*
X242674060Y-62603261D01*
X242674060Y-62603261D02*
X242674060Y-62784690D01*
X242674060Y-62784690D02*
X242734536Y-63026595D01*
X242734536Y-63026595D02*
X242795013Y-63147547D01*
X242795013Y-63147547D02*
X242915965Y-63268500D01*
X242915965Y-63268500D02*
X243097394Y-63328976D01*
X243097394Y-63328976D02*
X243399775Y-63328976D01*
X246060727Y-66018500D02*
X245879298Y-66078976D01*
X245879298Y-66078976D02*
X245576917Y-66078976D01*
X245576917Y-66078976D02*
X245455965Y-66018500D01*
X245455965Y-66018500D02*
X245395489Y-65958023D01*
X245395489Y-65958023D02*
X245335012Y-65837071D01*
X245335012Y-65837071D02*
X245335012Y-65716119D01*
X245335012Y-65716119D02*
X245395489Y-65595166D01*
X245395489Y-65595166D02*
X245455965Y-65534690D01*
X245455965Y-65534690D02*
X245576917Y-65474214D01*
X245576917Y-65474214D02*
X245818822Y-65413738D01*
X245818822Y-65413738D02*
X245939774Y-65353261D01*
X245939774Y-65353261D02*
X246000251Y-65292785D01*
X246000251Y-65292785D02*
X246060727Y-65171833D01*
X246060727Y-65171833D02*
X246060727Y-65050880D01*
X246060727Y-65050880D02*
X246000251Y-64929928D01*
X246000251Y-64929928D02*
X245939774Y-64869452D01*
X245939774Y-64869452D02*
X245818822Y-64808976D01*
X245818822Y-64808976D02*
X245516441Y-64808976D01*
X245516441Y-64808976D02*
X245335012Y-64869452D01*
X244790727Y-66078976D02*
X244790727Y-64808976D01*
X244790727Y-64808976D02*
X244488346Y-64808976D01*
X244488346Y-64808976D02*
X244306917Y-64869452D01*
X244306917Y-64869452D02*
X244185965Y-64990404D01*
X244185965Y-64990404D02*
X244125488Y-65111357D01*
X244125488Y-65111357D02*
X244065012Y-65353261D01*
X244065012Y-65353261D02*
X244065012Y-65534690D01*
X244065012Y-65534690D02*
X244125488Y-65776595D01*
X244125488Y-65776595D02*
X244185965Y-65897547D01*
X244185965Y-65897547D02*
X244306917Y-66018500D01*
X244306917Y-66018500D02*
X244488346Y-66078976D01*
X244488346Y-66078976D02*
X244790727Y-66078976D01*
X243581203Y-65716119D02*
X242976441Y-65716119D01*
X243702155Y-66078976D02*
X243278822Y-64808976D01*
X243278822Y-64808976D02*
X242855488Y-66078976D01*
X246060727Y-68518500D02*
X245879298Y-68578976D01*
X245879298Y-68578976D02*
X245576917Y-68578976D01*
X245576917Y-68578976D02*
X245455965Y-68518500D01*
X245455965Y-68518500D02*
X245395489Y-68458023D01*
X245395489Y-68458023D02*
X245335012Y-68337071D01*
X245335012Y-68337071D02*
X245335012Y-68216119D01*
X245335012Y-68216119D02*
X245395489Y-68095166D01*
X245395489Y-68095166D02*
X245455965Y-68034690D01*
X245455965Y-68034690D02*
X245576917Y-67974214D01*
X245576917Y-67974214D02*
X245818822Y-67913738D01*
X245818822Y-67913738D02*
X245939774Y-67853261D01*
X245939774Y-67853261D02*
X246000251Y-67792785D01*
X246000251Y-67792785D02*
X246060727Y-67671833D01*
X246060727Y-67671833D02*
X246060727Y-67550880D01*
X246060727Y-67550880D02*
X246000251Y-67429928D01*
X246000251Y-67429928D02*
X245939774Y-67369452D01*
X245939774Y-67369452D02*
X245818822Y-67308976D01*
X245818822Y-67308976D02*
X245516441Y-67308976D01*
X245516441Y-67308976D02*
X245335012Y-67369452D01*
X244065012Y-68458023D02*
X244125488Y-68518500D01*
X244125488Y-68518500D02*
X244306917Y-68578976D01*
X244306917Y-68578976D02*
X244427869Y-68578976D01*
X244427869Y-68578976D02*
X244609298Y-68518500D01*
X244609298Y-68518500D02*
X244730250Y-68397547D01*
X244730250Y-68397547D02*
X244790727Y-68276595D01*
X244790727Y-68276595D02*
X244851203Y-68034690D01*
X244851203Y-68034690D02*
X244851203Y-67853261D01*
X244851203Y-67853261D02*
X244790727Y-67611357D01*
X244790727Y-67611357D02*
X244730250Y-67490404D01*
X244730250Y-67490404D02*
X244609298Y-67369452D01*
X244609298Y-67369452D02*
X244427869Y-67308976D01*
X244427869Y-67308976D02*
X244306917Y-67308976D01*
X244306917Y-67308976D02*
X244125488Y-67369452D01*
X244125488Y-67369452D02*
X244065012Y-67429928D01*
X242915965Y-68578976D02*
X243520727Y-68578976D01*
X243520727Y-68578976D02*
X243520727Y-67308976D01*
D11*
X229947754Y-116213223D02*
X230008230Y-116273700D01*
X230008230Y-116273700D02*
X230189659Y-116334176D01*
X230189659Y-116334176D02*
X230310611Y-116334176D01*
X230310611Y-116334176D02*
X230492040Y-116273700D01*
X230492040Y-116273700D02*
X230612992Y-116152747D01*
X230612992Y-116152747D02*
X230673469Y-116031795D01*
X230673469Y-116031795D02*
X230733945Y-115789890D01*
X230733945Y-115789890D02*
X230733945Y-115608461D01*
X230733945Y-115608461D02*
X230673469Y-115366557D01*
X230673469Y-115366557D02*
X230612992Y-115245604D01*
X230612992Y-115245604D02*
X230492040Y-115124652D01*
X230492040Y-115124652D02*
X230310611Y-115064176D01*
X230310611Y-115064176D02*
X230189659Y-115064176D01*
X230189659Y-115064176D02*
X230008230Y-115124652D01*
X230008230Y-115124652D02*
X229947754Y-115185128D01*
X229161564Y-115064176D02*
X228919659Y-115064176D01*
X228919659Y-115064176D02*
X228798707Y-115124652D01*
X228798707Y-115124652D02*
X228677754Y-115245604D01*
X228677754Y-115245604D02*
X228617278Y-115487509D01*
X228617278Y-115487509D02*
X228617278Y-115910842D01*
X228617278Y-115910842D02*
X228677754Y-116152747D01*
X228677754Y-116152747D02*
X228798707Y-116273700D01*
X228798707Y-116273700D02*
X228919659Y-116334176D01*
X228919659Y-116334176D02*
X229161564Y-116334176D01*
X229161564Y-116334176D02*
X229282516Y-116273700D01*
X229282516Y-116273700D02*
X229403469Y-116152747D01*
X229403469Y-116152747D02*
X229463945Y-115910842D01*
X229463945Y-115910842D02*
X229463945Y-115487509D01*
X229463945Y-115487509D02*
X229403469Y-115245604D01*
X229403469Y-115245604D02*
X229282516Y-115124652D01*
X229282516Y-115124652D02*
X229161564Y-115064176D01*
X228072993Y-116334176D02*
X228072993Y-115064176D01*
X228072993Y-115064176D02*
X227649659Y-115971319D01*
X227649659Y-115971319D02*
X227226326Y-115064176D01*
X227226326Y-115064176D02*
X227226326Y-116334176D01*
X225956325Y-116334176D02*
X226682040Y-116334176D01*
X226319183Y-116334176D02*
X226319183Y-115064176D01*
X226319183Y-115064176D02*
X226440135Y-115245604D01*
X226440135Y-115245604D02*
X226561087Y-115366557D01*
X226561087Y-115366557D02*
X226682040Y-115427033D01*
X130391565Y-104523700D02*
X130210136Y-104584176D01*
X130210136Y-104584176D02*
X129907755Y-104584176D01*
X129907755Y-104584176D02*
X129786803Y-104523700D01*
X129786803Y-104523700D02*
X129726327Y-104463223D01*
X129726327Y-104463223D02*
X129665850Y-104342271D01*
X129665850Y-104342271D02*
X129665850Y-104221319D01*
X129665850Y-104221319D02*
X129726327Y-104100366D01*
X129726327Y-104100366D02*
X129786803Y-104039890D01*
X129786803Y-104039890D02*
X129907755Y-103979414D01*
X129907755Y-103979414D02*
X130149660Y-103918938D01*
X130149660Y-103918938D02*
X130270612Y-103858461D01*
X130270612Y-103858461D02*
X130331089Y-103797985D01*
X130331089Y-103797985D02*
X130391565Y-103677033D01*
X130391565Y-103677033D02*
X130391565Y-103556080D01*
X130391565Y-103556080D02*
X130331089Y-103435128D01*
X130331089Y-103435128D02*
X130270612Y-103374652D01*
X130270612Y-103374652D02*
X130149660Y-103314176D01*
X130149660Y-103314176D02*
X129847279Y-103314176D01*
X129847279Y-103314176D02*
X129665850Y-103374652D01*
X129242517Y-103314176D02*
X128456326Y-103314176D01*
X128456326Y-103314176D02*
X128879660Y-103797985D01*
X128879660Y-103797985D02*
X128698231Y-103797985D01*
X128698231Y-103797985D02*
X128577279Y-103858461D01*
X128577279Y-103858461D02*
X128516803Y-103918938D01*
X128516803Y-103918938D02*
X128456326Y-104039890D01*
X128456326Y-104039890D02*
X128456326Y-104342271D01*
X128456326Y-104342271D02*
X128516803Y-104463223D01*
X128516803Y-104463223D02*
X128577279Y-104523700D01*
X128577279Y-104523700D02*
X128698231Y-104584176D01*
X128698231Y-104584176D02*
X129061088Y-104584176D01*
X129061088Y-104584176D02*
X129182041Y-104523700D01*
X129182041Y-104523700D02*
X129242517Y-104463223D01*
D12*
X161284858Y-54092245D02*
X161792858Y-54092245D01*
X161792858Y-54890531D02*
X161792858Y-53366531D01*
X161792858Y-53366531D02*
X161067144Y-53366531D01*
X160268858Y-54890531D02*
X160414001Y-54817960D01*
X160414001Y-54817960D02*
X160486572Y-54745388D01*
X160486572Y-54745388D02*
X160559144Y-54600245D01*
X160559144Y-54600245D02*
X160559144Y-54164817D01*
X160559144Y-54164817D02*
X160486572Y-54019674D01*
X160486572Y-54019674D02*
X160414001Y-53947102D01*
X160414001Y-53947102D02*
X160268858Y-53874531D01*
X160268858Y-53874531D02*
X160051144Y-53874531D01*
X160051144Y-53874531D02*
X159906001Y-53947102D01*
X159906001Y-53947102D02*
X159833430Y-54019674D01*
X159833430Y-54019674D02*
X159760858Y-54164817D01*
X159760858Y-54164817D02*
X159760858Y-54600245D01*
X159760858Y-54600245D02*
X159833430Y-54745388D01*
X159833430Y-54745388D02*
X159906001Y-54817960D01*
X159906001Y-54817960D02*
X160051144Y-54890531D01*
X160051144Y-54890531D02*
X160268858Y-54890531D01*
X159107715Y-54890531D02*
X159107715Y-53874531D01*
X159107715Y-54164817D02*
X159035144Y-54019674D01*
X159035144Y-54019674D02*
X158962573Y-53947102D01*
X158962573Y-53947102D02*
X158817430Y-53874531D01*
X158817430Y-53874531D02*
X158672287Y-53874531D01*
X156132286Y-54745388D02*
X156204858Y-54817960D01*
X156204858Y-54817960D02*
X156422572Y-54890531D01*
X156422572Y-54890531D02*
X156567715Y-54890531D01*
X156567715Y-54890531D02*
X156785429Y-54817960D01*
X156785429Y-54817960D02*
X156930572Y-54672817D01*
X156930572Y-54672817D02*
X157003143Y-54527674D01*
X157003143Y-54527674D02*
X157075715Y-54237388D01*
X157075715Y-54237388D02*
X157075715Y-54019674D01*
X157075715Y-54019674D02*
X157003143Y-53729388D01*
X157003143Y-53729388D02*
X156930572Y-53584245D01*
X156930572Y-53584245D02*
X156785429Y-53439102D01*
X156785429Y-53439102D02*
X156567715Y-53366531D01*
X156567715Y-53366531D02*
X156422572Y-53366531D01*
X156422572Y-53366531D02*
X156204858Y-53439102D01*
X156204858Y-53439102D02*
X156132286Y-53511674D01*
X155479143Y-54890531D02*
X155479143Y-53366531D01*
X155479143Y-53366531D02*
X155116286Y-53366531D01*
X155116286Y-53366531D02*
X154898572Y-53439102D01*
X154898572Y-53439102D02*
X154753429Y-53584245D01*
X154753429Y-53584245D02*
X154680858Y-53729388D01*
X154680858Y-53729388D02*
X154608286Y-54019674D01*
X154608286Y-54019674D02*
X154608286Y-54237388D01*
X154608286Y-54237388D02*
X154680858Y-54527674D01*
X154680858Y-54527674D02*
X154753429Y-54672817D01*
X154753429Y-54672817D02*
X154898572Y-54817960D01*
X154898572Y-54817960D02*
X155116286Y-54890531D01*
X155116286Y-54890531D02*
X155479143Y-54890531D01*
X154100286Y-53366531D02*
X153084286Y-53366531D01*
X153084286Y-53366531D02*
X153737429Y-54890531D01*
X151850572Y-53874531D02*
X151850572Y-54890531D01*
X152213429Y-53293960D02*
X152576286Y-54382531D01*
X152576286Y-54382531D02*
X151632857Y-54382531D01*
X151052285Y-54890531D02*
X151052285Y-53366531D01*
X151052285Y-54092245D02*
X150181428Y-54092245D01*
X150181428Y-54890531D02*
X150181428Y-53366531D01*
X148584857Y-54745388D02*
X148657429Y-54817960D01*
X148657429Y-54817960D02*
X148875143Y-54890531D01*
X148875143Y-54890531D02*
X149020286Y-54890531D01*
X149020286Y-54890531D02*
X149238000Y-54817960D01*
X149238000Y-54817960D02*
X149383143Y-54672817D01*
X149383143Y-54672817D02*
X149455714Y-54527674D01*
X149455714Y-54527674D02*
X149528286Y-54237388D01*
X149528286Y-54237388D02*
X149528286Y-54019674D01*
X149528286Y-54019674D02*
X149455714Y-53729388D01*
X149455714Y-53729388D02*
X149383143Y-53584245D01*
X149383143Y-53584245D02*
X149238000Y-53439102D01*
X149238000Y-53439102D02*
X149020286Y-53366531D01*
X149020286Y-53366531D02*
X148875143Y-53366531D01*
X148875143Y-53366531D02*
X148657429Y-53439102D01*
X148657429Y-53439102D02*
X148584857Y-53511674D01*
X147278572Y-53874531D02*
X147278572Y-54890531D01*
X147641429Y-53293960D02*
X148004286Y-54382531D01*
X148004286Y-54382531D02*
X147060857Y-54382531D01*
X146190000Y-53366531D02*
X146044857Y-53366531D01*
X146044857Y-53366531D02*
X145899714Y-53439102D01*
X145899714Y-53439102D02*
X145827143Y-53511674D01*
X145827143Y-53511674D02*
X145754571Y-53656817D01*
X145754571Y-53656817D02*
X145682000Y-53947102D01*
X145682000Y-53947102D02*
X145682000Y-54309960D01*
X145682000Y-54309960D02*
X145754571Y-54600245D01*
X145754571Y-54600245D02*
X145827143Y-54745388D01*
X145827143Y-54745388D02*
X145899714Y-54817960D01*
X145899714Y-54817960D02*
X146044857Y-54890531D01*
X146044857Y-54890531D02*
X146190000Y-54890531D01*
X146190000Y-54890531D02*
X146335143Y-54817960D01*
X146335143Y-54817960D02*
X146407714Y-54745388D01*
X146407714Y-54745388D02*
X146480285Y-54600245D01*
X146480285Y-54600245D02*
X146552857Y-54309960D01*
X146552857Y-54309960D02*
X146552857Y-53947102D01*
X146552857Y-53947102D02*
X146480285Y-53656817D01*
X146480285Y-53656817D02*
X146407714Y-53511674D01*
X146407714Y-53511674D02*
X146335143Y-53439102D01*
X146335143Y-53439102D02*
X146190000Y-53366531D01*
X144375714Y-53366531D02*
X144665999Y-53366531D01*
X144665999Y-53366531D02*
X144811142Y-53439102D01*
X144811142Y-53439102D02*
X144883714Y-53511674D01*
X144883714Y-53511674D02*
X145028856Y-53729388D01*
X145028856Y-53729388D02*
X145101428Y-54019674D01*
X145101428Y-54019674D02*
X145101428Y-54600245D01*
X145101428Y-54600245D02*
X145028856Y-54745388D01*
X145028856Y-54745388D02*
X144956285Y-54817960D01*
X144956285Y-54817960D02*
X144811142Y-54890531D01*
X144811142Y-54890531D02*
X144520856Y-54890531D01*
X144520856Y-54890531D02*
X144375714Y-54817960D01*
X144375714Y-54817960D02*
X144303142Y-54745388D01*
X144303142Y-54745388D02*
X144230571Y-54600245D01*
X144230571Y-54600245D02*
X144230571Y-54237388D01*
X144230571Y-54237388D02*
X144303142Y-54092245D01*
X144303142Y-54092245D02*
X144375714Y-54019674D01*
X144375714Y-54019674D02*
X144520856Y-53947102D01*
X144520856Y-53947102D02*
X144811142Y-53947102D01*
X144811142Y-53947102D02*
X144956285Y-54019674D01*
X144956285Y-54019674D02*
X145028856Y-54092245D01*
X145028856Y-54092245D02*
X145101428Y-54237388D01*
X143722570Y-53366531D02*
X142706570Y-53366531D01*
X142706570Y-53366531D02*
X143359713Y-54890531D01*
X142125998Y-54890531D02*
X142125998Y-53366531D01*
X142125998Y-53366531D02*
X141617998Y-54455102D01*
X141617998Y-54455102D02*
X141109998Y-53366531D01*
X141109998Y-53366531D02*
X141109998Y-54890531D01*
X140311713Y-54890531D02*
X140021427Y-54890531D01*
X140021427Y-54890531D02*
X139876284Y-54817960D01*
X139876284Y-54817960D02*
X139803713Y-54745388D01*
X139803713Y-54745388D02*
X139658570Y-54527674D01*
X139658570Y-54527674D02*
X139585999Y-54237388D01*
X139585999Y-54237388D02*
X139585999Y-53656817D01*
X139585999Y-53656817D02*
X139658570Y-53511674D01*
X139658570Y-53511674D02*
X139731142Y-53439102D01*
X139731142Y-53439102D02*
X139876284Y-53366531D01*
X139876284Y-53366531D02*
X140166570Y-53366531D01*
X140166570Y-53366531D02*
X140311713Y-53439102D01*
X140311713Y-53439102D02*
X140384284Y-53511674D01*
X140384284Y-53511674D02*
X140456856Y-53656817D01*
X140456856Y-53656817D02*
X140456856Y-54019674D01*
X140456856Y-54019674D02*
X140384284Y-54164817D01*
X140384284Y-54164817D02*
X140311713Y-54237388D01*
X140311713Y-54237388D02*
X140166570Y-54309960D01*
X140166570Y-54309960D02*
X139876284Y-54309960D01*
X139876284Y-54309960D02*
X139731142Y-54237388D01*
X139731142Y-54237388D02*
X139658570Y-54164817D01*
X139658570Y-54164817D02*
X139585999Y-54019674D01*
X138279713Y-53366531D02*
X138569998Y-53366531D01*
X138569998Y-53366531D02*
X138715141Y-53439102D01*
X138715141Y-53439102D02*
X138787713Y-53511674D01*
X138787713Y-53511674D02*
X138932855Y-53729388D01*
X138932855Y-53729388D02*
X139005427Y-54019674D01*
X139005427Y-54019674D02*
X139005427Y-54600245D01*
X139005427Y-54600245D02*
X138932855Y-54745388D01*
X138932855Y-54745388D02*
X138860284Y-54817960D01*
X138860284Y-54817960D02*
X138715141Y-54890531D01*
X138715141Y-54890531D02*
X138424855Y-54890531D01*
X138424855Y-54890531D02*
X138279713Y-54817960D01*
X138279713Y-54817960D02*
X138207141Y-54745388D01*
X138207141Y-54745388D02*
X138134570Y-54600245D01*
X138134570Y-54600245D02*
X138134570Y-54237388D01*
X138134570Y-54237388D02*
X138207141Y-54092245D01*
X138207141Y-54092245D02*
X138279713Y-54019674D01*
X138279713Y-54019674D02*
X138424855Y-53947102D01*
X138424855Y-53947102D02*
X138715141Y-53947102D01*
X138715141Y-53947102D02*
X138860284Y-54019674D01*
X138860284Y-54019674D02*
X138932855Y-54092245D01*
X138932855Y-54092245D02*
X139005427Y-54237388D01*
X158055427Y-57344086D02*
X158055427Y-55820086D01*
X158055427Y-55820086D02*
X157692570Y-55820086D01*
X157692570Y-55820086D02*
X157474856Y-55892657D01*
X157474856Y-55892657D02*
X157329713Y-56037800D01*
X157329713Y-56037800D02*
X157257142Y-56182943D01*
X157257142Y-56182943D02*
X157184570Y-56473229D01*
X157184570Y-56473229D02*
X157184570Y-56690943D01*
X157184570Y-56690943D02*
X157257142Y-56981229D01*
X157257142Y-56981229D02*
X157329713Y-57126372D01*
X157329713Y-57126372D02*
X157474856Y-57271515D01*
X157474856Y-57271515D02*
X157692570Y-57344086D01*
X157692570Y-57344086D02*
X158055427Y-57344086D01*
X156313713Y-57344086D02*
X156458856Y-57271515D01*
X156458856Y-57271515D02*
X156531427Y-57198943D01*
X156531427Y-57198943D02*
X156603999Y-57053800D01*
X156603999Y-57053800D02*
X156603999Y-56618372D01*
X156603999Y-56618372D02*
X156531427Y-56473229D01*
X156531427Y-56473229D02*
X156458856Y-56400657D01*
X156458856Y-56400657D02*
X156313713Y-56328086D01*
X156313713Y-56328086D02*
X156095999Y-56328086D01*
X156095999Y-56328086D02*
X155950856Y-56400657D01*
X155950856Y-56400657D02*
X155878285Y-56473229D01*
X155878285Y-56473229D02*
X155805713Y-56618372D01*
X155805713Y-56618372D02*
X155805713Y-57053800D01*
X155805713Y-57053800D02*
X155878285Y-57198943D01*
X155878285Y-57198943D02*
X155950856Y-57271515D01*
X155950856Y-57271515D02*
X156095999Y-57344086D01*
X156095999Y-57344086D02*
X156313713Y-57344086D01*
X155370285Y-56328086D02*
X154789713Y-56328086D01*
X155152570Y-55820086D02*
X155152570Y-57126372D01*
X155152570Y-57126372D02*
X155079999Y-57271515D01*
X155079999Y-57271515D02*
X154934856Y-57344086D01*
X154934856Y-57344086D02*
X154789713Y-57344086D01*
X153120570Y-57344086D02*
X153120570Y-56328086D01*
X153120570Y-55820086D02*
X153193142Y-55892657D01*
X153193142Y-55892657D02*
X153120570Y-55965229D01*
X153120570Y-55965229D02*
X153047999Y-55892657D01*
X153047999Y-55892657D02*
X153120570Y-55820086D01*
X153120570Y-55820086D02*
X153120570Y-55965229D01*
X152394856Y-56328086D02*
X152394856Y-57344086D01*
X152394856Y-56473229D02*
X152322285Y-56400657D01*
X152322285Y-56400657D02*
X152177142Y-56328086D01*
X152177142Y-56328086D02*
X151959428Y-56328086D01*
X151959428Y-56328086D02*
X151814285Y-56400657D01*
X151814285Y-56400657D02*
X151741714Y-56545800D01*
X151741714Y-56545800D02*
X151741714Y-57344086D01*
X150072571Y-56328086D02*
X149491999Y-56328086D01*
X149854856Y-55820086D02*
X149854856Y-57126372D01*
X149854856Y-57126372D02*
X149782285Y-57271515D01*
X149782285Y-57271515D02*
X149637142Y-57344086D01*
X149637142Y-57344086D02*
X149491999Y-57344086D01*
X148766285Y-57344086D02*
X148911428Y-57271515D01*
X148911428Y-57271515D02*
X148983999Y-57198943D01*
X148983999Y-57198943D02*
X149056571Y-57053800D01*
X149056571Y-57053800D02*
X149056571Y-56618372D01*
X149056571Y-56618372D02*
X148983999Y-56473229D01*
X148983999Y-56473229D02*
X148911428Y-56400657D01*
X148911428Y-56400657D02*
X148766285Y-56328086D01*
X148766285Y-56328086D02*
X148548571Y-56328086D01*
X148548571Y-56328086D02*
X148403428Y-56400657D01*
X148403428Y-56400657D02*
X148330857Y-56473229D01*
X148330857Y-56473229D02*
X148258285Y-56618372D01*
X148258285Y-56618372D02*
X148258285Y-57053800D01*
X148258285Y-57053800D02*
X148330857Y-57198943D01*
X148330857Y-57198943D02*
X148403428Y-57271515D01*
X148403428Y-57271515D02*
X148548571Y-57344086D01*
X148548571Y-57344086D02*
X148766285Y-57344086D01*
X147605142Y-56328086D02*
X147605142Y-57852086D01*
X147605142Y-56400657D02*
X147460000Y-56328086D01*
X147460000Y-56328086D02*
X147169714Y-56328086D01*
X147169714Y-56328086D02*
X147024571Y-56400657D01*
X147024571Y-56400657D02*
X146952000Y-56473229D01*
X146952000Y-56473229D02*
X146879428Y-56618372D01*
X146879428Y-56618372D02*
X146879428Y-57053800D01*
X146879428Y-57053800D02*
X146952000Y-57198943D01*
X146952000Y-57198943D02*
X147024571Y-57271515D01*
X147024571Y-57271515D02*
X147169714Y-57344086D01*
X147169714Y-57344086D02*
X147460000Y-57344086D01*
X147460000Y-57344086D02*
X147605142Y-57271515D01*
X144847428Y-57344086D02*
X144992571Y-57271515D01*
X144992571Y-57271515D02*
X145065142Y-57126372D01*
X145065142Y-57126372D02*
X145065142Y-55820086D01*
X143686285Y-57271515D02*
X143831428Y-57344086D01*
X143831428Y-57344086D02*
X144121714Y-57344086D01*
X144121714Y-57344086D02*
X144266856Y-57271515D01*
X144266856Y-57271515D02*
X144339428Y-57126372D01*
X144339428Y-57126372D02*
X144339428Y-56545800D01*
X144339428Y-56545800D02*
X144266856Y-56400657D01*
X144266856Y-56400657D02*
X144121714Y-56328086D01*
X144121714Y-56328086D02*
X143831428Y-56328086D01*
X143831428Y-56328086D02*
X143686285Y-56400657D01*
X143686285Y-56400657D02*
X143613714Y-56545800D01*
X143613714Y-56545800D02*
X143613714Y-56690943D01*
X143613714Y-56690943D02*
X144339428Y-56836086D01*
X143178285Y-56328086D02*
X142597713Y-56328086D01*
X142960570Y-57344086D02*
X142960570Y-56037800D01*
X142960570Y-56037800D02*
X142887999Y-55892657D01*
X142887999Y-55892657D02*
X142742856Y-55820086D01*
X142742856Y-55820086D02*
X142597713Y-55820086D01*
X142307428Y-56328086D02*
X141726856Y-56328086D01*
X142089713Y-55820086D02*
X142089713Y-57126372D01*
X142089713Y-57126372D02*
X142017142Y-57271515D01*
X142017142Y-57271515D02*
X141871999Y-57344086D01*
X141871999Y-57344086D02*
X141726856Y-57344086D01*
X159144000Y-59797641D02*
X160014857Y-59797641D01*
X159579428Y-59797641D02*
X159579428Y-58273641D01*
X159579428Y-58273641D02*
X159724571Y-58491355D01*
X159724571Y-58491355D02*
X159869714Y-58636498D01*
X159869714Y-58636498D02*
X160014857Y-58709070D01*
X158200571Y-58273641D02*
X158055428Y-58273641D01*
X158055428Y-58273641D02*
X157910285Y-58346212D01*
X157910285Y-58346212D02*
X157837714Y-58418784D01*
X157837714Y-58418784D02*
X157765142Y-58563927D01*
X157765142Y-58563927D02*
X157692571Y-58854212D01*
X157692571Y-58854212D02*
X157692571Y-59217070D01*
X157692571Y-59217070D02*
X157765142Y-59507355D01*
X157765142Y-59507355D02*
X157837714Y-59652498D01*
X157837714Y-59652498D02*
X157910285Y-59725070D01*
X157910285Y-59725070D02*
X158055428Y-59797641D01*
X158055428Y-59797641D02*
X158200571Y-59797641D01*
X158200571Y-59797641D02*
X158345714Y-59725070D01*
X158345714Y-59725070D02*
X158418285Y-59652498D01*
X158418285Y-59652498D02*
X158490856Y-59507355D01*
X158490856Y-59507355D02*
X158563428Y-59217070D01*
X158563428Y-59217070D02*
X158563428Y-58854212D01*
X158563428Y-58854212D02*
X158490856Y-58563927D01*
X158490856Y-58563927D02*
X158418285Y-58418784D01*
X158418285Y-58418784D02*
X158345714Y-58346212D01*
X158345714Y-58346212D02*
X158200571Y-58273641D01*
X156749142Y-58273641D02*
X156603999Y-58273641D01*
X156603999Y-58273641D02*
X156458856Y-58346212D01*
X156458856Y-58346212D02*
X156386285Y-58418784D01*
X156386285Y-58418784D02*
X156313713Y-58563927D01*
X156313713Y-58563927D02*
X156241142Y-58854212D01*
X156241142Y-58854212D02*
X156241142Y-59217070D01*
X156241142Y-59217070D02*
X156313713Y-59507355D01*
X156313713Y-59507355D02*
X156386285Y-59652498D01*
X156386285Y-59652498D02*
X156458856Y-59725070D01*
X156458856Y-59725070D02*
X156603999Y-59797641D01*
X156603999Y-59797641D02*
X156749142Y-59797641D01*
X156749142Y-59797641D02*
X156894285Y-59725070D01*
X156894285Y-59725070D02*
X156966856Y-59652498D01*
X156966856Y-59652498D02*
X157039427Y-59507355D01*
X157039427Y-59507355D02*
X157111999Y-59217070D01*
X157111999Y-59217070D02*
X157111999Y-58854212D01*
X157111999Y-58854212D02*
X157039427Y-58563927D01*
X157039427Y-58563927D02*
X156966856Y-58418784D01*
X156966856Y-58418784D02*
X156894285Y-58346212D01*
X156894285Y-58346212D02*
X156749142Y-58273641D01*
X155587998Y-58781641D02*
X155587998Y-59797641D01*
X155587998Y-58926784D02*
X155515427Y-58854212D01*
X155515427Y-58854212D02*
X155370284Y-58781641D01*
X155370284Y-58781641D02*
X155152570Y-58781641D01*
X155152570Y-58781641D02*
X155007427Y-58854212D01*
X155007427Y-58854212D02*
X154934856Y-58999355D01*
X154934856Y-58999355D02*
X154934856Y-59797641D01*
X153701141Y-58999355D02*
X154209141Y-58999355D01*
X154209141Y-59797641D02*
X154209141Y-58273641D01*
X154209141Y-58273641D02*
X153483427Y-58273641D01*
X151088570Y-59797641D02*
X151088570Y-58273641D01*
X151088570Y-59725070D02*
X151233712Y-59797641D01*
X151233712Y-59797641D02*
X151523998Y-59797641D01*
X151523998Y-59797641D02*
X151669141Y-59725070D01*
X151669141Y-59725070D02*
X151741712Y-59652498D01*
X151741712Y-59652498D02*
X151814284Y-59507355D01*
X151814284Y-59507355D02*
X151814284Y-59071927D01*
X151814284Y-59071927D02*
X151741712Y-58926784D01*
X151741712Y-58926784D02*
X151669141Y-58854212D01*
X151669141Y-58854212D02*
X151523998Y-58781641D01*
X151523998Y-58781641D02*
X151233712Y-58781641D01*
X151233712Y-58781641D02*
X151088570Y-58854212D01*
X149782284Y-59725070D02*
X149927427Y-59797641D01*
X149927427Y-59797641D02*
X150217713Y-59797641D01*
X150217713Y-59797641D02*
X150362855Y-59725070D01*
X150362855Y-59725070D02*
X150435427Y-59579927D01*
X150435427Y-59579927D02*
X150435427Y-58999355D01*
X150435427Y-58999355D02*
X150362855Y-58854212D01*
X150362855Y-58854212D02*
X150217713Y-58781641D01*
X150217713Y-58781641D02*
X149927427Y-58781641D01*
X149927427Y-58781641D02*
X149782284Y-58854212D01*
X149782284Y-58854212D02*
X149709713Y-58999355D01*
X149709713Y-58999355D02*
X149709713Y-59144498D01*
X149709713Y-59144498D02*
X150435427Y-59289641D01*
X148403427Y-59725070D02*
X148548569Y-59797641D01*
X148548569Y-59797641D02*
X148838855Y-59797641D01*
X148838855Y-59797641D02*
X148983998Y-59725070D01*
X148983998Y-59725070D02*
X149056569Y-59652498D01*
X149056569Y-59652498D02*
X149129141Y-59507355D01*
X149129141Y-59507355D02*
X149129141Y-59071927D01*
X149129141Y-59071927D02*
X149056569Y-58926784D01*
X149056569Y-58926784D02*
X148983998Y-58854212D01*
X148983998Y-58854212D02*
X148838855Y-58781641D01*
X148838855Y-58781641D02*
X148548569Y-58781641D01*
X148548569Y-58781641D02*
X148403427Y-58854212D01*
X147532569Y-59797641D02*
X147677712Y-59725070D01*
X147677712Y-59725070D02*
X147750283Y-59652498D01*
X147750283Y-59652498D02*
X147822855Y-59507355D01*
X147822855Y-59507355D02*
X147822855Y-59071927D01*
X147822855Y-59071927D02*
X147750283Y-58926784D01*
X147750283Y-58926784D02*
X147677712Y-58854212D01*
X147677712Y-58854212D02*
X147532569Y-58781641D01*
X147532569Y-58781641D02*
X147314855Y-58781641D01*
X147314855Y-58781641D02*
X147169712Y-58854212D01*
X147169712Y-58854212D02*
X147097141Y-58926784D01*
X147097141Y-58926784D02*
X147024569Y-59071927D01*
X147024569Y-59071927D02*
X147024569Y-59507355D01*
X147024569Y-59507355D02*
X147097141Y-59652498D01*
X147097141Y-59652498D02*
X147169712Y-59725070D01*
X147169712Y-59725070D02*
X147314855Y-59797641D01*
X147314855Y-59797641D02*
X147532569Y-59797641D01*
X145718284Y-58781641D02*
X145718284Y-59797641D01*
X146371426Y-58781641D02*
X146371426Y-59579927D01*
X146371426Y-59579927D02*
X146298855Y-59725070D01*
X146298855Y-59725070D02*
X146153712Y-59797641D01*
X146153712Y-59797641D02*
X145935998Y-59797641D01*
X145935998Y-59797641D02*
X145790855Y-59725070D01*
X145790855Y-59725070D02*
X145718284Y-59652498D01*
X144992569Y-58781641D02*
X144992569Y-60305641D01*
X144992569Y-58854212D02*
X144847427Y-58781641D01*
X144847427Y-58781641D02*
X144557141Y-58781641D01*
X144557141Y-58781641D02*
X144411998Y-58854212D01*
X144411998Y-58854212D02*
X144339427Y-58926784D01*
X144339427Y-58926784D02*
X144266855Y-59071927D01*
X144266855Y-59071927D02*
X144266855Y-59507355D01*
X144266855Y-59507355D02*
X144339427Y-59652498D01*
X144339427Y-59652498D02*
X144411998Y-59725070D01*
X144411998Y-59725070D02*
X144557141Y-59797641D01*
X144557141Y-59797641D02*
X144847427Y-59797641D01*
X144847427Y-59797641D02*
X144992569Y-59725070D01*
X143395998Y-59797641D02*
X143541141Y-59725070D01*
X143541141Y-59725070D02*
X143613712Y-59579927D01*
X143613712Y-59579927D02*
X143613712Y-58273641D01*
X142815426Y-59797641D02*
X142815426Y-58781641D01*
X142815426Y-58273641D02*
X142887998Y-58346212D01*
X142887998Y-58346212D02*
X142815426Y-58418784D01*
X142815426Y-58418784D02*
X142742855Y-58346212D01*
X142742855Y-58346212D02*
X142815426Y-58273641D01*
X142815426Y-58273641D02*
X142815426Y-58418784D01*
X142089712Y-58781641D02*
X142089712Y-59797641D01*
X142089712Y-58926784D02*
X142017141Y-58854212D01*
X142017141Y-58854212D02*
X141871998Y-58781641D01*
X141871998Y-58781641D02*
X141654284Y-58781641D01*
X141654284Y-58781641D02*
X141509141Y-58854212D01*
X141509141Y-58854212D02*
X141436570Y-58999355D01*
X141436570Y-58999355D02*
X141436570Y-59797641D01*
X140057713Y-58781641D02*
X140057713Y-60015355D01*
X140057713Y-60015355D02*
X140130284Y-60160498D01*
X140130284Y-60160498D02*
X140202855Y-60233070D01*
X140202855Y-60233070D02*
X140347998Y-60305641D01*
X140347998Y-60305641D02*
X140565713Y-60305641D01*
X140565713Y-60305641D02*
X140710855Y-60233070D01*
X140057713Y-59725070D02*
X140202855Y-59797641D01*
X140202855Y-59797641D02*
X140493141Y-59797641D01*
X140493141Y-59797641D02*
X140638284Y-59725070D01*
X140638284Y-59725070D02*
X140710855Y-59652498D01*
X140710855Y-59652498D02*
X140783427Y-59507355D01*
X140783427Y-59507355D02*
X140783427Y-59071927D01*
X140783427Y-59071927D02*
X140710855Y-58926784D01*
X140710855Y-58926784D02*
X140638284Y-58854212D01*
X140638284Y-58854212D02*
X140493141Y-58781641D01*
X140493141Y-58781641D02*
X140202855Y-58781641D01*
X140202855Y-58781641D02*
X140057713Y-58854212D01*
D11*
X128947469Y-65064176D02*
X128524136Y-66334176D01*
X128524136Y-66334176D02*
X128100802Y-65064176D01*
X126951755Y-66213223D02*
X127012231Y-66273700D01*
X127012231Y-66273700D02*
X127193660Y-66334176D01*
X127193660Y-66334176D02*
X127314612Y-66334176D01*
X127314612Y-66334176D02*
X127496041Y-66273700D01*
X127496041Y-66273700D02*
X127616993Y-66152747D01*
X127616993Y-66152747D02*
X127677470Y-66031795D01*
X127677470Y-66031795D02*
X127737946Y-65789890D01*
X127737946Y-65789890D02*
X127737946Y-65608461D01*
X127737946Y-65608461D02*
X127677470Y-65366557D01*
X127677470Y-65366557D02*
X127616993Y-65245604D01*
X127616993Y-65245604D02*
X127496041Y-65124652D01*
X127496041Y-65124652D02*
X127314612Y-65064176D01*
X127314612Y-65064176D02*
X127193660Y-65064176D01*
X127193660Y-65064176D02*
X127012231Y-65124652D01*
X127012231Y-65124652D02*
X126951755Y-65185128D01*
X125681755Y-66213223D02*
X125742231Y-66273700D01*
X125742231Y-66273700D02*
X125923660Y-66334176D01*
X125923660Y-66334176D02*
X126044612Y-66334176D01*
X126044612Y-66334176D02*
X126226041Y-66273700D01*
X126226041Y-66273700D02*
X126346993Y-66152747D01*
X126346993Y-66152747D02*
X126407470Y-66031795D01*
X126407470Y-66031795D02*
X126467946Y-65789890D01*
X126467946Y-65789890D02*
X126467946Y-65608461D01*
X126467946Y-65608461D02*
X126407470Y-65366557D01*
X126407470Y-65366557D02*
X126346993Y-65245604D01*
X126346993Y-65245604D02*
X126226041Y-65124652D01*
X126226041Y-65124652D02*
X126044612Y-65064176D01*
X126044612Y-65064176D02*
X125923660Y-65064176D01*
X125923660Y-65064176D02*
X125742231Y-65124652D01*
X125742231Y-65124652D02*
X125681755Y-65185128D01*
X229947754Y-121213223D02*
X230008230Y-121273700D01*
X230008230Y-121273700D02*
X230189659Y-121334176D01*
X230189659Y-121334176D02*
X230310611Y-121334176D01*
X230310611Y-121334176D02*
X230492040Y-121273700D01*
X230492040Y-121273700D02*
X230612992Y-121152747D01*
X230612992Y-121152747D02*
X230673469Y-121031795D01*
X230673469Y-121031795D02*
X230733945Y-120789890D01*
X230733945Y-120789890D02*
X230733945Y-120608461D01*
X230733945Y-120608461D02*
X230673469Y-120366557D01*
X230673469Y-120366557D02*
X230612992Y-120245604D01*
X230612992Y-120245604D02*
X230492040Y-120124652D01*
X230492040Y-120124652D02*
X230310611Y-120064176D01*
X230310611Y-120064176D02*
X230189659Y-120064176D01*
X230189659Y-120064176D02*
X230008230Y-120124652D01*
X230008230Y-120124652D02*
X229947754Y-120185128D01*
X229161564Y-120064176D02*
X228919659Y-120064176D01*
X228919659Y-120064176D02*
X228798707Y-120124652D01*
X228798707Y-120124652D02*
X228677754Y-120245604D01*
X228677754Y-120245604D02*
X228617278Y-120487509D01*
X228617278Y-120487509D02*
X228617278Y-120910842D01*
X228617278Y-120910842D02*
X228677754Y-121152747D01*
X228677754Y-121152747D02*
X228798707Y-121273700D01*
X228798707Y-121273700D02*
X228919659Y-121334176D01*
X228919659Y-121334176D02*
X229161564Y-121334176D01*
X229161564Y-121334176D02*
X229282516Y-121273700D01*
X229282516Y-121273700D02*
X229403469Y-121152747D01*
X229403469Y-121152747D02*
X229463945Y-120910842D01*
X229463945Y-120910842D02*
X229463945Y-120487509D01*
X229463945Y-120487509D02*
X229403469Y-120245604D01*
X229403469Y-120245604D02*
X229282516Y-120124652D01*
X229282516Y-120124652D02*
X229161564Y-120064176D01*
X228072993Y-121334176D02*
X228072993Y-120064176D01*
X228072993Y-120064176D02*
X227649659Y-120971319D01*
X227649659Y-120971319D02*
X227226326Y-120064176D01*
X227226326Y-120064176D02*
X227226326Y-121334176D01*
X226379659Y-120064176D02*
X226258706Y-120064176D01*
X226258706Y-120064176D02*
X226137754Y-120124652D01*
X226137754Y-120124652D02*
X226077278Y-120185128D01*
X226077278Y-120185128D02*
X226016802Y-120306080D01*
X226016802Y-120306080D02*
X225956325Y-120547985D01*
X225956325Y-120547985D02*
X225956325Y-120850366D01*
X225956325Y-120850366D02*
X226016802Y-121092271D01*
X226016802Y-121092271D02*
X226077278Y-121213223D01*
X226077278Y-121213223D02*
X226137754Y-121273700D01*
X226137754Y-121273700D02*
X226258706Y-121334176D01*
X226258706Y-121334176D02*
X226379659Y-121334176D01*
X226379659Y-121334176D02*
X226500611Y-121273700D01*
X226500611Y-121273700D02*
X226561087Y-121213223D01*
X226561087Y-121213223D02*
X226621564Y-121092271D01*
X226621564Y-121092271D02*
X226682040Y-120850366D01*
X226682040Y-120850366D02*
X226682040Y-120547985D01*
X226682040Y-120547985D02*
X226621564Y-120306080D01*
X226621564Y-120306080D02*
X226561087Y-120185128D01*
X226561087Y-120185128D02*
X226500611Y-120124652D01*
X226500611Y-120124652D02*
X226379659Y-120064176D01*
D12*
X246821713Y-107344086D02*
X246821713Y-105820086D01*
X246168571Y-105965229D02*
X246095999Y-105892657D01*
X246095999Y-105892657D02*
X245950857Y-105820086D01*
X245950857Y-105820086D02*
X245587999Y-105820086D01*
X245587999Y-105820086D02*
X245442857Y-105892657D01*
X245442857Y-105892657D02*
X245370285Y-105965229D01*
X245370285Y-105965229D02*
X245297714Y-106110372D01*
X245297714Y-106110372D02*
X245297714Y-106255515D01*
X245297714Y-106255515D02*
X245370285Y-106473229D01*
X245370285Y-106473229D02*
X246241142Y-107344086D01*
X246241142Y-107344086D02*
X245297714Y-107344086D01*
X243773713Y-107198943D02*
X243846285Y-107271515D01*
X243846285Y-107271515D02*
X244063999Y-107344086D01*
X244063999Y-107344086D02*
X244209142Y-107344086D01*
X244209142Y-107344086D02*
X244426856Y-107271515D01*
X244426856Y-107271515D02*
X244571999Y-107126372D01*
X244571999Y-107126372D02*
X244644570Y-106981229D01*
X244644570Y-106981229D02*
X244717142Y-106690943D01*
X244717142Y-106690943D02*
X244717142Y-106473229D01*
X244717142Y-106473229D02*
X244644570Y-106182943D01*
X244644570Y-106182943D02*
X244571999Y-106037800D01*
X244571999Y-106037800D02*
X244426856Y-105892657D01*
X244426856Y-105892657D02*
X244209142Y-105820086D01*
X244209142Y-105820086D02*
X244063999Y-105820086D01*
X244063999Y-105820086D02*
X243846285Y-105892657D01*
X243846285Y-105892657D02*
X243773713Y-105965229D01*
X241959427Y-106328086D02*
X241959427Y-107852086D01*
X241959427Y-106400657D02*
X241814285Y-106328086D01*
X241814285Y-106328086D02*
X241523999Y-106328086D01*
X241523999Y-106328086D02*
X241378856Y-106400657D01*
X241378856Y-106400657D02*
X241306285Y-106473229D01*
X241306285Y-106473229D02*
X241233713Y-106618372D01*
X241233713Y-106618372D02*
X241233713Y-107053800D01*
X241233713Y-107053800D02*
X241306285Y-107198943D01*
X241306285Y-107198943D02*
X241378856Y-107271515D01*
X241378856Y-107271515D02*
X241523999Y-107344086D01*
X241523999Y-107344086D02*
X241814285Y-107344086D01*
X241814285Y-107344086D02*
X241959427Y-107271515D01*
X239927428Y-106328086D02*
X239927428Y-107344086D01*
X240580570Y-106328086D02*
X240580570Y-107126372D01*
X240580570Y-107126372D02*
X240507999Y-107271515D01*
X240507999Y-107271515D02*
X240362856Y-107344086D01*
X240362856Y-107344086D02*
X240145142Y-107344086D01*
X240145142Y-107344086D02*
X239999999Y-107271515D01*
X239999999Y-107271515D02*
X239927428Y-107198943D01*
X238983999Y-107344086D02*
X239129142Y-107271515D01*
X239129142Y-107271515D02*
X239201713Y-107126372D01*
X239201713Y-107126372D02*
X239201713Y-105820086D01*
X238185713Y-107344086D02*
X238330856Y-107271515D01*
X238330856Y-107271515D02*
X238403427Y-107126372D01*
X238403427Y-107126372D02*
X238403427Y-105820086D01*
X235790856Y-106328086D02*
X235790856Y-107344086D01*
X236443998Y-106328086D02*
X236443998Y-107126372D01*
X236443998Y-107126372D02*
X236371427Y-107271515D01*
X236371427Y-107271515D02*
X236226284Y-107344086D01*
X236226284Y-107344086D02*
X236008570Y-107344086D01*
X236008570Y-107344086D02*
X235863427Y-107271515D01*
X235863427Y-107271515D02*
X235790856Y-107198943D01*
X235065141Y-106328086D02*
X235065141Y-107852086D01*
X235065141Y-106400657D02*
X234919999Y-106328086D01*
X234919999Y-106328086D02*
X234629713Y-106328086D01*
X234629713Y-106328086D02*
X234484570Y-106400657D01*
X234484570Y-106400657D02*
X234411999Y-106473229D01*
X234411999Y-106473229D02*
X234339427Y-106618372D01*
X234339427Y-106618372D02*
X234339427Y-107053800D01*
X234339427Y-107053800D02*
X234411999Y-107198943D01*
X234411999Y-107198943D02*
X234484570Y-107271515D01*
X234484570Y-107271515D02*
X234629713Y-107344086D01*
X234629713Y-107344086D02*
X234919999Y-107344086D01*
X234919999Y-107344086D02*
X235065141Y-107271515D01*
X233758856Y-107271515D02*
X233613713Y-107344086D01*
X233613713Y-107344086D02*
X233323427Y-107344086D01*
X233323427Y-107344086D02*
X233178284Y-107271515D01*
X233178284Y-107271515D02*
X233105713Y-107126372D01*
X233105713Y-107126372D02*
X233105713Y-107053800D01*
X233105713Y-107053800D02*
X233178284Y-106908657D01*
X233178284Y-106908657D02*
X233323427Y-106836086D01*
X233323427Y-106836086D02*
X233541142Y-106836086D01*
X233541142Y-106836086D02*
X233686284Y-106763515D01*
X233686284Y-106763515D02*
X233758856Y-106618372D01*
X233758856Y-106618372D02*
X233758856Y-106545800D01*
X233758856Y-106545800D02*
X233686284Y-106400657D01*
X233686284Y-106400657D02*
X233541142Y-106328086D01*
X233541142Y-106328086D02*
X233323427Y-106328086D01*
X233323427Y-106328086D02*
X233178284Y-106400657D01*
X247946571Y-108999355D02*
X247728857Y-109071927D01*
X247728857Y-109071927D02*
X247656286Y-109144498D01*
X247656286Y-109144498D02*
X247583714Y-109289641D01*
X247583714Y-109289641D02*
X247583714Y-109507355D01*
X247583714Y-109507355D02*
X247656286Y-109652498D01*
X247656286Y-109652498D02*
X247728857Y-109725070D01*
X247728857Y-109725070D02*
X247874000Y-109797641D01*
X247874000Y-109797641D02*
X248454571Y-109797641D01*
X248454571Y-109797641D02*
X248454571Y-108273641D01*
X248454571Y-108273641D02*
X247946571Y-108273641D01*
X247946571Y-108273641D02*
X247801429Y-108346212D01*
X247801429Y-108346212D02*
X247728857Y-108418784D01*
X247728857Y-108418784D02*
X247656286Y-108563927D01*
X247656286Y-108563927D02*
X247656286Y-108709070D01*
X247656286Y-108709070D02*
X247728857Y-108854212D01*
X247728857Y-108854212D02*
X247801429Y-108926784D01*
X247801429Y-108926784D02*
X247946571Y-108999355D01*
X247946571Y-108999355D02*
X248454571Y-108999355D01*
X246712857Y-109797641D02*
X246858000Y-109725070D01*
X246858000Y-109725070D02*
X246930571Y-109652498D01*
X246930571Y-109652498D02*
X247003143Y-109507355D01*
X247003143Y-109507355D02*
X247003143Y-109071927D01*
X247003143Y-109071927D02*
X246930571Y-108926784D01*
X246930571Y-108926784D02*
X246858000Y-108854212D01*
X246858000Y-108854212D02*
X246712857Y-108781641D01*
X246712857Y-108781641D02*
X246495143Y-108781641D01*
X246495143Y-108781641D02*
X246350000Y-108854212D01*
X246350000Y-108854212D02*
X246277429Y-108926784D01*
X246277429Y-108926784D02*
X246204857Y-109071927D01*
X246204857Y-109071927D02*
X246204857Y-109507355D01*
X246204857Y-109507355D02*
X246277429Y-109652498D01*
X246277429Y-109652498D02*
X246350000Y-109725070D01*
X246350000Y-109725070D02*
X246495143Y-109797641D01*
X246495143Y-109797641D02*
X246712857Y-109797641D01*
X245769429Y-108781641D02*
X245188857Y-108781641D01*
X245551714Y-108273641D02*
X245551714Y-109579927D01*
X245551714Y-109579927D02*
X245479143Y-109725070D01*
X245479143Y-109725070D02*
X245334000Y-109797641D01*
X245334000Y-109797641D02*
X245188857Y-109797641D01*
X244680857Y-109797641D02*
X244680857Y-108273641D01*
X244027715Y-109797641D02*
X244027715Y-108999355D01*
X244027715Y-108999355D02*
X244100286Y-108854212D01*
X244100286Y-108854212D02*
X244245429Y-108781641D01*
X244245429Y-108781641D02*
X244463143Y-108781641D01*
X244463143Y-108781641D02*
X244608286Y-108854212D01*
X244608286Y-108854212D02*
X244680857Y-108926784D01*
X241342572Y-109797641D02*
X242213429Y-109797641D01*
X241778000Y-109797641D02*
X241778000Y-108273641D01*
X241778000Y-108273641D02*
X241923143Y-108491355D01*
X241923143Y-108491355D02*
X242068286Y-108636498D01*
X242068286Y-108636498D02*
X242213429Y-108709070D01*
X240399143Y-108273641D02*
X240254000Y-108273641D01*
X240254000Y-108273641D02*
X240108857Y-108346212D01*
X240108857Y-108346212D02*
X240036286Y-108418784D01*
X240036286Y-108418784D02*
X239963714Y-108563927D01*
X239963714Y-108563927D02*
X239891143Y-108854212D01*
X239891143Y-108854212D02*
X239891143Y-109217070D01*
X239891143Y-109217070D02*
X239963714Y-109507355D01*
X239963714Y-109507355D02*
X240036286Y-109652498D01*
X240036286Y-109652498D02*
X240108857Y-109725070D01*
X240108857Y-109725070D02*
X240254000Y-109797641D01*
X240254000Y-109797641D02*
X240399143Y-109797641D01*
X240399143Y-109797641D02*
X240544286Y-109725070D01*
X240544286Y-109725070D02*
X240616857Y-109652498D01*
X240616857Y-109652498D02*
X240689428Y-109507355D01*
X240689428Y-109507355D02*
X240762000Y-109217070D01*
X240762000Y-109217070D02*
X240762000Y-108854212D01*
X240762000Y-108854212D02*
X240689428Y-108563927D01*
X240689428Y-108563927D02*
X240616857Y-108418784D01*
X240616857Y-108418784D02*
X240544286Y-108346212D01*
X240544286Y-108346212D02*
X240399143Y-108273641D01*
X239237999Y-109797641D02*
X239237999Y-108273641D01*
X239092857Y-109217070D02*
X238657428Y-109797641D01*
X238657428Y-108781641D02*
X239237999Y-109362212D01*
X237060857Y-108781641D02*
X236480285Y-108781641D01*
X236843142Y-108273641D02*
X236843142Y-109579927D01*
X236843142Y-109579927D02*
X236770571Y-109725070D01*
X236770571Y-109725070D02*
X236625428Y-109797641D01*
X236625428Y-109797641D02*
X236480285Y-109797641D01*
X235754571Y-109797641D02*
X235899714Y-109725070D01*
X235899714Y-109725070D02*
X235972285Y-109652498D01*
X235972285Y-109652498D02*
X236044857Y-109507355D01*
X236044857Y-109507355D02*
X236044857Y-109071927D01*
X236044857Y-109071927D02*
X235972285Y-108926784D01*
X235972285Y-108926784D02*
X235899714Y-108854212D01*
X235899714Y-108854212D02*
X235754571Y-108781641D01*
X235754571Y-108781641D02*
X235536857Y-108781641D01*
X235536857Y-108781641D02*
X235391714Y-108854212D01*
X235391714Y-108854212D02*
X235319143Y-108926784D01*
X235319143Y-108926784D02*
X235246571Y-109071927D01*
X235246571Y-109071927D02*
X235246571Y-109507355D01*
X235246571Y-109507355D02*
X235319143Y-109652498D01*
X235319143Y-109652498D02*
X235391714Y-109725070D01*
X235391714Y-109725070D02*
X235536857Y-109797641D01*
X235536857Y-109797641D02*
X235754571Y-109797641D01*
X232706571Y-108273641D02*
X233432285Y-108273641D01*
X233432285Y-108273641D02*
X233504857Y-108999355D01*
X233504857Y-108999355D02*
X233432285Y-108926784D01*
X233432285Y-108926784D02*
X233287143Y-108854212D01*
X233287143Y-108854212D02*
X232924285Y-108854212D01*
X232924285Y-108854212D02*
X232779143Y-108926784D01*
X232779143Y-108926784D02*
X232706571Y-108999355D01*
X232706571Y-108999355D02*
X232634000Y-109144498D01*
X232634000Y-109144498D02*
X232634000Y-109507355D01*
X232634000Y-109507355D02*
X232706571Y-109652498D01*
X232706571Y-109652498D02*
X232779143Y-109725070D01*
X232779143Y-109725070D02*
X232924285Y-109797641D01*
X232924285Y-109797641D02*
X233287143Y-109797641D01*
X233287143Y-109797641D02*
X233432285Y-109725070D01*
X233432285Y-109725070D02*
X233504857Y-109652498D01*
X232125999Y-108781641D02*
X231763142Y-109797641D01*
X231763142Y-109797641D02*
X231400285Y-108781641D01*
D11*
X147716041Y-107568938D02*
X147292707Y-107568938D01*
X147111279Y-108234176D02*
X147716041Y-108234176D01*
X147716041Y-108234176D02*
X147716041Y-106964176D01*
X147716041Y-106964176D02*
X147111279Y-106964176D01*
X146566993Y-108234176D02*
X146566993Y-106964176D01*
X146566993Y-106964176D02*
X145841278Y-108234176D01*
X145841278Y-108234176D02*
X145841278Y-106964176D01*
D10*
X246181679Y-59558976D02*
X245758346Y-60828976D01*
X245758346Y-60828976D02*
X245335012Y-59558976D01*
X244185965Y-60708023D02*
X244246441Y-60768500D01*
X244246441Y-60768500D02*
X244427870Y-60828976D01*
X244427870Y-60828976D02*
X244548822Y-60828976D01*
X244548822Y-60828976D02*
X244730251Y-60768500D01*
X244730251Y-60768500D02*
X244851203Y-60647547D01*
X244851203Y-60647547D02*
X244911680Y-60526595D01*
X244911680Y-60526595D02*
X244972156Y-60284690D01*
X244972156Y-60284690D02*
X244972156Y-60103261D01*
X244972156Y-60103261D02*
X244911680Y-59861357D01*
X244911680Y-59861357D02*
X244851203Y-59740404D01*
X244851203Y-59740404D02*
X244730251Y-59619452D01*
X244730251Y-59619452D02*
X244548822Y-59558976D01*
X244548822Y-59558976D02*
X244427870Y-59558976D01*
X244427870Y-59558976D02*
X244246441Y-59619452D01*
X244246441Y-59619452D02*
X244185965Y-59679928D01*
X242915965Y-60708023D02*
X242976441Y-60768500D01*
X242976441Y-60768500D02*
X243157870Y-60828976D01*
X243157870Y-60828976D02*
X243278822Y-60828976D01*
X243278822Y-60828976D02*
X243460251Y-60768500D01*
X243460251Y-60768500D02*
X243581203Y-60647547D01*
X243581203Y-60647547D02*
X243641680Y-60526595D01*
X243641680Y-60526595D02*
X243702156Y-60284690D01*
X243702156Y-60284690D02*
X243702156Y-60103261D01*
X243702156Y-60103261D02*
X243641680Y-59861357D01*
X243641680Y-59861357D02*
X243581203Y-59740404D01*
X243581203Y-59740404D02*
X243460251Y-59619452D01*
X243460251Y-59619452D02*
X243278822Y-59558976D01*
X243278822Y-59558976D02*
X243157870Y-59558976D01*
X243157870Y-59558976D02*
X242976441Y-59619452D01*
X242976441Y-59619452D02*
X242915965Y-59679928D01*
D11*
X130391565Y-109523700D02*
X130210136Y-109584176D01*
X130210136Y-109584176D02*
X129907755Y-109584176D01*
X129907755Y-109584176D02*
X129786803Y-109523700D01*
X129786803Y-109523700D02*
X129726327Y-109463223D01*
X129726327Y-109463223D02*
X129665850Y-109342271D01*
X129665850Y-109342271D02*
X129665850Y-109221319D01*
X129665850Y-109221319D02*
X129726327Y-109100366D01*
X129726327Y-109100366D02*
X129786803Y-109039890D01*
X129786803Y-109039890D02*
X129907755Y-108979414D01*
X129907755Y-108979414D02*
X130149660Y-108918938D01*
X130149660Y-108918938D02*
X130270612Y-108858461D01*
X130270612Y-108858461D02*
X130331089Y-108797985D01*
X130331089Y-108797985D02*
X130391565Y-108677033D01*
X130391565Y-108677033D02*
X130391565Y-108556080D01*
X130391565Y-108556080D02*
X130331089Y-108435128D01*
X130331089Y-108435128D02*
X130270612Y-108374652D01*
X130270612Y-108374652D02*
X130149660Y-108314176D01*
X130149660Y-108314176D02*
X129847279Y-108314176D01*
X129847279Y-108314176D02*
X129665850Y-108374652D01*
X129182041Y-108435128D02*
X129121565Y-108374652D01*
X129121565Y-108374652D02*
X129000612Y-108314176D01*
X129000612Y-108314176D02*
X128698231Y-108314176D01*
X128698231Y-108314176D02*
X128577279Y-108374652D01*
X128577279Y-108374652D02*
X128516803Y-108435128D01*
X128516803Y-108435128D02*
X128456326Y-108556080D01*
X128456326Y-108556080D02*
X128456326Y-108677033D01*
X128456326Y-108677033D02*
X128516803Y-108858461D01*
X128516803Y-108858461D02*
X129242517Y-109584176D01*
X129242517Y-109584176D02*
X128456326Y-109584176D01*
X229947754Y-111213223D02*
X230008230Y-111273700D01*
X230008230Y-111273700D02*
X230189659Y-111334176D01*
X230189659Y-111334176D02*
X230310611Y-111334176D01*
X230310611Y-111334176D02*
X230492040Y-111273700D01*
X230492040Y-111273700D02*
X230612992Y-111152747D01*
X230612992Y-111152747D02*
X230673469Y-111031795D01*
X230673469Y-111031795D02*
X230733945Y-110789890D01*
X230733945Y-110789890D02*
X230733945Y-110608461D01*
X230733945Y-110608461D02*
X230673469Y-110366557D01*
X230673469Y-110366557D02*
X230612992Y-110245604D01*
X230612992Y-110245604D02*
X230492040Y-110124652D01*
X230492040Y-110124652D02*
X230310611Y-110064176D01*
X230310611Y-110064176D02*
X230189659Y-110064176D01*
X230189659Y-110064176D02*
X230008230Y-110124652D01*
X230008230Y-110124652D02*
X229947754Y-110185128D01*
X229161564Y-110064176D02*
X228919659Y-110064176D01*
X228919659Y-110064176D02*
X228798707Y-110124652D01*
X228798707Y-110124652D02*
X228677754Y-110245604D01*
X228677754Y-110245604D02*
X228617278Y-110487509D01*
X228617278Y-110487509D02*
X228617278Y-110910842D01*
X228617278Y-110910842D02*
X228677754Y-111152747D01*
X228677754Y-111152747D02*
X228798707Y-111273700D01*
X228798707Y-111273700D02*
X228919659Y-111334176D01*
X228919659Y-111334176D02*
X229161564Y-111334176D01*
X229161564Y-111334176D02*
X229282516Y-111273700D01*
X229282516Y-111273700D02*
X229403469Y-111152747D01*
X229403469Y-111152747D02*
X229463945Y-110910842D01*
X229463945Y-110910842D02*
X229463945Y-110487509D01*
X229463945Y-110487509D02*
X229403469Y-110245604D01*
X229403469Y-110245604D02*
X229282516Y-110124652D01*
X229282516Y-110124652D02*
X229161564Y-110064176D01*
X228072993Y-111334176D02*
X228072993Y-110064176D01*
X228072993Y-110064176D02*
X227649659Y-110971319D01*
X227649659Y-110971319D02*
X227226326Y-110064176D01*
X227226326Y-110064176D02*
X227226326Y-111334176D01*
X226682040Y-110185128D02*
X226621564Y-110124652D01*
X226621564Y-110124652D02*
X226500611Y-110064176D01*
X226500611Y-110064176D02*
X226198230Y-110064176D01*
X226198230Y-110064176D02*
X226077278Y-110124652D01*
X226077278Y-110124652D02*
X226016802Y-110185128D01*
X226016802Y-110185128D02*
X225956325Y-110306080D01*
X225956325Y-110306080D02*
X225956325Y-110427033D01*
X225956325Y-110427033D02*
X226016802Y-110608461D01*
X226016802Y-110608461D02*
X226742516Y-111334176D01*
X226742516Y-111334176D02*
X225956325Y-111334176D01*
X132600802Y-65124652D02*
X132721755Y-65064176D01*
X132721755Y-65064176D02*
X132903183Y-65064176D01*
X132903183Y-65064176D02*
X133084612Y-65124652D01*
X133084612Y-65124652D02*
X133205564Y-65245604D01*
X133205564Y-65245604D02*
X133266041Y-65366557D01*
X133266041Y-65366557D02*
X133326517Y-65608461D01*
X133326517Y-65608461D02*
X133326517Y-65789890D01*
X133326517Y-65789890D02*
X133266041Y-66031795D01*
X133266041Y-66031795D02*
X133205564Y-66152747D01*
X133205564Y-66152747D02*
X133084612Y-66273700D01*
X133084612Y-66273700D02*
X132903183Y-66334176D01*
X132903183Y-66334176D02*
X132782231Y-66334176D01*
X132782231Y-66334176D02*
X132600802Y-66273700D01*
X132600802Y-66273700D02*
X132540326Y-66213223D01*
X132540326Y-66213223D02*
X132540326Y-65789890D01*
X132540326Y-65789890D02*
X132782231Y-65789890D01*
X131996041Y-66334176D02*
X131996041Y-65064176D01*
X131996041Y-65064176D02*
X131270326Y-66334176D01*
X131270326Y-66334176D02*
X131270326Y-65064176D01*
X130665565Y-66334176D02*
X130665565Y-65064176D01*
X130665565Y-65064176D02*
X130363184Y-65064176D01*
X130363184Y-65064176D02*
X130181755Y-65124652D01*
X130181755Y-65124652D02*
X130060803Y-65245604D01*
X130060803Y-65245604D02*
X130000326Y-65366557D01*
X130000326Y-65366557D02*
X129939850Y-65608461D01*
X129939850Y-65608461D02*
X129939850Y-65789890D01*
X129939850Y-65789890D02*
X130000326Y-66031795D01*
X130000326Y-66031795D02*
X130060803Y-66152747D01*
X130060803Y-66152747D02*
X130181755Y-66273700D01*
X130181755Y-66273700D02*
X130363184Y-66334176D01*
X130363184Y-66334176D02*
X130665565Y-66334176D01*
X130391565Y-114523700D02*
X130210136Y-114584176D01*
X130210136Y-114584176D02*
X129907755Y-114584176D01*
X129907755Y-114584176D02*
X129786803Y-114523700D01*
X129786803Y-114523700D02*
X129726327Y-114463223D01*
X129726327Y-114463223D02*
X129665850Y-114342271D01*
X129665850Y-114342271D02*
X129665850Y-114221319D01*
X129665850Y-114221319D02*
X129726327Y-114100366D01*
X129726327Y-114100366D02*
X129786803Y-114039890D01*
X129786803Y-114039890D02*
X129907755Y-113979414D01*
X129907755Y-113979414D02*
X130149660Y-113918938D01*
X130149660Y-113918938D02*
X130270612Y-113858461D01*
X130270612Y-113858461D02*
X130331089Y-113797985D01*
X130331089Y-113797985D02*
X130391565Y-113677033D01*
X130391565Y-113677033D02*
X130391565Y-113556080D01*
X130391565Y-113556080D02*
X130331089Y-113435128D01*
X130331089Y-113435128D02*
X130270612Y-113374652D01*
X130270612Y-113374652D02*
X130149660Y-113314176D01*
X130149660Y-113314176D02*
X129847279Y-113314176D01*
X129847279Y-113314176D02*
X129665850Y-113374652D01*
X128456326Y-114584176D02*
X129182041Y-114584176D01*
X128819184Y-114584176D02*
X128819184Y-113314176D01*
X128819184Y-113314176D02*
X128940136Y-113495604D01*
X128940136Y-113495604D02*
X129061088Y-113616557D01*
X129061088Y-113616557D02*
X129182041Y-113677033D01*
X130391565Y-119523700D02*
X130210136Y-119584176D01*
X130210136Y-119584176D02*
X129907755Y-119584176D01*
X129907755Y-119584176D02*
X129786803Y-119523700D01*
X129786803Y-119523700D02*
X129726327Y-119463223D01*
X129726327Y-119463223D02*
X129665850Y-119342271D01*
X129665850Y-119342271D02*
X129665850Y-119221319D01*
X129665850Y-119221319D02*
X129726327Y-119100366D01*
X129726327Y-119100366D02*
X129786803Y-119039890D01*
X129786803Y-119039890D02*
X129907755Y-118979414D01*
X129907755Y-118979414D02*
X130149660Y-118918938D01*
X130149660Y-118918938D02*
X130270612Y-118858461D01*
X130270612Y-118858461D02*
X130331089Y-118797985D01*
X130331089Y-118797985D02*
X130391565Y-118677033D01*
X130391565Y-118677033D02*
X130391565Y-118556080D01*
X130391565Y-118556080D02*
X130331089Y-118435128D01*
X130331089Y-118435128D02*
X130270612Y-118374652D01*
X130270612Y-118374652D02*
X130149660Y-118314176D01*
X130149660Y-118314176D02*
X129847279Y-118314176D01*
X129847279Y-118314176D02*
X129665850Y-118374652D01*
X128879660Y-118314176D02*
X128758707Y-118314176D01*
X128758707Y-118314176D02*
X128637755Y-118374652D01*
X128637755Y-118374652D02*
X128577279Y-118435128D01*
X128577279Y-118435128D02*
X128516803Y-118556080D01*
X128516803Y-118556080D02*
X128456326Y-118797985D01*
X128456326Y-118797985D02*
X128456326Y-119100366D01*
X128456326Y-119100366D02*
X128516803Y-119342271D01*
X128516803Y-119342271D02*
X128577279Y-119463223D01*
X128577279Y-119463223D02*
X128637755Y-119523700D01*
X128637755Y-119523700D02*
X128758707Y-119584176D01*
X128758707Y-119584176D02*
X128879660Y-119584176D01*
X128879660Y-119584176D02*
X129000612Y-119523700D01*
X129000612Y-119523700D02*
X129061088Y-119463223D01*
X129061088Y-119463223D02*
X129121565Y-119342271D01*
X129121565Y-119342271D02*
X129182041Y-119100366D01*
X129182041Y-119100366D02*
X129182041Y-118797985D01*
X129182041Y-118797985D02*
X129121565Y-118556080D01*
X129121565Y-118556080D02*
X129061088Y-118435128D01*
X129061088Y-118435128D02*
X129000612Y-118374652D01*
X129000612Y-118374652D02*
X128879660Y-118314176D01*
X229947754Y-106213223D02*
X230008230Y-106273700D01*
X230008230Y-106273700D02*
X230189659Y-106334176D01*
X230189659Y-106334176D02*
X230310611Y-106334176D01*
X230310611Y-106334176D02*
X230492040Y-106273700D01*
X230492040Y-106273700D02*
X230612992Y-106152747D01*
X230612992Y-106152747D02*
X230673469Y-106031795D01*
X230673469Y-106031795D02*
X230733945Y-105789890D01*
X230733945Y-105789890D02*
X230733945Y-105608461D01*
X230733945Y-105608461D02*
X230673469Y-105366557D01*
X230673469Y-105366557D02*
X230612992Y-105245604D01*
X230612992Y-105245604D02*
X230492040Y-105124652D01*
X230492040Y-105124652D02*
X230310611Y-105064176D01*
X230310611Y-105064176D02*
X230189659Y-105064176D01*
X230189659Y-105064176D02*
X230008230Y-105124652D01*
X230008230Y-105124652D02*
X229947754Y-105185128D01*
X229161564Y-105064176D02*
X228919659Y-105064176D01*
X228919659Y-105064176D02*
X228798707Y-105124652D01*
X228798707Y-105124652D02*
X228677754Y-105245604D01*
X228677754Y-105245604D02*
X228617278Y-105487509D01*
X228617278Y-105487509D02*
X228617278Y-105910842D01*
X228617278Y-105910842D02*
X228677754Y-106152747D01*
X228677754Y-106152747D02*
X228798707Y-106273700D01*
X228798707Y-106273700D02*
X228919659Y-106334176D01*
X228919659Y-106334176D02*
X229161564Y-106334176D01*
X229161564Y-106334176D02*
X229282516Y-106273700D01*
X229282516Y-106273700D02*
X229403469Y-106152747D01*
X229403469Y-106152747D02*
X229463945Y-105910842D01*
X229463945Y-105910842D02*
X229463945Y-105487509D01*
X229463945Y-105487509D02*
X229403469Y-105245604D01*
X229403469Y-105245604D02*
X229282516Y-105124652D01*
X229282516Y-105124652D02*
X229161564Y-105064176D01*
X228072993Y-106334176D02*
X228072993Y-105064176D01*
X228072993Y-105064176D02*
X227649659Y-105971319D01*
X227649659Y-105971319D02*
X227226326Y-105064176D01*
X227226326Y-105064176D02*
X227226326Y-106334176D01*
X226742516Y-105064176D02*
X225956325Y-105064176D01*
X225956325Y-105064176D02*
X226379659Y-105547985D01*
X226379659Y-105547985D02*
X226198230Y-105547985D01*
X226198230Y-105547985D02*
X226077278Y-105608461D01*
X226077278Y-105608461D02*
X226016802Y-105668938D01*
X226016802Y-105668938D02*
X225956325Y-105789890D01*
X225956325Y-105789890D02*
X225956325Y-106092271D01*
X225956325Y-106092271D02*
X226016802Y-106213223D01*
X226016802Y-106213223D02*
X226077278Y-106273700D01*
X226077278Y-106273700D02*
X226198230Y-106334176D01*
X226198230Y-106334176D02*
X226561087Y-106334176D01*
X226561087Y-106334176D02*
X226682040Y-106273700D01*
X226682040Y-106273700D02*
X226742516Y-106213223D01*
D10*
X147011666Y-166550973D02*
X147072142Y-166611450D01*
X147072142Y-166611450D02*
X147253571Y-166671926D01*
X147253571Y-166671926D02*
X147374523Y-166671926D01*
X147374523Y-166671926D02*
X147555952Y-166611450D01*
X147555952Y-166611450D02*
X147676904Y-166490497D01*
X147676904Y-166490497D02*
X147737381Y-166369545D01*
X147737381Y-166369545D02*
X147797857Y-166127640D01*
X147797857Y-166127640D02*
X147797857Y-165946211D01*
X147797857Y-165946211D02*
X147737381Y-165704307D01*
X147737381Y-165704307D02*
X147676904Y-165583354D01*
X147676904Y-165583354D02*
X147555952Y-165462402D01*
X147555952Y-165462402D02*
X147374523Y-165401926D01*
X147374523Y-165401926D02*
X147253571Y-165401926D01*
X147253571Y-165401926D02*
X147072142Y-165462402D01*
X147072142Y-165462402D02*
X147011666Y-165522878D01*
X146588333Y-165401926D02*
X145802142Y-165401926D01*
X145802142Y-165401926D02*
X146225476Y-165885735D01*
X146225476Y-165885735D02*
X146044047Y-165885735D01*
X146044047Y-165885735D02*
X145923095Y-165946211D01*
X145923095Y-165946211D02*
X145862619Y-166006688D01*
X145862619Y-166006688D02*
X145802142Y-166127640D01*
X145802142Y-166127640D02*
X145802142Y-166430021D01*
X145802142Y-166430021D02*
X145862619Y-166550973D01*
X145862619Y-166550973D02*
X145923095Y-166611450D01*
X145923095Y-166611450D02*
X146044047Y-166671926D01*
X146044047Y-166671926D02*
X146406904Y-166671926D01*
X146406904Y-166671926D02*
X146527857Y-166611450D01*
X146527857Y-166611450D02*
X146588333Y-166550973D01*
X147011666Y-66550973D02*
X147072142Y-66611450D01*
X147072142Y-66611450D02*
X147253571Y-66671926D01*
X147253571Y-66671926D02*
X147374523Y-66671926D01*
X147374523Y-66671926D02*
X147555952Y-66611450D01*
X147555952Y-66611450D02*
X147676904Y-66490497D01*
X147676904Y-66490497D02*
X147737381Y-66369545D01*
X147737381Y-66369545D02*
X147797857Y-66127640D01*
X147797857Y-66127640D02*
X147797857Y-65946211D01*
X147797857Y-65946211D02*
X147737381Y-65704307D01*
X147737381Y-65704307D02*
X147676904Y-65583354D01*
X147676904Y-65583354D02*
X147555952Y-65462402D01*
X147555952Y-65462402D02*
X147374523Y-65401926D01*
X147374523Y-65401926D02*
X147253571Y-65401926D01*
X147253571Y-65401926D02*
X147072142Y-65462402D01*
X147072142Y-65462402D02*
X147011666Y-65522878D01*
X145802142Y-66671926D02*
X146527857Y-66671926D01*
X146165000Y-66671926D02*
X146165000Y-65401926D01*
X146165000Y-65401926D02*
X146285952Y-65583354D01*
X146285952Y-65583354D02*
X146406904Y-65704307D01*
X146406904Y-65704307D02*
X146527857Y-65764783D01*
X151844524Y-175571926D02*
X151844524Y-174301926D01*
X150514047Y-175450973D02*
X150574523Y-175511450D01*
X150574523Y-175511450D02*
X150755952Y-175571926D01*
X150755952Y-175571926D02*
X150876904Y-175571926D01*
X150876904Y-175571926D02*
X151058333Y-175511450D01*
X151058333Y-175511450D02*
X151179285Y-175390497D01*
X151179285Y-175390497D02*
X151239762Y-175269545D01*
X151239762Y-175269545D02*
X151300238Y-175027640D01*
X151300238Y-175027640D02*
X151300238Y-174846211D01*
X151300238Y-174846211D02*
X151239762Y-174604307D01*
X151239762Y-174604307D02*
X151179285Y-174483354D01*
X151179285Y-174483354D02*
X151058333Y-174362402D01*
X151058333Y-174362402D02*
X150876904Y-174301926D01*
X150876904Y-174301926D02*
X150755952Y-174301926D01*
X150755952Y-174301926D02*
X150574523Y-174362402D01*
X150574523Y-174362402D02*
X150514047Y-174422878D01*
X149425476Y-174301926D02*
X149667381Y-174301926D01*
X149667381Y-174301926D02*
X149788333Y-174362402D01*
X149788333Y-174362402D02*
X149848809Y-174422878D01*
X149848809Y-174422878D02*
X149969762Y-174604307D01*
X149969762Y-174604307D02*
X150030238Y-174846211D01*
X150030238Y-174846211D02*
X150030238Y-175330021D01*
X150030238Y-175330021D02*
X149969762Y-175450973D01*
X149969762Y-175450973D02*
X149909285Y-175511450D01*
X149909285Y-175511450D02*
X149788333Y-175571926D01*
X149788333Y-175571926D02*
X149546428Y-175571926D01*
X149546428Y-175571926D02*
X149425476Y-175511450D01*
X149425476Y-175511450D02*
X149365000Y-175450973D01*
X149365000Y-175450973D02*
X149304523Y-175330021D01*
X149304523Y-175330021D02*
X149304523Y-175027640D01*
X149304523Y-175027640D02*
X149365000Y-174906688D01*
X149365000Y-174906688D02*
X149425476Y-174846211D01*
X149425476Y-174846211D02*
X149546428Y-174785735D01*
X149546428Y-174785735D02*
X149788333Y-174785735D01*
X149788333Y-174785735D02*
X149909285Y-174846211D01*
X149909285Y-174846211D02*
X149969762Y-174906688D01*
X149969762Y-174906688D02*
X150030238Y-175027640D01*
X148881190Y-174301926D02*
X148034523Y-174301926D01*
X148034523Y-174301926D02*
X148578809Y-175571926D01*
D11*
X247822219Y-82833333D02*
X247346028Y-82500000D01*
X247822219Y-82261905D02*
X246822219Y-82261905D01*
X246822219Y-82261905D02*
X246822219Y-82642857D01*
X246822219Y-82642857D02*
X246869838Y-82738095D01*
X246869838Y-82738095D02*
X246917457Y-82785714D01*
X246917457Y-82785714D02*
X247012695Y-82833333D01*
X247012695Y-82833333D02*
X247155552Y-82833333D01*
X247155552Y-82833333D02*
X247250790Y-82785714D01*
X247250790Y-82785714D02*
X247298409Y-82738095D01*
X247298409Y-82738095D02*
X247346028Y-82642857D01*
X247346028Y-82642857D02*
X247346028Y-82261905D01*
X246917457Y-83214286D02*
X246869838Y-83261905D01*
X246869838Y-83261905D02*
X246822219Y-83357143D01*
X246822219Y-83357143D02*
X246822219Y-83595238D01*
X246822219Y-83595238D02*
X246869838Y-83690476D01*
X246869838Y-83690476D02*
X246917457Y-83738095D01*
X246917457Y-83738095D02*
X247012695Y-83785714D01*
X247012695Y-83785714D02*
X247107933Y-83785714D01*
X247107933Y-83785714D02*
X247250790Y-83738095D01*
X247250790Y-83738095D02*
X247822219Y-83166667D01*
X247822219Y-83166667D02*
X247822219Y-83785714D01*
D10*
X147011666Y-216550973D02*
X147072142Y-216611450D01*
X147072142Y-216611450D02*
X147253571Y-216671926D01*
X147253571Y-216671926D02*
X147374523Y-216671926D01*
X147374523Y-216671926D02*
X147555952Y-216611450D01*
X147555952Y-216611450D02*
X147676904Y-216490497D01*
X147676904Y-216490497D02*
X147737381Y-216369545D01*
X147737381Y-216369545D02*
X147797857Y-216127640D01*
X147797857Y-216127640D02*
X147797857Y-215946211D01*
X147797857Y-215946211D02*
X147737381Y-215704307D01*
X147737381Y-215704307D02*
X147676904Y-215583354D01*
X147676904Y-215583354D02*
X147555952Y-215462402D01*
X147555952Y-215462402D02*
X147374523Y-215401926D01*
X147374523Y-215401926D02*
X147253571Y-215401926D01*
X147253571Y-215401926D02*
X147072142Y-215462402D01*
X147072142Y-215462402D02*
X147011666Y-215522878D01*
X145923095Y-215825259D02*
X145923095Y-216671926D01*
X146225476Y-215341450D02*
X146527857Y-216248592D01*
X146527857Y-216248592D02*
X145741666Y-216248592D01*
D11*
X247822219Y-97833333D02*
X247346028Y-97500000D01*
X247822219Y-97261905D02*
X246822219Y-97261905D01*
X246822219Y-97261905D02*
X246822219Y-97642857D01*
X246822219Y-97642857D02*
X246869838Y-97738095D01*
X246869838Y-97738095D02*
X246917457Y-97785714D01*
X246917457Y-97785714D02*
X247012695Y-97833333D01*
X247012695Y-97833333D02*
X247155552Y-97833333D01*
X247155552Y-97833333D02*
X247250790Y-97785714D01*
X247250790Y-97785714D02*
X247298409Y-97738095D01*
X247298409Y-97738095D02*
X247346028Y-97642857D01*
X247346028Y-97642857D02*
X247346028Y-97261905D01*
X247822219Y-98785714D02*
X247822219Y-98214286D01*
X247822219Y-98500000D02*
X246822219Y-98500000D01*
X246822219Y-98500000D02*
X246965076Y-98404762D01*
X246965076Y-98404762D02*
X247060314Y-98309524D01*
X247060314Y-98309524D02*
X247107933Y-98214286D01*
D10*
X147011666Y-117150973D02*
X147072142Y-117211450D01*
X147072142Y-117211450D02*
X147253571Y-117271926D01*
X147253571Y-117271926D02*
X147374523Y-117271926D01*
X147374523Y-117271926D02*
X147555952Y-117211450D01*
X147555952Y-117211450D02*
X147676904Y-117090497D01*
X147676904Y-117090497D02*
X147737381Y-116969545D01*
X147737381Y-116969545D02*
X147797857Y-116727640D01*
X147797857Y-116727640D02*
X147797857Y-116546211D01*
X147797857Y-116546211D02*
X147737381Y-116304307D01*
X147737381Y-116304307D02*
X147676904Y-116183354D01*
X147676904Y-116183354D02*
X147555952Y-116062402D01*
X147555952Y-116062402D02*
X147374523Y-116001926D01*
X147374523Y-116001926D02*
X147253571Y-116001926D01*
X147253571Y-116001926D02*
X147072142Y-116062402D01*
X147072142Y-116062402D02*
X147011666Y-116122878D01*
X146527857Y-116122878D02*
X146467381Y-116062402D01*
X146467381Y-116062402D02*
X146346428Y-116001926D01*
X146346428Y-116001926D02*
X146044047Y-116001926D01*
X146044047Y-116001926D02*
X145923095Y-116062402D01*
X145923095Y-116062402D02*
X145862619Y-116122878D01*
X145862619Y-116122878D02*
X145802142Y-116243830D01*
X145802142Y-116243830D02*
X145802142Y-116364783D01*
X145802142Y-116364783D02*
X145862619Y-116546211D01*
X145862619Y-116546211D02*
X146588333Y-117271926D01*
X146588333Y-117271926D02*
X145802142Y-117271926D01*
X223962857Y-97490930D02*
X224567619Y-97490930D01*
X223841905Y-97128073D02*
X224265238Y-98398073D01*
X224265238Y-98398073D02*
X224688572Y-97128073D01*
X225777143Y-97128073D02*
X225051428Y-97128073D01*
X225414285Y-97128073D02*
X225414285Y-98398073D01*
X225414285Y-98398073D02*
X225293333Y-98216645D01*
X225293333Y-98216645D02*
X225172381Y-98095692D01*
X225172381Y-98095692D02*
X225051428Y-98035216D01*
X223267380Y-57758073D02*
X223267380Y-56729978D01*
X223267380Y-56729978D02*
X223327857Y-56609026D01*
X223327857Y-56609026D02*
X223388333Y-56548550D01*
X223388333Y-56548550D02*
X223509285Y-56488073D01*
X223509285Y-56488073D02*
X223751190Y-56488073D01*
X223751190Y-56488073D02*
X223872142Y-56548550D01*
X223872142Y-56548550D02*
X223932619Y-56609026D01*
X223932619Y-56609026D02*
X223993095Y-56729978D01*
X223993095Y-56729978D02*
X223993095Y-57758073D01*
X224537380Y-56548550D02*
X224718809Y-56488073D01*
X224718809Y-56488073D02*
X225021190Y-56488073D01*
X225021190Y-56488073D02*
X225142142Y-56548550D01*
X225142142Y-56548550D02*
X225202618Y-56609026D01*
X225202618Y-56609026D02*
X225263095Y-56729978D01*
X225263095Y-56729978D02*
X225263095Y-56850930D01*
X225263095Y-56850930D02*
X225202618Y-56971883D01*
X225202618Y-56971883D02*
X225142142Y-57032359D01*
X225142142Y-57032359D02*
X225021190Y-57092835D01*
X225021190Y-57092835D02*
X224779285Y-57153311D01*
X224779285Y-57153311D02*
X224658333Y-57213788D01*
X224658333Y-57213788D02*
X224597856Y-57274264D01*
X224597856Y-57274264D02*
X224537380Y-57395216D01*
X224537380Y-57395216D02*
X224537380Y-57516169D01*
X224537380Y-57516169D02*
X224597856Y-57637121D01*
X224597856Y-57637121D02*
X224658333Y-57697597D01*
X224658333Y-57697597D02*
X224779285Y-57758073D01*
X224779285Y-57758073D02*
X225081666Y-57758073D01*
X225081666Y-57758073D02*
X225263095Y-57697597D01*
X226230714Y-57153311D02*
X226412142Y-57092835D01*
X226412142Y-57092835D02*
X226472619Y-57032359D01*
X226472619Y-57032359D02*
X226533095Y-56911407D01*
X226533095Y-56911407D02*
X226533095Y-56729978D01*
X226533095Y-56729978D02*
X226472619Y-56609026D01*
X226472619Y-56609026D02*
X226412142Y-56548550D01*
X226412142Y-56548550D02*
X226291190Y-56488073D01*
X226291190Y-56488073D02*
X225807380Y-56488073D01*
X225807380Y-56488073D02*
X225807380Y-57758073D01*
X225807380Y-57758073D02*
X226230714Y-57758073D01*
X226230714Y-57758073D02*
X226351666Y-57697597D01*
X226351666Y-57697597D02*
X226412142Y-57637121D01*
X226412142Y-57637121D02*
X226472619Y-57516169D01*
X226472619Y-57516169D02*
X226472619Y-57395216D01*
X226472619Y-57395216D02*
X226412142Y-57274264D01*
X226412142Y-57274264D02*
X226351666Y-57213788D01*
X226351666Y-57213788D02*
X226230714Y-57153311D01*
X226230714Y-57153311D02*
X225807380Y-57153311D01*
X151844524Y-225571926D02*
X151844524Y-224301926D01*
X150514047Y-225450973D02*
X150574523Y-225511450D01*
X150574523Y-225511450D02*
X150755952Y-225571926D01*
X150755952Y-225571926D02*
X150876904Y-225571926D01*
X150876904Y-225571926D02*
X151058333Y-225511450D01*
X151058333Y-225511450D02*
X151179285Y-225390497D01*
X151179285Y-225390497D02*
X151239762Y-225269545D01*
X151239762Y-225269545D02*
X151300238Y-225027640D01*
X151300238Y-225027640D02*
X151300238Y-224846211D01*
X151300238Y-224846211D02*
X151239762Y-224604307D01*
X151239762Y-224604307D02*
X151179285Y-224483354D01*
X151179285Y-224483354D02*
X151058333Y-224362402D01*
X151058333Y-224362402D02*
X150876904Y-224301926D01*
X150876904Y-224301926D02*
X150755952Y-224301926D01*
X150755952Y-224301926D02*
X150574523Y-224362402D01*
X150574523Y-224362402D02*
X150514047Y-224422878D01*
X149425476Y-224301926D02*
X149667381Y-224301926D01*
X149667381Y-224301926D02*
X149788333Y-224362402D01*
X149788333Y-224362402D02*
X149848809Y-224422878D01*
X149848809Y-224422878D02*
X149969762Y-224604307D01*
X149969762Y-224604307D02*
X150030238Y-224846211D01*
X150030238Y-224846211D02*
X150030238Y-225330021D01*
X150030238Y-225330021D02*
X149969762Y-225450973D01*
X149969762Y-225450973D02*
X149909285Y-225511450D01*
X149909285Y-225511450D02*
X149788333Y-225571926D01*
X149788333Y-225571926D02*
X149546428Y-225571926D01*
X149546428Y-225571926D02*
X149425476Y-225511450D01*
X149425476Y-225511450D02*
X149365000Y-225450973D01*
X149365000Y-225450973D02*
X149304523Y-225330021D01*
X149304523Y-225330021D02*
X149304523Y-225027640D01*
X149304523Y-225027640D02*
X149365000Y-224906688D01*
X149365000Y-224906688D02*
X149425476Y-224846211D01*
X149425476Y-224846211D02*
X149546428Y-224785735D01*
X149546428Y-224785735D02*
X149788333Y-224785735D01*
X149788333Y-224785735D02*
X149909285Y-224846211D01*
X149909285Y-224846211D02*
X149969762Y-224906688D01*
X149969762Y-224906688D02*
X150030238Y-225027640D01*
X148578809Y-224846211D02*
X148699761Y-224785735D01*
X148699761Y-224785735D02*
X148760238Y-224725259D01*
X148760238Y-224725259D02*
X148820714Y-224604307D01*
X148820714Y-224604307D02*
X148820714Y-224543830D01*
X148820714Y-224543830D02*
X148760238Y-224422878D01*
X148760238Y-224422878D02*
X148699761Y-224362402D01*
X148699761Y-224362402D02*
X148578809Y-224301926D01*
X148578809Y-224301926D02*
X148336904Y-224301926D01*
X148336904Y-224301926D02*
X148215952Y-224362402D01*
X148215952Y-224362402D02*
X148155476Y-224422878D01*
X148155476Y-224422878D02*
X148094999Y-224543830D01*
X148094999Y-224543830D02*
X148094999Y-224604307D01*
X148094999Y-224604307D02*
X148155476Y-224725259D01*
X148155476Y-224725259D02*
X148215952Y-224785735D01*
X148215952Y-224785735D02*
X148336904Y-224846211D01*
X148336904Y-224846211D02*
X148578809Y-224846211D01*
X148578809Y-224846211D02*
X148699761Y-224906688D01*
X148699761Y-224906688D02*
X148760238Y-224967164D01*
X148760238Y-224967164D02*
X148820714Y-225088116D01*
X148820714Y-225088116D02*
X148820714Y-225330021D01*
X148820714Y-225330021D02*
X148760238Y-225450973D01*
X148760238Y-225450973D02*
X148699761Y-225511450D01*
X148699761Y-225511450D02*
X148578809Y-225571926D01*
X148578809Y-225571926D02*
X148336904Y-225571926D01*
X148336904Y-225571926D02*
X148215952Y-225511450D01*
X148215952Y-225511450D02*
X148155476Y-225450973D01*
X148155476Y-225450973D02*
X148094999Y-225330021D01*
X148094999Y-225330021D02*
X148094999Y-225088116D01*
X148094999Y-225088116D02*
X148155476Y-224967164D01*
X148155476Y-224967164D02*
X148215952Y-224906688D01*
X148215952Y-224906688D02*
X148336904Y-224846211D01*
X151844524Y-75571926D02*
X151844524Y-74301926D01*
X150514047Y-75450973D02*
X150574523Y-75511450D01*
X150574523Y-75511450D02*
X150755952Y-75571926D01*
X150755952Y-75571926D02*
X150876904Y-75571926D01*
X150876904Y-75571926D02*
X151058333Y-75511450D01*
X151058333Y-75511450D02*
X151179285Y-75390497D01*
X151179285Y-75390497D02*
X151239762Y-75269545D01*
X151239762Y-75269545D02*
X151300238Y-75027640D01*
X151300238Y-75027640D02*
X151300238Y-74846211D01*
X151300238Y-74846211D02*
X151239762Y-74604307D01*
X151239762Y-74604307D02*
X151179285Y-74483354D01*
X151179285Y-74483354D02*
X151058333Y-74362402D01*
X151058333Y-74362402D02*
X150876904Y-74301926D01*
X150876904Y-74301926D02*
X150755952Y-74301926D01*
X150755952Y-74301926D02*
X150574523Y-74362402D01*
X150574523Y-74362402D02*
X150514047Y-74422878D01*
X149425476Y-74301926D02*
X149667381Y-74301926D01*
X149667381Y-74301926D02*
X149788333Y-74362402D01*
X149788333Y-74362402D02*
X149848809Y-74422878D01*
X149848809Y-74422878D02*
X149969762Y-74604307D01*
X149969762Y-74604307D02*
X150030238Y-74846211D01*
X150030238Y-74846211D02*
X150030238Y-75330021D01*
X150030238Y-75330021D02*
X149969762Y-75450973D01*
X149969762Y-75450973D02*
X149909285Y-75511450D01*
X149909285Y-75511450D02*
X149788333Y-75571926D01*
X149788333Y-75571926D02*
X149546428Y-75571926D01*
X149546428Y-75571926D02*
X149425476Y-75511450D01*
X149425476Y-75511450D02*
X149365000Y-75450973D01*
X149365000Y-75450973D02*
X149304523Y-75330021D01*
X149304523Y-75330021D02*
X149304523Y-75027640D01*
X149304523Y-75027640D02*
X149365000Y-74906688D01*
X149365000Y-74906688D02*
X149425476Y-74846211D01*
X149425476Y-74846211D02*
X149546428Y-74785735D01*
X149546428Y-74785735D02*
X149788333Y-74785735D01*
X149788333Y-74785735D02*
X149909285Y-74846211D01*
X149909285Y-74846211D02*
X149969762Y-74906688D01*
X149969762Y-74906688D02*
X150030238Y-75027640D01*
X148155476Y-74301926D02*
X148760238Y-74301926D01*
X148760238Y-74301926D02*
X148820714Y-74906688D01*
X148820714Y-74906688D02*
X148760238Y-74846211D01*
X148760238Y-74846211D02*
X148639285Y-74785735D01*
X148639285Y-74785735D02*
X148336904Y-74785735D01*
X148336904Y-74785735D02*
X148215952Y-74846211D01*
X148215952Y-74846211D02*
X148155476Y-74906688D01*
X148155476Y-74906688D02*
X148094999Y-75027640D01*
X148094999Y-75027640D02*
X148094999Y-75330021D01*
X148094999Y-75330021D02*
X148155476Y-75450973D01*
X148155476Y-75450973D02*
X148215952Y-75511450D01*
X148215952Y-75511450D02*
X148336904Y-75571926D01*
X148336904Y-75571926D02*
X148639285Y-75571926D01*
X148639285Y-75571926D02*
X148760238Y-75511450D01*
X148760238Y-75511450D02*
X148820714Y-75450973D01*
X151844524Y-126071926D02*
X151844524Y-124801926D01*
X150514047Y-125950973D02*
X150574523Y-126011450D01*
X150574523Y-126011450D02*
X150755952Y-126071926D01*
X150755952Y-126071926D02*
X150876904Y-126071926D01*
X150876904Y-126071926D02*
X151058333Y-126011450D01*
X151058333Y-126011450D02*
X151179285Y-125890497D01*
X151179285Y-125890497D02*
X151239762Y-125769545D01*
X151239762Y-125769545D02*
X151300238Y-125527640D01*
X151300238Y-125527640D02*
X151300238Y-125346211D01*
X151300238Y-125346211D02*
X151239762Y-125104307D01*
X151239762Y-125104307D02*
X151179285Y-124983354D01*
X151179285Y-124983354D02*
X151058333Y-124862402D01*
X151058333Y-124862402D02*
X150876904Y-124801926D01*
X150876904Y-124801926D02*
X150755952Y-124801926D01*
X150755952Y-124801926D02*
X150574523Y-124862402D01*
X150574523Y-124862402D02*
X150514047Y-124922878D01*
X149425476Y-124801926D02*
X149667381Y-124801926D01*
X149667381Y-124801926D02*
X149788333Y-124862402D01*
X149788333Y-124862402D02*
X149848809Y-124922878D01*
X149848809Y-124922878D02*
X149969762Y-125104307D01*
X149969762Y-125104307D02*
X150030238Y-125346211D01*
X150030238Y-125346211D02*
X150030238Y-125830021D01*
X150030238Y-125830021D02*
X149969762Y-125950973D01*
X149969762Y-125950973D02*
X149909285Y-126011450D01*
X149909285Y-126011450D02*
X149788333Y-126071926D01*
X149788333Y-126071926D02*
X149546428Y-126071926D01*
X149546428Y-126071926D02*
X149425476Y-126011450D01*
X149425476Y-126011450D02*
X149365000Y-125950973D01*
X149365000Y-125950973D02*
X149304523Y-125830021D01*
X149304523Y-125830021D02*
X149304523Y-125527640D01*
X149304523Y-125527640D02*
X149365000Y-125406688D01*
X149365000Y-125406688D02*
X149425476Y-125346211D01*
X149425476Y-125346211D02*
X149546428Y-125285735D01*
X149546428Y-125285735D02*
X149788333Y-125285735D01*
X149788333Y-125285735D02*
X149909285Y-125346211D01*
X149909285Y-125346211D02*
X149969762Y-125406688D01*
X149969762Y-125406688D02*
X150030238Y-125527640D01*
X148215952Y-124801926D02*
X148457857Y-124801926D01*
X148457857Y-124801926D02*
X148578809Y-124862402D01*
X148578809Y-124862402D02*
X148639285Y-124922878D01*
X148639285Y-124922878D02*
X148760238Y-125104307D01*
X148760238Y-125104307D02*
X148820714Y-125346211D01*
X148820714Y-125346211D02*
X148820714Y-125830021D01*
X148820714Y-125830021D02*
X148760238Y-125950973D01*
X148760238Y-125950973D02*
X148699761Y-126011450D01*
X148699761Y-126011450D02*
X148578809Y-126071926D01*
X148578809Y-126071926D02*
X148336904Y-126071926D01*
X148336904Y-126071926D02*
X148215952Y-126011450D01*
X148215952Y-126011450D02*
X148155476Y-125950973D01*
X148155476Y-125950973D02*
X148094999Y-125830021D01*
X148094999Y-125830021D02*
X148094999Y-125527640D01*
X148094999Y-125527640D02*
X148155476Y-125406688D01*
X148155476Y-125406688D02*
X148215952Y-125346211D01*
X148215952Y-125346211D02*
X148336904Y-125285735D01*
X148336904Y-125285735D02*
X148578809Y-125285735D01*
X148578809Y-125285735D02*
X148699761Y-125346211D01*
X148699761Y-125346211D02*
X148760238Y-125406688D01*
X148760238Y-125406688D02*
X148820714Y-125527640D01*
X248623332Y-70051926D02*
X248623332Y-70959069D01*
X248623332Y-70959069D02*
X248683809Y-71140497D01*
X248683809Y-71140497D02*
X248804761Y-71261450D01*
X248804761Y-71261450D02*
X248986190Y-71321926D01*
X248986190Y-71321926D02*
X249107142Y-71321926D01*
X247353332Y-71321926D02*
X248079047Y-71321926D01*
X247716190Y-71321926D02*
X247716190Y-70051926D01*
X247716190Y-70051926D02*
X247837142Y-70233354D01*
X247837142Y-70233354D02*
X247958094Y-70354307D01*
X247958094Y-70354307D02*
X248079047Y-70414783D01*
D11*
X144180000Y-162230000D02*
X144180000Y-164970000D01*
X149420000Y-162230000D02*
X144180000Y-162230000D01*
X149420000Y-162230000D02*
X149420000Y-164970000D01*
X149420000Y-164970000D02*
X144180000Y-164970000D01*
X144180000Y-62230000D02*
X144180000Y-64970000D01*
X149420000Y-62230000D02*
X144180000Y-62230000D01*
X149420000Y-62230000D02*
X149420000Y-64970000D01*
X149420000Y-64970000D02*
X144180000Y-64970000D01*
X146600000Y-167300000D02*
X153400000Y-167300000D01*
X146600000Y-182700000D02*
X146600000Y-167300000D01*
X153400000Y-167300000D02*
X153400000Y-182700000D01*
X153400000Y-182700000D02*
X146600000Y-182700000D01*
X153750000Y-167340000D02*
X155700000Y-167340000D01*
D13*
X243630000Y-79730000D02*
X243630000Y-86270000D01*
X243630000Y-86270000D02*
X246370000Y-86270000D01*
X245000000Y-79730000D02*
X245000000Y-78960000D01*
X245000000Y-86270000D02*
X245000000Y-87040000D01*
X246370000Y-79730000D02*
X243630000Y-79730000D01*
X246370000Y-86270000D02*
X246370000Y-79730000D01*
D11*
X144180000Y-212230000D02*
X144180000Y-214970000D01*
X149420000Y-212230000D02*
X144180000Y-212230000D01*
X149420000Y-212230000D02*
X149420000Y-214970000D01*
X149420000Y-214970000D02*
X144180000Y-214970000D01*
D13*
X243630000Y-94730000D02*
X243630000Y-101270000D01*
X243630000Y-101270000D02*
X246370000Y-101270000D01*
X245000000Y-94730000D02*
X245000000Y-93960000D01*
X245000000Y-101270000D02*
X245000000Y-102040000D01*
X246370000Y-94730000D02*
X243630000Y-94730000D01*
X246370000Y-101270000D02*
X246370000Y-94730000D01*
D11*
X144180000Y-112830000D02*
X144180000Y-115570000D01*
X149420000Y-112830000D02*
X144180000Y-112830000D01*
X149420000Y-112830000D02*
X149420000Y-115570000D01*
X149420000Y-115570000D02*
X144180000Y-115570000D01*
X215850000Y-53120000D02*
X215850000Y-91350000D01*
X215850000Y-55790000D02*
X218520000Y-55790000D01*
X215850000Y-91350000D02*
X218520000Y-91350000D01*
X215850000Y-93890000D02*
X215850000Y-96560000D01*
X215850000Y-93890000D02*
X218520000Y-93890000D01*
X215850000Y-96560000D02*
X233890000Y-96560000D01*
X218520000Y-55790000D02*
X218520000Y-91350000D01*
X218520000Y-93890000D02*
X218520000Y-91350000D01*
X220930000Y-50580000D02*
X228810000Y-50580000D01*
X220930000Y-53120000D02*
X215850000Y-53120000D01*
X220930000Y-61000000D02*
X220930000Y-50580000D01*
X228810000Y-50580000D02*
X228810000Y-61000000D01*
X228810000Y-53120000D02*
X233890000Y-53120000D01*
X228810000Y-61000000D02*
X220930000Y-61000000D01*
X231220000Y-55790000D02*
X231220000Y-93890000D01*
X233890000Y-55790000D02*
X231220000Y-55790000D01*
X233890000Y-93890000D02*
X231220000Y-93890000D01*
X233890000Y-96560000D02*
X233890000Y-53120000D01*
X146600000Y-217300000D02*
X153400000Y-217300000D01*
X146600000Y-232700000D02*
X146600000Y-217300000D01*
X153400000Y-217300000D02*
X153400000Y-232700000D01*
X153400000Y-232700000D02*
X146600000Y-232700000D01*
X153750000Y-217340000D02*
X155700000Y-217340000D01*
X146600000Y-67300000D02*
X153400000Y-67300000D01*
X146600000Y-82700000D02*
X146600000Y-67300000D01*
X153400000Y-67300000D02*
X153400000Y-82700000D01*
X153400000Y-82700000D02*
X146600000Y-82700000D01*
X153750000Y-67340000D02*
X155700000Y-67340000D01*
X146600000Y-117800000D02*
X153400000Y-117800000D01*
X146600000Y-133200000D02*
X146600000Y-117800000D01*
X153400000Y-117800000D02*
X153400000Y-133200000D01*
X153400000Y-133200000D02*
X146600000Y-133200000D01*
X153750000Y-117840000D02*
X155700000Y-117840000D01*
X246870000Y-58950000D02*
X246870000Y-66630000D01*
X246870000Y-69230000D02*
X246870000Y-67900000D01*
X248200000Y-69230000D02*
X246870000Y-69230000D01*
X249530000Y-58950000D02*
X246870000Y-58950000D01*
X249530000Y-58950000D02*
X249530000Y-66630000D01*
X249530000Y-66630000D02*
X246870000Y-66630000D01*
%LPC*%
D14*
X86200000Y-144200000D03*
D15*
X87500000Y-144200000D03*
X88800000Y-144200000D03*
D14*
X86200000Y-244195600D03*
D15*
X87500000Y-244195600D03*
X88800000Y-244195600D03*
D14*
X136200000Y-169200000D03*
D15*
X137500000Y-169200000D03*
X138800000Y-169200000D03*
D14*
X86200000Y-219200000D03*
D15*
X87500000Y-219200000D03*
X88800000Y-219200000D03*
D14*
X86200000Y-69200000D03*
D15*
X87500000Y-69200000D03*
X88800000Y-69200000D03*
D14*
X161200000Y-144200000D03*
D15*
X162500000Y-144200000D03*
X163800000Y-144200000D03*
D16*
X132250000Y-114000000D03*
D14*
X186200000Y-94200000D03*
D15*
X187500000Y-94200000D03*
X188800000Y-94200000D03*
D14*
X186200000Y-169200000D03*
D15*
X187500000Y-169200000D03*
X188800000Y-169200000D03*
D14*
X236200000Y-169200000D03*
D15*
X237500000Y-169200000D03*
X238800000Y-169200000D03*
D14*
X186200000Y-194200000D03*
D15*
X187500000Y-194200000D03*
X188800000Y-194200000D03*
D17*
X54000000Y-246000000D03*
D14*
X86200000Y-119200000D03*
D15*
X87500000Y-119200000D03*
X88800000Y-119200000D03*
D14*
X161200000Y-119200000D03*
D15*
X162500000Y-119200000D03*
X163800000Y-119200000D03*
D14*
X111200000Y-119200000D03*
D15*
X112500000Y-119200000D03*
X113800000Y-119200000D03*
D14*
X161200000Y-169200000D03*
D15*
X162500000Y-169200000D03*
X163800000Y-169200000D03*
D14*
X161200000Y-219200000D03*
D15*
X162500000Y-219200000D03*
X163800000Y-219200000D03*
D14*
X61200000Y-119200000D03*
D15*
X62500000Y-119200000D03*
X63800000Y-119200000D03*
D14*
X111200000Y-144200000D03*
D15*
X112500000Y-144200000D03*
X113800000Y-144200000D03*
D14*
X61200000Y-94200000D03*
D15*
X62500000Y-94200000D03*
X63800000Y-94200000D03*
D14*
X86200000Y-169195600D03*
D15*
X87500000Y-169195600D03*
X88800000Y-169195600D03*
D14*
X61200000Y-169195600D03*
D15*
X62500000Y-169195600D03*
X63800000Y-169195600D03*
D14*
X61200000Y-144200000D03*
D15*
X62500000Y-144200000D03*
X63800000Y-144200000D03*
D17*
X246000000Y-246000000D03*
D16*
X132250000Y-109000000D03*
D14*
X211200000Y-144200000D03*
D15*
X212500000Y-144200000D03*
X213800000Y-144200000D03*
D14*
X161200000Y-69200000D03*
D15*
X162500000Y-69200000D03*
X163800000Y-69200000D03*
D14*
X136200000Y-119200000D03*
D15*
X137500000Y-119200000D03*
X138800000Y-119200000D03*
D14*
X236200000Y-94200000D03*
D15*
X237500000Y-94200000D03*
X238800000Y-94200000D03*
D14*
X111200000Y-169195600D03*
D15*
X112500000Y-169195600D03*
X113800000Y-169195600D03*
D14*
X186200000Y-219200000D03*
D15*
X187500000Y-219200000D03*
X188800000Y-219200000D03*
D17*
X246000000Y-54000000D03*
D16*
X146900000Y-105000000D03*
D14*
X86200000Y-94200000D03*
D15*
X87500000Y-94200000D03*
X88800000Y-94200000D03*
D14*
X136200000Y-144200000D03*
D15*
X137500000Y-144200000D03*
X138800000Y-144200000D03*
D14*
X61200000Y-244195600D03*
D15*
X62500000Y-244195600D03*
X63800000Y-244195600D03*
D14*
X161200000Y-94200000D03*
D15*
X162500000Y-94200000D03*
X163800000Y-94200000D03*
D14*
X236200000Y-144200000D03*
D15*
X237500000Y-144200000D03*
X238800000Y-144200000D03*
D14*
X161200000Y-244200000D03*
D15*
X162500000Y-244200000D03*
X163800000Y-244200000D03*
D17*
X54000000Y-54000000D03*
D14*
X136200000Y-244195600D03*
D15*
X137500000Y-244195600D03*
X138800000Y-244195600D03*
D14*
X136200000Y-69200000D03*
D15*
X137500000Y-69200000D03*
X138800000Y-69200000D03*
D14*
X136200000Y-194200000D03*
D15*
X137500000Y-194200000D03*
X138800000Y-194200000D03*
D14*
X136200000Y-94200000D03*
D15*
X137500000Y-94200000D03*
X138800000Y-94200000D03*
D16*
X223000000Y-115700000D03*
X132250000Y-119000000D03*
D14*
X111200000Y-219200000D03*
D15*
X112500000Y-219200000D03*
X113800000Y-219200000D03*
D14*
X211200000Y-194200000D03*
D15*
X212500000Y-194200000D03*
X213800000Y-194200000D03*
D14*
X211200000Y-244200000D03*
D15*
X212500000Y-244200000D03*
X213800000Y-244200000D03*
D14*
X211200000Y-169200000D03*
D15*
X212500000Y-169200000D03*
X213800000Y-169200000D03*
D16*
X131600000Y-62900000D03*
D14*
X111200000Y-194200000D03*
D15*
X112500000Y-194200000D03*
X113800000Y-194200000D03*
D14*
X111200000Y-69200000D03*
D15*
X112500000Y-69200000D03*
X113800000Y-69200000D03*
D14*
X236200000Y-119200000D03*
D15*
X237500000Y-119200000D03*
X238800000Y-119200000D03*
D14*
X161200000Y-194200000D03*
D15*
X162500000Y-194200000D03*
X163800000Y-194200000D03*
D14*
X186200000Y-119200000D03*
D15*
X187500000Y-119200000D03*
X188800000Y-119200000D03*
D14*
X186200000Y-69200000D03*
D15*
X187500000Y-69200000D03*
X188800000Y-69200000D03*
D16*
X223000000Y-105500000D03*
X223000000Y-120700000D03*
D14*
X186200000Y-144200000D03*
D15*
X187500000Y-144200000D03*
X188800000Y-144200000D03*
D16*
X127400000Y-62900000D03*
D14*
X236200000Y-244200000D03*
D15*
X237500000Y-244200000D03*
X238800000Y-244200000D03*
D14*
X186200000Y-244200000D03*
D15*
X187500000Y-244200000D03*
X188800000Y-244200000D03*
D14*
X236200000Y-69200000D03*
D15*
X237500000Y-69200000D03*
X238800000Y-69200000D03*
D14*
X211200000Y-69200000D03*
D15*
X212500000Y-69200000D03*
X213800000Y-69200000D03*
D16*
X223000000Y-110750000D03*
D14*
X236200000Y-219200000D03*
D15*
X237500000Y-219200000D03*
X238800000Y-219200000D03*
D14*
X236200000Y-194200000D03*
D15*
X237500000Y-194200000D03*
X238800000Y-194200000D03*
D14*
X111200000Y-244200000D03*
D15*
X112500000Y-244200000D03*
X113800000Y-244200000D03*
D14*
X136200000Y-219200000D03*
D15*
X137500000Y-219200000D03*
X138800000Y-219200000D03*
D14*
X211200000Y-119200000D03*
D15*
X212500000Y-119200000D03*
X213800000Y-119200000D03*
D14*
X111200000Y-94200000D03*
D15*
X112500000Y-94200000D03*
X113800000Y-94200000D03*
D14*
X61200000Y-69200000D03*
D15*
X62500000Y-69200000D03*
X63800000Y-69200000D03*
D14*
X61200000Y-194200000D03*
D15*
X62500000Y-194200000D03*
X63800000Y-194200000D03*
D14*
X211200000Y-219200000D03*
D15*
X212500000Y-219200000D03*
X213800000Y-219200000D03*
D16*
X132250000Y-104000000D03*
D14*
X61200000Y-219195600D03*
D15*
X62500000Y-219195600D03*
X63800000Y-219195600D03*
D14*
X211200000Y-94200000D03*
D15*
X212500000Y-94200000D03*
X213800000Y-94200000D03*
D14*
X86200000Y-194195600D03*
D15*
X87500000Y-194195600D03*
X88800000Y-194195600D03*
D18*
X145550000Y-163600000D03*
X148050000Y-163600000D03*
X145550000Y-63600000D03*
X148050000Y-63600000D03*
D19*
X154725000Y-168015000D03*
X154725000Y-169285000D03*
X154725000Y-170555000D03*
X154725000Y-171825000D03*
X154725000Y-173095000D03*
X154725000Y-174365000D03*
X154725000Y-175635000D03*
X154725000Y-176905000D03*
X154725000Y-178175000D03*
X154725000Y-179445000D03*
X154725000Y-180715000D03*
X154725000Y-181985000D03*
X145275000Y-181985000D03*
X145275000Y-180715000D03*
X145275000Y-179445000D03*
X145275000Y-178175000D03*
X145275000Y-176905000D03*
X145275000Y-175635000D03*
X145275000Y-174365000D03*
X145275000Y-173095000D03*
X145275000Y-171825000D03*
X145275000Y-170555000D03*
X145275000Y-169285000D03*
X145275000Y-168015000D03*
D18*
X245000000Y-88080000D03*
D20*
X245000000Y-77920000D03*
D18*
X145550000Y-213600000D03*
X148050000Y-213600000D03*
X245000000Y-103080000D03*
D20*
X245000000Y-92920000D03*
D18*
X145550000Y-114200000D03*
X148050000Y-114200000D03*
D21*
X217250000Y-92620000D03*
D20*
X217250000Y-90080000D03*
X217250000Y-87540000D03*
X217250000Y-85000000D03*
X217250000Y-82460000D03*
X217250000Y-79920000D03*
X217250000Y-77380000D03*
X217250000Y-74840000D03*
X217250000Y-72300000D03*
X217250000Y-69760000D03*
X217250000Y-67220000D03*
X217250000Y-64680000D03*
X217250000Y-62140000D03*
X217250000Y-59600000D03*
X217250000Y-57060000D03*
X232490000Y-57060000D03*
X232490000Y-59600000D03*
X232490000Y-62140000D03*
X232490000Y-64680000D03*
X232490000Y-67220000D03*
X232490000Y-69760000D03*
X232490000Y-72300000D03*
X232490000Y-74840000D03*
X232490000Y-77380000D03*
X232490000Y-79920000D03*
X232490000Y-82460000D03*
X232490000Y-85000000D03*
X232490000Y-87540000D03*
X232490000Y-90080000D03*
X232490000Y-92620000D03*
D19*
X154725000Y-218015000D03*
X154725000Y-219285000D03*
X154725000Y-220555000D03*
X154725000Y-221825000D03*
X154725000Y-223095000D03*
X154725000Y-224365000D03*
X154725000Y-225635000D03*
X154725000Y-226905000D03*
X154725000Y-228175000D03*
X154725000Y-229445000D03*
X154725000Y-230715000D03*
X154725000Y-231985000D03*
X145275000Y-231985000D03*
X145275000Y-230715000D03*
X145275000Y-229445000D03*
X145275000Y-228175000D03*
X145275000Y-226905000D03*
X145275000Y-225635000D03*
X145275000Y-224365000D03*
X145275000Y-223095000D03*
X145275000Y-221825000D03*
X145275000Y-220555000D03*
X145275000Y-219285000D03*
X145275000Y-218015000D03*
X154725000Y-68015000D03*
X154725000Y-69285000D03*
X154725000Y-70555000D03*
X154725000Y-71825000D03*
X154725000Y-73095000D03*
X154725000Y-74365000D03*
X154725000Y-75635000D03*
X154725000Y-76905000D03*
X154725000Y-78175000D03*
X154725000Y-79445000D03*
X154725000Y-80715000D03*
X154725000Y-81985000D03*
X145275000Y-81985000D03*
X145275000Y-80715000D03*
X145275000Y-79445000D03*
X145275000Y-78175000D03*
X145275000Y-76905000D03*
X145275000Y-75635000D03*
X145275000Y-74365000D03*
X145275000Y-73095000D03*
X145275000Y-71825000D03*
X145275000Y-70555000D03*
X145275000Y-69285000D03*
X145275000Y-68015000D03*
X154725000Y-118515000D03*
X154725000Y-119785000D03*
X154725000Y-121055000D03*
X154725000Y-122325000D03*
X154725000Y-123595000D03*
X154725000Y-124865000D03*
X154725000Y-126135000D03*
X154725000Y-127405000D03*
X154725000Y-128675000D03*
X154725000Y-129945000D03*
X154725000Y-131215000D03*
X154725000Y-132485000D03*
X145275000Y-132485000D03*
X145275000Y-131215000D03*
X145275000Y-129945000D03*
X145275000Y-128675000D03*
X145275000Y-127405000D03*
X145275000Y-126135000D03*
X145275000Y-124865000D03*
X145275000Y-123595000D03*
X145275000Y-122325000D03*
X145275000Y-121055000D03*
X145275000Y-119785000D03*
X145275000Y-118515000D03*
D22*
X248200000Y-67900000D03*
D23*
X248200000Y-65360000D03*
X248200000Y-62820000D03*
X248200000Y-60280000D03*
%LPD*%
M02*
