%TF.GenerationSoftware,KiCad,Pcbnew,8.0.8*%
%TF.CreationDate,2025-02-06T21:03:55-05:00*%
%TF.ProjectId,Chessboard Hardware,43686573-7362-46f6-9172-642048617264,1*%
%TF.SameCoordinates,Original*%
%TF.FileFunction,Drillmap*%
%TF.FilePolarity,Positive*%
%FSLAX45Y45*%
G04 Gerber Fmt 4.5, Leading zero omitted, Abs format (unit mm)*
G04 Created by KiCad (PCBNEW 8.0.8) date 2025-02-06 21:03:55*
%MOMM*%
%LPD*%
G01*
G04 APERTURE LIST*
%ADD10C,0.038100*%
%ADD11C,0.200000*%
%ADD12C,0.100000*%
G04 APERTURE END LIST*
D10*
X5000000Y-5000000D02*
X25000000Y-5000000D01*
X25000000Y-25000000D01*
X5000000Y-25000000D01*
X5000000Y-5000000D01*
D11*
D12*
X14055950Y-8155950D02*
X14094050Y-8194050D01*
X14094050Y-8155950D02*
X14055950Y-8194050D01*
X14055950Y-10030950D02*
X14094050Y-10069050D01*
X14094050Y-10030950D02*
X14055950Y-10069050D01*
X14055950Y-13230950D02*
X14094050Y-13269050D01*
X14094050Y-13230950D02*
X14055950Y-13269050D01*
X14055950Y-18180950D02*
X14094050Y-18219050D01*
X14094050Y-18180950D02*
X14055950Y-18219050D01*
X14055950Y-23180950D02*
X14094050Y-23219050D01*
X14094050Y-23180950D02*
X14055950Y-23219050D01*
X14155950Y-8030950D02*
X14194050Y-8069050D01*
X14194050Y-8030950D02*
X14155950Y-8069050D01*
X14155950Y-9880950D02*
X14194050Y-9919050D01*
X14194050Y-9880950D02*
X14155950Y-9919050D01*
X14155950Y-13105950D02*
X14194050Y-13144050D01*
X14194050Y-13105950D02*
X14155950Y-13144050D01*
X14155950Y-18055950D02*
X14194050Y-18094050D01*
X14194050Y-18055950D02*
X14155950Y-18094050D01*
X14155950Y-23055950D02*
X14194050Y-23094050D01*
X14194050Y-23055950D02*
X14155950Y-23094050D01*
X14255950Y-7905950D02*
X14294050Y-7944050D01*
X14294050Y-7905950D02*
X14255950Y-7944050D01*
X14255950Y-10155950D02*
X14294050Y-10194050D01*
X14294050Y-10155950D02*
X14255950Y-10194050D01*
X14255950Y-12980950D02*
X14294050Y-13019050D01*
X14294050Y-12980950D02*
X14255950Y-13019050D01*
X14255950Y-17930950D02*
X14294050Y-17969050D01*
X14294050Y-17930950D02*
X14255950Y-17969050D01*
X14255950Y-22930950D02*
X14294050Y-22969050D01*
X14294050Y-22930950D02*
X14255950Y-22969050D01*
X15705950Y-7905950D02*
X15744050Y-7944050D01*
X15744050Y-7905950D02*
X15705950Y-7944050D01*
X15705950Y-9630950D02*
X15744050Y-9669050D01*
X15744050Y-9630950D02*
X15705950Y-9669050D01*
X15705950Y-12955950D02*
X15744050Y-12994050D01*
X15744050Y-12955950D02*
X15705950Y-12994050D01*
X15705950Y-17905950D02*
X15744050Y-17944050D01*
X15744050Y-17905950D02*
X15705950Y-17944050D01*
X15705950Y-22905950D02*
X15744050Y-22944050D01*
X15744050Y-22905950D02*
X15705950Y-22944050D01*
X15830950Y-8030950D02*
X15869050Y-8069050D01*
X15869050Y-8030950D02*
X15830950Y-8069050D01*
X15830950Y-9755950D02*
X15869050Y-9794050D01*
X15869050Y-9755950D02*
X15830950Y-9794050D01*
X15830950Y-13080950D02*
X15869050Y-13119050D01*
X15869050Y-13080950D02*
X15830950Y-13119050D01*
X15830950Y-18030950D02*
X15869050Y-18069050D01*
X15869050Y-18030950D02*
X15830950Y-18069050D01*
X15830950Y-23030950D02*
X15869050Y-23069050D01*
X15869050Y-23030950D02*
X15830950Y-23069050D01*
X21655950Y-9505950D02*
X21694050Y-9544050D01*
X21694050Y-9505950D02*
X21655950Y-9544050D01*
X23305950Y-9780950D02*
X23344050Y-9819050D01*
X23344050Y-9780950D02*
X23305950Y-9819050D01*
X23852950Y-7464950D02*
X23891050Y-7503050D01*
X23891050Y-7464950D02*
X23852950Y-7503050D01*
X23910950Y-10340950D02*
X23949050Y-10379050D01*
X23949050Y-10340950D02*
X23910950Y-10379050D01*
X24130950Y-10120950D02*
X24169050Y-10159050D01*
X24169050Y-10120950D02*
X24130950Y-10159050D01*
X6154000Y-6920000D02*
G75*
G02*
X6086000Y-6920000I-34000J0D01*
G01*
X6086000Y-6920000D02*
G75*
G02*
X6154000Y-6920000I34000J0D01*
G01*
X6154000Y-9420000D02*
G75*
G02*
X6086000Y-9420000I-34000J0D01*
G01*
X6086000Y-9420000D02*
G75*
G02*
X6154000Y-9420000I34000J0D01*
G01*
X6154000Y-11920000D02*
G75*
G02*
X6086000Y-11920000I-34000J0D01*
G01*
X6086000Y-11920000D02*
G75*
G02*
X6154000Y-11920000I34000J0D01*
G01*
X6154000Y-14420000D02*
G75*
G02*
X6086000Y-14420000I-34000J0D01*
G01*
X6086000Y-14420000D02*
G75*
G02*
X6154000Y-14420000I34000J0D01*
G01*
X6154000Y-16919560D02*
G75*
G02*
X6086000Y-16919560I-34000J0D01*
G01*
X6086000Y-16919560D02*
G75*
G02*
X6154000Y-16919560I34000J0D01*
G01*
X6154000Y-19420000D02*
G75*
G02*
X6086000Y-19420000I-34000J0D01*
G01*
X6086000Y-19420000D02*
G75*
G02*
X6154000Y-19420000I34000J0D01*
G01*
X6154000Y-21919560D02*
G75*
G02*
X6086000Y-21919560I-34000J0D01*
G01*
X6086000Y-21919560D02*
G75*
G02*
X6154000Y-21919560I34000J0D01*
G01*
X6154000Y-24419560D02*
G75*
G02*
X6086000Y-24419560I-34000J0D01*
G01*
X6086000Y-24419560D02*
G75*
G02*
X6154000Y-24419560I34000J0D01*
G01*
X6284000Y-6920000D02*
G75*
G02*
X6216000Y-6920000I-34000J0D01*
G01*
X6216000Y-6920000D02*
G75*
G02*
X6284000Y-6920000I34000J0D01*
G01*
X6284000Y-9420000D02*
G75*
G02*
X6216000Y-9420000I-34000J0D01*
G01*
X6216000Y-9420000D02*
G75*
G02*
X6284000Y-9420000I34000J0D01*
G01*
X6284000Y-11920000D02*
G75*
G02*
X6216000Y-11920000I-34000J0D01*
G01*
X6216000Y-11920000D02*
G75*
G02*
X6284000Y-11920000I34000J0D01*
G01*
X6284000Y-14420000D02*
G75*
G02*
X6216000Y-14420000I-34000J0D01*
G01*
X6216000Y-14420000D02*
G75*
G02*
X6284000Y-14420000I34000J0D01*
G01*
X6284000Y-16919560D02*
G75*
G02*
X6216000Y-16919560I-34000J0D01*
G01*
X6216000Y-16919560D02*
G75*
G02*
X6284000Y-16919560I34000J0D01*
G01*
X6284000Y-19420000D02*
G75*
G02*
X6216000Y-19420000I-34000J0D01*
G01*
X6216000Y-19420000D02*
G75*
G02*
X6284000Y-19420000I34000J0D01*
G01*
X6284000Y-21919560D02*
G75*
G02*
X6216000Y-21919560I-34000J0D01*
G01*
X6216000Y-21919560D02*
G75*
G02*
X6284000Y-21919560I34000J0D01*
G01*
X6284000Y-24419560D02*
G75*
G02*
X6216000Y-24419560I-34000J0D01*
G01*
X6216000Y-24419560D02*
G75*
G02*
X6284000Y-24419560I34000J0D01*
G01*
X6414000Y-6920000D02*
G75*
G02*
X6346000Y-6920000I-34000J0D01*
G01*
X6346000Y-6920000D02*
G75*
G02*
X6414000Y-6920000I34000J0D01*
G01*
X6414000Y-9420000D02*
G75*
G02*
X6346000Y-9420000I-34000J0D01*
G01*
X6346000Y-9420000D02*
G75*
G02*
X6414000Y-9420000I34000J0D01*
G01*
X6414000Y-11920000D02*
G75*
G02*
X6346000Y-11920000I-34000J0D01*
G01*
X6346000Y-11920000D02*
G75*
G02*
X6414000Y-11920000I34000J0D01*
G01*
X6414000Y-14420000D02*
G75*
G02*
X6346000Y-14420000I-34000J0D01*
G01*
X6346000Y-14420000D02*
G75*
G02*
X6414000Y-14420000I34000J0D01*
G01*
X6414000Y-16919560D02*
G75*
G02*
X6346000Y-16919560I-34000J0D01*
G01*
X6346000Y-16919560D02*
G75*
G02*
X6414000Y-16919560I34000J0D01*
G01*
X6414000Y-19420000D02*
G75*
G02*
X6346000Y-19420000I-34000J0D01*
G01*
X6346000Y-19420000D02*
G75*
G02*
X6414000Y-19420000I34000J0D01*
G01*
X6414000Y-21919560D02*
G75*
G02*
X6346000Y-21919560I-34000J0D01*
G01*
X6346000Y-21919560D02*
G75*
G02*
X6414000Y-21919560I34000J0D01*
G01*
X6414000Y-24419560D02*
G75*
G02*
X6346000Y-24419560I-34000J0D01*
G01*
X6346000Y-24419560D02*
G75*
G02*
X6414000Y-24419560I34000J0D01*
G01*
X8654000Y-6920000D02*
G75*
G02*
X8586000Y-6920000I-34000J0D01*
G01*
X8586000Y-6920000D02*
G75*
G02*
X8654000Y-6920000I34000J0D01*
G01*
X8654000Y-9420000D02*
G75*
G02*
X8586000Y-9420000I-34000J0D01*
G01*
X8586000Y-9420000D02*
G75*
G02*
X8654000Y-9420000I34000J0D01*
G01*
X8654000Y-11920000D02*
G75*
G02*
X8586000Y-11920000I-34000J0D01*
G01*
X8586000Y-11920000D02*
G75*
G02*
X8654000Y-11920000I34000J0D01*
G01*
X8654000Y-14420000D02*
G75*
G02*
X8586000Y-14420000I-34000J0D01*
G01*
X8586000Y-14420000D02*
G75*
G02*
X8654000Y-14420000I34000J0D01*
G01*
X8654000Y-16919560D02*
G75*
G02*
X8586000Y-16919560I-34000J0D01*
G01*
X8586000Y-16919560D02*
G75*
G02*
X8654000Y-16919560I34000J0D01*
G01*
X8654000Y-19419560D02*
G75*
G02*
X8586000Y-19419560I-34000J0D01*
G01*
X8586000Y-19419560D02*
G75*
G02*
X8654000Y-19419560I34000J0D01*
G01*
X8654000Y-21920000D02*
G75*
G02*
X8586000Y-21920000I-34000J0D01*
G01*
X8586000Y-21920000D02*
G75*
G02*
X8654000Y-21920000I34000J0D01*
G01*
X8654000Y-24419560D02*
G75*
G02*
X8586000Y-24419560I-34000J0D01*
G01*
X8586000Y-24419560D02*
G75*
G02*
X8654000Y-24419560I34000J0D01*
G01*
X8784000Y-6920000D02*
G75*
G02*
X8716000Y-6920000I-34000J0D01*
G01*
X8716000Y-6920000D02*
G75*
G02*
X8784000Y-6920000I34000J0D01*
G01*
X8784000Y-9420000D02*
G75*
G02*
X8716000Y-9420000I-34000J0D01*
G01*
X8716000Y-9420000D02*
G75*
G02*
X8784000Y-9420000I34000J0D01*
G01*
X8784000Y-11920000D02*
G75*
G02*
X8716000Y-11920000I-34000J0D01*
G01*
X8716000Y-11920000D02*
G75*
G02*
X8784000Y-11920000I34000J0D01*
G01*
X8784000Y-14420000D02*
G75*
G02*
X8716000Y-14420000I-34000J0D01*
G01*
X8716000Y-14420000D02*
G75*
G02*
X8784000Y-14420000I34000J0D01*
G01*
X8784000Y-16919560D02*
G75*
G02*
X8716000Y-16919560I-34000J0D01*
G01*
X8716000Y-16919560D02*
G75*
G02*
X8784000Y-16919560I34000J0D01*
G01*
X8784000Y-19419560D02*
G75*
G02*
X8716000Y-19419560I-34000J0D01*
G01*
X8716000Y-19419560D02*
G75*
G02*
X8784000Y-19419560I34000J0D01*
G01*
X8784000Y-21920000D02*
G75*
G02*
X8716000Y-21920000I-34000J0D01*
G01*
X8716000Y-21920000D02*
G75*
G02*
X8784000Y-21920000I34000J0D01*
G01*
X8784000Y-24419560D02*
G75*
G02*
X8716000Y-24419560I-34000J0D01*
G01*
X8716000Y-24419560D02*
G75*
G02*
X8784000Y-24419560I34000J0D01*
G01*
X8914000Y-6920000D02*
G75*
G02*
X8846000Y-6920000I-34000J0D01*
G01*
X8846000Y-6920000D02*
G75*
G02*
X8914000Y-6920000I34000J0D01*
G01*
X8914000Y-9420000D02*
G75*
G02*
X8846000Y-9420000I-34000J0D01*
G01*
X8846000Y-9420000D02*
G75*
G02*
X8914000Y-9420000I34000J0D01*
G01*
X8914000Y-11920000D02*
G75*
G02*
X8846000Y-11920000I-34000J0D01*
G01*
X8846000Y-11920000D02*
G75*
G02*
X8914000Y-11920000I34000J0D01*
G01*
X8914000Y-14420000D02*
G75*
G02*
X8846000Y-14420000I-34000J0D01*
G01*
X8846000Y-14420000D02*
G75*
G02*
X8914000Y-14420000I34000J0D01*
G01*
X8914000Y-16919560D02*
G75*
G02*
X8846000Y-16919560I-34000J0D01*
G01*
X8846000Y-16919560D02*
G75*
G02*
X8914000Y-16919560I34000J0D01*
G01*
X8914000Y-19419560D02*
G75*
G02*
X8846000Y-19419560I-34000J0D01*
G01*
X8846000Y-19419560D02*
G75*
G02*
X8914000Y-19419560I34000J0D01*
G01*
X8914000Y-21920000D02*
G75*
G02*
X8846000Y-21920000I-34000J0D01*
G01*
X8846000Y-21920000D02*
G75*
G02*
X8914000Y-21920000I34000J0D01*
G01*
X8914000Y-24419560D02*
G75*
G02*
X8846000Y-24419560I-34000J0D01*
G01*
X8846000Y-24419560D02*
G75*
G02*
X8914000Y-24419560I34000J0D01*
G01*
X11154000Y-6920000D02*
G75*
G02*
X11086000Y-6920000I-34000J0D01*
G01*
X11086000Y-6920000D02*
G75*
G02*
X11154000Y-6920000I34000J0D01*
G01*
X11154000Y-9420000D02*
G75*
G02*
X11086000Y-9420000I-34000J0D01*
G01*
X11086000Y-9420000D02*
G75*
G02*
X11154000Y-9420000I34000J0D01*
G01*
X11154000Y-11920000D02*
G75*
G02*
X11086000Y-11920000I-34000J0D01*
G01*
X11086000Y-11920000D02*
G75*
G02*
X11154000Y-11920000I34000J0D01*
G01*
X11154000Y-14420000D02*
G75*
G02*
X11086000Y-14420000I-34000J0D01*
G01*
X11086000Y-14420000D02*
G75*
G02*
X11154000Y-14420000I34000J0D01*
G01*
X11154000Y-16919560D02*
G75*
G02*
X11086000Y-16919560I-34000J0D01*
G01*
X11086000Y-16919560D02*
G75*
G02*
X11154000Y-16919560I34000J0D01*
G01*
X11154000Y-19420000D02*
G75*
G02*
X11086000Y-19420000I-34000J0D01*
G01*
X11086000Y-19420000D02*
G75*
G02*
X11154000Y-19420000I34000J0D01*
G01*
X11154000Y-21920000D02*
G75*
G02*
X11086000Y-21920000I-34000J0D01*
G01*
X11086000Y-21920000D02*
G75*
G02*
X11154000Y-21920000I34000J0D01*
G01*
X11154000Y-24420000D02*
G75*
G02*
X11086000Y-24420000I-34000J0D01*
G01*
X11086000Y-24420000D02*
G75*
G02*
X11154000Y-24420000I34000J0D01*
G01*
X11284000Y-6920000D02*
G75*
G02*
X11216000Y-6920000I-34000J0D01*
G01*
X11216000Y-6920000D02*
G75*
G02*
X11284000Y-6920000I34000J0D01*
G01*
X11284000Y-9420000D02*
G75*
G02*
X11216000Y-9420000I-34000J0D01*
G01*
X11216000Y-9420000D02*
G75*
G02*
X11284000Y-9420000I34000J0D01*
G01*
X11284000Y-11920000D02*
G75*
G02*
X11216000Y-11920000I-34000J0D01*
G01*
X11216000Y-11920000D02*
G75*
G02*
X11284000Y-11920000I34000J0D01*
G01*
X11284000Y-14420000D02*
G75*
G02*
X11216000Y-14420000I-34000J0D01*
G01*
X11216000Y-14420000D02*
G75*
G02*
X11284000Y-14420000I34000J0D01*
G01*
X11284000Y-16919560D02*
G75*
G02*
X11216000Y-16919560I-34000J0D01*
G01*
X11216000Y-16919560D02*
G75*
G02*
X11284000Y-16919560I34000J0D01*
G01*
X11284000Y-19420000D02*
G75*
G02*
X11216000Y-19420000I-34000J0D01*
G01*
X11216000Y-19420000D02*
G75*
G02*
X11284000Y-19420000I34000J0D01*
G01*
X11284000Y-21920000D02*
G75*
G02*
X11216000Y-21920000I-34000J0D01*
G01*
X11216000Y-21920000D02*
G75*
G02*
X11284000Y-21920000I34000J0D01*
G01*
X11284000Y-24420000D02*
G75*
G02*
X11216000Y-24420000I-34000J0D01*
G01*
X11216000Y-24420000D02*
G75*
G02*
X11284000Y-24420000I34000J0D01*
G01*
X11414000Y-6920000D02*
G75*
G02*
X11346000Y-6920000I-34000J0D01*
G01*
X11346000Y-6920000D02*
G75*
G02*
X11414000Y-6920000I34000J0D01*
G01*
X11414000Y-9420000D02*
G75*
G02*
X11346000Y-9420000I-34000J0D01*
G01*
X11346000Y-9420000D02*
G75*
G02*
X11414000Y-9420000I34000J0D01*
G01*
X11414000Y-11920000D02*
G75*
G02*
X11346000Y-11920000I-34000J0D01*
G01*
X11346000Y-11920000D02*
G75*
G02*
X11414000Y-11920000I34000J0D01*
G01*
X11414000Y-14420000D02*
G75*
G02*
X11346000Y-14420000I-34000J0D01*
G01*
X11346000Y-14420000D02*
G75*
G02*
X11414000Y-14420000I34000J0D01*
G01*
X11414000Y-16919560D02*
G75*
G02*
X11346000Y-16919560I-34000J0D01*
G01*
X11346000Y-16919560D02*
G75*
G02*
X11414000Y-16919560I34000J0D01*
G01*
X11414000Y-19420000D02*
G75*
G02*
X11346000Y-19420000I-34000J0D01*
G01*
X11346000Y-19420000D02*
G75*
G02*
X11414000Y-19420000I34000J0D01*
G01*
X11414000Y-21920000D02*
G75*
G02*
X11346000Y-21920000I-34000J0D01*
G01*
X11346000Y-21920000D02*
G75*
G02*
X11414000Y-21920000I34000J0D01*
G01*
X11414000Y-24420000D02*
G75*
G02*
X11346000Y-24420000I-34000J0D01*
G01*
X11346000Y-24420000D02*
G75*
G02*
X11414000Y-24420000I34000J0D01*
G01*
X13654000Y-6920000D02*
G75*
G02*
X13586000Y-6920000I-34000J0D01*
G01*
X13586000Y-6920000D02*
G75*
G02*
X13654000Y-6920000I34000J0D01*
G01*
X13654000Y-9420000D02*
G75*
G02*
X13586000Y-9420000I-34000J0D01*
G01*
X13586000Y-9420000D02*
G75*
G02*
X13654000Y-9420000I34000J0D01*
G01*
X13654000Y-11920000D02*
G75*
G02*
X13586000Y-11920000I-34000J0D01*
G01*
X13586000Y-11920000D02*
G75*
G02*
X13654000Y-11920000I34000J0D01*
G01*
X13654000Y-14420000D02*
G75*
G02*
X13586000Y-14420000I-34000J0D01*
G01*
X13586000Y-14420000D02*
G75*
G02*
X13654000Y-14420000I34000J0D01*
G01*
X13654000Y-16920000D02*
G75*
G02*
X13586000Y-16920000I-34000J0D01*
G01*
X13586000Y-16920000D02*
G75*
G02*
X13654000Y-16920000I34000J0D01*
G01*
X13654000Y-19420000D02*
G75*
G02*
X13586000Y-19420000I-34000J0D01*
G01*
X13586000Y-19420000D02*
G75*
G02*
X13654000Y-19420000I34000J0D01*
G01*
X13654000Y-21920000D02*
G75*
G02*
X13586000Y-21920000I-34000J0D01*
G01*
X13586000Y-21920000D02*
G75*
G02*
X13654000Y-21920000I34000J0D01*
G01*
X13654000Y-24419560D02*
G75*
G02*
X13586000Y-24419560I-34000J0D01*
G01*
X13586000Y-24419560D02*
G75*
G02*
X13654000Y-24419560I34000J0D01*
G01*
X13784000Y-6920000D02*
G75*
G02*
X13716000Y-6920000I-34000J0D01*
G01*
X13716000Y-6920000D02*
G75*
G02*
X13784000Y-6920000I34000J0D01*
G01*
X13784000Y-9420000D02*
G75*
G02*
X13716000Y-9420000I-34000J0D01*
G01*
X13716000Y-9420000D02*
G75*
G02*
X13784000Y-9420000I34000J0D01*
G01*
X13784000Y-11920000D02*
G75*
G02*
X13716000Y-11920000I-34000J0D01*
G01*
X13716000Y-11920000D02*
G75*
G02*
X13784000Y-11920000I34000J0D01*
G01*
X13784000Y-14420000D02*
G75*
G02*
X13716000Y-14420000I-34000J0D01*
G01*
X13716000Y-14420000D02*
G75*
G02*
X13784000Y-14420000I34000J0D01*
G01*
X13784000Y-16920000D02*
G75*
G02*
X13716000Y-16920000I-34000J0D01*
G01*
X13716000Y-16920000D02*
G75*
G02*
X13784000Y-16920000I34000J0D01*
G01*
X13784000Y-19420000D02*
G75*
G02*
X13716000Y-19420000I-34000J0D01*
G01*
X13716000Y-19420000D02*
G75*
G02*
X13784000Y-19420000I34000J0D01*
G01*
X13784000Y-21920000D02*
G75*
G02*
X13716000Y-21920000I-34000J0D01*
G01*
X13716000Y-21920000D02*
G75*
G02*
X13784000Y-21920000I34000J0D01*
G01*
X13784000Y-24419560D02*
G75*
G02*
X13716000Y-24419560I-34000J0D01*
G01*
X13716000Y-24419560D02*
G75*
G02*
X13784000Y-24419560I34000J0D01*
G01*
X13914000Y-6920000D02*
G75*
G02*
X13846000Y-6920000I-34000J0D01*
G01*
X13846000Y-6920000D02*
G75*
G02*
X13914000Y-6920000I34000J0D01*
G01*
X13914000Y-9420000D02*
G75*
G02*
X13846000Y-9420000I-34000J0D01*
G01*
X13846000Y-9420000D02*
G75*
G02*
X13914000Y-9420000I34000J0D01*
G01*
X13914000Y-11920000D02*
G75*
G02*
X13846000Y-11920000I-34000J0D01*
G01*
X13846000Y-11920000D02*
G75*
G02*
X13914000Y-11920000I34000J0D01*
G01*
X13914000Y-14420000D02*
G75*
G02*
X13846000Y-14420000I-34000J0D01*
G01*
X13846000Y-14420000D02*
G75*
G02*
X13914000Y-14420000I34000J0D01*
G01*
X13914000Y-16920000D02*
G75*
G02*
X13846000Y-16920000I-34000J0D01*
G01*
X13846000Y-16920000D02*
G75*
G02*
X13914000Y-16920000I34000J0D01*
G01*
X13914000Y-19420000D02*
G75*
G02*
X13846000Y-19420000I-34000J0D01*
G01*
X13846000Y-19420000D02*
G75*
G02*
X13914000Y-19420000I34000J0D01*
G01*
X13914000Y-21920000D02*
G75*
G02*
X13846000Y-21920000I-34000J0D01*
G01*
X13846000Y-21920000D02*
G75*
G02*
X13914000Y-21920000I34000J0D01*
G01*
X13914000Y-24419560D02*
G75*
G02*
X13846000Y-24419560I-34000J0D01*
G01*
X13846000Y-24419560D02*
G75*
G02*
X13914000Y-24419560I34000J0D01*
G01*
X16154000Y-6920000D02*
G75*
G02*
X16086000Y-6920000I-34000J0D01*
G01*
X16086000Y-6920000D02*
G75*
G02*
X16154000Y-6920000I34000J0D01*
G01*
X16154000Y-9420000D02*
G75*
G02*
X16086000Y-9420000I-34000J0D01*
G01*
X16086000Y-9420000D02*
G75*
G02*
X16154000Y-9420000I34000J0D01*
G01*
X16154000Y-11920000D02*
G75*
G02*
X16086000Y-11920000I-34000J0D01*
G01*
X16086000Y-11920000D02*
G75*
G02*
X16154000Y-11920000I34000J0D01*
G01*
X16154000Y-14420000D02*
G75*
G02*
X16086000Y-14420000I-34000J0D01*
G01*
X16086000Y-14420000D02*
G75*
G02*
X16154000Y-14420000I34000J0D01*
G01*
X16154000Y-16920000D02*
G75*
G02*
X16086000Y-16920000I-34000J0D01*
G01*
X16086000Y-16920000D02*
G75*
G02*
X16154000Y-16920000I34000J0D01*
G01*
X16154000Y-19420000D02*
G75*
G02*
X16086000Y-19420000I-34000J0D01*
G01*
X16086000Y-19420000D02*
G75*
G02*
X16154000Y-19420000I34000J0D01*
G01*
X16154000Y-21920000D02*
G75*
G02*
X16086000Y-21920000I-34000J0D01*
G01*
X16086000Y-21920000D02*
G75*
G02*
X16154000Y-21920000I34000J0D01*
G01*
X16154000Y-24420000D02*
G75*
G02*
X16086000Y-24420000I-34000J0D01*
G01*
X16086000Y-24420000D02*
G75*
G02*
X16154000Y-24420000I34000J0D01*
G01*
X16284000Y-6920000D02*
G75*
G02*
X16216000Y-6920000I-34000J0D01*
G01*
X16216000Y-6920000D02*
G75*
G02*
X16284000Y-6920000I34000J0D01*
G01*
X16284000Y-9420000D02*
G75*
G02*
X16216000Y-9420000I-34000J0D01*
G01*
X16216000Y-9420000D02*
G75*
G02*
X16284000Y-9420000I34000J0D01*
G01*
X16284000Y-11920000D02*
G75*
G02*
X16216000Y-11920000I-34000J0D01*
G01*
X16216000Y-11920000D02*
G75*
G02*
X16284000Y-11920000I34000J0D01*
G01*
X16284000Y-14420000D02*
G75*
G02*
X16216000Y-14420000I-34000J0D01*
G01*
X16216000Y-14420000D02*
G75*
G02*
X16284000Y-14420000I34000J0D01*
G01*
X16284000Y-16920000D02*
G75*
G02*
X16216000Y-16920000I-34000J0D01*
G01*
X16216000Y-16920000D02*
G75*
G02*
X16284000Y-16920000I34000J0D01*
G01*
X16284000Y-19420000D02*
G75*
G02*
X16216000Y-19420000I-34000J0D01*
G01*
X16216000Y-19420000D02*
G75*
G02*
X16284000Y-19420000I34000J0D01*
G01*
X16284000Y-21920000D02*
G75*
G02*
X16216000Y-21920000I-34000J0D01*
G01*
X16216000Y-21920000D02*
G75*
G02*
X16284000Y-21920000I34000J0D01*
G01*
X16284000Y-24420000D02*
G75*
G02*
X16216000Y-24420000I-34000J0D01*
G01*
X16216000Y-24420000D02*
G75*
G02*
X16284000Y-24420000I34000J0D01*
G01*
X16414000Y-6920000D02*
G75*
G02*
X16346000Y-6920000I-34000J0D01*
G01*
X16346000Y-6920000D02*
G75*
G02*
X16414000Y-6920000I34000J0D01*
G01*
X16414000Y-9420000D02*
G75*
G02*
X16346000Y-9420000I-34000J0D01*
G01*
X16346000Y-9420000D02*
G75*
G02*
X16414000Y-9420000I34000J0D01*
G01*
X16414000Y-11920000D02*
G75*
G02*
X16346000Y-11920000I-34000J0D01*
G01*
X16346000Y-11920000D02*
G75*
G02*
X16414000Y-11920000I34000J0D01*
G01*
X16414000Y-14420000D02*
G75*
G02*
X16346000Y-14420000I-34000J0D01*
G01*
X16346000Y-14420000D02*
G75*
G02*
X16414000Y-14420000I34000J0D01*
G01*
X16414000Y-16920000D02*
G75*
G02*
X16346000Y-16920000I-34000J0D01*
G01*
X16346000Y-16920000D02*
G75*
G02*
X16414000Y-16920000I34000J0D01*
G01*
X16414000Y-19420000D02*
G75*
G02*
X16346000Y-19420000I-34000J0D01*
G01*
X16346000Y-19420000D02*
G75*
G02*
X16414000Y-19420000I34000J0D01*
G01*
X16414000Y-21920000D02*
G75*
G02*
X16346000Y-21920000I-34000J0D01*
G01*
X16346000Y-21920000D02*
G75*
G02*
X16414000Y-21920000I34000J0D01*
G01*
X16414000Y-24420000D02*
G75*
G02*
X16346000Y-24420000I-34000J0D01*
G01*
X16346000Y-24420000D02*
G75*
G02*
X16414000Y-24420000I34000J0D01*
G01*
X18654000Y-6920000D02*
G75*
G02*
X18586000Y-6920000I-34000J0D01*
G01*
X18586000Y-6920000D02*
G75*
G02*
X18654000Y-6920000I34000J0D01*
G01*
X18654000Y-9420000D02*
G75*
G02*
X18586000Y-9420000I-34000J0D01*
G01*
X18586000Y-9420000D02*
G75*
G02*
X18654000Y-9420000I34000J0D01*
G01*
X18654000Y-11920000D02*
G75*
G02*
X18586000Y-11920000I-34000J0D01*
G01*
X18586000Y-11920000D02*
G75*
G02*
X18654000Y-11920000I34000J0D01*
G01*
X18654000Y-14420000D02*
G75*
G02*
X18586000Y-14420000I-34000J0D01*
G01*
X18586000Y-14420000D02*
G75*
G02*
X18654000Y-14420000I34000J0D01*
G01*
X18654000Y-16920000D02*
G75*
G02*
X18586000Y-16920000I-34000J0D01*
G01*
X18586000Y-16920000D02*
G75*
G02*
X18654000Y-16920000I34000J0D01*
G01*
X18654000Y-19420000D02*
G75*
G02*
X18586000Y-19420000I-34000J0D01*
G01*
X18586000Y-19420000D02*
G75*
G02*
X18654000Y-19420000I34000J0D01*
G01*
X18654000Y-21920000D02*
G75*
G02*
X18586000Y-21920000I-34000J0D01*
G01*
X18586000Y-21920000D02*
G75*
G02*
X18654000Y-21920000I34000J0D01*
G01*
X18654000Y-24420000D02*
G75*
G02*
X18586000Y-24420000I-34000J0D01*
G01*
X18586000Y-24420000D02*
G75*
G02*
X18654000Y-24420000I34000J0D01*
G01*
X18784000Y-6920000D02*
G75*
G02*
X18716000Y-6920000I-34000J0D01*
G01*
X18716000Y-6920000D02*
G75*
G02*
X18784000Y-6920000I34000J0D01*
G01*
X18784000Y-9420000D02*
G75*
G02*
X18716000Y-9420000I-34000J0D01*
G01*
X18716000Y-9420000D02*
G75*
G02*
X18784000Y-9420000I34000J0D01*
G01*
X18784000Y-11920000D02*
G75*
G02*
X18716000Y-11920000I-34000J0D01*
G01*
X18716000Y-11920000D02*
G75*
G02*
X18784000Y-11920000I34000J0D01*
G01*
X18784000Y-14420000D02*
G75*
G02*
X18716000Y-14420000I-34000J0D01*
G01*
X18716000Y-14420000D02*
G75*
G02*
X18784000Y-14420000I34000J0D01*
G01*
X18784000Y-16920000D02*
G75*
G02*
X18716000Y-16920000I-34000J0D01*
G01*
X18716000Y-16920000D02*
G75*
G02*
X18784000Y-16920000I34000J0D01*
G01*
X18784000Y-19420000D02*
G75*
G02*
X18716000Y-19420000I-34000J0D01*
G01*
X18716000Y-19420000D02*
G75*
G02*
X18784000Y-19420000I34000J0D01*
G01*
X18784000Y-21920000D02*
G75*
G02*
X18716000Y-21920000I-34000J0D01*
G01*
X18716000Y-21920000D02*
G75*
G02*
X18784000Y-21920000I34000J0D01*
G01*
X18784000Y-24420000D02*
G75*
G02*
X18716000Y-24420000I-34000J0D01*
G01*
X18716000Y-24420000D02*
G75*
G02*
X18784000Y-24420000I34000J0D01*
G01*
X18914000Y-6920000D02*
G75*
G02*
X18846000Y-6920000I-34000J0D01*
G01*
X18846000Y-6920000D02*
G75*
G02*
X18914000Y-6920000I34000J0D01*
G01*
X18914000Y-9420000D02*
G75*
G02*
X18846000Y-9420000I-34000J0D01*
G01*
X18846000Y-9420000D02*
G75*
G02*
X18914000Y-9420000I34000J0D01*
G01*
X18914000Y-11920000D02*
G75*
G02*
X18846000Y-11920000I-34000J0D01*
G01*
X18846000Y-11920000D02*
G75*
G02*
X18914000Y-11920000I34000J0D01*
G01*
X18914000Y-14420000D02*
G75*
G02*
X18846000Y-14420000I-34000J0D01*
G01*
X18846000Y-14420000D02*
G75*
G02*
X18914000Y-14420000I34000J0D01*
G01*
X18914000Y-16920000D02*
G75*
G02*
X18846000Y-16920000I-34000J0D01*
G01*
X18846000Y-16920000D02*
G75*
G02*
X18914000Y-16920000I34000J0D01*
G01*
X18914000Y-19420000D02*
G75*
G02*
X18846000Y-19420000I-34000J0D01*
G01*
X18846000Y-19420000D02*
G75*
G02*
X18914000Y-19420000I34000J0D01*
G01*
X18914000Y-21920000D02*
G75*
G02*
X18846000Y-21920000I-34000J0D01*
G01*
X18846000Y-21920000D02*
G75*
G02*
X18914000Y-21920000I34000J0D01*
G01*
X18914000Y-24420000D02*
G75*
G02*
X18846000Y-24420000I-34000J0D01*
G01*
X18846000Y-24420000D02*
G75*
G02*
X18914000Y-24420000I34000J0D01*
G01*
X21154000Y-6920000D02*
G75*
G02*
X21086000Y-6920000I-34000J0D01*
G01*
X21086000Y-6920000D02*
G75*
G02*
X21154000Y-6920000I34000J0D01*
G01*
X21154000Y-9420000D02*
G75*
G02*
X21086000Y-9420000I-34000J0D01*
G01*
X21086000Y-9420000D02*
G75*
G02*
X21154000Y-9420000I34000J0D01*
G01*
X21154000Y-11920000D02*
G75*
G02*
X21086000Y-11920000I-34000J0D01*
G01*
X21086000Y-11920000D02*
G75*
G02*
X21154000Y-11920000I34000J0D01*
G01*
X21154000Y-14420000D02*
G75*
G02*
X21086000Y-14420000I-34000J0D01*
G01*
X21086000Y-14420000D02*
G75*
G02*
X21154000Y-14420000I34000J0D01*
G01*
X21154000Y-16920000D02*
G75*
G02*
X21086000Y-16920000I-34000J0D01*
G01*
X21086000Y-16920000D02*
G75*
G02*
X21154000Y-16920000I34000J0D01*
G01*
X21154000Y-19420000D02*
G75*
G02*
X21086000Y-19420000I-34000J0D01*
G01*
X21086000Y-19420000D02*
G75*
G02*
X21154000Y-19420000I34000J0D01*
G01*
X21154000Y-21920000D02*
G75*
G02*
X21086000Y-21920000I-34000J0D01*
G01*
X21086000Y-21920000D02*
G75*
G02*
X21154000Y-21920000I34000J0D01*
G01*
X21154000Y-24420000D02*
G75*
G02*
X21086000Y-24420000I-34000J0D01*
G01*
X21086000Y-24420000D02*
G75*
G02*
X21154000Y-24420000I34000J0D01*
G01*
X21284000Y-6920000D02*
G75*
G02*
X21216000Y-6920000I-34000J0D01*
G01*
X21216000Y-6920000D02*
G75*
G02*
X21284000Y-6920000I34000J0D01*
G01*
X21284000Y-9420000D02*
G75*
G02*
X21216000Y-9420000I-34000J0D01*
G01*
X21216000Y-9420000D02*
G75*
G02*
X21284000Y-9420000I34000J0D01*
G01*
X21284000Y-11920000D02*
G75*
G02*
X21216000Y-11920000I-34000J0D01*
G01*
X21216000Y-11920000D02*
G75*
G02*
X21284000Y-11920000I34000J0D01*
G01*
X21284000Y-14420000D02*
G75*
G02*
X21216000Y-14420000I-34000J0D01*
G01*
X21216000Y-14420000D02*
G75*
G02*
X21284000Y-14420000I34000J0D01*
G01*
X21284000Y-16920000D02*
G75*
G02*
X21216000Y-16920000I-34000J0D01*
G01*
X21216000Y-16920000D02*
G75*
G02*
X21284000Y-16920000I34000J0D01*
G01*
X21284000Y-19420000D02*
G75*
G02*
X21216000Y-19420000I-34000J0D01*
G01*
X21216000Y-19420000D02*
G75*
G02*
X21284000Y-19420000I34000J0D01*
G01*
X21284000Y-21920000D02*
G75*
G02*
X21216000Y-21920000I-34000J0D01*
G01*
X21216000Y-21920000D02*
G75*
G02*
X21284000Y-21920000I34000J0D01*
G01*
X21284000Y-24420000D02*
G75*
G02*
X21216000Y-24420000I-34000J0D01*
G01*
X21216000Y-24420000D02*
G75*
G02*
X21284000Y-24420000I34000J0D01*
G01*
X21414000Y-6920000D02*
G75*
G02*
X21346000Y-6920000I-34000J0D01*
G01*
X21346000Y-6920000D02*
G75*
G02*
X21414000Y-6920000I34000J0D01*
G01*
X21414000Y-9420000D02*
G75*
G02*
X21346000Y-9420000I-34000J0D01*
G01*
X21346000Y-9420000D02*
G75*
G02*
X21414000Y-9420000I34000J0D01*
G01*
X21414000Y-11920000D02*
G75*
G02*
X21346000Y-11920000I-34000J0D01*
G01*
X21346000Y-11920000D02*
G75*
G02*
X21414000Y-11920000I34000J0D01*
G01*
X21414000Y-14420000D02*
G75*
G02*
X21346000Y-14420000I-34000J0D01*
G01*
X21346000Y-14420000D02*
G75*
G02*
X21414000Y-14420000I34000J0D01*
G01*
X21414000Y-16920000D02*
G75*
G02*
X21346000Y-16920000I-34000J0D01*
G01*
X21346000Y-16920000D02*
G75*
G02*
X21414000Y-16920000I34000J0D01*
G01*
X21414000Y-19420000D02*
G75*
G02*
X21346000Y-19420000I-34000J0D01*
G01*
X21346000Y-19420000D02*
G75*
G02*
X21414000Y-19420000I34000J0D01*
G01*
X21414000Y-21920000D02*
G75*
G02*
X21346000Y-21920000I-34000J0D01*
G01*
X21346000Y-21920000D02*
G75*
G02*
X21414000Y-21920000I34000J0D01*
G01*
X21414000Y-24420000D02*
G75*
G02*
X21346000Y-24420000I-34000J0D01*
G01*
X21346000Y-24420000D02*
G75*
G02*
X21414000Y-24420000I34000J0D01*
G01*
X23654000Y-6920000D02*
G75*
G02*
X23586000Y-6920000I-34000J0D01*
G01*
X23586000Y-6920000D02*
G75*
G02*
X23654000Y-6920000I34000J0D01*
G01*
X23654000Y-9420000D02*
G75*
G02*
X23586000Y-9420000I-34000J0D01*
G01*
X23586000Y-9420000D02*
G75*
G02*
X23654000Y-9420000I34000J0D01*
G01*
X23654000Y-11920000D02*
G75*
G02*
X23586000Y-11920000I-34000J0D01*
G01*
X23586000Y-11920000D02*
G75*
G02*
X23654000Y-11920000I34000J0D01*
G01*
X23654000Y-14420000D02*
G75*
G02*
X23586000Y-14420000I-34000J0D01*
G01*
X23586000Y-14420000D02*
G75*
G02*
X23654000Y-14420000I34000J0D01*
G01*
X23654000Y-16920000D02*
G75*
G02*
X23586000Y-16920000I-34000J0D01*
G01*
X23586000Y-16920000D02*
G75*
G02*
X23654000Y-16920000I34000J0D01*
G01*
X23654000Y-19420000D02*
G75*
G02*
X23586000Y-19420000I-34000J0D01*
G01*
X23586000Y-19420000D02*
G75*
G02*
X23654000Y-19420000I34000J0D01*
G01*
X23654000Y-21920000D02*
G75*
G02*
X23586000Y-21920000I-34000J0D01*
G01*
X23586000Y-21920000D02*
G75*
G02*
X23654000Y-21920000I34000J0D01*
G01*
X23654000Y-24420000D02*
G75*
G02*
X23586000Y-24420000I-34000J0D01*
G01*
X23586000Y-24420000D02*
G75*
G02*
X23654000Y-24420000I34000J0D01*
G01*
X23784000Y-6920000D02*
G75*
G02*
X23716000Y-6920000I-34000J0D01*
G01*
X23716000Y-6920000D02*
G75*
G02*
X23784000Y-6920000I34000J0D01*
G01*
X23784000Y-9420000D02*
G75*
G02*
X23716000Y-9420000I-34000J0D01*
G01*
X23716000Y-9420000D02*
G75*
G02*
X23784000Y-9420000I34000J0D01*
G01*
X23784000Y-11920000D02*
G75*
G02*
X23716000Y-11920000I-34000J0D01*
G01*
X23716000Y-11920000D02*
G75*
G02*
X23784000Y-11920000I34000J0D01*
G01*
X23784000Y-14420000D02*
G75*
G02*
X23716000Y-14420000I-34000J0D01*
G01*
X23716000Y-14420000D02*
G75*
G02*
X23784000Y-14420000I34000J0D01*
G01*
X23784000Y-16920000D02*
G75*
G02*
X23716000Y-16920000I-34000J0D01*
G01*
X23716000Y-16920000D02*
G75*
G02*
X23784000Y-16920000I34000J0D01*
G01*
X23784000Y-19420000D02*
G75*
G02*
X23716000Y-19420000I-34000J0D01*
G01*
X23716000Y-19420000D02*
G75*
G02*
X23784000Y-19420000I34000J0D01*
G01*
X23784000Y-21920000D02*
G75*
G02*
X23716000Y-21920000I-34000J0D01*
G01*
X23716000Y-21920000D02*
G75*
G02*
X23784000Y-21920000I34000J0D01*
G01*
X23784000Y-24420000D02*
G75*
G02*
X23716000Y-24420000I-34000J0D01*
G01*
X23716000Y-24420000D02*
G75*
G02*
X23784000Y-24420000I34000J0D01*
G01*
X23914000Y-6920000D02*
G75*
G02*
X23846000Y-6920000I-34000J0D01*
G01*
X23846000Y-6920000D02*
G75*
G02*
X23914000Y-6920000I34000J0D01*
G01*
X23914000Y-9420000D02*
G75*
G02*
X23846000Y-9420000I-34000J0D01*
G01*
X23846000Y-9420000D02*
G75*
G02*
X23914000Y-9420000I34000J0D01*
G01*
X23914000Y-11920000D02*
G75*
G02*
X23846000Y-11920000I-34000J0D01*
G01*
X23846000Y-11920000D02*
G75*
G02*
X23914000Y-11920000I34000J0D01*
G01*
X23914000Y-14420000D02*
G75*
G02*
X23846000Y-14420000I-34000J0D01*
G01*
X23846000Y-14420000D02*
G75*
G02*
X23914000Y-14420000I34000J0D01*
G01*
X23914000Y-16920000D02*
G75*
G02*
X23846000Y-16920000I-34000J0D01*
G01*
X23846000Y-16920000D02*
G75*
G02*
X23914000Y-16920000I34000J0D01*
G01*
X23914000Y-19420000D02*
G75*
G02*
X23846000Y-19420000I-34000J0D01*
G01*
X23846000Y-19420000D02*
G75*
G02*
X23914000Y-19420000I34000J0D01*
G01*
X23914000Y-21920000D02*
G75*
G02*
X23846000Y-21920000I-34000J0D01*
G01*
X23846000Y-21920000D02*
G75*
G02*
X23914000Y-21920000I34000J0D01*
G01*
X23914000Y-24420000D02*
G75*
G02*
X23846000Y-24420000I-34000J0D01*
G01*
X23846000Y-24420000D02*
G75*
G02*
X23914000Y-24420000I34000J0D01*
G01*
X24110000Y-6431900D02*
X24110000Y-6508100D01*
X24071900Y-6470000D02*
X24148100Y-6470000D01*
X14583284Y-6388284D02*
X14583284Y-6331715D01*
X14526715Y-6331715D01*
X14526715Y-6388284D01*
X14583284Y-6388284D01*
X14583284Y-11448284D02*
X14583284Y-11391715D01*
X14526715Y-11391715D01*
X14526715Y-11448284D01*
X14583284Y-11448284D01*
X14583284Y-16388284D02*
X14583284Y-16331715D01*
X14526715Y-16331715D01*
X14526715Y-16388284D01*
X14583284Y-16388284D01*
X14583284Y-21388285D02*
X14583284Y-21331716D01*
X14526715Y-21331716D01*
X14526715Y-21388285D01*
X14583284Y-21388285D01*
X14833284Y-6388284D02*
X14833284Y-6331715D01*
X14776715Y-6331715D01*
X14776715Y-6388284D01*
X14833284Y-6388284D01*
X14833284Y-11448284D02*
X14833284Y-11391715D01*
X14776715Y-11391715D01*
X14776715Y-11448284D01*
X14833284Y-11448284D01*
X14833284Y-16388284D02*
X14833284Y-16331715D01*
X14776715Y-16331715D01*
X14776715Y-16388284D01*
X14833284Y-16388284D01*
X14833284Y-21388285D02*
X14833284Y-21331716D01*
X14776715Y-21331716D01*
X14776715Y-21388285D01*
X14833284Y-21388285D01*
X24528284Y-7820284D02*
X24528284Y-7763715D01*
X24471715Y-7763715D01*
X24471715Y-7820284D01*
X24528284Y-7820284D01*
X24528284Y-8836285D02*
X24528284Y-8779716D01*
X24471715Y-8779716D01*
X24471715Y-8836285D01*
X24528284Y-8836285D01*
X24528284Y-9320285D02*
X24528284Y-9263716D01*
X24471715Y-9263716D01*
X24471715Y-9320285D01*
X24528284Y-9320285D01*
X24528284Y-10336285D02*
X24528284Y-10279716D01*
X24471715Y-10279716D01*
X24471715Y-10336285D01*
X24528284Y-10336285D01*
X12740000Y-6340000D02*
X12790000Y-6290000D01*
X12740000Y-6240000D01*
X12690000Y-6290000D01*
X12740000Y-6340000D01*
X13160000Y-6340000D02*
X13210000Y-6290000D01*
X13160000Y-6240000D01*
X13110000Y-6290000D01*
X13160000Y-6340000D01*
X13225000Y-10450000D02*
X13275000Y-10400000D01*
X13225000Y-10350000D01*
X13175000Y-10400000D01*
X13225000Y-10450000D01*
X13225000Y-10950000D02*
X13275000Y-10900000D01*
X13225000Y-10850000D01*
X13175000Y-10900000D01*
X13225000Y-10950000D01*
X13225000Y-11450000D02*
X13275000Y-11400000D01*
X13225000Y-11350000D01*
X13175000Y-11400000D01*
X13225000Y-11450000D01*
X13225000Y-11950000D02*
X13275000Y-11900000D01*
X13225000Y-11850000D01*
X13175000Y-11900000D01*
X13225000Y-11950000D01*
X14690000Y-10550000D02*
X14740000Y-10500000D01*
X14690000Y-10450000D01*
X14640000Y-10500000D01*
X14690000Y-10550000D01*
X21725000Y-5756000D02*
X21775000Y-5706000D01*
X21725000Y-5656000D01*
X21675000Y-5706000D01*
X21725000Y-5756000D01*
X21725000Y-6010000D02*
X21775000Y-5960000D01*
X21725000Y-5910000D01*
X21675000Y-5960000D01*
X21725000Y-6010000D01*
X21725000Y-6264000D02*
X21775000Y-6214000D01*
X21725000Y-6164000D01*
X21675000Y-6214000D01*
X21725000Y-6264000D01*
X21725000Y-6518000D02*
X21775000Y-6468000D01*
X21725000Y-6418000D01*
X21675000Y-6468000D01*
X21725000Y-6518000D01*
X21725000Y-6772000D02*
X21775000Y-6722000D01*
X21725000Y-6672000D01*
X21675000Y-6722000D01*
X21725000Y-6772000D01*
X21725000Y-7026000D02*
X21775000Y-6976000D01*
X21725000Y-6926000D01*
X21675000Y-6976000D01*
X21725000Y-7026000D01*
X21725000Y-7280000D02*
X21775000Y-7230000D01*
X21725000Y-7180000D01*
X21675000Y-7230000D01*
X21725000Y-7280000D01*
X21725000Y-7534000D02*
X21775000Y-7484000D01*
X21725000Y-7434000D01*
X21675000Y-7484000D01*
X21725000Y-7534000D01*
X21725000Y-7788000D02*
X21775000Y-7738000D01*
X21725000Y-7688000D01*
X21675000Y-7738000D01*
X21725000Y-7788000D01*
X21725000Y-8042000D02*
X21775000Y-7992000D01*
X21725000Y-7942000D01*
X21675000Y-7992000D01*
X21725000Y-8042000D01*
X21725000Y-8296000D02*
X21775000Y-8246000D01*
X21725000Y-8196000D01*
X21675000Y-8246000D01*
X21725000Y-8296000D01*
X21725000Y-8550000D02*
X21775000Y-8500000D01*
X21725000Y-8450000D01*
X21675000Y-8500000D01*
X21725000Y-8550000D01*
X21725000Y-8804000D02*
X21775000Y-8754000D01*
X21725000Y-8704000D01*
X21675000Y-8754000D01*
X21725000Y-8804000D01*
X21725000Y-9058000D02*
X21775000Y-9008000D01*
X21725000Y-8958000D01*
X21675000Y-9008000D01*
X21725000Y-9058000D01*
X21725000Y-9312000D02*
X21775000Y-9262000D01*
X21725000Y-9212000D01*
X21675000Y-9262000D01*
X21725000Y-9312000D01*
X22300000Y-10600000D02*
X22350000Y-10550000D01*
X22300000Y-10500000D01*
X22250000Y-10550000D01*
X22300000Y-10600000D01*
X22300000Y-11125000D02*
X22350000Y-11075000D01*
X22300000Y-11025000D01*
X22250000Y-11075000D01*
X22300000Y-11125000D01*
X22300000Y-11620000D02*
X22350000Y-11570000D01*
X22300000Y-11520000D01*
X22250000Y-11570000D01*
X22300000Y-11620000D01*
X22300000Y-12120000D02*
X22350000Y-12070000D01*
X22300000Y-12020000D01*
X22250000Y-12070000D01*
X22300000Y-12120000D01*
X23249000Y-5756000D02*
X23299000Y-5706000D01*
X23249000Y-5656000D01*
X23199000Y-5706000D01*
X23249000Y-5756000D01*
X23249000Y-6010000D02*
X23299000Y-5960000D01*
X23249000Y-5910000D01*
X23199000Y-5960000D01*
X23249000Y-6010000D01*
X23249000Y-6264000D02*
X23299000Y-6214000D01*
X23249000Y-6164000D01*
X23199000Y-6214000D01*
X23249000Y-6264000D01*
X23249000Y-6518000D02*
X23299000Y-6468000D01*
X23249000Y-6418000D01*
X23199000Y-6468000D01*
X23249000Y-6518000D01*
X23249000Y-6772000D02*
X23299000Y-6722000D01*
X23249000Y-6672000D01*
X23199000Y-6722000D01*
X23249000Y-6772000D01*
X23249000Y-7026000D02*
X23299000Y-6976000D01*
X23249000Y-6926000D01*
X23199000Y-6976000D01*
X23249000Y-7026000D01*
X23249000Y-7280000D02*
X23299000Y-7230000D01*
X23249000Y-7180000D01*
X23199000Y-7230000D01*
X23249000Y-7280000D01*
X23249000Y-7534000D02*
X23299000Y-7484000D01*
X23249000Y-7434000D01*
X23199000Y-7484000D01*
X23249000Y-7534000D01*
X23249000Y-7788000D02*
X23299000Y-7738000D01*
X23249000Y-7688000D01*
X23199000Y-7738000D01*
X23249000Y-7788000D01*
X23249000Y-8042000D02*
X23299000Y-7992000D01*
X23249000Y-7942000D01*
X23199000Y-7992000D01*
X23249000Y-8042000D01*
X23249000Y-8296000D02*
X23299000Y-8246000D01*
X23249000Y-8196000D01*
X23199000Y-8246000D01*
X23249000Y-8296000D01*
X23249000Y-8550000D02*
X23299000Y-8500000D01*
X23249000Y-8450000D01*
X23199000Y-8500000D01*
X23249000Y-8550000D01*
X23249000Y-8804000D02*
X23299000Y-8754000D01*
X23249000Y-8704000D01*
X23199000Y-8754000D01*
X23249000Y-8804000D01*
X23249000Y-9058000D02*
X23299000Y-9008000D01*
X23249000Y-8958000D01*
X23199000Y-9008000D01*
X23249000Y-9058000D01*
X23249000Y-9312000D02*
X23299000Y-9262000D01*
X23249000Y-9212000D01*
X23199000Y-9262000D01*
X23249000Y-9312000D01*
X24820000Y-6078000D02*
X24870000Y-6028000D01*
X24820000Y-5978000D01*
X24770000Y-6028000D01*
X24820000Y-6078000D01*
X24820000Y-6332000D02*
X24870000Y-6282000D01*
X24820000Y-6232000D01*
X24770000Y-6282000D01*
X24820000Y-6332000D01*
X24820000Y-6586000D02*
X24870000Y-6536000D01*
X24820000Y-6486000D01*
X24770000Y-6536000D01*
X24820000Y-6586000D01*
X24820000Y-6840000D02*
X24870000Y-6790000D01*
X24820000Y-6740000D01*
X24770000Y-6790000D01*
X24820000Y-6840000D01*
D11*
X5258872Y-25313389D02*
X5258872Y-25113389D01*
X5258872Y-25113389D02*
X5306491Y-25113389D01*
X5306491Y-25113389D02*
X5335062Y-25122913D01*
X5335062Y-25122913D02*
X5354110Y-25141960D01*
X5354110Y-25141960D02*
X5363634Y-25161008D01*
X5363634Y-25161008D02*
X5373158Y-25199103D01*
X5373158Y-25199103D02*
X5373158Y-25227674D01*
X5373158Y-25227674D02*
X5363634Y-25265770D01*
X5363634Y-25265770D02*
X5354110Y-25284817D01*
X5354110Y-25284817D02*
X5335062Y-25303865D01*
X5335062Y-25303865D02*
X5306491Y-25313389D01*
X5306491Y-25313389D02*
X5258872Y-25313389D01*
X5458872Y-25313389D02*
X5458872Y-25180055D01*
X5458872Y-25218151D02*
X5468396Y-25199103D01*
X5468396Y-25199103D02*
X5477919Y-25189579D01*
X5477919Y-25189579D02*
X5496967Y-25180055D01*
X5496967Y-25180055D02*
X5516015Y-25180055D01*
X5582681Y-25313389D02*
X5582681Y-25180055D01*
X5582681Y-25113389D02*
X5573158Y-25122913D01*
X5573158Y-25122913D02*
X5582681Y-25132436D01*
X5582681Y-25132436D02*
X5592205Y-25122913D01*
X5592205Y-25122913D02*
X5582681Y-25113389D01*
X5582681Y-25113389D02*
X5582681Y-25132436D01*
X5706491Y-25313389D02*
X5687443Y-25303865D01*
X5687443Y-25303865D02*
X5677919Y-25284817D01*
X5677919Y-25284817D02*
X5677919Y-25113389D01*
X5811253Y-25313389D02*
X5792205Y-25303865D01*
X5792205Y-25303865D02*
X5782681Y-25284817D01*
X5782681Y-25284817D02*
X5782681Y-25113389D01*
X6039824Y-25313389D02*
X6039824Y-25113389D01*
X6039824Y-25113389D02*
X6106491Y-25256246D01*
X6106491Y-25256246D02*
X6173157Y-25113389D01*
X6173157Y-25113389D02*
X6173157Y-25313389D01*
X6354110Y-25313389D02*
X6354110Y-25208627D01*
X6354110Y-25208627D02*
X6344586Y-25189579D01*
X6344586Y-25189579D02*
X6325538Y-25180055D01*
X6325538Y-25180055D02*
X6287443Y-25180055D01*
X6287443Y-25180055D02*
X6268396Y-25189579D01*
X6354110Y-25303865D02*
X6335062Y-25313389D01*
X6335062Y-25313389D02*
X6287443Y-25313389D01*
X6287443Y-25313389D02*
X6268396Y-25303865D01*
X6268396Y-25303865D02*
X6258872Y-25284817D01*
X6258872Y-25284817D02*
X6258872Y-25265770D01*
X6258872Y-25265770D02*
X6268396Y-25246722D01*
X6268396Y-25246722D02*
X6287443Y-25237198D01*
X6287443Y-25237198D02*
X6335062Y-25237198D01*
X6335062Y-25237198D02*
X6354110Y-25227674D01*
X6449348Y-25180055D02*
X6449348Y-25380055D01*
X6449348Y-25189579D02*
X6468396Y-25180055D01*
X6468396Y-25180055D02*
X6506491Y-25180055D01*
X6506491Y-25180055D02*
X6525538Y-25189579D01*
X6525538Y-25189579D02*
X6535062Y-25199103D01*
X6535062Y-25199103D02*
X6544586Y-25218151D01*
X6544586Y-25218151D02*
X6544586Y-25275293D01*
X6544586Y-25275293D02*
X6535062Y-25294341D01*
X6535062Y-25294341D02*
X6525538Y-25303865D01*
X6525538Y-25303865D02*
X6506491Y-25313389D01*
X6506491Y-25313389D02*
X6468396Y-25313389D01*
X6468396Y-25313389D02*
X6449348Y-25303865D01*
X6630300Y-25294341D02*
X6639824Y-25303865D01*
X6639824Y-25303865D02*
X6630300Y-25313389D01*
X6630300Y-25313389D02*
X6620777Y-25303865D01*
X6620777Y-25303865D02*
X6630300Y-25294341D01*
X6630300Y-25294341D02*
X6630300Y-25313389D01*
X6630300Y-25189579D02*
X6639824Y-25199103D01*
X6639824Y-25199103D02*
X6630300Y-25208627D01*
X6630300Y-25208627D02*
X6620777Y-25199103D01*
X6620777Y-25199103D02*
X6630300Y-25189579D01*
X6630300Y-25189579D02*
X6630300Y-25208627D01*
D12*
X4959995Y-25622855D02*
X4998095Y-25660955D01*
X4998095Y-25622855D02*
X4959995Y-25660955D01*
D11*
X5296967Y-25533389D02*
X5316015Y-25533389D01*
X5316015Y-25533389D02*
X5335062Y-25542913D01*
X5335062Y-25542913D02*
X5344586Y-25552436D01*
X5344586Y-25552436D02*
X5354110Y-25571484D01*
X5354110Y-25571484D02*
X5363634Y-25609579D01*
X5363634Y-25609579D02*
X5363634Y-25657198D01*
X5363634Y-25657198D02*
X5354110Y-25695293D01*
X5354110Y-25695293D02*
X5344586Y-25714341D01*
X5344586Y-25714341D02*
X5335062Y-25723865D01*
X5335062Y-25723865D02*
X5316015Y-25733389D01*
X5316015Y-25733389D02*
X5296967Y-25733389D01*
X5296967Y-25733389D02*
X5277919Y-25723865D01*
X5277919Y-25723865D02*
X5268396Y-25714341D01*
X5268396Y-25714341D02*
X5258872Y-25695293D01*
X5258872Y-25695293D02*
X5249348Y-25657198D01*
X5249348Y-25657198D02*
X5249348Y-25609579D01*
X5249348Y-25609579D02*
X5258872Y-25571484D01*
X5258872Y-25571484D02*
X5268396Y-25552436D01*
X5268396Y-25552436D02*
X5277919Y-25542913D01*
X5277919Y-25542913D02*
X5296967Y-25533389D01*
X5449348Y-25714341D02*
X5458872Y-25723865D01*
X5458872Y-25723865D02*
X5449348Y-25733389D01*
X5449348Y-25733389D02*
X5439824Y-25723865D01*
X5439824Y-25723865D02*
X5449348Y-25714341D01*
X5449348Y-25714341D02*
X5449348Y-25733389D01*
X5525539Y-25533389D02*
X5649348Y-25533389D01*
X5649348Y-25533389D02*
X5582681Y-25609579D01*
X5582681Y-25609579D02*
X5611253Y-25609579D01*
X5611253Y-25609579D02*
X5630300Y-25619103D01*
X5630300Y-25619103D02*
X5639824Y-25628627D01*
X5639824Y-25628627D02*
X5649348Y-25647674D01*
X5649348Y-25647674D02*
X5649348Y-25695293D01*
X5649348Y-25695293D02*
X5639824Y-25714341D01*
X5639824Y-25714341D02*
X5630300Y-25723865D01*
X5630300Y-25723865D02*
X5611253Y-25733389D01*
X5611253Y-25733389D02*
X5554110Y-25733389D01*
X5554110Y-25733389D02*
X5535062Y-25723865D01*
X5535062Y-25723865D02*
X5525539Y-25714341D01*
X5763634Y-25619103D02*
X5744586Y-25609579D01*
X5744586Y-25609579D02*
X5735062Y-25600055D01*
X5735062Y-25600055D02*
X5725538Y-25581008D01*
X5725538Y-25581008D02*
X5725538Y-25571484D01*
X5725538Y-25571484D02*
X5735062Y-25552436D01*
X5735062Y-25552436D02*
X5744586Y-25542913D01*
X5744586Y-25542913D02*
X5763634Y-25533389D01*
X5763634Y-25533389D02*
X5801729Y-25533389D01*
X5801729Y-25533389D02*
X5820777Y-25542913D01*
X5820777Y-25542913D02*
X5830300Y-25552436D01*
X5830300Y-25552436D02*
X5839824Y-25571484D01*
X5839824Y-25571484D02*
X5839824Y-25581008D01*
X5839824Y-25581008D02*
X5830300Y-25600055D01*
X5830300Y-25600055D02*
X5820777Y-25609579D01*
X5820777Y-25609579D02*
X5801729Y-25619103D01*
X5801729Y-25619103D02*
X5763634Y-25619103D01*
X5763634Y-25619103D02*
X5744586Y-25628627D01*
X5744586Y-25628627D02*
X5735062Y-25638151D01*
X5735062Y-25638151D02*
X5725538Y-25657198D01*
X5725538Y-25657198D02*
X5725538Y-25695293D01*
X5725538Y-25695293D02*
X5735062Y-25714341D01*
X5735062Y-25714341D02*
X5744586Y-25723865D01*
X5744586Y-25723865D02*
X5763634Y-25733389D01*
X5763634Y-25733389D02*
X5801729Y-25733389D01*
X5801729Y-25733389D02*
X5820777Y-25723865D01*
X5820777Y-25723865D02*
X5830300Y-25714341D01*
X5830300Y-25714341D02*
X5839824Y-25695293D01*
X5839824Y-25695293D02*
X5839824Y-25657198D01*
X5839824Y-25657198D02*
X5830300Y-25638151D01*
X5830300Y-25638151D02*
X5820777Y-25628627D01*
X5820777Y-25628627D02*
X5801729Y-25619103D01*
X6030300Y-25733389D02*
X5916015Y-25733389D01*
X5973157Y-25733389D02*
X5973157Y-25533389D01*
X5973157Y-25533389D02*
X5954110Y-25561960D01*
X5954110Y-25561960D02*
X5935062Y-25581008D01*
X5935062Y-25581008D02*
X5916015Y-25590532D01*
X6116015Y-25733389D02*
X6116015Y-25600055D01*
X6116015Y-25619103D02*
X6125538Y-25609579D01*
X6125538Y-25609579D02*
X6144586Y-25600055D01*
X6144586Y-25600055D02*
X6173158Y-25600055D01*
X6173158Y-25600055D02*
X6192205Y-25609579D01*
X6192205Y-25609579D02*
X6201729Y-25628627D01*
X6201729Y-25628627D02*
X6201729Y-25733389D01*
X6201729Y-25628627D02*
X6211253Y-25609579D01*
X6211253Y-25609579D02*
X6230300Y-25600055D01*
X6230300Y-25600055D02*
X6258872Y-25600055D01*
X6258872Y-25600055D02*
X6277919Y-25609579D01*
X6277919Y-25609579D02*
X6287443Y-25628627D01*
X6287443Y-25628627D02*
X6287443Y-25733389D01*
X6382681Y-25733389D02*
X6382681Y-25600055D01*
X6382681Y-25619103D02*
X6392205Y-25609579D01*
X6392205Y-25609579D02*
X6411253Y-25600055D01*
X6411253Y-25600055D02*
X6439824Y-25600055D01*
X6439824Y-25600055D02*
X6458872Y-25609579D01*
X6458872Y-25609579D02*
X6468396Y-25628627D01*
X6468396Y-25628627D02*
X6468396Y-25733389D01*
X6468396Y-25628627D02*
X6477919Y-25609579D01*
X6477919Y-25609579D02*
X6496967Y-25600055D01*
X6496967Y-25600055D02*
X6525538Y-25600055D01*
X6525538Y-25600055D02*
X6544586Y-25609579D01*
X6544586Y-25609579D02*
X6554110Y-25628627D01*
X6554110Y-25628627D02*
X6554110Y-25733389D01*
X6944586Y-25523865D02*
X6773158Y-25781008D01*
X7201729Y-25533389D02*
X7220777Y-25533389D01*
X7220777Y-25533389D02*
X7239824Y-25542913D01*
X7239824Y-25542913D02*
X7249348Y-25552436D01*
X7249348Y-25552436D02*
X7258872Y-25571484D01*
X7258872Y-25571484D02*
X7268396Y-25609579D01*
X7268396Y-25609579D02*
X7268396Y-25657198D01*
X7268396Y-25657198D02*
X7258872Y-25695293D01*
X7258872Y-25695293D02*
X7249348Y-25714341D01*
X7249348Y-25714341D02*
X7239824Y-25723865D01*
X7239824Y-25723865D02*
X7220777Y-25733389D01*
X7220777Y-25733389D02*
X7201729Y-25733389D01*
X7201729Y-25733389D02*
X7182681Y-25723865D01*
X7182681Y-25723865D02*
X7173158Y-25714341D01*
X7173158Y-25714341D02*
X7163634Y-25695293D01*
X7163634Y-25695293D02*
X7154110Y-25657198D01*
X7154110Y-25657198D02*
X7154110Y-25609579D01*
X7154110Y-25609579D02*
X7163634Y-25571484D01*
X7163634Y-25571484D02*
X7173158Y-25552436D01*
X7173158Y-25552436D02*
X7182681Y-25542913D01*
X7182681Y-25542913D02*
X7201729Y-25533389D01*
X7354110Y-25714341D02*
X7363634Y-25723865D01*
X7363634Y-25723865D02*
X7354110Y-25733389D01*
X7354110Y-25733389D02*
X7344586Y-25723865D01*
X7344586Y-25723865D02*
X7354110Y-25714341D01*
X7354110Y-25714341D02*
X7354110Y-25733389D01*
X7487443Y-25533389D02*
X7506491Y-25533389D01*
X7506491Y-25533389D02*
X7525539Y-25542913D01*
X7525539Y-25542913D02*
X7535062Y-25552436D01*
X7535062Y-25552436D02*
X7544586Y-25571484D01*
X7544586Y-25571484D02*
X7554110Y-25609579D01*
X7554110Y-25609579D02*
X7554110Y-25657198D01*
X7554110Y-25657198D02*
X7544586Y-25695293D01*
X7544586Y-25695293D02*
X7535062Y-25714341D01*
X7535062Y-25714341D02*
X7525539Y-25723865D01*
X7525539Y-25723865D02*
X7506491Y-25733389D01*
X7506491Y-25733389D02*
X7487443Y-25733389D01*
X7487443Y-25733389D02*
X7468396Y-25723865D01*
X7468396Y-25723865D02*
X7458872Y-25714341D01*
X7458872Y-25714341D02*
X7449348Y-25695293D01*
X7449348Y-25695293D02*
X7439824Y-25657198D01*
X7439824Y-25657198D02*
X7439824Y-25609579D01*
X7439824Y-25609579D02*
X7449348Y-25571484D01*
X7449348Y-25571484D02*
X7458872Y-25552436D01*
X7458872Y-25552436D02*
X7468396Y-25542913D01*
X7468396Y-25542913D02*
X7487443Y-25533389D01*
X7744586Y-25733389D02*
X7630301Y-25733389D01*
X7687443Y-25733389D02*
X7687443Y-25533389D01*
X7687443Y-25533389D02*
X7668396Y-25561960D01*
X7668396Y-25561960D02*
X7649348Y-25581008D01*
X7649348Y-25581008D02*
X7630301Y-25590532D01*
X7925539Y-25533389D02*
X7830301Y-25533389D01*
X7830301Y-25533389D02*
X7820777Y-25628627D01*
X7820777Y-25628627D02*
X7830301Y-25619103D01*
X7830301Y-25619103D02*
X7849348Y-25609579D01*
X7849348Y-25609579D02*
X7896967Y-25609579D01*
X7896967Y-25609579D02*
X7916015Y-25619103D01*
X7916015Y-25619103D02*
X7925539Y-25628627D01*
X7925539Y-25628627D02*
X7935062Y-25647674D01*
X7935062Y-25647674D02*
X7935062Y-25695293D01*
X7935062Y-25695293D02*
X7925539Y-25714341D01*
X7925539Y-25714341D02*
X7916015Y-25723865D01*
X7916015Y-25723865D02*
X7896967Y-25733389D01*
X7896967Y-25733389D02*
X7849348Y-25733389D01*
X7849348Y-25733389D02*
X7830301Y-25723865D01*
X7830301Y-25723865D02*
X7820777Y-25714341D01*
X8058872Y-25533389D02*
X8077920Y-25533389D01*
X8077920Y-25533389D02*
X8096967Y-25542913D01*
X8096967Y-25542913D02*
X8106491Y-25552436D01*
X8106491Y-25552436D02*
X8116015Y-25571484D01*
X8116015Y-25571484D02*
X8125539Y-25609579D01*
X8125539Y-25609579D02*
X8125539Y-25657198D01*
X8125539Y-25657198D02*
X8116015Y-25695293D01*
X8116015Y-25695293D02*
X8106491Y-25714341D01*
X8106491Y-25714341D02*
X8096967Y-25723865D01*
X8096967Y-25723865D02*
X8077920Y-25733389D01*
X8077920Y-25733389D02*
X8058872Y-25733389D01*
X8058872Y-25733389D02*
X8039824Y-25723865D01*
X8039824Y-25723865D02*
X8030301Y-25714341D01*
X8030301Y-25714341D02*
X8020777Y-25695293D01*
X8020777Y-25695293D02*
X8011253Y-25657198D01*
X8011253Y-25657198D02*
X8011253Y-25609579D01*
X8011253Y-25609579D02*
X8020777Y-25571484D01*
X8020777Y-25571484D02*
X8030301Y-25552436D01*
X8030301Y-25552436D02*
X8039824Y-25542913D01*
X8039824Y-25542913D02*
X8058872Y-25533389D01*
X8201729Y-25533389D02*
X8201729Y-25571484D01*
X8277920Y-25533389D02*
X8277920Y-25571484D01*
X8573158Y-25809579D02*
X8563634Y-25800055D01*
X8563634Y-25800055D02*
X8544586Y-25771484D01*
X8544586Y-25771484D02*
X8535063Y-25752436D01*
X8535063Y-25752436D02*
X8525539Y-25723865D01*
X8525539Y-25723865D02*
X8516015Y-25676246D01*
X8516015Y-25676246D02*
X8516015Y-25638151D01*
X8516015Y-25638151D02*
X8525539Y-25590532D01*
X8525539Y-25590532D02*
X8535063Y-25561960D01*
X8535063Y-25561960D02*
X8544586Y-25542913D01*
X8544586Y-25542913D02*
X8563634Y-25514341D01*
X8563634Y-25514341D02*
X8573158Y-25504817D01*
X8630301Y-25533389D02*
X8754110Y-25533389D01*
X8754110Y-25533389D02*
X8687444Y-25609579D01*
X8687444Y-25609579D02*
X8716015Y-25609579D01*
X8716015Y-25609579D02*
X8735063Y-25619103D01*
X8735063Y-25619103D02*
X8744586Y-25628627D01*
X8744586Y-25628627D02*
X8754110Y-25647674D01*
X8754110Y-25647674D02*
X8754110Y-25695293D01*
X8754110Y-25695293D02*
X8744586Y-25714341D01*
X8744586Y-25714341D02*
X8735063Y-25723865D01*
X8735063Y-25723865D02*
X8716015Y-25733389D01*
X8716015Y-25733389D02*
X8658872Y-25733389D01*
X8658872Y-25733389D02*
X8639825Y-25723865D01*
X8639825Y-25723865D02*
X8630301Y-25714341D01*
X8877920Y-25533389D02*
X8896967Y-25533389D01*
X8896967Y-25533389D02*
X8916015Y-25542913D01*
X8916015Y-25542913D02*
X8925539Y-25552436D01*
X8925539Y-25552436D02*
X8935063Y-25571484D01*
X8935063Y-25571484D02*
X8944586Y-25609579D01*
X8944586Y-25609579D02*
X8944586Y-25657198D01*
X8944586Y-25657198D02*
X8935063Y-25695293D01*
X8935063Y-25695293D02*
X8925539Y-25714341D01*
X8925539Y-25714341D02*
X8916015Y-25723865D01*
X8916015Y-25723865D02*
X8896967Y-25733389D01*
X8896967Y-25733389D02*
X8877920Y-25733389D01*
X8877920Y-25733389D02*
X8858872Y-25723865D01*
X8858872Y-25723865D02*
X8849348Y-25714341D01*
X8849348Y-25714341D02*
X8839825Y-25695293D01*
X8839825Y-25695293D02*
X8830301Y-25657198D01*
X8830301Y-25657198D02*
X8830301Y-25609579D01*
X8830301Y-25609579D02*
X8839825Y-25571484D01*
X8839825Y-25571484D02*
X8849348Y-25552436D01*
X8849348Y-25552436D02*
X8858872Y-25542913D01*
X8858872Y-25542913D02*
X8877920Y-25533389D01*
X9182682Y-25733389D02*
X9182682Y-25533389D01*
X9268396Y-25733389D02*
X9268396Y-25628627D01*
X9268396Y-25628627D02*
X9258872Y-25609579D01*
X9258872Y-25609579D02*
X9239825Y-25600055D01*
X9239825Y-25600055D02*
X9211253Y-25600055D01*
X9211253Y-25600055D02*
X9192206Y-25609579D01*
X9192206Y-25609579D02*
X9182682Y-25619103D01*
X9392206Y-25733389D02*
X9373158Y-25723865D01*
X9373158Y-25723865D02*
X9363634Y-25714341D01*
X9363634Y-25714341D02*
X9354110Y-25695293D01*
X9354110Y-25695293D02*
X9354110Y-25638151D01*
X9354110Y-25638151D02*
X9363634Y-25619103D01*
X9363634Y-25619103D02*
X9373158Y-25609579D01*
X9373158Y-25609579D02*
X9392206Y-25600055D01*
X9392206Y-25600055D02*
X9420777Y-25600055D01*
X9420777Y-25600055D02*
X9439825Y-25609579D01*
X9439825Y-25609579D02*
X9449348Y-25619103D01*
X9449348Y-25619103D02*
X9458872Y-25638151D01*
X9458872Y-25638151D02*
X9458872Y-25695293D01*
X9458872Y-25695293D02*
X9449348Y-25714341D01*
X9449348Y-25714341D02*
X9439825Y-25723865D01*
X9439825Y-25723865D02*
X9420777Y-25733389D01*
X9420777Y-25733389D02*
X9392206Y-25733389D01*
X9573158Y-25733389D02*
X9554110Y-25723865D01*
X9554110Y-25723865D02*
X9544587Y-25704817D01*
X9544587Y-25704817D02*
X9544587Y-25533389D01*
X9725539Y-25723865D02*
X9706491Y-25733389D01*
X9706491Y-25733389D02*
X9668396Y-25733389D01*
X9668396Y-25733389D02*
X9649348Y-25723865D01*
X9649348Y-25723865D02*
X9639825Y-25704817D01*
X9639825Y-25704817D02*
X9639825Y-25628627D01*
X9639825Y-25628627D02*
X9649348Y-25609579D01*
X9649348Y-25609579D02*
X9668396Y-25600055D01*
X9668396Y-25600055D02*
X9706491Y-25600055D01*
X9706491Y-25600055D02*
X9725539Y-25609579D01*
X9725539Y-25609579D02*
X9735063Y-25628627D01*
X9735063Y-25628627D02*
X9735063Y-25647674D01*
X9735063Y-25647674D02*
X9639825Y-25666722D01*
X9811253Y-25723865D02*
X9830301Y-25733389D01*
X9830301Y-25733389D02*
X9868396Y-25733389D01*
X9868396Y-25733389D02*
X9887444Y-25723865D01*
X9887444Y-25723865D02*
X9896968Y-25704817D01*
X9896968Y-25704817D02*
X9896968Y-25695293D01*
X9896968Y-25695293D02*
X9887444Y-25676246D01*
X9887444Y-25676246D02*
X9868396Y-25666722D01*
X9868396Y-25666722D02*
X9839825Y-25666722D01*
X9839825Y-25666722D02*
X9820777Y-25657198D01*
X9820777Y-25657198D02*
X9811253Y-25638151D01*
X9811253Y-25638151D02*
X9811253Y-25628627D01*
X9811253Y-25628627D02*
X9820777Y-25609579D01*
X9820777Y-25609579D02*
X9839825Y-25600055D01*
X9839825Y-25600055D02*
X9868396Y-25600055D01*
X9868396Y-25600055D02*
X9887444Y-25609579D01*
X9963634Y-25809579D02*
X9973158Y-25800055D01*
X9973158Y-25800055D02*
X9992206Y-25771484D01*
X9992206Y-25771484D02*
X10001729Y-25752436D01*
X10001729Y-25752436D02*
X10011253Y-25723865D01*
X10011253Y-25723865D02*
X10020777Y-25676246D01*
X10020777Y-25676246D02*
X10020777Y-25638151D01*
X10020777Y-25638151D02*
X10011253Y-25590532D01*
X10011253Y-25590532D02*
X10001729Y-25561960D01*
X10001729Y-25561960D02*
X9992206Y-25542913D01*
X9992206Y-25542913D02*
X9973158Y-25514341D01*
X9973158Y-25514341D02*
X9963634Y-25504817D01*
D12*
X4998095Y-25905905D02*
G75*
G02*
X4930095Y-25905905I-34000J0D01*
G01*
X4930095Y-25905905D02*
G75*
G02*
X4998095Y-25905905I34000J0D01*
G01*
D11*
X5296967Y-25797389D02*
X5316015Y-25797389D01*
X5316015Y-25797389D02*
X5335062Y-25806913D01*
X5335062Y-25806913D02*
X5344586Y-25816436D01*
X5344586Y-25816436D02*
X5354110Y-25835484D01*
X5354110Y-25835484D02*
X5363634Y-25873579D01*
X5363634Y-25873579D02*
X5363634Y-25921198D01*
X5363634Y-25921198D02*
X5354110Y-25959293D01*
X5354110Y-25959293D02*
X5344586Y-25978341D01*
X5344586Y-25978341D02*
X5335062Y-25987865D01*
X5335062Y-25987865D02*
X5316015Y-25997389D01*
X5316015Y-25997389D02*
X5296967Y-25997389D01*
X5296967Y-25997389D02*
X5277919Y-25987865D01*
X5277919Y-25987865D02*
X5268396Y-25978341D01*
X5268396Y-25978341D02*
X5258872Y-25959293D01*
X5258872Y-25959293D02*
X5249348Y-25921198D01*
X5249348Y-25921198D02*
X5249348Y-25873579D01*
X5249348Y-25873579D02*
X5258872Y-25835484D01*
X5258872Y-25835484D02*
X5268396Y-25816436D01*
X5268396Y-25816436D02*
X5277919Y-25806913D01*
X5277919Y-25806913D02*
X5296967Y-25797389D01*
X5449348Y-25978341D02*
X5458872Y-25987865D01*
X5458872Y-25987865D02*
X5449348Y-25997389D01*
X5449348Y-25997389D02*
X5439824Y-25987865D01*
X5439824Y-25987865D02*
X5449348Y-25978341D01*
X5449348Y-25978341D02*
X5449348Y-25997389D01*
X5630300Y-25797389D02*
X5592205Y-25797389D01*
X5592205Y-25797389D02*
X5573158Y-25806913D01*
X5573158Y-25806913D02*
X5563634Y-25816436D01*
X5563634Y-25816436D02*
X5544586Y-25845008D01*
X5544586Y-25845008D02*
X5535062Y-25883103D01*
X5535062Y-25883103D02*
X5535062Y-25959293D01*
X5535062Y-25959293D02*
X5544586Y-25978341D01*
X5544586Y-25978341D02*
X5554110Y-25987865D01*
X5554110Y-25987865D02*
X5573158Y-25997389D01*
X5573158Y-25997389D02*
X5611253Y-25997389D01*
X5611253Y-25997389D02*
X5630300Y-25987865D01*
X5630300Y-25987865D02*
X5639824Y-25978341D01*
X5639824Y-25978341D02*
X5649348Y-25959293D01*
X5649348Y-25959293D02*
X5649348Y-25911674D01*
X5649348Y-25911674D02*
X5639824Y-25892627D01*
X5639824Y-25892627D02*
X5630300Y-25883103D01*
X5630300Y-25883103D02*
X5611253Y-25873579D01*
X5611253Y-25873579D02*
X5573158Y-25873579D01*
X5573158Y-25873579D02*
X5554110Y-25883103D01*
X5554110Y-25883103D02*
X5544586Y-25892627D01*
X5544586Y-25892627D02*
X5535062Y-25911674D01*
X5763634Y-25883103D02*
X5744586Y-25873579D01*
X5744586Y-25873579D02*
X5735062Y-25864055D01*
X5735062Y-25864055D02*
X5725538Y-25845008D01*
X5725538Y-25845008D02*
X5725538Y-25835484D01*
X5725538Y-25835484D02*
X5735062Y-25816436D01*
X5735062Y-25816436D02*
X5744586Y-25806913D01*
X5744586Y-25806913D02*
X5763634Y-25797389D01*
X5763634Y-25797389D02*
X5801729Y-25797389D01*
X5801729Y-25797389D02*
X5820777Y-25806913D01*
X5820777Y-25806913D02*
X5830300Y-25816436D01*
X5830300Y-25816436D02*
X5839824Y-25835484D01*
X5839824Y-25835484D02*
X5839824Y-25845008D01*
X5839824Y-25845008D02*
X5830300Y-25864055D01*
X5830300Y-25864055D02*
X5820777Y-25873579D01*
X5820777Y-25873579D02*
X5801729Y-25883103D01*
X5801729Y-25883103D02*
X5763634Y-25883103D01*
X5763634Y-25883103D02*
X5744586Y-25892627D01*
X5744586Y-25892627D02*
X5735062Y-25902151D01*
X5735062Y-25902151D02*
X5725538Y-25921198D01*
X5725538Y-25921198D02*
X5725538Y-25959293D01*
X5725538Y-25959293D02*
X5735062Y-25978341D01*
X5735062Y-25978341D02*
X5744586Y-25987865D01*
X5744586Y-25987865D02*
X5763634Y-25997389D01*
X5763634Y-25997389D02*
X5801729Y-25997389D01*
X5801729Y-25997389D02*
X5820777Y-25987865D01*
X5820777Y-25987865D02*
X5830300Y-25978341D01*
X5830300Y-25978341D02*
X5839824Y-25959293D01*
X5839824Y-25959293D02*
X5839824Y-25921198D01*
X5839824Y-25921198D02*
X5830300Y-25902151D01*
X5830300Y-25902151D02*
X5820777Y-25892627D01*
X5820777Y-25892627D02*
X5801729Y-25883103D01*
X5963634Y-25797389D02*
X5982681Y-25797389D01*
X5982681Y-25797389D02*
X6001729Y-25806913D01*
X6001729Y-25806913D02*
X6011253Y-25816436D01*
X6011253Y-25816436D02*
X6020777Y-25835484D01*
X6020777Y-25835484D02*
X6030300Y-25873579D01*
X6030300Y-25873579D02*
X6030300Y-25921198D01*
X6030300Y-25921198D02*
X6020777Y-25959293D01*
X6020777Y-25959293D02*
X6011253Y-25978341D01*
X6011253Y-25978341D02*
X6001729Y-25987865D01*
X6001729Y-25987865D02*
X5982681Y-25997389D01*
X5982681Y-25997389D02*
X5963634Y-25997389D01*
X5963634Y-25997389D02*
X5944586Y-25987865D01*
X5944586Y-25987865D02*
X5935062Y-25978341D01*
X5935062Y-25978341D02*
X5925538Y-25959293D01*
X5925538Y-25959293D02*
X5916015Y-25921198D01*
X5916015Y-25921198D02*
X5916015Y-25873579D01*
X5916015Y-25873579D02*
X5925538Y-25835484D01*
X5925538Y-25835484D02*
X5935062Y-25816436D01*
X5935062Y-25816436D02*
X5944586Y-25806913D01*
X5944586Y-25806913D02*
X5963634Y-25797389D01*
X6116015Y-25997389D02*
X6116015Y-25864055D01*
X6116015Y-25883103D02*
X6125538Y-25873579D01*
X6125538Y-25873579D02*
X6144586Y-25864055D01*
X6144586Y-25864055D02*
X6173158Y-25864055D01*
X6173158Y-25864055D02*
X6192205Y-25873579D01*
X6192205Y-25873579D02*
X6201729Y-25892627D01*
X6201729Y-25892627D02*
X6201729Y-25997389D01*
X6201729Y-25892627D02*
X6211253Y-25873579D01*
X6211253Y-25873579D02*
X6230300Y-25864055D01*
X6230300Y-25864055D02*
X6258872Y-25864055D01*
X6258872Y-25864055D02*
X6277919Y-25873579D01*
X6277919Y-25873579D02*
X6287443Y-25892627D01*
X6287443Y-25892627D02*
X6287443Y-25997389D01*
X6382681Y-25997389D02*
X6382681Y-25864055D01*
X6382681Y-25883103D02*
X6392205Y-25873579D01*
X6392205Y-25873579D02*
X6411253Y-25864055D01*
X6411253Y-25864055D02*
X6439824Y-25864055D01*
X6439824Y-25864055D02*
X6458872Y-25873579D01*
X6458872Y-25873579D02*
X6468396Y-25892627D01*
X6468396Y-25892627D02*
X6468396Y-25997389D01*
X6468396Y-25892627D02*
X6477919Y-25873579D01*
X6477919Y-25873579D02*
X6496967Y-25864055D01*
X6496967Y-25864055D02*
X6525538Y-25864055D01*
X6525538Y-25864055D02*
X6544586Y-25873579D01*
X6544586Y-25873579D02*
X6554110Y-25892627D01*
X6554110Y-25892627D02*
X6554110Y-25997389D01*
X6944586Y-25787865D02*
X6773158Y-26045008D01*
X7201729Y-25797389D02*
X7220777Y-25797389D01*
X7220777Y-25797389D02*
X7239824Y-25806913D01*
X7239824Y-25806913D02*
X7249348Y-25816436D01*
X7249348Y-25816436D02*
X7258872Y-25835484D01*
X7258872Y-25835484D02*
X7268396Y-25873579D01*
X7268396Y-25873579D02*
X7268396Y-25921198D01*
X7268396Y-25921198D02*
X7258872Y-25959293D01*
X7258872Y-25959293D02*
X7249348Y-25978341D01*
X7249348Y-25978341D02*
X7239824Y-25987865D01*
X7239824Y-25987865D02*
X7220777Y-25997389D01*
X7220777Y-25997389D02*
X7201729Y-25997389D01*
X7201729Y-25997389D02*
X7182681Y-25987865D01*
X7182681Y-25987865D02*
X7173158Y-25978341D01*
X7173158Y-25978341D02*
X7163634Y-25959293D01*
X7163634Y-25959293D02*
X7154110Y-25921198D01*
X7154110Y-25921198D02*
X7154110Y-25873579D01*
X7154110Y-25873579D02*
X7163634Y-25835484D01*
X7163634Y-25835484D02*
X7173158Y-25816436D01*
X7173158Y-25816436D02*
X7182681Y-25806913D01*
X7182681Y-25806913D02*
X7201729Y-25797389D01*
X7354110Y-25978341D02*
X7363634Y-25987865D01*
X7363634Y-25987865D02*
X7354110Y-25997389D01*
X7354110Y-25997389D02*
X7344586Y-25987865D01*
X7344586Y-25987865D02*
X7354110Y-25978341D01*
X7354110Y-25978341D02*
X7354110Y-25997389D01*
X7487443Y-25797389D02*
X7506491Y-25797389D01*
X7506491Y-25797389D02*
X7525539Y-25806913D01*
X7525539Y-25806913D02*
X7535062Y-25816436D01*
X7535062Y-25816436D02*
X7544586Y-25835484D01*
X7544586Y-25835484D02*
X7554110Y-25873579D01*
X7554110Y-25873579D02*
X7554110Y-25921198D01*
X7554110Y-25921198D02*
X7544586Y-25959293D01*
X7544586Y-25959293D02*
X7535062Y-25978341D01*
X7535062Y-25978341D02*
X7525539Y-25987865D01*
X7525539Y-25987865D02*
X7506491Y-25997389D01*
X7506491Y-25997389D02*
X7487443Y-25997389D01*
X7487443Y-25997389D02*
X7468396Y-25987865D01*
X7468396Y-25987865D02*
X7458872Y-25978341D01*
X7458872Y-25978341D02*
X7449348Y-25959293D01*
X7449348Y-25959293D02*
X7439824Y-25921198D01*
X7439824Y-25921198D02*
X7439824Y-25873579D01*
X7439824Y-25873579D02*
X7449348Y-25835484D01*
X7449348Y-25835484D02*
X7458872Y-25816436D01*
X7458872Y-25816436D02*
X7468396Y-25806913D01*
X7468396Y-25806913D02*
X7487443Y-25797389D01*
X7630301Y-25816436D02*
X7639824Y-25806913D01*
X7639824Y-25806913D02*
X7658872Y-25797389D01*
X7658872Y-25797389D02*
X7706491Y-25797389D01*
X7706491Y-25797389D02*
X7725539Y-25806913D01*
X7725539Y-25806913D02*
X7735062Y-25816436D01*
X7735062Y-25816436D02*
X7744586Y-25835484D01*
X7744586Y-25835484D02*
X7744586Y-25854532D01*
X7744586Y-25854532D02*
X7735062Y-25883103D01*
X7735062Y-25883103D02*
X7620777Y-25997389D01*
X7620777Y-25997389D02*
X7744586Y-25997389D01*
X7916015Y-25797389D02*
X7877920Y-25797389D01*
X7877920Y-25797389D02*
X7858872Y-25806913D01*
X7858872Y-25806913D02*
X7849348Y-25816436D01*
X7849348Y-25816436D02*
X7830301Y-25845008D01*
X7830301Y-25845008D02*
X7820777Y-25883103D01*
X7820777Y-25883103D02*
X7820777Y-25959293D01*
X7820777Y-25959293D02*
X7830301Y-25978341D01*
X7830301Y-25978341D02*
X7839824Y-25987865D01*
X7839824Y-25987865D02*
X7858872Y-25997389D01*
X7858872Y-25997389D02*
X7896967Y-25997389D01*
X7896967Y-25997389D02*
X7916015Y-25987865D01*
X7916015Y-25987865D02*
X7925539Y-25978341D01*
X7925539Y-25978341D02*
X7935062Y-25959293D01*
X7935062Y-25959293D02*
X7935062Y-25911674D01*
X7935062Y-25911674D02*
X7925539Y-25892627D01*
X7925539Y-25892627D02*
X7916015Y-25883103D01*
X7916015Y-25883103D02*
X7896967Y-25873579D01*
X7896967Y-25873579D02*
X7858872Y-25873579D01*
X7858872Y-25873579D02*
X7839824Y-25883103D01*
X7839824Y-25883103D02*
X7830301Y-25892627D01*
X7830301Y-25892627D02*
X7820777Y-25911674D01*
X8049348Y-25883103D02*
X8030301Y-25873579D01*
X8030301Y-25873579D02*
X8020777Y-25864055D01*
X8020777Y-25864055D02*
X8011253Y-25845008D01*
X8011253Y-25845008D02*
X8011253Y-25835484D01*
X8011253Y-25835484D02*
X8020777Y-25816436D01*
X8020777Y-25816436D02*
X8030301Y-25806913D01*
X8030301Y-25806913D02*
X8049348Y-25797389D01*
X8049348Y-25797389D02*
X8087443Y-25797389D01*
X8087443Y-25797389D02*
X8106491Y-25806913D01*
X8106491Y-25806913D02*
X8116015Y-25816436D01*
X8116015Y-25816436D02*
X8125539Y-25835484D01*
X8125539Y-25835484D02*
X8125539Y-25845008D01*
X8125539Y-25845008D02*
X8116015Y-25864055D01*
X8116015Y-25864055D02*
X8106491Y-25873579D01*
X8106491Y-25873579D02*
X8087443Y-25883103D01*
X8087443Y-25883103D02*
X8049348Y-25883103D01*
X8049348Y-25883103D02*
X8030301Y-25892627D01*
X8030301Y-25892627D02*
X8020777Y-25902151D01*
X8020777Y-25902151D02*
X8011253Y-25921198D01*
X8011253Y-25921198D02*
X8011253Y-25959293D01*
X8011253Y-25959293D02*
X8020777Y-25978341D01*
X8020777Y-25978341D02*
X8030301Y-25987865D01*
X8030301Y-25987865D02*
X8049348Y-25997389D01*
X8049348Y-25997389D02*
X8087443Y-25997389D01*
X8087443Y-25997389D02*
X8106491Y-25987865D01*
X8106491Y-25987865D02*
X8116015Y-25978341D01*
X8116015Y-25978341D02*
X8125539Y-25959293D01*
X8125539Y-25959293D02*
X8125539Y-25921198D01*
X8125539Y-25921198D02*
X8116015Y-25902151D01*
X8116015Y-25902151D02*
X8106491Y-25892627D01*
X8106491Y-25892627D02*
X8087443Y-25883103D01*
X8201729Y-25797389D02*
X8201729Y-25835484D01*
X8277920Y-25797389D02*
X8277920Y-25835484D01*
X8573158Y-26073579D02*
X8563634Y-26064055D01*
X8563634Y-26064055D02*
X8544586Y-26035484D01*
X8544586Y-26035484D02*
X8535063Y-26016436D01*
X8535063Y-26016436D02*
X8525539Y-25987865D01*
X8525539Y-25987865D02*
X8516015Y-25940246D01*
X8516015Y-25940246D02*
X8516015Y-25902151D01*
X8516015Y-25902151D02*
X8525539Y-25854532D01*
X8525539Y-25854532D02*
X8535063Y-25825960D01*
X8535063Y-25825960D02*
X8544586Y-25806913D01*
X8544586Y-25806913D02*
X8563634Y-25778341D01*
X8563634Y-25778341D02*
X8573158Y-25768817D01*
X8754110Y-25997389D02*
X8639825Y-25997389D01*
X8696967Y-25997389D02*
X8696967Y-25797389D01*
X8696967Y-25797389D02*
X8677920Y-25825960D01*
X8677920Y-25825960D02*
X8658872Y-25845008D01*
X8658872Y-25845008D02*
X8639825Y-25854532D01*
X8849348Y-25997389D02*
X8887444Y-25997389D01*
X8887444Y-25997389D02*
X8906491Y-25987865D01*
X8906491Y-25987865D02*
X8916015Y-25978341D01*
X8916015Y-25978341D02*
X8935063Y-25949770D01*
X8935063Y-25949770D02*
X8944586Y-25911674D01*
X8944586Y-25911674D02*
X8944586Y-25835484D01*
X8944586Y-25835484D02*
X8935063Y-25816436D01*
X8935063Y-25816436D02*
X8925539Y-25806913D01*
X8925539Y-25806913D02*
X8906491Y-25797389D01*
X8906491Y-25797389D02*
X8868396Y-25797389D01*
X8868396Y-25797389D02*
X8849348Y-25806913D01*
X8849348Y-25806913D02*
X8839825Y-25816436D01*
X8839825Y-25816436D02*
X8830301Y-25835484D01*
X8830301Y-25835484D02*
X8830301Y-25883103D01*
X8830301Y-25883103D02*
X8839825Y-25902151D01*
X8839825Y-25902151D02*
X8849348Y-25911674D01*
X8849348Y-25911674D02*
X8868396Y-25921198D01*
X8868396Y-25921198D02*
X8906491Y-25921198D01*
X8906491Y-25921198D02*
X8925539Y-25911674D01*
X8925539Y-25911674D02*
X8935063Y-25902151D01*
X8935063Y-25902151D02*
X8944586Y-25883103D01*
X9020777Y-25816436D02*
X9030301Y-25806913D01*
X9030301Y-25806913D02*
X9049348Y-25797389D01*
X9049348Y-25797389D02*
X9096967Y-25797389D01*
X9096967Y-25797389D02*
X9116015Y-25806913D01*
X9116015Y-25806913D02*
X9125539Y-25816436D01*
X9125539Y-25816436D02*
X9135063Y-25835484D01*
X9135063Y-25835484D02*
X9135063Y-25854532D01*
X9135063Y-25854532D02*
X9125539Y-25883103D01*
X9125539Y-25883103D02*
X9011253Y-25997389D01*
X9011253Y-25997389D02*
X9135063Y-25997389D01*
X9373158Y-25997389D02*
X9373158Y-25797389D01*
X9458872Y-25997389D02*
X9458872Y-25892627D01*
X9458872Y-25892627D02*
X9449348Y-25873579D01*
X9449348Y-25873579D02*
X9430301Y-25864055D01*
X9430301Y-25864055D02*
X9401729Y-25864055D01*
X9401729Y-25864055D02*
X9382682Y-25873579D01*
X9382682Y-25873579D02*
X9373158Y-25883103D01*
X9582682Y-25997389D02*
X9563634Y-25987865D01*
X9563634Y-25987865D02*
X9554110Y-25978341D01*
X9554110Y-25978341D02*
X9544587Y-25959293D01*
X9544587Y-25959293D02*
X9544587Y-25902151D01*
X9544587Y-25902151D02*
X9554110Y-25883103D01*
X9554110Y-25883103D02*
X9563634Y-25873579D01*
X9563634Y-25873579D02*
X9582682Y-25864055D01*
X9582682Y-25864055D02*
X9611253Y-25864055D01*
X9611253Y-25864055D02*
X9630301Y-25873579D01*
X9630301Y-25873579D02*
X9639825Y-25883103D01*
X9639825Y-25883103D02*
X9649348Y-25902151D01*
X9649348Y-25902151D02*
X9649348Y-25959293D01*
X9649348Y-25959293D02*
X9639825Y-25978341D01*
X9639825Y-25978341D02*
X9630301Y-25987865D01*
X9630301Y-25987865D02*
X9611253Y-25997389D01*
X9611253Y-25997389D02*
X9582682Y-25997389D01*
X9763634Y-25997389D02*
X9744587Y-25987865D01*
X9744587Y-25987865D02*
X9735063Y-25968817D01*
X9735063Y-25968817D02*
X9735063Y-25797389D01*
X9916015Y-25987865D02*
X9896968Y-25997389D01*
X9896968Y-25997389D02*
X9858872Y-25997389D01*
X9858872Y-25997389D02*
X9839825Y-25987865D01*
X9839825Y-25987865D02*
X9830301Y-25968817D01*
X9830301Y-25968817D02*
X9830301Y-25892627D01*
X9830301Y-25892627D02*
X9839825Y-25873579D01*
X9839825Y-25873579D02*
X9858872Y-25864055D01*
X9858872Y-25864055D02*
X9896968Y-25864055D01*
X9896968Y-25864055D02*
X9916015Y-25873579D01*
X9916015Y-25873579D02*
X9925539Y-25892627D01*
X9925539Y-25892627D02*
X9925539Y-25911674D01*
X9925539Y-25911674D02*
X9830301Y-25930722D01*
X10001729Y-25987865D02*
X10020777Y-25997389D01*
X10020777Y-25997389D02*
X10058872Y-25997389D01*
X10058872Y-25997389D02*
X10077920Y-25987865D01*
X10077920Y-25987865D02*
X10087444Y-25968817D01*
X10087444Y-25968817D02*
X10087444Y-25959293D01*
X10087444Y-25959293D02*
X10077920Y-25940246D01*
X10077920Y-25940246D02*
X10058872Y-25930722D01*
X10058872Y-25930722D02*
X10030301Y-25930722D01*
X10030301Y-25930722D02*
X10011253Y-25921198D01*
X10011253Y-25921198D02*
X10001729Y-25902151D01*
X10001729Y-25902151D02*
X10001729Y-25892627D01*
X10001729Y-25892627D02*
X10011253Y-25873579D01*
X10011253Y-25873579D02*
X10030301Y-25864055D01*
X10030301Y-25864055D02*
X10058872Y-25864055D01*
X10058872Y-25864055D02*
X10077920Y-25873579D01*
X10154110Y-26073579D02*
X10163634Y-26064055D01*
X10163634Y-26064055D02*
X10182682Y-26035484D01*
X10182682Y-26035484D02*
X10192206Y-26016436D01*
X10192206Y-26016436D02*
X10201729Y-25987865D01*
X10201729Y-25987865D02*
X10211253Y-25940246D01*
X10211253Y-25940246D02*
X10211253Y-25902151D01*
X10211253Y-25902151D02*
X10201729Y-25854532D01*
X10201729Y-25854532D02*
X10192206Y-25825960D01*
X10192206Y-25825960D02*
X10182682Y-25806913D01*
X10182682Y-25806913D02*
X10163634Y-25778341D01*
X10163634Y-25778341D02*
X10154110Y-25768817D01*
D12*
X4959995Y-26131805D02*
X4959995Y-26208005D01*
X4921895Y-26169905D02*
X4998095Y-26169905D01*
D11*
X5296967Y-26061389D02*
X5316015Y-26061389D01*
X5316015Y-26061389D02*
X5335062Y-26070913D01*
X5335062Y-26070913D02*
X5344586Y-26080436D01*
X5344586Y-26080436D02*
X5354110Y-26099484D01*
X5354110Y-26099484D02*
X5363634Y-26137579D01*
X5363634Y-26137579D02*
X5363634Y-26185198D01*
X5363634Y-26185198D02*
X5354110Y-26223293D01*
X5354110Y-26223293D02*
X5344586Y-26242341D01*
X5344586Y-26242341D02*
X5335062Y-26251865D01*
X5335062Y-26251865D02*
X5316015Y-26261389D01*
X5316015Y-26261389D02*
X5296967Y-26261389D01*
X5296967Y-26261389D02*
X5277919Y-26251865D01*
X5277919Y-26251865D02*
X5268396Y-26242341D01*
X5268396Y-26242341D02*
X5258872Y-26223293D01*
X5258872Y-26223293D02*
X5249348Y-26185198D01*
X5249348Y-26185198D02*
X5249348Y-26137579D01*
X5249348Y-26137579D02*
X5258872Y-26099484D01*
X5258872Y-26099484D02*
X5268396Y-26080436D01*
X5268396Y-26080436D02*
X5277919Y-26070913D01*
X5277919Y-26070913D02*
X5296967Y-26061389D01*
X5449348Y-26242341D02*
X5458872Y-26251865D01*
X5458872Y-26251865D02*
X5449348Y-26261389D01*
X5449348Y-26261389D02*
X5439824Y-26251865D01*
X5439824Y-26251865D02*
X5449348Y-26242341D01*
X5449348Y-26242341D02*
X5449348Y-26261389D01*
X5525539Y-26061389D02*
X5658872Y-26061389D01*
X5658872Y-26061389D02*
X5573158Y-26261389D01*
X5820777Y-26061389D02*
X5782681Y-26061389D01*
X5782681Y-26061389D02*
X5763634Y-26070913D01*
X5763634Y-26070913D02*
X5754110Y-26080436D01*
X5754110Y-26080436D02*
X5735062Y-26109008D01*
X5735062Y-26109008D02*
X5725538Y-26147103D01*
X5725538Y-26147103D02*
X5725538Y-26223293D01*
X5725538Y-26223293D02*
X5735062Y-26242341D01*
X5735062Y-26242341D02*
X5744586Y-26251865D01*
X5744586Y-26251865D02*
X5763634Y-26261389D01*
X5763634Y-26261389D02*
X5801729Y-26261389D01*
X5801729Y-26261389D02*
X5820777Y-26251865D01*
X5820777Y-26251865D02*
X5830300Y-26242341D01*
X5830300Y-26242341D02*
X5839824Y-26223293D01*
X5839824Y-26223293D02*
X5839824Y-26175674D01*
X5839824Y-26175674D02*
X5830300Y-26156627D01*
X5830300Y-26156627D02*
X5820777Y-26147103D01*
X5820777Y-26147103D02*
X5801729Y-26137579D01*
X5801729Y-26137579D02*
X5763634Y-26137579D01*
X5763634Y-26137579D02*
X5744586Y-26147103D01*
X5744586Y-26147103D02*
X5735062Y-26156627D01*
X5735062Y-26156627D02*
X5725538Y-26175674D01*
X5916015Y-26080436D02*
X5925538Y-26070913D01*
X5925538Y-26070913D02*
X5944586Y-26061389D01*
X5944586Y-26061389D02*
X5992205Y-26061389D01*
X5992205Y-26061389D02*
X6011253Y-26070913D01*
X6011253Y-26070913D02*
X6020777Y-26080436D01*
X6020777Y-26080436D02*
X6030300Y-26099484D01*
X6030300Y-26099484D02*
X6030300Y-26118532D01*
X6030300Y-26118532D02*
X6020777Y-26147103D01*
X6020777Y-26147103D02*
X5906491Y-26261389D01*
X5906491Y-26261389D02*
X6030300Y-26261389D01*
X6116015Y-26261389D02*
X6116015Y-26128055D01*
X6116015Y-26147103D02*
X6125538Y-26137579D01*
X6125538Y-26137579D02*
X6144586Y-26128055D01*
X6144586Y-26128055D02*
X6173158Y-26128055D01*
X6173158Y-26128055D02*
X6192205Y-26137579D01*
X6192205Y-26137579D02*
X6201729Y-26156627D01*
X6201729Y-26156627D02*
X6201729Y-26261389D01*
X6201729Y-26156627D02*
X6211253Y-26137579D01*
X6211253Y-26137579D02*
X6230300Y-26128055D01*
X6230300Y-26128055D02*
X6258872Y-26128055D01*
X6258872Y-26128055D02*
X6277919Y-26137579D01*
X6277919Y-26137579D02*
X6287443Y-26156627D01*
X6287443Y-26156627D02*
X6287443Y-26261389D01*
X6382681Y-26261389D02*
X6382681Y-26128055D01*
X6382681Y-26147103D02*
X6392205Y-26137579D01*
X6392205Y-26137579D02*
X6411253Y-26128055D01*
X6411253Y-26128055D02*
X6439824Y-26128055D01*
X6439824Y-26128055D02*
X6458872Y-26137579D01*
X6458872Y-26137579D02*
X6468396Y-26156627D01*
X6468396Y-26156627D02*
X6468396Y-26261389D01*
X6468396Y-26156627D02*
X6477919Y-26137579D01*
X6477919Y-26137579D02*
X6496967Y-26128055D01*
X6496967Y-26128055D02*
X6525538Y-26128055D01*
X6525538Y-26128055D02*
X6544586Y-26137579D01*
X6544586Y-26137579D02*
X6554110Y-26156627D01*
X6554110Y-26156627D02*
X6554110Y-26261389D01*
X6944586Y-26051865D02*
X6773158Y-26309008D01*
X7201729Y-26061389D02*
X7220777Y-26061389D01*
X7220777Y-26061389D02*
X7239824Y-26070913D01*
X7239824Y-26070913D02*
X7249348Y-26080436D01*
X7249348Y-26080436D02*
X7258872Y-26099484D01*
X7258872Y-26099484D02*
X7268396Y-26137579D01*
X7268396Y-26137579D02*
X7268396Y-26185198D01*
X7268396Y-26185198D02*
X7258872Y-26223293D01*
X7258872Y-26223293D02*
X7249348Y-26242341D01*
X7249348Y-26242341D02*
X7239824Y-26251865D01*
X7239824Y-26251865D02*
X7220777Y-26261389D01*
X7220777Y-26261389D02*
X7201729Y-26261389D01*
X7201729Y-26261389D02*
X7182681Y-26251865D01*
X7182681Y-26251865D02*
X7173158Y-26242341D01*
X7173158Y-26242341D02*
X7163634Y-26223293D01*
X7163634Y-26223293D02*
X7154110Y-26185198D01*
X7154110Y-26185198D02*
X7154110Y-26137579D01*
X7154110Y-26137579D02*
X7163634Y-26099484D01*
X7163634Y-26099484D02*
X7173158Y-26080436D01*
X7173158Y-26080436D02*
X7182681Y-26070913D01*
X7182681Y-26070913D02*
X7201729Y-26061389D01*
X7354110Y-26242341D02*
X7363634Y-26251865D01*
X7363634Y-26251865D02*
X7354110Y-26261389D01*
X7354110Y-26261389D02*
X7344586Y-26251865D01*
X7344586Y-26251865D02*
X7354110Y-26242341D01*
X7354110Y-26242341D02*
X7354110Y-26261389D01*
X7487443Y-26061389D02*
X7506491Y-26061389D01*
X7506491Y-26061389D02*
X7525539Y-26070913D01*
X7525539Y-26070913D02*
X7535062Y-26080436D01*
X7535062Y-26080436D02*
X7544586Y-26099484D01*
X7544586Y-26099484D02*
X7554110Y-26137579D01*
X7554110Y-26137579D02*
X7554110Y-26185198D01*
X7554110Y-26185198D02*
X7544586Y-26223293D01*
X7544586Y-26223293D02*
X7535062Y-26242341D01*
X7535062Y-26242341D02*
X7525539Y-26251865D01*
X7525539Y-26251865D02*
X7506491Y-26261389D01*
X7506491Y-26261389D02*
X7487443Y-26261389D01*
X7487443Y-26261389D02*
X7468396Y-26251865D01*
X7468396Y-26251865D02*
X7458872Y-26242341D01*
X7458872Y-26242341D02*
X7449348Y-26223293D01*
X7449348Y-26223293D02*
X7439824Y-26185198D01*
X7439824Y-26185198D02*
X7439824Y-26137579D01*
X7439824Y-26137579D02*
X7449348Y-26099484D01*
X7449348Y-26099484D02*
X7458872Y-26080436D01*
X7458872Y-26080436D02*
X7468396Y-26070913D01*
X7468396Y-26070913D02*
X7487443Y-26061389D01*
X7620777Y-26061389D02*
X7744586Y-26061389D01*
X7744586Y-26061389D02*
X7677920Y-26137579D01*
X7677920Y-26137579D02*
X7706491Y-26137579D01*
X7706491Y-26137579D02*
X7725539Y-26147103D01*
X7725539Y-26147103D02*
X7735062Y-26156627D01*
X7735062Y-26156627D02*
X7744586Y-26175674D01*
X7744586Y-26175674D02*
X7744586Y-26223293D01*
X7744586Y-26223293D02*
X7735062Y-26242341D01*
X7735062Y-26242341D02*
X7725539Y-26251865D01*
X7725539Y-26251865D02*
X7706491Y-26261389D01*
X7706491Y-26261389D02*
X7649348Y-26261389D01*
X7649348Y-26261389D02*
X7630301Y-26251865D01*
X7630301Y-26251865D02*
X7620777Y-26242341D01*
X7868396Y-26061389D02*
X7887443Y-26061389D01*
X7887443Y-26061389D02*
X7906491Y-26070913D01*
X7906491Y-26070913D02*
X7916015Y-26080436D01*
X7916015Y-26080436D02*
X7925539Y-26099484D01*
X7925539Y-26099484D02*
X7935062Y-26137579D01*
X7935062Y-26137579D02*
X7935062Y-26185198D01*
X7935062Y-26185198D02*
X7925539Y-26223293D01*
X7925539Y-26223293D02*
X7916015Y-26242341D01*
X7916015Y-26242341D02*
X7906491Y-26251865D01*
X7906491Y-26251865D02*
X7887443Y-26261389D01*
X7887443Y-26261389D02*
X7868396Y-26261389D01*
X7868396Y-26261389D02*
X7849348Y-26251865D01*
X7849348Y-26251865D02*
X7839824Y-26242341D01*
X7839824Y-26242341D02*
X7830301Y-26223293D01*
X7830301Y-26223293D02*
X7820777Y-26185198D01*
X7820777Y-26185198D02*
X7820777Y-26137579D01*
X7820777Y-26137579D02*
X7830301Y-26099484D01*
X7830301Y-26099484D02*
X7839824Y-26080436D01*
X7839824Y-26080436D02*
X7849348Y-26070913D01*
X7849348Y-26070913D02*
X7868396Y-26061389D01*
X8058872Y-26061389D02*
X8077920Y-26061389D01*
X8077920Y-26061389D02*
X8096967Y-26070913D01*
X8096967Y-26070913D02*
X8106491Y-26080436D01*
X8106491Y-26080436D02*
X8116015Y-26099484D01*
X8116015Y-26099484D02*
X8125539Y-26137579D01*
X8125539Y-26137579D02*
X8125539Y-26185198D01*
X8125539Y-26185198D02*
X8116015Y-26223293D01*
X8116015Y-26223293D02*
X8106491Y-26242341D01*
X8106491Y-26242341D02*
X8096967Y-26251865D01*
X8096967Y-26251865D02*
X8077920Y-26261389D01*
X8077920Y-26261389D02*
X8058872Y-26261389D01*
X8058872Y-26261389D02*
X8039824Y-26251865D01*
X8039824Y-26251865D02*
X8030301Y-26242341D01*
X8030301Y-26242341D02*
X8020777Y-26223293D01*
X8020777Y-26223293D02*
X8011253Y-26185198D01*
X8011253Y-26185198D02*
X8011253Y-26137579D01*
X8011253Y-26137579D02*
X8020777Y-26099484D01*
X8020777Y-26099484D02*
X8030301Y-26080436D01*
X8030301Y-26080436D02*
X8039824Y-26070913D01*
X8039824Y-26070913D02*
X8058872Y-26061389D01*
X8201729Y-26061389D02*
X8201729Y-26099484D01*
X8277920Y-26061389D02*
X8277920Y-26099484D01*
X8573158Y-26337579D02*
X8563634Y-26328055D01*
X8563634Y-26328055D02*
X8544586Y-26299484D01*
X8544586Y-26299484D02*
X8535063Y-26280436D01*
X8535063Y-26280436D02*
X8525539Y-26251865D01*
X8525539Y-26251865D02*
X8516015Y-26204246D01*
X8516015Y-26204246D02*
X8516015Y-26166151D01*
X8516015Y-26166151D02*
X8525539Y-26118532D01*
X8525539Y-26118532D02*
X8535063Y-26089960D01*
X8535063Y-26089960D02*
X8544586Y-26070913D01*
X8544586Y-26070913D02*
X8563634Y-26042341D01*
X8563634Y-26042341D02*
X8573158Y-26032817D01*
X8754110Y-26261389D02*
X8639825Y-26261389D01*
X8696967Y-26261389D02*
X8696967Y-26061389D01*
X8696967Y-26061389D02*
X8677920Y-26089960D01*
X8677920Y-26089960D02*
X8658872Y-26109008D01*
X8658872Y-26109008D02*
X8639825Y-26118532D01*
X8992206Y-26261389D02*
X8992206Y-26061389D01*
X9077920Y-26261389D02*
X9077920Y-26156627D01*
X9077920Y-26156627D02*
X9068396Y-26137579D01*
X9068396Y-26137579D02*
X9049348Y-26128055D01*
X9049348Y-26128055D02*
X9020777Y-26128055D01*
X9020777Y-26128055D02*
X9001729Y-26137579D01*
X9001729Y-26137579D02*
X8992206Y-26147103D01*
X9201729Y-26261389D02*
X9182682Y-26251865D01*
X9182682Y-26251865D02*
X9173158Y-26242341D01*
X9173158Y-26242341D02*
X9163634Y-26223293D01*
X9163634Y-26223293D02*
X9163634Y-26166151D01*
X9163634Y-26166151D02*
X9173158Y-26147103D01*
X9173158Y-26147103D02*
X9182682Y-26137579D01*
X9182682Y-26137579D02*
X9201729Y-26128055D01*
X9201729Y-26128055D02*
X9230301Y-26128055D01*
X9230301Y-26128055D02*
X9249348Y-26137579D01*
X9249348Y-26137579D02*
X9258872Y-26147103D01*
X9258872Y-26147103D02*
X9268396Y-26166151D01*
X9268396Y-26166151D02*
X9268396Y-26223293D01*
X9268396Y-26223293D02*
X9258872Y-26242341D01*
X9258872Y-26242341D02*
X9249348Y-26251865D01*
X9249348Y-26251865D02*
X9230301Y-26261389D01*
X9230301Y-26261389D02*
X9201729Y-26261389D01*
X9382682Y-26261389D02*
X9363634Y-26251865D01*
X9363634Y-26251865D02*
X9354110Y-26232817D01*
X9354110Y-26232817D02*
X9354110Y-26061389D01*
X9535063Y-26251865D02*
X9516015Y-26261389D01*
X9516015Y-26261389D02*
X9477920Y-26261389D01*
X9477920Y-26261389D02*
X9458872Y-26251865D01*
X9458872Y-26251865D02*
X9449348Y-26232817D01*
X9449348Y-26232817D02*
X9449348Y-26156627D01*
X9449348Y-26156627D02*
X9458872Y-26137579D01*
X9458872Y-26137579D02*
X9477920Y-26128055D01*
X9477920Y-26128055D02*
X9516015Y-26128055D01*
X9516015Y-26128055D02*
X9535063Y-26137579D01*
X9535063Y-26137579D02*
X9544587Y-26156627D01*
X9544587Y-26156627D02*
X9544587Y-26175674D01*
X9544587Y-26175674D02*
X9449348Y-26194722D01*
X9611253Y-26337579D02*
X9620777Y-26328055D01*
X9620777Y-26328055D02*
X9639825Y-26299484D01*
X9639825Y-26299484D02*
X9649348Y-26280436D01*
X9649348Y-26280436D02*
X9658872Y-26251865D01*
X9658872Y-26251865D02*
X9668396Y-26204246D01*
X9668396Y-26204246D02*
X9668396Y-26166151D01*
X9668396Y-26166151D02*
X9658872Y-26118532D01*
X9658872Y-26118532D02*
X9649348Y-26089960D01*
X9649348Y-26089960D02*
X9639825Y-26070913D01*
X9639825Y-26070913D02*
X9620777Y-26042341D01*
X9620777Y-26042341D02*
X9611253Y-26032817D01*
D12*
X4986380Y-26462189D02*
X4986380Y-26405620D01*
X4929811Y-26405620D01*
X4929811Y-26462189D01*
X4986380Y-26462189D01*
D11*
X5296967Y-26325389D02*
X5316015Y-26325389D01*
X5316015Y-26325389D02*
X5335062Y-26334913D01*
X5335062Y-26334913D02*
X5344586Y-26344436D01*
X5344586Y-26344436D02*
X5354110Y-26363484D01*
X5354110Y-26363484D02*
X5363634Y-26401579D01*
X5363634Y-26401579D02*
X5363634Y-26449198D01*
X5363634Y-26449198D02*
X5354110Y-26487293D01*
X5354110Y-26487293D02*
X5344586Y-26506341D01*
X5344586Y-26506341D02*
X5335062Y-26515865D01*
X5335062Y-26515865D02*
X5316015Y-26525389D01*
X5316015Y-26525389D02*
X5296967Y-26525389D01*
X5296967Y-26525389D02*
X5277919Y-26515865D01*
X5277919Y-26515865D02*
X5268396Y-26506341D01*
X5268396Y-26506341D02*
X5258872Y-26487293D01*
X5258872Y-26487293D02*
X5249348Y-26449198D01*
X5249348Y-26449198D02*
X5249348Y-26401579D01*
X5249348Y-26401579D02*
X5258872Y-26363484D01*
X5258872Y-26363484D02*
X5268396Y-26344436D01*
X5268396Y-26344436D02*
X5277919Y-26334913D01*
X5277919Y-26334913D02*
X5296967Y-26325389D01*
X5449348Y-26506341D02*
X5458872Y-26515865D01*
X5458872Y-26515865D02*
X5449348Y-26525389D01*
X5449348Y-26525389D02*
X5439824Y-26515865D01*
X5439824Y-26515865D02*
X5449348Y-26506341D01*
X5449348Y-26506341D02*
X5449348Y-26525389D01*
X5573158Y-26411103D02*
X5554110Y-26401579D01*
X5554110Y-26401579D02*
X5544586Y-26392055D01*
X5544586Y-26392055D02*
X5535062Y-26373008D01*
X5535062Y-26373008D02*
X5535062Y-26363484D01*
X5535062Y-26363484D02*
X5544586Y-26344436D01*
X5544586Y-26344436D02*
X5554110Y-26334913D01*
X5554110Y-26334913D02*
X5573158Y-26325389D01*
X5573158Y-26325389D02*
X5611253Y-26325389D01*
X5611253Y-26325389D02*
X5630300Y-26334913D01*
X5630300Y-26334913D02*
X5639824Y-26344436D01*
X5639824Y-26344436D02*
X5649348Y-26363484D01*
X5649348Y-26363484D02*
X5649348Y-26373008D01*
X5649348Y-26373008D02*
X5639824Y-26392055D01*
X5639824Y-26392055D02*
X5630300Y-26401579D01*
X5630300Y-26401579D02*
X5611253Y-26411103D01*
X5611253Y-26411103D02*
X5573158Y-26411103D01*
X5573158Y-26411103D02*
X5554110Y-26420627D01*
X5554110Y-26420627D02*
X5544586Y-26430151D01*
X5544586Y-26430151D02*
X5535062Y-26449198D01*
X5535062Y-26449198D02*
X5535062Y-26487293D01*
X5535062Y-26487293D02*
X5544586Y-26506341D01*
X5544586Y-26506341D02*
X5554110Y-26515865D01*
X5554110Y-26515865D02*
X5573158Y-26525389D01*
X5573158Y-26525389D02*
X5611253Y-26525389D01*
X5611253Y-26525389D02*
X5630300Y-26515865D01*
X5630300Y-26515865D02*
X5639824Y-26506341D01*
X5639824Y-26506341D02*
X5649348Y-26487293D01*
X5649348Y-26487293D02*
X5649348Y-26449198D01*
X5649348Y-26449198D02*
X5639824Y-26430151D01*
X5639824Y-26430151D02*
X5630300Y-26420627D01*
X5630300Y-26420627D02*
X5611253Y-26411103D01*
X5773157Y-26325389D02*
X5792205Y-26325389D01*
X5792205Y-26325389D02*
X5811253Y-26334913D01*
X5811253Y-26334913D02*
X5820777Y-26344436D01*
X5820777Y-26344436D02*
X5830300Y-26363484D01*
X5830300Y-26363484D02*
X5839824Y-26401579D01*
X5839824Y-26401579D02*
X5839824Y-26449198D01*
X5839824Y-26449198D02*
X5830300Y-26487293D01*
X5830300Y-26487293D02*
X5820777Y-26506341D01*
X5820777Y-26506341D02*
X5811253Y-26515865D01*
X5811253Y-26515865D02*
X5792205Y-26525389D01*
X5792205Y-26525389D02*
X5773157Y-26525389D01*
X5773157Y-26525389D02*
X5754110Y-26515865D01*
X5754110Y-26515865D02*
X5744586Y-26506341D01*
X5744586Y-26506341D02*
X5735062Y-26487293D01*
X5735062Y-26487293D02*
X5725538Y-26449198D01*
X5725538Y-26449198D02*
X5725538Y-26401579D01*
X5725538Y-26401579D02*
X5735062Y-26363484D01*
X5735062Y-26363484D02*
X5744586Y-26344436D01*
X5744586Y-26344436D02*
X5754110Y-26334913D01*
X5754110Y-26334913D02*
X5773157Y-26325389D01*
X5963634Y-26325389D02*
X5982681Y-26325389D01*
X5982681Y-26325389D02*
X6001729Y-26334913D01*
X6001729Y-26334913D02*
X6011253Y-26344436D01*
X6011253Y-26344436D02*
X6020777Y-26363484D01*
X6020777Y-26363484D02*
X6030300Y-26401579D01*
X6030300Y-26401579D02*
X6030300Y-26449198D01*
X6030300Y-26449198D02*
X6020777Y-26487293D01*
X6020777Y-26487293D02*
X6011253Y-26506341D01*
X6011253Y-26506341D02*
X6001729Y-26515865D01*
X6001729Y-26515865D02*
X5982681Y-26525389D01*
X5982681Y-26525389D02*
X5963634Y-26525389D01*
X5963634Y-26525389D02*
X5944586Y-26515865D01*
X5944586Y-26515865D02*
X5935062Y-26506341D01*
X5935062Y-26506341D02*
X5925538Y-26487293D01*
X5925538Y-26487293D02*
X5916015Y-26449198D01*
X5916015Y-26449198D02*
X5916015Y-26401579D01*
X5916015Y-26401579D02*
X5925538Y-26363484D01*
X5925538Y-26363484D02*
X5935062Y-26344436D01*
X5935062Y-26344436D02*
X5944586Y-26334913D01*
X5944586Y-26334913D02*
X5963634Y-26325389D01*
X6116015Y-26525389D02*
X6116015Y-26392055D01*
X6116015Y-26411103D02*
X6125538Y-26401579D01*
X6125538Y-26401579D02*
X6144586Y-26392055D01*
X6144586Y-26392055D02*
X6173158Y-26392055D01*
X6173158Y-26392055D02*
X6192205Y-26401579D01*
X6192205Y-26401579D02*
X6201729Y-26420627D01*
X6201729Y-26420627D02*
X6201729Y-26525389D01*
X6201729Y-26420627D02*
X6211253Y-26401579D01*
X6211253Y-26401579D02*
X6230300Y-26392055D01*
X6230300Y-26392055D02*
X6258872Y-26392055D01*
X6258872Y-26392055D02*
X6277919Y-26401579D01*
X6277919Y-26401579D02*
X6287443Y-26420627D01*
X6287443Y-26420627D02*
X6287443Y-26525389D01*
X6382681Y-26525389D02*
X6382681Y-26392055D01*
X6382681Y-26411103D02*
X6392205Y-26401579D01*
X6392205Y-26401579D02*
X6411253Y-26392055D01*
X6411253Y-26392055D02*
X6439824Y-26392055D01*
X6439824Y-26392055D02*
X6458872Y-26401579D01*
X6458872Y-26401579D02*
X6468396Y-26420627D01*
X6468396Y-26420627D02*
X6468396Y-26525389D01*
X6468396Y-26420627D02*
X6477919Y-26401579D01*
X6477919Y-26401579D02*
X6496967Y-26392055D01*
X6496967Y-26392055D02*
X6525538Y-26392055D01*
X6525538Y-26392055D02*
X6544586Y-26401579D01*
X6544586Y-26401579D02*
X6554110Y-26420627D01*
X6554110Y-26420627D02*
X6554110Y-26525389D01*
X6944586Y-26315865D02*
X6773158Y-26573008D01*
X7201729Y-26325389D02*
X7220777Y-26325389D01*
X7220777Y-26325389D02*
X7239824Y-26334913D01*
X7239824Y-26334913D02*
X7249348Y-26344436D01*
X7249348Y-26344436D02*
X7258872Y-26363484D01*
X7258872Y-26363484D02*
X7268396Y-26401579D01*
X7268396Y-26401579D02*
X7268396Y-26449198D01*
X7268396Y-26449198D02*
X7258872Y-26487293D01*
X7258872Y-26487293D02*
X7249348Y-26506341D01*
X7249348Y-26506341D02*
X7239824Y-26515865D01*
X7239824Y-26515865D02*
X7220777Y-26525389D01*
X7220777Y-26525389D02*
X7201729Y-26525389D01*
X7201729Y-26525389D02*
X7182681Y-26515865D01*
X7182681Y-26515865D02*
X7173158Y-26506341D01*
X7173158Y-26506341D02*
X7163634Y-26487293D01*
X7163634Y-26487293D02*
X7154110Y-26449198D01*
X7154110Y-26449198D02*
X7154110Y-26401579D01*
X7154110Y-26401579D02*
X7163634Y-26363484D01*
X7163634Y-26363484D02*
X7173158Y-26344436D01*
X7173158Y-26344436D02*
X7182681Y-26334913D01*
X7182681Y-26334913D02*
X7201729Y-26325389D01*
X7354110Y-26506341D02*
X7363634Y-26515865D01*
X7363634Y-26515865D02*
X7354110Y-26525389D01*
X7354110Y-26525389D02*
X7344586Y-26515865D01*
X7344586Y-26515865D02*
X7354110Y-26506341D01*
X7354110Y-26506341D02*
X7354110Y-26525389D01*
X7487443Y-26325389D02*
X7506491Y-26325389D01*
X7506491Y-26325389D02*
X7525539Y-26334913D01*
X7525539Y-26334913D02*
X7535062Y-26344436D01*
X7535062Y-26344436D02*
X7544586Y-26363484D01*
X7544586Y-26363484D02*
X7554110Y-26401579D01*
X7554110Y-26401579D02*
X7554110Y-26449198D01*
X7554110Y-26449198D02*
X7544586Y-26487293D01*
X7544586Y-26487293D02*
X7535062Y-26506341D01*
X7535062Y-26506341D02*
X7525539Y-26515865D01*
X7525539Y-26515865D02*
X7506491Y-26525389D01*
X7506491Y-26525389D02*
X7487443Y-26525389D01*
X7487443Y-26525389D02*
X7468396Y-26515865D01*
X7468396Y-26515865D02*
X7458872Y-26506341D01*
X7458872Y-26506341D02*
X7449348Y-26487293D01*
X7449348Y-26487293D02*
X7439824Y-26449198D01*
X7439824Y-26449198D02*
X7439824Y-26401579D01*
X7439824Y-26401579D02*
X7449348Y-26363484D01*
X7449348Y-26363484D02*
X7458872Y-26344436D01*
X7458872Y-26344436D02*
X7468396Y-26334913D01*
X7468396Y-26334913D02*
X7487443Y-26325389D01*
X7620777Y-26325389D02*
X7744586Y-26325389D01*
X7744586Y-26325389D02*
X7677920Y-26401579D01*
X7677920Y-26401579D02*
X7706491Y-26401579D01*
X7706491Y-26401579D02*
X7725539Y-26411103D01*
X7725539Y-26411103D02*
X7735062Y-26420627D01*
X7735062Y-26420627D02*
X7744586Y-26439674D01*
X7744586Y-26439674D02*
X7744586Y-26487293D01*
X7744586Y-26487293D02*
X7735062Y-26506341D01*
X7735062Y-26506341D02*
X7725539Y-26515865D01*
X7725539Y-26515865D02*
X7706491Y-26525389D01*
X7706491Y-26525389D02*
X7649348Y-26525389D01*
X7649348Y-26525389D02*
X7630301Y-26515865D01*
X7630301Y-26515865D02*
X7620777Y-26506341D01*
X7935062Y-26525389D02*
X7820777Y-26525389D01*
X7877920Y-26525389D02*
X7877920Y-26325389D01*
X7877920Y-26325389D02*
X7858872Y-26353960D01*
X7858872Y-26353960D02*
X7839824Y-26373008D01*
X7839824Y-26373008D02*
X7820777Y-26382532D01*
X8116015Y-26325389D02*
X8020777Y-26325389D01*
X8020777Y-26325389D02*
X8011253Y-26420627D01*
X8011253Y-26420627D02*
X8020777Y-26411103D01*
X8020777Y-26411103D02*
X8039824Y-26401579D01*
X8039824Y-26401579D02*
X8087443Y-26401579D01*
X8087443Y-26401579D02*
X8106491Y-26411103D01*
X8106491Y-26411103D02*
X8116015Y-26420627D01*
X8116015Y-26420627D02*
X8125539Y-26439674D01*
X8125539Y-26439674D02*
X8125539Y-26487293D01*
X8125539Y-26487293D02*
X8116015Y-26506341D01*
X8116015Y-26506341D02*
X8106491Y-26515865D01*
X8106491Y-26515865D02*
X8087443Y-26525389D01*
X8087443Y-26525389D02*
X8039824Y-26525389D01*
X8039824Y-26525389D02*
X8020777Y-26515865D01*
X8020777Y-26515865D02*
X8011253Y-26506341D01*
X8201729Y-26325389D02*
X8201729Y-26363484D01*
X8277920Y-26325389D02*
X8277920Y-26363484D01*
X8573158Y-26601579D02*
X8563634Y-26592055D01*
X8563634Y-26592055D02*
X8544586Y-26563484D01*
X8544586Y-26563484D02*
X8535063Y-26544436D01*
X8535063Y-26544436D02*
X8525539Y-26515865D01*
X8525539Y-26515865D02*
X8516015Y-26468246D01*
X8516015Y-26468246D02*
X8516015Y-26430151D01*
X8516015Y-26430151D02*
X8525539Y-26382532D01*
X8525539Y-26382532D02*
X8535063Y-26353960D01*
X8535063Y-26353960D02*
X8544586Y-26334913D01*
X8544586Y-26334913D02*
X8563634Y-26306341D01*
X8563634Y-26306341D02*
X8573158Y-26296817D01*
X8754110Y-26525389D02*
X8639825Y-26525389D01*
X8696967Y-26525389D02*
X8696967Y-26325389D01*
X8696967Y-26325389D02*
X8677920Y-26353960D01*
X8677920Y-26353960D02*
X8658872Y-26373008D01*
X8658872Y-26373008D02*
X8639825Y-26382532D01*
X8830301Y-26344436D02*
X8839825Y-26334913D01*
X8839825Y-26334913D02*
X8858872Y-26325389D01*
X8858872Y-26325389D02*
X8906491Y-26325389D01*
X8906491Y-26325389D02*
X8925539Y-26334913D01*
X8925539Y-26334913D02*
X8935063Y-26344436D01*
X8935063Y-26344436D02*
X8944586Y-26363484D01*
X8944586Y-26363484D02*
X8944586Y-26382532D01*
X8944586Y-26382532D02*
X8935063Y-26411103D01*
X8935063Y-26411103D02*
X8820777Y-26525389D01*
X8820777Y-26525389D02*
X8944586Y-26525389D01*
X9182682Y-26525389D02*
X9182682Y-26325389D01*
X9268396Y-26525389D02*
X9268396Y-26420627D01*
X9268396Y-26420627D02*
X9258872Y-26401579D01*
X9258872Y-26401579D02*
X9239825Y-26392055D01*
X9239825Y-26392055D02*
X9211253Y-26392055D01*
X9211253Y-26392055D02*
X9192206Y-26401579D01*
X9192206Y-26401579D02*
X9182682Y-26411103D01*
X9392206Y-26525389D02*
X9373158Y-26515865D01*
X9373158Y-26515865D02*
X9363634Y-26506341D01*
X9363634Y-26506341D02*
X9354110Y-26487293D01*
X9354110Y-26487293D02*
X9354110Y-26430151D01*
X9354110Y-26430151D02*
X9363634Y-26411103D01*
X9363634Y-26411103D02*
X9373158Y-26401579D01*
X9373158Y-26401579D02*
X9392206Y-26392055D01*
X9392206Y-26392055D02*
X9420777Y-26392055D01*
X9420777Y-26392055D02*
X9439825Y-26401579D01*
X9439825Y-26401579D02*
X9449348Y-26411103D01*
X9449348Y-26411103D02*
X9458872Y-26430151D01*
X9458872Y-26430151D02*
X9458872Y-26487293D01*
X9458872Y-26487293D02*
X9449348Y-26506341D01*
X9449348Y-26506341D02*
X9439825Y-26515865D01*
X9439825Y-26515865D02*
X9420777Y-26525389D01*
X9420777Y-26525389D02*
X9392206Y-26525389D01*
X9573158Y-26525389D02*
X9554110Y-26515865D01*
X9554110Y-26515865D02*
X9544587Y-26496817D01*
X9544587Y-26496817D02*
X9544587Y-26325389D01*
X9725539Y-26515865D02*
X9706491Y-26525389D01*
X9706491Y-26525389D02*
X9668396Y-26525389D01*
X9668396Y-26525389D02*
X9649348Y-26515865D01*
X9649348Y-26515865D02*
X9639825Y-26496817D01*
X9639825Y-26496817D02*
X9639825Y-26420627D01*
X9639825Y-26420627D02*
X9649348Y-26401579D01*
X9649348Y-26401579D02*
X9668396Y-26392055D01*
X9668396Y-26392055D02*
X9706491Y-26392055D01*
X9706491Y-26392055D02*
X9725539Y-26401579D01*
X9725539Y-26401579D02*
X9735063Y-26420627D01*
X9735063Y-26420627D02*
X9735063Y-26439674D01*
X9735063Y-26439674D02*
X9639825Y-26458722D01*
X9811253Y-26515865D02*
X9830301Y-26525389D01*
X9830301Y-26525389D02*
X9868396Y-26525389D01*
X9868396Y-26525389D02*
X9887444Y-26515865D01*
X9887444Y-26515865D02*
X9896968Y-26496817D01*
X9896968Y-26496817D02*
X9896968Y-26487293D01*
X9896968Y-26487293D02*
X9887444Y-26468246D01*
X9887444Y-26468246D02*
X9868396Y-26458722D01*
X9868396Y-26458722D02*
X9839825Y-26458722D01*
X9839825Y-26458722D02*
X9820777Y-26449198D01*
X9820777Y-26449198D02*
X9811253Y-26430151D01*
X9811253Y-26430151D02*
X9811253Y-26420627D01*
X9811253Y-26420627D02*
X9820777Y-26401579D01*
X9820777Y-26401579D02*
X9839825Y-26392055D01*
X9839825Y-26392055D02*
X9868396Y-26392055D01*
X9868396Y-26392055D02*
X9887444Y-26401579D01*
X9963634Y-26601579D02*
X9973158Y-26592055D01*
X9973158Y-26592055D02*
X9992206Y-26563484D01*
X9992206Y-26563484D02*
X10001729Y-26544436D01*
X10001729Y-26544436D02*
X10011253Y-26515865D01*
X10011253Y-26515865D02*
X10020777Y-26468246D01*
X10020777Y-26468246D02*
X10020777Y-26430151D01*
X10020777Y-26430151D02*
X10011253Y-26382532D01*
X10011253Y-26382532D02*
X10001729Y-26353960D01*
X10001729Y-26353960D02*
X9992206Y-26334913D01*
X9992206Y-26334913D02*
X9973158Y-26306341D01*
X9973158Y-26306341D02*
X9963634Y-26296817D01*
D12*
X4948095Y-26747905D02*
X4998095Y-26697905D01*
X4948095Y-26647905D01*
X4898095Y-26697905D01*
X4948095Y-26747905D01*
D11*
X5363634Y-26789389D02*
X5249348Y-26789389D01*
X5306491Y-26789389D02*
X5306491Y-26589389D01*
X5306491Y-26589389D02*
X5287443Y-26617960D01*
X5287443Y-26617960D02*
X5268396Y-26637008D01*
X5268396Y-26637008D02*
X5249348Y-26646532D01*
X5449348Y-26770341D02*
X5458872Y-26779865D01*
X5458872Y-26779865D02*
X5449348Y-26789389D01*
X5449348Y-26789389D02*
X5439824Y-26779865D01*
X5439824Y-26779865D02*
X5449348Y-26770341D01*
X5449348Y-26770341D02*
X5449348Y-26789389D01*
X5582681Y-26589389D02*
X5601729Y-26589389D01*
X5601729Y-26589389D02*
X5620777Y-26598913D01*
X5620777Y-26598913D02*
X5630300Y-26608436D01*
X5630300Y-26608436D02*
X5639824Y-26627484D01*
X5639824Y-26627484D02*
X5649348Y-26665579D01*
X5649348Y-26665579D02*
X5649348Y-26713198D01*
X5649348Y-26713198D02*
X5639824Y-26751293D01*
X5639824Y-26751293D02*
X5630300Y-26770341D01*
X5630300Y-26770341D02*
X5620777Y-26779865D01*
X5620777Y-26779865D02*
X5601729Y-26789389D01*
X5601729Y-26789389D02*
X5582681Y-26789389D01*
X5582681Y-26789389D02*
X5563634Y-26779865D01*
X5563634Y-26779865D02*
X5554110Y-26770341D01*
X5554110Y-26770341D02*
X5544586Y-26751293D01*
X5544586Y-26751293D02*
X5535062Y-26713198D01*
X5535062Y-26713198D02*
X5535062Y-26665579D01*
X5535062Y-26665579D02*
X5544586Y-26627484D01*
X5544586Y-26627484D02*
X5554110Y-26608436D01*
X5554110Y-26608436D02*
X5563634Y-26598913D01*
X5563634Y-26598913D02*
X5582681Y-26589389D01*
X5773157Y-26589389D02*
X5792205Y-26589389D01*
X5792205Y-26589389D02*
X5811253Y-26598913D01*
X5811253Y-26598913D02*
X5820777Y-26608436D01*
X5820777Y-26608436D02*
X5830300Y-26627484D01*
X5830300Y-26627484D02*
X5839824Y-26665579D01*
X5839824Y-26665579D02*
X5839824Y-26713198D01*
X5839824Y-26713198D02*
X5830300Y-26751293D01*
X5830300Y-26751293D02*
X5820777Y-26770341D01*
X5820777Y-26770341D02*
X5811253Y-26779865D01*
X5811253Y-26779865D02*
X5792205Y-26789389D01*
X5792205Y-26789389D02*
X5773157Y-26789389D01*
X5773157Y-26789389D02*
X5754110Y-26779865D01*
X5754110Y-26779865D02*
X5744586Y-26770341D01*
X5744586Y-26770341D02*
X5735062Y-26751293D01*
X5735062Y-26751293D02*
X5725538Y-26713198D01*
X5725538Y-26713198D02*
X5725538Y-26665579D01*
X5725538Y-26665579D02*
X5735062Y-26627484D01*
X5735062Y-26627484D02*
X5744586Y-26608436D01*
X5744586Y-26608436D02*
X5754110Y-26598913D01*
X5754110Y-26598913D02*
X5773157Y-26589389D01*
X5963634Y-26589389D02*
X5982681Y-26589389D01*
X5982681Y-26589389D02*
X6001729Y-26598913D01*
X6001729Y-26598913D02*
X6011253Y-26608436D01*
X6011253Y-26608436D02*
X6020777Y-26627484D01*
X6020777Y-26627484D02*
X6030300Y-26665579D01*
X6030300Y-26665579D02*
X6030300Y-26713198D01*
X6030300Y-26713198D02*
X6020777Y-26751293D01*
X6020777Y-26751293D02*
X6011253Y-26770341D01*
X6011253Y-26770341D02*
X6001729Y-26779865D01*
X6001729Y-26779865D02*
X5982681Y-26789389D01*
X5982681Y-26789389D02*
X5963634Y-26789389D01*
X5963634Y-26789389D02*
X5944586Y-26779865D01*
X5944586Y-26779865D02*
X5935062Y-26770341D01*
X5935062Y-26770341D02*
X5925538Y-26751293D01*
X5925538Y-26751293D02*
X5916015Y-26713198D01*
X5916015Y-26713198D02*
X5916015Y-26665579D01*
X5916015Y-26665579D02*
X5925538Y-26627484D01*
X5925538Y-26627484D02*
X5935062Y-26608436D01*
X5935062Y-26608436D02*
X5944586Y-26598913D01*
X5944586Y-26598913D02*
X5963634Y-26589389D01*
X6116015Y-26789389D02*
X6116015Y-26656055D01*
X6116015Y-26675103D02*
X6125538Y-26665579D01*
X6125538Y-26665579D02*
X6144586Y-26656055D01*
X6144586Y-26656055D02*
X6173158Y-26656055D01*
X6173158Y-26656055D02*
X6192205Y-26665579D01*
X6192205Y-26665579D02*
X6201729Y-26684627D01*
X6201729Y-26684627D02*
X6201729Y-26789389D01*
X6201729Y-26684627D02*
X6211253Y-26665579D01*
X6211253Y-26665579D02*
X6230300Y-26656055D01*
X6230300Y-26656055D02*
X6258872Y-26656055D01*
X6258872Y-26656055D02*
X6277919Y-26665579D01*
X6277919Y-26665579D02*
X6287443Y-26684627D01*
X6287443Y-26684627D02*
X6287443Y-26789389D01*
X6382681Y-26789389D02*
X6382681Y-26656055D01*
X6382681Y-26675103D02*
X6392205Y-26665579D01*
X6392205Y-26665579D02*
X6411253Y-26656055D01*
X6411253Y-26656055D02*
X6439824Y-26656055D01*
X6439824Y-26656055D02*
X6458872Y-26665579D01*
X6458872Y-26665579D02*
X6468396Y-26684627D01*
X6468396Y-26684627D02*
X6468396Y-26789389D01*
X6468396Y-26684627D02*
X6477919Y-26665579D01*
X6477919Y-26665579D02*
X6496967Y-26656055D01*
X6496967Y-26656055D02*
X6525538Y-26656055D01*
X6525538Y-26656055D02*
X6544586Y-26665579D01*
X6544586Y-26665579D02*
X6554110Y-26684627D01*
X6554110Y-26684627D02*
X6554110Y-26789389D01*
X6944586Y-26579865D02*
X6773158Y-26837008D01*
X7201729Y-26589389D02*
X7220777Y-26589389D01*
X7220777Y-26589389D02*
X7239824Y-26598913D01*
X7239824Y-26598913D02*
X7249348Y-26608436D01*
X7249348Y-26608436D02*
X7258872Y-26627484D01*
X7258872Y-26627484D02*
X7268396Y-26665579D01*
X7268396Y-26665579D02*
X7268396Y-26713198D01*
X7268396Y-26713198D02*
X7258872Y-26751293D01*
X7258872Y-26751293D02*
X7249348Y-26770341D01*
X7249348Y-26770341D02*
X7239824Y-26779865D01*
X7239824Y-26779865D02*
X7220777Y-26789389D01*
X7220777Y-26789389D02*
X7201729Y-26789389D01*
X7201729Y-26789389D02*
X7182681Y-26779865D01*
X7182681Y-26779865D02*
X7173158Y-26770341D01*
X7173158Y-26770341D02*
X7163634Y-26751293D01*
X7163634Y-26751293D02*
X7154110Y-26713198D01*
X7154110Y-26713198D02*
X7154110Y-26665579D01*
X7154110Y-26665579D02*
X7163634Y-26627484D01*
X7163634Y-26627484D02*
X7173158Y-26608436D01*
X7173158Y-26608436D02*
X7182681Y-26598913D01*
X7182681Y-26598913D02*
X7201729Y-26589389D01*
X7354110Y-26770341D02*
X7363634Y-26779865D01*
X7363634Y-26779865D02*
X7354110Y-26789389D01*
X7354110Y-26789389D02*
X7344586Y-26779865D01*
X7344586Y-26779865D02*
X7354110Y-26770341D01*
X7354110Y-26770341D02*
X7354110Y-26789389D01*
X7487443Y-26589389D02*
X7506491Y-26589389D01*
X7506491Y-26589389D02*
X7525539Y-26598913D01*
X7525539Y-26598913D02*
X7535062Y-26608436D01*
X7535062Y-26608436D02*
X7544586Y-26627484D01*
X7544586Y-26627484D02*
X7554110Y-26665579D01*
X7554110Y-26665579D02*
X7554110Y-26713198D01*
X7554110Y-26713198D02*
X7544586Y-26751293D01*
X7544586Y-26751293D02*
X7535062Y-26770341D01*
X7535062Y-26770341D02*
X7525539Y-26779865D01*
X7525539Y-26779865D02*
X7506491Y-26789389D01*
X7506491Y-26789389D02*
X7487443Y-26789389D01*
X7487443Y-26789389D02*
X7468396Y-26779865D01*
X7468396Y-26779865D02*
X7458872Y-26770341D01*
X7458872Y-26770341D02*
X7449348Y-26751293D01*
X7449348Y-26751293D02*
X7439824Y-26713198D01*
X7439824Y-26713198D02*
X7439824Y-26665579D01*
X7439824Y-26665579D02*
X7449348Y-26627484D01*
X7449348Y-26627484D02*
X7458872Y-26608436D01*
X7458872Y-26608436D02*
X7468396Y-26598913D01*
X7468396Y-26598913D02*
X7487443Y-26589389D01*
X7620777Y-26589389D02*
X7744586Y-26589389D01*
X7744586Y-26589389D02*
X7677920Y-26665579D01*
X7677920Y-26665579D02*
X7706491Y-26665579D01*
X7706491Y-26665579D02*
X7725539Y-26675103D01*
X7725539Y-26675103D02*
X7735062Y-26684627D01*
X7735062Y-26684627D02*
X7744586Y-26703674D01*
X7744586Y-26703674D02*
X7744586Y-26751293D01*
X7744586Y-26751293D02*
X7735062Y-26770341D01*
X7735062Y-26770341D02*
X7725539Y-26779865D01*
X7725539Y-26779865D02*
X7706491Y-26789389D01*
X7706491Y-26789389D02*
X7649348Y-26789389D01*
X7649348Y-26789389D02*
X7630301Y-26779865D01*
X7630301Y-26779865D02*
X7620777Y-26770341D01*
X7839824Y-26789389D02*
X7877920Y-26789389D01*
X7877920Y-26789389D02*
X7896967Y-26779865D01*
X7896967Y-26779865D02*
X7906491Y-26770341D01*
X7906491Y-26770341D02*
X7925539Y-26741770D01*
X7925539Y-26741770D02*
X7935062Y-26703674D01*
X7935062Y-26703674D02*
X7935062Y-26627484D01*
X7935062Y-26627484D02*
X7925539Y-26608436D01*
X7925539Y-26608436D02*
X7916015Y-26598913D01*
X7916015Y-26598913D02*
X7896967Y-26589389D01*
X7896967Y-26589389D02*
X7858872Y-26589389D01*
X7858872Y-26589389D02*
X7839824Y-26598913D01*
X7839824Y-26598913D02*
X7830301Y-26608436D01*
X7830301Y-26608436D02*
X7820777Y-26627484D01*
X7820777Y-26627484D02*
X7820777Y-26675103D01*
X7820777Y-26675103D02*
X7830301Y-26694151D01*
X7830301Y-26694151D02*
X7839824Y-26703674D01*
X7839824Y-26703674D02*
X7858872Y-26713198D01*
X7858872Y-26713198D02*
X7896967Y-26713198D01*
X7896967Y-26713198D02*
X7916015Y-26703674D01*
X7916015Y-26703674D02*
X7925539Y-26694151D01*
X7925539Y-26694151D02*
X7935062Y-26675103D01*
X8106491Y-26656055D02*
X8106491Y-26789389D01*
X8058872Y-26579865D02*
X8011253Y-26722722D01*
X8011253Y-26722722D02*
X8135062Y-26722722D01*
X8201729Y-26589389D02*
X8201729Y-26627484D01*
X8277920Y-26589389D02*
X8277920Y-26627484D01*
X8573158Y-26865579D02*
X8563634Y-26856055D01*
X8563634Y-26856055D02*
X8544586Y-26827484D01*
X8544586Y-26827484D02*
X8535063Y-26808436D01*
X8535063Y-26808436D02*
X8525539Y-26779865D01*
X8525539Y-26779865D02*
X8516015Y-26732246D01*
X8516015Y-26732246D02*
X8516015Y-26694151D01*
X8516015Y-26694151D02*
X8525539Y-26646532D01*
X8525539Y-26646532D02*
X8535063Y-26617960D01*
X8535063Y-26617960D02*
X8544586Y-26598913D01*
X8544586Y-26598913D02*
X8563634Y-26570341D01*
X8563634Y-26570341D02*
X8573158Y-26560817D01*
X8735063Y-26656055D02*
X8735063Y-26789389D01*
X8687444Y-26579865D02*
X8639825Y-26722722D01*
X8639825Y-26722722D02*
X8763634Y-26722722D01*
X8935063Y-26589389D02*
X8839825Y-26589389D01*
X8839825Y-26589389D02*
X8830301Y-26684627D01*
X8830301Y-26684627D02*
X8839825Y-26675103D01*
X8839825Y-26675103D02*
X8858872Y-26665579D01*
X8858872Y-26665579D02*
X8906491Y-26665579D01*
X8906491Y-26665579D02*
X8925539Y-26675103D01*
X8925539Y-26675103D02*
X8935063Y-26684627D01*
X8935063Y-26684627D02*
X8944586Y-26703674D01*
X8944586Y-26703674D02*
X8944586Y-26751293D01*
X8944586Y-26751293D02*
X8935063Y-26770341D01*
X8935063Y-26770341D02*
X8925539Y-26779865D01*
X8925539Y-26779865D02*
X8906491Y-26789389D01*
X8906491Y-26789389D02*
X8858872Y-26789389D01*
X8858872Y-26789389D02*
X8839825Y-26779865D01*
X8839825Y-26779865D02*
X8830301Y-26770341D01*
X9182682Y-26789389D02*
X9182682Y-26589389D01*
X9268396Y-26789389D02*
X9268396Y-26684627D01*
X9268396Y-26684627D02*
X9258872Y-26665579D01*
X9258872Y-26665579D02*
X9239825Y-26656055D01*
X9239825Y-26656055D02*
X9211253Y-26656055D01*
X9211253Y-26656055D02*
X9192206Y-26665579D01*
X9192206Y-26665579D02*
X9182682Y-26675103D01*
X9392206Y-26789389D02*
X9373158Y-26779865D01*
X9373158Y-26779865D02*
X9363634Y-26770341D01*
X9363634Y-26770341D02*
X9354110Y-26751293D01*
X9354110Y-26751293D02*
X9354110Y-26694151D01*
X9354110Y-26694151D02*
X9363634Y-26675103D01*
X9363634Y-26675103D02*
X9373158Y-26665579D01*
X9373158Y-26665579D02*
X9392206Y-26656055D01*
X9392206Y-26656055D02*
X9420777Y-26656055D01*
X9420777Y-26656055D02*
X9439825Y-26665579D01*
X9439825Y-26665579D02*
X9449348Y-26675103D01*
X9449348Y-26675103D02*
X9458872Y-26694151D01*
X9458872Y-26694151D02*
X9458872Y-26751293D01*
X9458872Y-26751293D02*
X9449348Y-26770341D01*
X9449348Y-26770341D02*
X9439825Y-26779865D01*
X9439825Y-26779865D02*
X9420777Y-26789389D01*
X9420777Y-26789389D02*
X9392206Y-26789389D01*
X9573158Y-26789389D02*
X9554110Y-26779865D01*
X9554110Y-26779865D02*
X9544587Y-26760817D01*
X9544587Y-26760817D02*
X9544587Y-26589389D01*
X9725539Y-26779865D02*
X9706491Y-26789389D01*
X9706491Y-26789389D02*
X9668396Y-26789389D01*
X9668396Y-26789389D02*
X9649348Y-26779865D01*
X9649348Y-26779865D02*
X9639825Y-26760817D01*
X9639825Y-26760817D02*
X9639825Y-26684627D01*
X9639825Y-26684627D02*
X9649348Y-26665579D01*
X9649348Y-26665579D02*
X9668396Y-26656055D01*
X9668396Y-26656055D02*
X9706491Y-26656055D01*
X9706491Y-26656055D02*
X9725539Y-26665579D01*
X9725539Y-26665579D02*
X9735063Y-26684627D01*
X9735063Y-26684627D02*
X9735063Y-26703674D01*
X9735063Y-26703674D02*
X9639825Y-26722722D01*
X9811253Y-26779865D02*
X9830301Y-26789389D01*
X9830301Y-26789389D02*
X9868396Y-26789389D01*
X9868396Y-26789389D02*
X9887444Y-26779865D01*
X9887444Y-26779865D02*
X9896968Y-26760817D01*
X9896968Y-26760817D02*
X9896968Y-26751293D01*
X9896968Y-26751293D02*
X9887444Y-26732246D01*
X9887444Y-26732246D02*
X9868396Y-26722722D01*
X9868396Y-26722722D02*
X9839825Y-26722722D01*
X9839825Y-26722722D02*
X9820777Y-26713198D01*
X9820777Y-26713198D02*
X9811253Y-26694151D01*
X9811253Y-26694151D02*
X9811253Y-26684627D01*
X9811253Y-26684627D02*
X9820777Y-26665579D01*
X9820777Y-26665579D02*
X9839825Y-26656055D01*
X9839825Y-26656055D02*
X9868396Y-26656055D01*
X9868396Y-26656055D02*
X9887444Y-26665579D01*
X9963634Y-26865579D02*
X9973158Y-26856055D01*
X9973158Y-26856055D02*
X9992206Y-26827484D01*
X9992206Y-26827484D02*
X10001729Y-26808436D01*
X10001729Y-26808436D02*
X10011253Y-26779865D01*
X10011253Y-26779865D02*
X10020777Y-26732246D01*
X10020777Y-26732246D02*
X10020777Y-26694151D01*
X10020777Y-26694151D02*
X10011253Y-26646532D01*
X10011253Y-26646532D02*
X10001729Y-26617960D01*
X10001729Y-26617960D02*
X9992206Y-26598913D01*
X9992206Y-26598913D02*
X9973158Y-26570341D01*
X9973158Y-26570341D02*
X9963634Y-26560817D01*
M02*
