M48
; DRILL file {KiCad 8.0.8} date 2025-02-06T21:03:54-0500
; FORMAT={-:-/ absolute / metric / decimal}
; #@! TF.CreationDate,2025-02-06T21:03:54-05:00
; #@! TF.GenerationSoftware,Kicad,Pcbnew,8.0.8
; #@! TF.FileFunction,Plated,1,2,PTH
FMAT,2
METRIC
; #@! TA.AperFunction,Plated,PTH,ViaDrill
T1C0.381
; #@! TA.AperFunction,Plated,PTH,ComponentDrill
T2C0.680
; #@! TA.AperFunction,Plated,PTH,ViaDrill
T3C0.762
; #@! TA.AperFunction,Plated,PTH,ComponentDrill
T4C0.800
; #@! TA.AperFunction,Plated,PTH,ComponentDrill
T5C1.000
%
G90
G05
T1
X140.75Y-81.75
X140.75Y-100.5
X140.75Y-132.5
X140.75Y-182.0
X140.75Y-232.0
X141.75Y-80.5
X141.75Y-99.0
X141.75Y-131.25
X141.75Y-180.75
X141.75Y-230.75
X142.75Y-79.25
X142.75Y-101.75
X142.75Y-130.0
X142.75Y-179.5
X142.75Y-229.5
X157.25Y-79.25
X157.25Y-96.5
X157.25Y-129.75
X157.25Y-179.25
X157.25Y-229.25
X158.5Y-80.5
X158.5Y-97.75
X158.5Y-131.0
X158.5Y-180.5
X158.5Y-230.5
X216.75Y-95.25
X233.25Y-98.0
X238.72Y-74.84
X239.3Y-103.6
X241.5Y-101.4
T2
X61.2Y-69.2
X61.2Y-94.2
X61.2Y-119.2
X61.2Y-144.2
X61.2Y-169.196
X61.2Y-194.2
X61.2Y-219.196
X61.2Y-244.196
X62.5Y-69.2
X62.5Y-94.2
X62.5Y-119.2
X62.5Y-144.2
X62.5Y-169.196
X62.5Y-194.2
X62.5Y-219.196
X62.5Y-244.196
X63.8Y-69.2
X63.8Y-94.2
X63.8Y-119.2
X63.8Y-144.2
X63.8Y-169.196
X63.8Y-194.2
X63.8Y-219.196
X63.8Y-244.196
X86.2Y-69.2
X86.2Y-94.2
X86.2Y-119.2
X86.2Y-144.2
X86.2Y-169.196
X86.2Y-194.196
X86.2Y-219.2
X86.2Y-244.196
X87.5Y-69.2
X87.5Y-94.2
X87.5Y-119.2
X87.5Y-144.2
X87.5Y-169.196
X87.5Y-194.196
X87.5Y-219.2
X87.5Y-244.196
X88.8Y-69.2
X88.8Y-94.2
X88.8Y-119.2
X88.8Y-144.2
X88.8Y-169.196
X88.8Y-194.196
X88.8Y-219.2
X88.8Y-244.196
X111.2Y-69.2
X111.2Y-94.2
X111.2Y-119.2
X111.2Y-144.2
X111.2Y-169.196
X111.2Y-194.2
X111.2Y-219.2
X111.2Y-244.2
X112.5Y-69.2
X112.5Y-94.2
X112.5Y-119.2
X112.5Y-144.2
X112.5Y-169.196
X112.5Y-194.2
X112.5Y-219.2
X112.5Y-244.2
X113.8Y-69.2
X113.8Y-94.2
X113.8Y-119.2
X113.8Y-144.2
X113.8Y-169.196
X113.8Y-194.2
X113.8Y-219.2
X113.8Y-244.2
X136.2Y-69.2
X136.2Y-94.2
X136.2Y-119.2
X136.2Y-144.2
X136.2Y-169.2
X136.2Y-194.2
X136.2Y-219.2
X136.2Y-244.196
X137.5Y-69.2
X137.5Y-94.2
X137.5Y-119.2
X137.5Y-144.2
X137.5Y-169.2
X137.5Y-194.2
X137.5Y-219.2
X137.5Y-244.196
X138.8Y-69.2
X138.8Y-94.2
X138.8Y-119.2
X138.8Y-144.2
X138.8Y-169.2
X138.8Y-194.2
X138.8Y-219.2
X138.8Y-244.196
X161.2Y-69.2
X161.2Y-94.2
X161.2Y-119.2
X161.2Y-144.2
X161.2Y-169.2
X161.2Y-194.2
X161.2Y-219.2
X161.2Y-244.2
X162.5Y-69.2
X162.5Y-94.2
X162.5Y-119.2
X162.5Y-144.2
X162.5Y-169.2
X162.5Y-194.2
X162.5Y-219.2
X162.5Y-244.2
X163.8Y-69.2
X163.8Y-94.2
X163.8Y-119.2
X163.8Y-144.2
X163.8Y-169.2
X163.8Y-194.2
X163.8Y-219.2
X163.8Y-244.2
X186.2Y-69.2
X186.2Y-94.2
X186.2Y-119.2
X186.2Y-144.2
X186.2Y-169.2
X186.2Y-194.2
X186.2Y-219.2
X186.2Y-244.2
X187.5Y-69.2
X187.5Y-94.2
X187.5Y-119.2
X187.5Y-144.2
X187.5Y-169.2
X187.5Y-194.2
X187.5Y-219.2
X187.5Y-244.2
X188.8Y-69.2
X188.8Y-94.2
X188.8Y-119.2
X188.8Y-144.2
X188.8Y-169.2
X188.8Y-194.2
X188.8Y-219.2
X188.8Y-244.2
X211.2Y-69.2
X211.2Y-94.2
X211.2Y-119.2
X211.2Y-144.2
X211.2Y-169.2
X211.2Y-194.2
X211.2Y-219.2
X211.2Y-244.2
X212.5Y-69.2
X212.5Y-94.2
X212.5Y-119.2
X212.5Y-144.2
X212.5Y-169.2
X212.5Y-194.2
X212.5Y-219.2
X212.5Y-244.2
X213.8Y-69.2
X213.8Y-94.2
X213.8Y-119.2
X213.8Y-144.2
X213.8Y-169.2
X213.8Y-194.2
X213.8Y-219.2
X213.8Y-244.2
X236.2Y-69.2
X236.2Y-94.2
X236.2Y-119.2
X236.2Y-144.2
X236.2Y-169.2
X236.2Y-194.2
X236.2Y-219.2
X236.2Y-244.2
X237.5Y-69.2
X237.5Y-94.2
X237.5Y-119.2
X237.5Y-144.2
X237.5Y-169.2
X237.5Y-194.2
X237.5Y-219.2
X237.5Y-244.2
X238.8Y-69.2
X238.8Y-94.2
X238.8Y-119.2
X238.8Y-144.2
X238.8Y-169.2
X238.8Y-194.2
X238.8Y-219.2
X238.8Y-244.2
T3
X241.1Y-64.7
T4
X145.55Y-63.6
X145.55Y-114.2
X145.55Y-163.6
X145.55Y-213.6
X148.05Y-63.6
X148.05Y-114.2
X148.05Y-163.6
X148.05Y-213.6
X245.0Y-77.92
X245.0Y-88.08
X245.0Y-92.92
X245.0Y-103.08
T5
X127.4Y-62.9
X131.6Y-62.9
X132.25Y-104.0
X132.25Y-109.0
X132.25Y-114.0
X132.25Y-119.0
X146.9Y-105.0
X217.25Y-57.06
X217.25Y-59.6
X217.25Y-62.14
X217.25Y-64.68
X217.25Y-67.22
X217.25Y-69.76
X217.25Y-72.3
X217.25Y-74.84
X217.25Y-77.38
X217.25Y-79.92
X217.25Y-82.46
X217.25Y-85.0
X217.25Y-87.54
X217.25Y-90.08
X217.25Y-92.62
X223.0Y-105.5
X223.0Y-110.75
X223.0Y-115.7
X223.0Y-120.7
X232.49Y-57.06
X232.49Y-59.6
X232.49Y-62.14
X232.49Y-64.68
X232.49Y-67.22
X232.49Y-69.76
X232.49Y-72.3
X232.49Y-74.84
X232.49Y-77.38
X232.49Y-79.92
X232.49Y-82.46
X232.49Y-85.0
X232.49Y-87.54
X232.49Y-90.08
X232.49Y-92.62
X248.2Y-60.28
X248.2Y-62.82
X248.2Y-65.36
X248.2Y-67.9
M30
